<?xml version="1.0" encoding="UTF-8"?>
<svg id="Layer_1" data-name="Layer 1" xmlns="http://www.w3.org/2000/svg" viewBox="0 0 720 720">
  <defs>
    <style>
      .cls-1 {
        fill: #fbf6e6;
      }
    </style>
  </defs>
  <g>
    <g>
      <path class="cls-1" d="M215.86,482.72h6.6l15.55,32.26h-5.49l-4.22-8.84h-18.8l-4.22,8.84h-5.08l15.65-32.26ZM226.43,502.13l-7.52-15.75-7.47,15.75h14.99Z"/>
      <path class="cls-1" d="M256.81,482.72h4.98v28.15h19.15v4.12h-24.13v-32.26Z"/>
      <path class="cls-1" d="M299.33,482.72h15.29c11.64,0,19.76,6.66,19.76,16.16s-8.13,16.1-19.76,16.1h-15.29v-32.26ZM329.36,498.88c0-7.37-5.69-12.04-14.73-12.04h-10.31v23.98h10.31c9.09,0,14.73-4.52,14.73-11.94Z"/>
      <path class="cls-1" d="M349.83,498.83c0-9.55,8.33-16.82,20.12-16.82s20.22,7.26,20.22,16.82-8.38,16.87-20.22,16.87-20.12-7.37-20.12-16.87ZM385.14,498.83c0-7.57-6.15-12.65-15.19-12.65s-15.09,5.13-15.09,12.65,6.15,12.65,15.19,12.65,15.09-5.03,15.09-12.65Z"/>
      <path class="cls-1" d="M403.94,482.72h5.49l12.75,27.94,13.21-27.94h5.08l-15.39,32.26h-6.1l-15.04-32.26Z"/>
      <path class="cls-1" d="M459.27,482.72h4.98v32.26h-4.98v-32.26Z"/>
      <path class="cls-1" d="M497.63,482.72h6.6l15.55,32.26h-5.49l-4.22-8.84h-18.8l-4.22,8.84h-5.08l15.65-32.26ZM508.19,502.13l-7.52-15.75-7.47,15.75h14.99Z"/>
    </g>
    <g>
      <path class="cls-1" d="M341.48,540.06c0-3.11,2.74-5.4,6.53-5.4,2.96,0,5.19,1.47,5.79,3.71l-1.93.13c-.53-1.37-2.1-2.16-3.93-2.16-2.68,0-4.45,1.52-4.45,3.72s1.77,3.72,4.45,3.72c1.87,0,3.43-.82,3.95-2.18l1.93.22c-.68,2.21-2.89,3.63-5.8,3.63-3.79,0-6.53-2.29-6.53-5.4Z"/>
      <path class="cls-1" d="M361.62,540.06c0-3.05,2.68-5.4,6.51-5.4s6.53,2.35,6.53,5.4-2.68,5.4-6.53,5.4-6.51-2.37-6.51-5.4ZM372.66,540.06c0-2.26-1.76-3.72-4.53-3.72s-4.51,1.47-4.51,3.72,1.77,3.72,4.53,3.72,4.51-1.47,4.51-3.72Z"/>
      <path class="cls-1" d="M383.54,534.9h2.05l6.35,7.59v-7.59h1.98v10.32h-2.06l-6.33-7.59v7.59h-1.98v-10.32Z"/>
      <path class="cls-1" d="M402.13,534.9h2.19l3.84,8.53,4.01-8.53h2.03l-4.92,10.32h-2.42l-4.74-10.32Z"/>
      <path class="cls-1" d="M422.4,534.9h8.38v1.64h-6.4v2.66h5.59v1.61h-5.59v2.76h6.4v1.64h-8.38v-10.32Z"/>
      <path class="cls-1" d="M439.45,534.9h2.05l6.35,7.59v-7.59h1.98v10.32h-2.06l-6.33-7.59v7.59h-1.98v-10.32Z"/>
      <path class="cls-1" d="M462.02,536.55h-3.88v-1.64h9.75v1.64h-3.88v8.67h-1.98v-8.67Z"/>
      <path class="cls-1" d="M476.18,534.9h1.98v10.32h-1.98v-10.32Z"/>
      <path class="cls-1" d="M487.05,540.06c0-3.05,2.68-5.4,6.51-5.4s6.53,2.35,6.53,5.4-2.68,5.4-6.53,5.4-6.51-2.37-6.51-5.4ZM498.09,540.06c0-2.26-1.76-3.72-4.53-3.72s-4.51,1.47-4.51,3.72,1.77,3.72,4.53,3.72,4.51-1.47,4.51-3.72Z"/>
      <path class="cls-1" d="M508.97,534.9h2.05l6.35,7.59v-7.59h1.98v10.32h-2.06l-6.33-7.59v7.59h-1.98v-10.32Z"/>
      <path class="cls-1" d="M200.74,534.69h4.8c2.23,0,4.01,1.18,4.01,3.05,0,1.48-1.11,2.53-2.68,2.9l3.55,4.37h-2.47l-3.3-4.22h-1.93v4.22h-1.98v-10.32ZM207.57,537.77c0-.95-.69-1.5-2.06-1.5h-2.79v2.97h2.79c1.39,0,2.06-.52,2.06-1.47Z"/>
      <path class="cls-1" d="M218.9,534.69h8.38v1.64h-6.4v2.66h5.59v1.61h-5.59v2.76h6.4v1.64h-8.38v-10.32Z"/>
      <path class="cls-1" d="M235.15,541.85l1.82-.13c.08,1.18,1.19,1.85,3.06,1.85,1.6,0,2.47-.55,2.47-1.4,0-.74-.44-1.19-1.74-1.39l-2.13-.32c-2.05-.31-3.17-1.35-3.17-2.93,0-1.89,1.68-3.08,4.3-3.08s4.24,1.19,4.42,3.16l-1.82.13c-.08-1-1.11-1.61-2.72-1.61-1.42,0-2.24.48-2.24,1.27,0,.71.55,1.11,1.69,1.29l2.11.34c2.14.34,3.26,1.4,3.26,3.06,0,2.01-1.66,3.16-4.56,3.16s-4.46-1.15-4.74-3.4Z"/>
      <path class="cls-1" d="M251.51,539.85c0-3.05,2.68-5.4,6.51-5.4s6.53,2.35,6.53,5.4-2.68,5.4-6.53,5.4-6.51-2.37-6.51-5.4ZM262.55,539.85c0-2.26-1.76-3.72-4.53-3.72s-4.51,1.47-4.51,3.72,1.77,3.72,4.53,3.72,4.51-1.47,4.51-3.72Z"/>
      <path class="cls-1" d="M271.49,534.69h4.8c2.23,0,4.01,1.18,4.01,3.05,0,1.48-1.11,2.53-2.68,2.9l3.55,4.37h-2.47l-3.3-4.22h-1.93v4.22h-1.98v-10.32ZM278.33,537.77c0-.95-.69-1.5-2.06-1.5h-2.79v2.97h2.79c1.39,0,2.06-.52,2.06-1.47Z"/>
      <path class="cls-1" d="M290.9,536.34h-3.88v-1.64h9.75v1.64h-3.88v8.67h-1.98v-8.67Z"/>
      <path class="cls-1" d="M320.75,544.16c-1.19.77-2.26,1.1-3.63,1.1-2.58,0-4.24-1.16-4.24-2.98,0-1.42,1.05-2.51,2.59-2.93-.61-.55-.93-1.24-.93-1.95,0-1.74,1.58-2.93,3.9-2.93s3.76,1.18,3.76,3.01l-1.92.14c0-.92-.69-1.48-1.84-1.48s-1.9.53-1.9,1.31c0,.44.24.84.81,1.34l.37.32h5.98v1.51h-4.27l2.26,2c.76.68,1.19.98,1.69.98.29,0,.63-.08,1-.18l.42,1.47c-.61.16-1.08.24-1.58.24-1,0-1.71-.27-2.47-.97ZM317.1,543.58c.84,0,1.61-.21,2.32-.63l-2.59-2.37c-1.15.11-1.95.73-1.95,1.52,0,.89.9,1.48,2.22,1.48Z"/>
    </g>
  </g>
  <g>
    <path class="cls-1" d="M452.97,442.03c-.17-.1-1.83-.52-2.15-.59-.88-.16-3.99-.63-4.71-.58-.3.02-.43.34-.72.36-.11,0-.06-.33-.21-.37-.22-.06-1.2-.05-1.41.03-.27.09-.24.51-.4.53-.38.04-1.43-.57-1.82-.55-.39.02-.49.5-.89.53-.45.03-1.23-.39-1.75-.35l.18-.36-2.91-.35c0,1.42-1.15-.18-1.24-.2-.36-.09-.92.04-1.39-.04-.52-.09-.45-.5-.83-.61-.74-.2-1.74-.18-2.55-.38-3.53-.87-9.71-7.43-12.08-10.38-3.66-4.54-6.73-8.01-10.78-12.23-.53-.55-1.55-1.97-2.09-2.31-.36-.23-.63.06-.83-.06-.2-.12-.38-.87-.63-1.21-.22-.29-2.43-2.24-2.65-2.3-.69-.19-.96.88-.65,1.39.12.2,1.37.75,1.74,1.36.21.36.22.98.4,1.15.19.19.75.16,1.04.33.58.33,1.14.97,1.94,1.17l-.21,1.47c.74.35,1.59.5,2.2,1.09.59.57,1.04,1.72,1.55,2.28.82.91,2.59,1.56,3.55,2.66.54.62.81,1.52,1.39,2.26.65.82,1.58,1.45,2.23,2.34.82,1.13,1.19,2.35,1.78,3.47.16.31,1.26,1.02,1.46,1.5-.72.33-1.82-1-2.28-1.55-1.59-1.87-3.09-3.83-4.74-5.66-.77-.85-2.68-2.38-3.09-3.3-.16-.36-.1-1-.33-1.22-.16-.16-1.12-.43-1.61-.86-.55-.49-.78-1.15-1.27-1.65-2.04-2.1-4.94-4.19-7.13-6.2-1.13-1.03-2.14-2.28-3.28-3.29-.27-.24-1.04-.6-1.08-.66-.45-.78.67-.71,1.21-.38.57.35.59,1.06,1.04,1.33.35.21.7.12,1.01.27.68.31,1.58,2.05,1.8-.43-1.24-.86-2.23-1.79-3.56-2.55-1.14-.65-2.46-1-3.41-1.61-.88-.57-5.61-1.71-6.83-1.85-1-.12-2.02-.01-3.02-.05l-.94,1.22c-.71-.15-1.48-.42-2.2-.48-3.18-.28-9.88,1.86-12.49,3.75-.62.45-.88,1.11-1.38,1.54-.54.47-1.47.84-2.11,1.36-3.71,3.05-7.58,7.82-10.86,11.42-.99,1.08-2.28,2.09-3.19,3.2-.71.87-1.23,2.25-1.83,2.92-.39.44-1.31.83-1.83,1.27-.73.63-1.22,1.68-1.73,2.1-.42.35-1.15.45-1.66.9-.47.41-.82,1.19-1.26,1.66-1.15,1.22-3,2.77-3.93,4.1-.34.49-.37,1.07-.74,1.45-.3.31-.85.4-1.17.65-4.17,3.23-5.56,5.04-10.68,7.21-.58.24-3.41,1.92-3.6,2.32-.08.17-.09.32-.04.49l1.07.4c.06.63-.59,1.76.05,2.13.29.17,1.03-.06,1.48.08.69.21.07.37,1.33.35.56,0,.72.18,1.35-.21l.21.71c.28.18,2.02-.51,2.63-.53.65-.02,1.18.36,1.42.34.24-.03,1.59-.57,2.04-.62.3-.03.68.35,1.23.26.82-.14.95-1.25,1.14-1.25l.55.37c1.1-.31.21-1.66,1.28-2.19.38.42.12.84.42,1.4.7,1.32.94.1,1.42-.3.54-.45,1.37-.76,1.82-1.47l.09.55c.16.17,1.02-.35,1.18-.57.12-.18.08-.51.1-.53.02-.03.34.23.71.1.76-.27.71-1.08,1.39-1.37l.11.7c.94.63,1.23-.53,1.48-.67.21-.12.64,0,.93-.08.81-.24.84-.79,1.31-1.25.25-.24.79-.33.92-.54.23-.38.02-1.19.09-1.64.45.16-.09,1.54.46,1.64.2.04.83-.36.92-.55.17-.34-.19-.73-.03-.92.12-.15.52-.17.74-.37.27-.24.43-.88.73-1.1.33-.23.84-.15,1.11-.54.28.56-.3,1.69.69,1.61.08,0,.46-.14.48-.17.08-.12-.23-2.34-.14-2.97.1-.73.59-1.55.73-2.29l.85-.04.4-.88v2.37c.14,0,.29.02.43-.03.17-.06,2.44-2.13,2.58-2.35.27-.45.35-.96.47-1.45l.73.18c.3-1.12.1-2.17.43-3.32.29-1.01.94-1.33,1.22-2.24.18-.58.14-1.31.39-1.8.27-.52,1.74-1.05.42-1.78-.8,0-1.16,2.02-1.65,2.56-.3.33-1.19.56-1.37.87-.41.68-.56,3.02-1.14,3.84-.52.73-1.6,1.53-2.24,2.24-.14.15-.26.34-.27.55-.25.04-.35-.72-.35-.83.03-.59.85-.72.9-.94.13-.52-.3-1.2-.17-1.58.09-.29.59-.31.69-.61.14-.43-.04-1.02.17-1.66.4-1.24,1.69-1.49,2.14-2.24.19-.31.05-.99.18-1.47.08-.29,1.71-3.08,1.92-2.91l.19.73c.22.16,1.38-.69,1.42-.77.12-.21.01-.85.12-1.25.06-.23.83-2.37,1.19-1.7l.28.61c1.34-.25.76-1.37,1.17-1.93.16-.22,1.2-.7,1.57-.99.21-.16.3-.55.46-.65.26-.16.61.08.93.03.41-.07.4-.59.85-.79.53-.25,1.21-.14,1.74-.27.39-.09.8-.51,1.14-.5.77.01.87,2.13,2.01,1.28l.08-1.29c.47,0,2.67.31,2.56.82-.88.63-1.13,1.64-1.74,2.47l.27-1.46c-.39-.03-1.15,0-1.37.37-.26.43-.55,2.33-.82,3.02-.5,1.28-1.21,2.01-2.11,3l.46-2.01c-1.15-.09-1.25.95-1.77,1.6-.86,1.08-1.96,1.98-1.96,3.52l-.83.17.18.83c1.78.11,1.7-1.88,2.51-2.98.3-.41.73-.58,1.05-.95l.19.74c-.59.37-1.18.38-1.01,1.27l3.65-1.28c.12-.16-.2-.57-.37-.65-.42-.2-.79.38-.72-.17.97-.19.8-1.03,1.09-1.28.16-.14.82-.27,1.16-.48,1.51-.97,1.43-2.2,1.85-3.63.04-.15,1.08-2.21,1.18-2.29.56-.39,1.61.14,1.75.82h1.97c.53,1.67,1.21-.28,2.31.57.13.17-.72,1.5-.83,1.82-.08.24.13.54.02.73-.14.23-.68.27-.8.68-.2.68-.2,1.51-.29,2.16-.05.31-1.23,1.47-.82,2.26.38.17.7.15,1-.16.49-.51-.05-1.18.63-1.11,0,.39-.67,1.84-.09,2.01.51.15.73-.53.99-.63.19-.07.48.13.74,0,.23-.12.28-.49.42-.6.31-.23.67-.2.94-.61.34-.52.66-2.78.83-2.91.53-.04.6.63,1,.92.41.3,1.1.28,1.36.84-.2.93-.82.86-1.55,1.16l-.07,1.83c.21.24,1.06-.85,1.29-1,.19-.12.53-.04.67-.14.26-.17.28-1.61,1.31-1.15.44.19,2.6,3.07,3.18,3.69,1.29,1.38,2.83,2.64,4.14,3.98.76.77,5.63,6.18,6.07,6.1.16-.03.29-.35.49-.26l3.55,3.22c.36.22.21,1.17.3,1.26.04.04.7.01,1.08.29.3.22.96,1.16,1.37,1.55.24.24.82.52.92.72.2.42-.02.97.13,1.24.2.36,1.97,1.35,2.38,1.68.29.23.4.75.82.9.76.06.85-.67.79-1.26l.82.36c.14.28-.46.35-.66.63-.63.91.88,1.12,1.39,1.56.28.24.37.76.76.88.83.25,1.31-.55,1.79.58l.92-.74c.37-.05.41.85,1.18.56v-.73s.55,0,.55,0l.22,1.42c.33.32.8,0,1.11.08.27.06.52.45.78.45s.5-.38.78-.45c.82-.2,1.9-.17,2.74-.45l.22-1.42c1.01.27,1.48-.47,2.37-.54-.19,1.03-2.46.79-1.93,1.82.58,1.11,2.02-.64,2.11-.55.19.46-.35.34-.37.46-.17,1.15,1.17-.03,1.83.46l.21-1.25c.6-.44,1.26.28,1.71-.4.24.48-1,1.15,0,1.29.79.11.87-.62,1.55-.75-.93-1.4-.13-1.64,1.28-1.82-.15.77-1.56.9-.64,1.82.53-.45,1.61-.38,2.1-.63.31-.16.35-.68.67-.79.6-.21,2.25.19,2.76-.25.33-.28-.08-.96,1.14-.69v-1.28c.44.49.56.76,1.33.51.54-.17.42-.76.52-.85.09-.08.75,0,1.08-.11.54-.17,1.14-1,1.22-1.02.45-.12,1.31.16,1.76-.16.13-.09.58-1.22,1.02-1.41l-.53-.71c.35-.69,1.16-.55,1.63-.92.2-.16,1.3-1.55,1.47-1.82.08-.14.33-.18,0-.36Z"/>
    <path class="cls-1" d="M365.69,430.62c.22-1.53,2.43-2.35,2.84-3.64.58-1.84.17-4.48.99-6.4-2.28.34-.82,2.32-2.54,3.22l.16,1.34h-.55s.1-1.28.1-1.28l-.55-.18-.18.18c-.66,1.41.12,3.48-.5,4.79-.03.07-.65,1-.69,1.04-.48.42-.27-.83-.64-.91-.41-.09-1.69,2.22-1.87,2.69-.3.78-.33,2.16-.62,2.66-.24.42-.93.42-.69,1.21l1.27-.09.74-2.83c.37.25.09.5.78.33.18-.05,2.42-1.29,2.55-1.42.63-.61.22-1.12-.59-.74Z"/>
    <path class="cls-1" d="M378.11,421.77c.11-.57,1.01-.97.09-1.92-1.17.57-.7,2.22-1.24,3.33-.28.57-.97,1.03-1.32,1.78-.24.51-.79,2.02-.92,2.55-.05.22-.16.29.1.47l1.28.09c.02-.84.32-2.31.69-3.05.28-.57.9-.9,1.32-1.33,0-.55-.09-1.43,0-1.91Z"/>
    <path class="cls-1" d="M379.31,425.52c.17-.24-.15-.95-.12-1.37.02-.39.31-.72.31-.92,0-.29-.53-1.02-.3-1.55-1.18-.05-.67.99-.72,1.55-.03.37-.24.33-.37.46,0,.67,0,1.34,0,2.01l1.2-.18Z"/>
    <path class="cls-1" d="M379.57,428.25l1.09-3.1c-1.38.17-1.06,1.46-1.64,2.24-.23.31-1.57,1.01-.61,1.56.09.05,1.74.55,1.83.55.56.04.54-1.04.24-1.36l-.92.1Z"/>
    <path class="cls-1" d="M463.25,422.62c-.4-.11-.84.04-1.2-.04-.17-.03-.06-.37-.4-.37-.72,0-.57.51-.9.76-.69.53-1.04-.15-1.47-.18-.19-.01-1.9,0-1.99.03-.46.08-.44,1-1.61.48-.21-.08-.18-.39-.48-.44-.36-.06-.8.15-1.12.28l.18-.91c-.64-.19-1.29.12-1.92,0-.39-.08-.5-.43-.76-.51-.39-.11-.82.04-1.2-.07-.29-.08-.65-.62-.98-.85-.42-.26-2.78-1.68-2.89-1.85-.19-.26-.04-.91-.14-1.33-.1-.44-.6-.9-.75-1.25-.42-.91-.65-2.73-1.94-2.53l.08,1.09c-1.09-1.12-.9-2.59-1.22-3.89-.22-.86-.66-.62-1-.93-.26-.21-.37-.71-.89-.84l-.46.64c-.9-1.3-1.38-3.18-2.63-4.12-.17-1.44-.37-2.74-1.38-3.92-.28-.33-.75-.32-.93-.57-.37-.53-.89-3.81-1.27-4.07-1.04-.07-1,.83-.82,1.65.08.42.76,2.52.93,2.89.25.57,1.27,1.37,1.45,2.01.15.51-.01,1.04.18,1.47.24.53,1.26,1.22,1.47,2.01.19.75.46,1.9.61,2.67.07.32.12.96.15,1.31.01.21.22.62-.12.58.12-.98-.55-.79-.75-1.02-.32-.37-.76-1.37-.93-1.87l-.71-.03v-1.26s-.54-.01-.54-.01c.3-.78-.15-1.7-.22-2.52l-1.07-.04-.18-1.45-.91.18c-.08-.08-.06-1.98-.22-2.42-.15-.4-.6-.48-.69-.96-.28-1.45.29-4.5.15-6.16-.03-.19-.96-2.81-1.05-2.94-.14-.19-.54-.12-.83-.48-.3-.37-.55-1.5-.84-2.08-.32-.62-.79-1.12-1.11-1.74l-1.52.18c-1.18-1.25-2.49-2.41-3.54-3.77-.8-1.02-1.56-3.39-3.11-2.82-.11-.33.03-.69-.17-1-1.61-2.6-6.91-4.71-9.34-6.58l-.9.08c.24-1.45-1.41-1.18-1.97-1.5-.1-.06-.19-.47-.64-.73-1.02-.57-2.73-.86-3.92-1.38-1.11-.5-.46-.55-1.77-.58-.1,0-.93-.44-1.68-.55-1.23-.17-2.56-.48-3.88-.84-1.61-.46-2.7-1.26-4.61-.89-.47.08-1.2.58-1.38.61-.25.03-.43-.32-.71-.33-.19-.01-1.18.46-1.66.53-1.7.25-4.31.12-5.83.55-.43.12-2.75,1.14-3.02,1.37-.6.55-.21,1.08-.37,1.36-.25.42-1.73-.19-2.35.11-.29.15-.6.95-1,1.2-.29.18-.69.12-.79.21-.08.07-.06.42-.22.6-.07.08-1.69.9-1.83.94-.73.18-.64-1.01-1.34-.83-.35.1-.4.61-.53.68-.37.22-2.13.32-2.44.57-.25.19-.25.76-.53,1.14-.19.28-1.73,1.27-1.98,1.22-.33-.06-.42-.53-1-.39-.75.18-.9.87-1.18,1.5l-2.13.42-.03,1.25c-.71.18-2.46.04-2.7.87-.1.32.03.72-.06,1.02-.24.76-1.09-.07-1.52-.07-1.38-.04-1.12,1.58-1.66,2.38-.17.26-1.95,1.62-2.15,1.62-.15-.03-.33-.3-.6-.35-.76-.1-.68.71-1,1.01-.39.37-.97.15-1.23.32-.36.21-.87,2.31-1.95,1.61l-.28-.91-.55.08c-.42.28.04.84-.03,1.23-.03.08-.55,1.36-.61,1.43-.21.24-.65.11-.91.35-.32.29-.57,1.92-1.02,2.45-.26.32-.61.28-.79.48-.18.21-.25.89-.29.91-.08.06-.51-.22-.78-.17-.4.1-.64.98-1.05,1.16-.29.14-.66.03-.86.14-.68.37-1.8,3.82-3.7,2.51-.26,1.51-1.3,2.09-2.2,3.02-.44.44-.87,1.25-1.36,1.55-.43.28-1.11.28-1.36.65l-.57,2.09c-.5.5-.35-1.65-1-1.45-.29.65-2.42,1.72-2.62,2.03-.12.24-.01.61-.04.89-1.58-.51-1.18.98-1.5,1.41-.17.24-.78.04-.97.21-.36.3-.32,1.08-.9,1.48-.3.22-1.05.1-1.44.35-.24.15-.32.85-.75,1.12-.55.35-1.18,0-1.02,1.08-.46-.04-.43-1.19-.54-1.27-1.81-.18-1.32,2.35-1.48,2.53-.04.04-.54.08-.78.22-.48.32-.82.86-1.37,1.2-.48.29-1.19.4-1.52.61-.37.24-.5.86-1.34.9l-.08,1.65h-.73c.28,1.51-.42,1.87-1.47,2.63-1.27.93-5.03,3.7-6.23,4.18-.73.3-4.17,1.2-4.85,1.18-.62-.03-2.05-1.43-2.2-2.09-.32-1.45-.08-2.24.61-3.5.39-.71,1.65-2.05,1.99-2.77.14-.29.03-.66.14-.86.39-.68,1.52-.36,1.59-.42.03-.04,0-.4.19-.62.75-.84,1.87-1.44,2.64-2.48.24-.33.24-.8.54-1.09.73-.73,2.58-.43,2.48-2.19,1,.1,1.51-.29,2.55.18l-.17-1.07.82-.57.54.54c.48-.28.14-.97.3-1.25.1-.15,1.41-.42,1.8-.84.58-.64.64-2.09,1.37-2.84.8-.83,5.59-3.38,6.96-4.17.42-.25.94-.19,1.33-.5.65-.51,1.58-2.96,1.91-3.2.75-.53,2.24.29,2.13-1.8,1.05-.47,2.3.68,2.88-.32-.82-1.15.82-1.85,1.4-2.8.25.93,1.3.47,1.8-.03.37-.36.91-1.77,1.43-2.41.46-.55,2.84-2.28,3.42-2.4.28-.06.62.14.93.08-.12-1.14.73-1.18,1.45-1.56.48-.28.44-.79,1.29-.44-.29-.84.47-1.08.64-1.47.14-.29.03-.78.12-.87.07-.07.36-.04.5-.15.14-.11.17-.33.35-.43.39-.18,1.01-.08,1.5-.46.5-.39.35-1.02.86-1.36l.76.15c.32-1.23.84.33,1.32.11.64-.36.15-.9.22-1.26.04-.32,1.43-1.37,1.69-1.76l.36.55c1.74-.43,1.72-2.81,2.74-3.65.54-.46,1.51-.75,2.16-1.14,5.93-3.61,13.62-8.76,18.84-13.29.9-.79.96-1.43,1.55-2.1.46-.53,1.7-1.05,2.09-1.55.3-.4.21-.91.32-1.05.1-.11.78-.18,1.15-.77.25-.42.22-.9.44-1.19.24-.32,1.22-.66,1.66-1.09.9-.89.69-1.66,1.11-2.35.37-.58,1.54-.54,1.26-1.74.33-.08.12.32.19.36.04.03.17-.03.26,0,.12-.04,1.73-1.68,1.81-1.84,1.41-2.66,2.77-5.87,3.25-8.9l.08-.89c.46-3.57.33-7.43-.37-10.85-.96-4.69-2.51-6.99-5.43-10.05-3.65-3.88-10.2-7.17-15.05-8.72-.29-.1-.64-.1-1-.11-.39-.01-.79-.01-1.19-.12-.36-.1-.72-.3-1.11-.54-.39-.22-.79-.47-1.22-.6-5.61-1.69-11.41-.51-16.53.53-7.35,1.5-11.37,3.86-16.92,7.14l-.08.06c-.37.22-.76.44-1.15.68-6.94,4.08-14.41,14.55-17.04,21.75-.4,1.09-.75,2.15-1.09,3.17-1.38,4.15-2.59,7.74-5.91,11.27-1,1.05-1.81,2.13-2.62,3.18-.58.78-1.2,1.58-1.87,2.35-.58.68-1.3,1.31-1.98,1.95-2.01,1.81-4.57,2.73-4.03,5.66.07.39.73,1.61.96,1.69.61.22,1.68-.67,2.38-1.25h.01c.17-.14.32-.26.43-.36.18-.12.37-.19.54-.24.43-.14.71-.24.57-1.43v-.08s.07,0,.07,0c.06,0,.11.01.15.01,1.16,0,2.05-.75,2.91-1.45.29-.24.57-.47.84-.67.75-.51,8.82-5.75,8.87-5.79.06-.04.33-.14.98-.36.9-.32,2.1-.73,2.64-1.02,1.18-.62,2.04-1.44,2.87-2.22.65-.61,1.26-1.19,1.95-1.59.47-.28,1.04-.44,1.58-.6.57-.17,1.15-.33,1.65-.64l-.03-1.25h.07l4.68-.49c.3-.15,1.53.09,1.82-.09h.01c.51-.29,1.04-.6,1.56-.8.73-.29,1.41-.51,2.08-.73,1.5-.5,2.8-.93,4.17-1.97.44-.35,1.12-.59,1.85-.87,1.44-.54,3.07-1.16,3.1-2.57v-.07h1.22s.15-1.43.15-1.43l-.55-.14c0,.71-.47.86-.89.98-.18.06-.36.12-.5.22-.35.25-.72.53-1.11.83h-.03c-.47.37-.96.75-1.45,1.09l-2.48.42-2.73.44-3.14.73s-.11-1.58.02-1.77c.22-.36.91-2.49.75-2.67-.01-.01-.1-.07-.39.08-.54.25-.84,2.23-1.14,3.16-.06.19-.12.37-.19.57l-.65.69-1.37.34-2.02-.31s-1.66.48-2.01.48c-.25,0-1.27-.08-2.15-.37.11-.29.24-.58.37-.86.39-.86.76-1.69.54-2.64l.36-.84c.35-.07.47-.35.62-.72.1-.25.22-.53.42-.79-.14-.21-.28-.32-.4-.32h-.01c-.07,0-.12.04-.19.08l.04-1.14-.25-1.02-.43-1.07-1.48,3.49v2.53l-.72,2.05.57,4.54-1.9-1.95.66-5.73,1.38-4.69.86-2.46,1.65-1.18.25-.91,1.09-4.1,2.66-3.29c.12-.08.25-.17.37-.26.57-.37,1.08-.75,1.05-1.5l.17-.19.87.29c.01-1.05.17-1.7.46-1.95.18-.14,3.7-1.47,3.93-1.47.35,0,.65.19.96.39.25.17.5.32.73.32h.01c.06,0,.1-.14.12-.25.03-.14.06-.28.14-.33.17-.11.33-.17.48-.21.35-.12.68-.24.97-.9l.03-.06,1.32.3c.42-.96,1.08-1.04,1.86-1.04h.21c.22,0,.47,0,.71-.04.21-.04.36-.22.51-.4.18-.19.36-.4.64-.48,1.12-.35,4.69-.69,5.84-.73.04,0,.08-.01.12-.01.62,0,1.3.18,2.02.37,1.01.26,2.06.54,3.02.33l-2.12-1.4h.21c.53-.03,2.31-.03,3.49.51.3.14.43.26.42.39-.01.17-.29.24-.57.29-.03,0-.07.01-.08.01-.17.26-.19.48-.12.65.21.39,1.05.48,1.81.57.37.04.72.07.97.15,1.51.46,4.26,1.45,5.63,2.31.28.17.48.39.69.59.19.19.39.39.61.54.12.08.35.11.54.14.18.01.35.04.43.12.08.1.08.29.1.54.01.28.04.57.14.79.18.4.68.75.93.66.21-.06.19-.36.15-.61v-.11s.08.03.08.03c.86.28.69.79.54,1.3-.07.21-.14.44-.15.66-.06,1.47-.03,2.37,1.02,3.57l.14.15-.29,1.38c-.33-.07-.33-1.5-.71-1.26,0,0-.62,2.71-.54,3.96.01.18.03.35.03.47.01.28.11.57.21.84.1.32.19.61.18.84-.03.21-.24.29-.47.37-.17.06-.33.12-.43.24-.17.18-.25.43-.33.66-.07.24-.15.46-.29.62-.17.18-.54.22-.86.37-.22.11-.46.22-.66.36l-.26.19c-.18.12-.33.25-.42.36-.44.57-.28,1.23-.64,1.68-.58.71-2.95.64-3.17,2.26l.53.58c-.82.33-.69,1.54-.96,1.87-.19.24-1.25.42-1.44.72-.17.26.07.73.03.78-.04.04-.72.15-1.05.35-.75.43-1.45,1.12-2.23,1.52l.17.71c-1.25-.55-1.27.73-1.72,1.11-.24.21-.61-.11-.84.06-.12.1-.18.54-.47.82-.48.48-2.66,1.11-2.6,1.73l.35.66c-.75,0-1.51-.1-2.17.29-.3.17-.47.51-.76.71-1,.6-2.04.47-1.45,2.1-.98-.84-1.83-.11-2.66.54-.24.19-.37.62-.5.69-.19.12-.6.07-.91.24-.26.12-.9,1.01-1.36,1.23-.57.28-1.12.17-1.7.3l-.28.66h-1.9c.32.96.39.96-.46,1.63-1.51,1.19-1.76.84-3.42,1.15-2.89.51-1.34.9-2.06,2.33-.18.33-1.77.86-2.01,1.27-.18.29-.03.83-.1.9-.06.06-.48-.04-.72.11-.14.08-.14.4-.32.44-.5.14-1.2-.14-1.84.12-.29.12-.68,1.01-1.33,1.25-.47.15-.96.03-1.41.22-.37.18-.44.64-.78.87-1.54,1.05-3.61.61-4.64,1.2-.3.19-.36.54-.53.65-.29.21-1.12.48-1.32.8-.24.37.18.69-.07,1-.8.72-1.54-.03-2.3.64-.72.62-.37.32-.98.65-1.44.79-1.19,2.28-2.16,2.8-.58.32-.51-.12-.97-.26-.78-.26-1,.48-1.47.73-.48.25-1.66.28-1.91.83-.14.29.26.59-.25,1.02-.53.42-1.18.15-1.55.42-.21.15-.25.97-.53,1.25-.37.37-1.65.57-1.98.87-.22.22-.03.47-.1.65-.33.76-1.36.42-1.95.76-.66.36-1.92,1.99-2.92,2.38-.47.18-1.69.19-1.91.36-.22.17-.12.83-.26,1.01-.1.14-.48.11-.65.26-.18.18-.69,1.2-1.02,1.44-.35.24-.75.1-1.02.26-.19.11-.32.66-.66.97-.47.43-.9.17-1.34.48-.42.32-.39.75-.6.96-.24.24-1.09.44-1.45.78-.29.26-.37.71-.61.91-.22.19-.64.21-.73.36-.17.25,0,.66-.12.89-.04.08-.65.3-.86.51-1.33,1.33-2.55,3.24-3.75,4.64-.75.87-2.02,1.36-2.76,2.19-.48.54-.82,1.54-1.27,2.17-1.25,1.69-2.85,3.2-3.54,5.23l-.47-.46c-.83.21-1.43.37-1.65,1.27-.18.69.36.75-.82,1.2l.19,1.54c-.5-.17-1.04-.24-1.48.12l-2.82,6.62c-.25.36-.75.4-.91.91-.35,1.07-.79,6.41-.82,7.75-.04,1.99,1.79,11.19,3.16,12.29.12.11.53.01.89.3.14.1,2.05,2.46,2.13,2.6.46.77-.03,1.84.39,2.53.22.36,1.11.73,1.48,1.08,1.84,1.68,3.83,3.96,5.75,5.4.22.17.58.14.64.19.04.04,4.04,3.38,4.18,3.47.15.1,2.28,1.12,2.87.72.3-.21.42-.69.47-.73.11-.07.42.15.61.14.54-.06,1.08-.25,1.66-.17.44.07.24,1.05,1.22.9.78-.11.73-.97,1.05-1.16.62-.37,1.54.07,2.13.22.14.03.4-.14.42-.12.03.03.03.43.18.64.91,1.25,1.25-.36,1.58-.44l.87.33c.48-.08.44-.86.48-.89.07-.07.62.26.96.15.25-.07.39-.42.58-.46.48-.06,1,.42,1.47-.43.93,1.44,1.69,1.74,2.99.43l.21-1.9c1.72,1.4,3.06,1.37,3.29-1.09l.37.72c.61.39,1.45-1.63,1.27-2.17l.65.72c.66-.42,1.92-.61,2.34-1.27.25-.39.17-.96.55-1.27.64.66,1.65.17,2.19-.39.21-.22.39-.76.51-.84.55-.35,2.01-.15,1.79-1.51.3,0,.54.15.86.04.65-.22,4.86-4.13,5.52-4.71.73-.64.79-1.14,1.16-1.73.61-.94,1.95-1.09,1.29-2.64.37-.36.9,1.11,2.01.08.61-.57.17-1.32.54-1.83.19-.29,1.02-.53,1.38-.8.26-.21.4-.64.5-.69.22-.14,1.09-.04,1.2-.25.15-.25-.12-1.09.44-1.56.72-.61,1,.29,1.59.04.12-.06,1.22-.97,1.29-1.09.22-.39.11-.82.36-1.11.25-.29,1.38-.5,1.66-.9.25-.36.12-.82.21-1.25.1-.43.48-.66.14-1.41.4.28.73.5,1.26.33.42-1.12,2.02-1.9,2.48-3.09.28-.72.07-1.63.47-2.35.57.36.75.73,1.36.18.78-.69,2.34-3.67,3-3.92.25-.08.53.21.83-.1.35-.33.33-.9.1-1.29.84.35,1.16.44,1.94-.18l-.11-.72.46-.19c.46,1.07,1.14.91,1.51-.12l-.32-1.15c.91,1.09,2.74-.21,3.93-.55-.06-.68.14-1.38.71-1.84.24-.18.83.1,1.22-.43.19-.25,0-.5.08-.65.14-.24.6-.28.76-1.04l.32-2.24c.19.01.42,2.16,1.81.71.47-.48.19-.91.32-1.05.04-.06.35.04.53-.14.35-.32.39-1.32.58-1.48.24-.19,1.12-.15,1.22-.25.06-.07.19-1.26.84-1.44l.08.91,1.84-.26c.46-.33-.22-.61-.18-.9.03-.18.69-.65.87-.97.25-.42.39-1.5.57-1.63.15-.11.6.12.93.04.43-.1.22-.47.54-.47l.28.9c1.9-1.41,5.08-2.81,7.07-4.07.43-.26,1.98-1.26,2.26-1.38.29-.14.72-.06.91-.19.19-.12.14-.57.36-.73.5-.37,2.64.04,3.35-.07l.33,1.04.6.21c.37-.08.29-.78.29-1.08.43.17.89.57,1.37.57.43-.01.75-.48,1.07-.37.28.08.35.82,1.14.9.93.08.66-.43.82-.54.35-.29.36.36.66.5.51.26,1.7.4,2.42.68,1.11.44,2.26.94,3.34,1.43.5.22,1.36,1.02,1.86.84.3-.1.17-.57.47-.53.06.35-.3.76-.1,1.08.08.12,1.74,1.59,1.94,1.73,3.18,2.23,6.38,4.73,9.25,7.46.48.47.69,1.51,1.69,1.4l.65-1.81c.66.44-.08.83-.1,1.18,0,.3.76,1.12.83,1.55.07.39-.47.54-.08,1.18.43.66,1.23-.82,1.22.15,0,.25-.28.51-.06.87.11.17.48.25.65.46.54.66,1.66,2.59,2.33,2.78.24.08.53.04.78.04-.79,1.16.91,1.45,1.11,1.77.24.4.1,1.38.39,1.94.22.42.61.44.66.51.03.06-.15.32-.06.51.14.28.87,1.45,1.05,1.61.28.24.55-.04.83.33.53.69.24,1.43.57,2.01.07.13,1.52,1.9,1.65,2.02.46.44.98.32,1.37.62.58.46,2.91,3.45,3.36,3.54.21.06.44-.12.73.01.64.28.71.82,1.84.46-.19.78.37.78.62,1.11.25.35.24.86.83,1.01l1.29-.47v.73c.32-.04.71.06,1.01,0,.53-.11.28-.51.64-.55-.17,1.43.39.89,1.15,1.14.33.11.53.68,1.02.5.1-.39.24-.97.75-.9-.17.82.86.83.91.91.08.11-.42.69.08.9,1.59-.33.9-.46,1.27-1.27.18-.37.66-.4,1.01-.36-.3,1.14.86,1.7,1.38.72.22-.4-.42-.96.17-.9l.28,1.09h.91v.91c.39-.03,1.11.15,1.25-.3-.1-1.97.4-1.19,1.12-1.62.18-.1.25-.5.46-.64.66.71-.64,1.09-1.16,1.12v.69c.68.36,1.63-.03,2.06,0,.18.01.21.69.57.57.35.11.28-.35.44-.46.11-.07,2.06-.25,2.34-.24.35.01.65.47,1.2.33.17-.06.17-.37.3-.46.43-.26.9.12.91-.83.69.37,1.61.14,2.24-.22.26-.15.29-.51.43-.53.24-.03.57.22.87.19.1-.01,1.73-.54,1.81-.58.32-.17.48-.76,1.19-.72l.03-.89c.93.19,2.73-.1,2.37-1.47,1.65,1.19,1.19-1.4,2.02-1.73.28-.11.75.28.89-.21.18-.62-.43-1.69-1.02-1.85ZM318.75,346.47c-.5,2.1-.78,3.27-3.09,4.13h-.07s-.01-.06-.01-.06c-.28-1,.24-1.62.72-2.2.24-.29.44-.55.58-.86.12-.3.18-.69.24-1.07.11-.76.24-1.54.91-1.81l.11-.06-.35,1.76,1.04-.18-.08.35ZM360.04,312.95l-.1.06v-.57l.1.06c.14.07.21.14.21.22s-.07.17-.21.24ZM369.55,316.73l-.04.04-.04-.03c-1.55-1.05-3.32-1.7-5.03-2.33-1.08-.4-2.19-.82-3.24-1.32-.14-.07-.26-.1-.37-.11-.14-.01-.26-.04-.35-.15-.08-.11-.08-.3-.01-.65v-.06h.22c.68,0,1.15.32,1.56.59.21.15.42.29.62.36.51.19,1.05.35,1.58.5.86.25,1.73.5,2.56.9.01.01,2.49,1.29,2.62,1.99.01.1-.01.18-.08.25Z"/>
    <path class="cls-1" d="M350.53,332.84c1.66-.04,2.41-1.62,3.08-3.02.12-.25.24-.51.37-.75l.11-.21-.24-.04c-.14-.02-.26-.04-.36-.04-.4,0-.56.18-.77.44-.05.07-.12.14-.2.23-.23.25-.52.49-.77.7-.79.66-1.6,1.34-1.4,2.54l.02.15h.15Z"/>
    <path class="cls-1" d="M346.53,336.49c.99,0,1.57-.69,2.11-1.32.09-.11.19-.22.29-.33.08-.09.21-.14.35-.2.15-.07.31-.13.4-.26.57-.77-.03-1.7-.54-2.1-.14-.11-.24-.15-.3-.17l-.2-.05v.21c-.05.84-.64,1.4-1.21,1.95-.61.57-1.24,1.17-1.22,2.09v.16s.16.01.16.01c.06,0,.11,0,.17,0Z"/>
    <path class="cls-1" d="M330.93,330.41c-.48.07-1.13.89-1.56,1.65-.32.58-.41.94-.39,1.06.4.04.74-.07,1.03-.31.61-.52.87-1.57.92-2.4Z"/>
    <path class="cls-1" d="M334.35,330.58h0c.38-.34.9-.81.7-1.09-.03-.04-.09-.07-.16-.08-.07,0-.15,0-.24.02-.39.1-.83.46-.88.93-.02.21.05.47.12.73.1.36.2.72.13,1.1-.05.28-.28.53-.5.76-.22.24-.44.46-.41.67.02.15.16.29.42.44.12.07.23.09.31.05.27-.12.41-.73.54-1.27.11-.46.21-.9.39-1.08l-.03-.45-.75-.15s-.06-.06-.06-.1c0-.11.13-.24.41-.49Z"/>
    <path class="cls-1" d="M328.02,332.17c.55-1.25,1.03-2.33-.3-3.39-.04.7-.15,1.45-.26,2.24-.32,2.17-.65,4.41.53,5.91l.75-3.12-1.37.71v-.14c.02-.78.34-1.51.66-2.21Z"/>
    <path class="cls-1" d="M333.44,331.55c-.48-.14-.84-.14-1.09,0-.34.19-.44.63-.55,1.06h0s-.04,0-.04,0h.04c-.08.36-.17.71-.38.95-.24.28-.59.28-.92.29-.29,0-.56.01-.7.19-.14.16-.17.47-.11.93,2.11-.27,2.88-1.72,3.76-3.42Z"/>
  </g>
</svg>