<?xml version="1.0" encoding="UTF-8"?>
<svg id="Layer_1" data-name="Layer 1" xmlns="http://www.w3.org/2000/svg" viewBox="0 0 1080 1080">
  <defs>
    <style>
      .cls-1 {
        fill: #4a271d;
      }
    </style>
  </defs>
  <g>
    <g>
      <path class="cls-1" d="M174.37,687.53h16.76l39.44,81.84h-13.92l-10.7-22.43h-47.69l-10.7,22.43h-12.89l39.7-81.84ZM201.18,736.76l-19.07-39.95-18.95,39.95h38.02Z"/>
      <path class="cls-1" d="M278.25,687.53h12.63v71.4h48.59v10.44h-61.22v-81.84Z"/>
      <path class="cls-1" d="M386.12,687.53h38.79c29.51,0,50.14,16.88,50.14,40.99s-20.62,40.86-50.14,40.86h-38.79v-81.84ZM462.29,728.51c0-18.69-14.43-30.55-37.38-30.55h-26.16v60.83h26.16c23.07,0,37.38-11.47,37.38-30.29Z"/>
      <path class="cls-1" d="M514.22,728.39c0-24.23,21.14-42.66,51.04-42.66s51.3,18.43,51.3,42.66-21.27,42.79-51.3,42.79-51.04-18.69-51.04-42.79ZM603.8,728.39c0-19.2-15.6-32.09-38.54-32.09s-38.28,13.02-38.28,32.09,15.59,32.09,38.54,32.09,38.28-12.76,38.28-32.09Z"/>
      <path class="cls-1" d="M651.48,687.53h13.92l32.35,70.89,33.51-70.89h12.89l-39.05,81.84h-15.47l-38.15-81.84Z"/>
      <path class="cls-1" d="M791.82,687.53h12.63v81.84h-12.63v-81.84Z"/>
      <path class="cls-1" d="M889.13,687.53h16.76l39.44,81.84h-13.92l-10.7-22.43h-47.69l-10.7,22.43h-12.89l39.7-81.84ZM915.94,736.76l-19.07-39.95-18.95,39.95h38.02Z"/>
    </g>
    <g>
      <path class="cls-1" d="M498.77,831.79c0-7.89,6.95-13.69,16.55-13.69,7.52,0,13.16,3.72,14.67,9.4l-4.91.33c-1.35-3.47-5.31-5.48-9.97-5.48-6.79,0-11.28,3.84-11.28,9.44s4.5,9.44,11.28,9.44c4.74,0,8.71-2.08,10.01-5.52l4.9.57c-1.72,5.6-7.32,9.2-14.71,9.2-9.61,0-16.55-5.8-16.55-13.69Z"/>
      <path class="cls-1" d="M549.29,831.79c0-7.72,6.79-13.69,16.51-13.69s16.55,5.97,16.55,13.69-6.79,13.69-16.55,13.69-16.51-6.01-16.51-13.69ZM577.29,831.79c0-5.72-4.46-9.44-11.49-9.44s-11.44,3.72-11.44,9.44,4.5,9.44,11.49,9.44,11.44-3.72,11.44-9.44Z"/>
      <path class="cls-1" d="M604.31,818.71h5.19l16.1,19.25v-19.25h5.03v26.16h-5.23l-16.06-19.25v19.25h-5.03v-26.16Z"/>
      <path class="cls-1" d="M650.86,818.71h5.56l9.73,21.62,10.18-21.62h5.15l-12.47,26.16h-6.13l-12.02-26.16Z"/>
      <path class="cls-1" d="M701.71,818.71h21.25v4.17h-16.23v6.74h14.18v4.09h-14.18v6.99h16.23v4.17h-21.25v-26.16Z"/>
      <path class="cls-1" d="M744.38,818.71h5.19l16.1,19.25v-19.25h5.03v26.16h-5.23l-16.06-19.25v19.25h-5.03v-26.16Z"/>
      <path class="cls-1" d="M801.03,822.88h-9.85v-4.17h24.73v4.17h-9.85v21.99h-5.03v-21.99Z"/>
      <path class="cls-1" d="M836.39,818.71h5.03v26.16h-5.03v-26.16Z"/>
      <path class="cls-1" d="M863.36,831.79c0-7.72,6.79-13.69,16.51-13.69s16.55,5.97,16.55,13.69-6.79,13.69-16.55,13.69-16.51-6.01-16.51-13.69ZM891.36,831.79c0-5.72-4.46-9.44-11.49-9.44s-11.44,3.72-11.44,9.44,4.5,9.44,11.49,9.44,11.44-3.72,11.44-9.44Z"/>
      <path class="cls-1" d="M918.38,818.71h5.19l16.1,19.25v-19.25h5.03v26.16h-5.23l-16.06-19.25v19.25h-5.03v-26.16Z"/>
      <path class="cls-1" d="M134.68,819.32h12.18c5.64,0,10.18,2.98,10.18,7.72,0,3.76-2.82,6.42-6.78,7.36l8.99,11.08h-6.25l-8.38-10.71h-4.9v10.71h-5.03v-26.16ZM152.01,827.13c0-2.41-1.76-3.8-5.23-3.8h-7.07v7.52h7.07c3.52,0,5.23-1.31,5.23-3.72Z"/>
      <path class="cls-1" d="M180.17,819.32h21.25v4.17h-16.23v6.74h14.18v4.09h-14.18v6.99h16.23v4.17h-21.25v-26.16Z"/>
      <path class="cls-1" d="M220.8,837.47l4.62-.33c.2,2.98,3.03,4.7,7.77,4.7,4.05,0,6.25-1.39,6.25-3.56,0-1.88-1.1-3.02-4.41-3.52l-5.39-.82c-5.19-.78-8.05-3.43-8.05-7.44,0-4.78,4.25-7.81,10.91-7.81s10.75,3.02,11.2,8.01l-4.62.33c-.2-2.53-2.82-4.09-6.91-4.09-3.6,0-5.68,1.23-5.68,3.23,0,1.8,1.39,2.82,4.29,3.27l5.35.86c5.44.86,8.26,3.56,8.26,7.77,0,5.11-4.21,8.01-11.57,8.01s-11.32-2.9-12.02-8.62Z"/>
      <path class="cls-1" d="M263.47,832.4c0-7.72,6.79-13.69,16.51-13.69s16.55,5.97,16.55,13.69-6.79,13.69-16.55,13.69-16.51-6.01-16.51-13.69ZM291.47,832.4c0-5.72-4.46-9.44-11.49-9.44s-11.44,3.72-11.44,9.44,4.5,9.44,11.49,9.44,11.44-3.72,11.44-9.44Z"/>
      <path class="cls-1" d="M315.34,819.32h12.18c5.64,0,10.18,2.98,10.18,7.72,0,3.76-2.82,6.42-6.79,7.36l8.99,11.08h-6.25l-8.38-10.71h-4.9v10.71h-5.03v-26.16ZM332.67,827.13c0-2.41-1.76-3.8-5.23-3.8h-7.07v7.52h7.07c3.52,0,5.23-1.31,5.23-3.72Z"/>
      <path class="cls-1" d="M366.51,823.49h-9.85v-4.17h24.73v4.17h-9.85v21.99h-5.03v-21.99Z"/>
      <path class="cls-1" d="M446.29,842.7c-3.02,1.96-5.72,2.78-9.2,2.78-6.54,0-10.75-2.94-10.75-7.56,0-3.6,2.66-6.38,6.58-7.44-1.55-1.39-2.37-3.15-2.37-4.95,0-4.41,4.01-7.44,9.89-7.44s9.52,2.98,9.52,7.64l-4.86.37c0-2.33-1.76-3.76-4.66-3.76s-4.82,1.35-4.82,3.31c0,1.1.61,2.13,2.04,3.39l.94.82h15.16v3.84h-10.83l5.72,5.07c1.92,1.72,3.02,2.49,4.29,2.49.74,0,1.59-.2,2.53-.45l1.06,3.72c-1.55.41-2.74.61-4,.61-2.53,0-4.33-.69-6.25-2.45ZM437.05,841.23c2.13,0,4.09-.53,5.89-1.59l-6.58-6.01c-2.9.29-4.95,1.84-4.95,3.84,0,2.25,2.29,3.76,5.64,3.76Z"/>
    </g>
  </g>
  <g>
    <g>
      <path class="cls-1" d="M492.79,319.84s.04,0,.06,0c1.47-.21,5.99-3.88,6.55-4.78.45-.72.62-1.47.79-2.19.14-.62.27-1.19.56-1.72.17-.31.55-.83.99-1.42.86-1.16,2.45-3.32,2.04-3.71-.22-.21-.46-.31-.72-.31-.19,0-.39.05-.61.15-2.36,1.08-5.59,7.58-5.51,9.13v.07s-.04.05-.04.05l-4.1,4.74Z"/>
      <path class="cls-1" d="M488.23,295.09c-.02.12,0,.15,0,.15.26.25.86.05,1.62-.55,2.14-1.7,5.01-6.17,4.32-7.88-1.42.87-5.65,6.74-5.94,8.27Z"/>
      <path class="cls-1" d="M490.92,321.81c.41-.39.59-.95.54-1.61l-3.19,1.61v.62c1.09.17,2.08-.06,2.65-.61Z"/>
      <path class="cls-1" d="M501.01,279.11c-.29.23-.59.47-.9.71l-.04.03c-2.43,1.91-5.18,4.06-4.81,7.33,2.88-1.85,5.11-4.98,5.75-8.07Z"/>
      <path class="cls-1" d="M616.8,314.87c1.19-9.1.86-18.9-.92-27.59-2.45-11.96-6.4-17.77-13.8-25.58-9.32-9.84-25.95-18.23-38.29-22.17-.74-.24-1.61-.25-2.53-.27-.99-.02-2.01-.04-3.02-.32-.9-.24-1.82-.79-2.8-1.36-1-.59-2.03-1.19-3.1-1.52-14.26-4.29-29.02-1.3-42.03,1.34-18.67,3.79-28.88,9.82-43,18.16l-.2.11c-.96.57-1.94,1.15-2.95,1.74-17.63,10.38-36.63,36.97-43.32,55.31-1.01,2.77-1.9,5.44-2.76,8.03-3.53,10.57-6.58,19.7-15.03,28.66-2.53,2.68-4.62,5.43-6.65,8.09-1.51,1.98-3.06,4.02-4.77,5.98-1.5,1.72-3.3,3.37-5.05,4.96-5.08,4.63-11.6,6.96-10.22,14.4.19,1.01,1.85,4.09,2.43,4.3,1.56.57,4.26-1.67,6.05-3.15h.02c.44-.38.81-.68,1.11-.91.46-.34.94-.5,1.36-.63,1.09-.35,1.81-.58,1.44-3.62l-.02-.2h.2c.13.02.27.02.4.02,2.93,0,5.18-1.87,7.37-3.67.75-.62,1.45-1.2,2.16-1.7,1.88-1.31,22.41-14.61,22.55-14.71.16-.11.85-.36,2.53-.94,2.26-.78,5.35-1.86,6.71-2.58,3-1.61,5.19-3.66,7.3-5.65,1.64-1.54,3.19-3,4.95-4.04,1.2-.71,2.63-1.12,4-1.52,1.44-.42,2.94-.84,4.19-1.62l-.06-3.14h.17s14.23-.2,14.23-.2c.77-.39,1.56-.84,2.33-1.28l.04-.02c1.29-.74,2.62-1.5,3.95-2.03,1.88-.75,3.61-1.32,5.29-1.87,3.82-1.26,7.1-2.34,10.59-4.99,1.14-.87,2.88-1.52,4.73-2.22,3.66-1.38,7.8-2.95,7.88-6.54v-.17s.17,0,.17,0l2.91.03.38-3.68-1.39-.35c-.01,1.8-1.2,2.18-2.25,2.51-.45.14-.92.29-1.28.55-.89.63-1.83,1.35-2.82,2.11l-.05.04c-2.56,1.96-5.45,4.16-8.03,5.42-3.55,1.73-7.77,3-11.86,4.22-3.5,1.05-7.12,2.13-10.27,3.5l-.62.27,5.06-6.36c.14-.6.14-1.23.15-1.85,0-.71.01-1.44.21-2.14.03-.09.15-.3.46-.81.57-.93,2.31-3.76,1.89-4.22-.04-.05-.24-.16-.99.21-1.36.66-2.13,3.1-2.87,5.45-.54,1.71-1.1,3.46-1.88,4.6-.85,1.23-2.21,2.16-3.51,3.07-1.96,1.36-3.99,2.76-4.39,5.18l-.04.23-.21-.11c-2.92-1.55-6.71-1.55-11.26.01l-.25.09.03-.26c.09-.98-.12-1.91-.33-2.82-.19-.84-.39-1.71-.36-2.63.09-2.24.96-4.13,1.81-5.96,1.27-2.75,2.47-5.35.64-8.67l-.18-.33.37.08c2.14.48,2.51-.42,3.07-1.79.26-.64.55-1.35,1.07-2.01-.37-.53-.71-.8-1.02-.82-.01,0-.03,0-.04,0-.43,0-.86.48-1.31.98-.49.54-1.04,1.16-1.74,1.33l-.23.06.02-.23c.18-2.5.41-5.61-2.28-6.76.33,5.25-.47,9.1-5.28,10.84l.04,1.02,1.79.58-.03.15-1.38,6.55-3.31,6.58-.1.19v-.72c.01-2.23.53-4.41,1.04-6.52.21-.87.44-1.85.63-2.81.31-1.59.61-3.2.92-4.83.02-.08.03-.17.05-.25v-.17s.04-.01.04-.01c1.33-7.01,2.09-10.55,4.02-17.91.15-.57.31-1.24.46-1.89.53-2.23,1.13-4.75,1.94-6.28.7-1.3,2.44-6.32,3.41-6.9.77-.47,1.49-.91,1.97-1.67.53-.84.79-1.83,1.04-2.79.57-2.19,1.11-4.27,4.55-4.43l.14-2.6,3.08,1.78c.62-.66,1.38-1.17,2.11-1.67,1.55-1.04,3-2.03,2.7-4.2l-.04-.27,2.66.9c.05-2.68.44-4.35,1.16-4.95.45-.38,9.41-3.73,9.98-3.73h.02c.89,0,1.67.49,2.41.97.66.42,1.27.81,1.87.81h.05c.14,0,.23-.36.29-.64.08-.35.16-.68.39-.83.41-.27.81-.41,1.21-.54.88-.3,1.72-.58,2.48-2.28l.05-.13,3.37.75c1.04-2.41,2.74-2.61,4.69-2.61h.52c.57,0,1.22,0,1.81-.13.51-.11.9-.54,1.31-1.01.45-.51.91-1.02,1.59-1.24,2.86-.89,11.96-1.76,14.88-1.88.1,0,.2,0,.3,0,1.56,0,3.3.45,5.14.93,2.58.67,5.24,1.36,7.67.86l-5.38-3.57.53-.02c1.32-.04,5.87-.06,8.86,1.32.77.36,1.1.66,1.06.98-.05.43-.74.61-1.45.75-.06.01-.15.03-.21.04-.4.68-.5,1.21-.29,1.63.5,1.01,2.67,1.24,4.58,1.45.95.1,1.85.2,2.46.38,3.86,1.16,10.86,3.7,14.35,5.9.68.43,1.23.98,1.76,1.52.48.48.97.98,1.55,1.37.32.22.87.28,1.35.34.49.06.91.11,1.09.32.21.24.24.75.27,1.4.04.68.08,1.43.34,1.99.48,1.02,1.73,1.91,2.37,1.7.51-.16.49-.95.38-1.58l-.04-.27.26.08c2.16.69,1.75,2.01,1.35,3.29-.17.55-.35,1.12-.37,1.69-.14,3.75-.09,6.03,2.6,9.1l.34.39-.74,3.5c-.83-.19-.82-3.79-1.8-3.22,0,0-1.56,6.92-1.36,10.09.03.45.05.85.07,1.2.03.68.28,1.42.52,2.14.26.79.51,1.54.45,2.16-.05.5-.6.71-1.18.93-.42.16-.85.32-1.09.59-.43.48-.64,1.1-.84,1.71-.19.59-.37,1.14-.75,1.57-.41.46-1.17.83-1.98,1.22-.93.45-1.99.96-2.58,1.67M463.96,333.75l.66.66-1.55,1.55-.66-.66,1.55-1.55ZM446.67,338.31l.04-.05c.07-.09.27-.25.75.06.69.45,1.77,1.83,1.28,2.76l-.05.09h-1.85s-.17,0-.17,0v-2.86ZM435.43,341.22c-1.27,5.36-1.97,8.31-7.84,10.47l-.17.06-.05-.18c-.69-2.56.59-4.12,1.82-5.62.59-.72,1.15-1.4,1.48-2.17.33-.77.48-1.76.62-2.71.29-1.93.59-3.92,2.32-4.63l.29-.12-.88,4.45,2.63-.44-.21.88ZM540.41,256.01l-.25.13v-1.43l.25.13c.35.18.52.37.52.59s-.17.41-.52.59ZM564.59,265.64l-.1.1-.12-.08c-3.95-2.67-8.43-4.32-12.76-5.92-2.74-1.01-5.57-2.05-8.26-3.35-.35-.17-.67-.22-.95-.26-.35-.06-.67-.11-.86-.38-.2-.29-.22-.79-.05-1.67l.02-.13h.13c.14-.02.28-.02.42-.02,1.73,0,2.92.81,3.97,1.53.54.37,1.06.73,1.6.92,1.3.48,2.67.87,4,1.25,2.18.63,4.42,1.27,6.51,2.3.06.03,6.36,3.25,6.66,5.06.04.25-.03.47-.2.65ZM526.44,242.15c-.86.2-.95.15-1.85.48-2.14.84-3.85,1.12-6.14,1.41-3.48.46-6.91.55-10.33,1.12-1.06.2-2.07-.09-2.64-1.08l2.46-.73c-.2-3.04,1.08-3.22,3.79-2.77,0,0,2.2-.71,1.94-1.7,1.23.07,2.31-.09,2.95,1.1.22.46-.62,1.21,1.12.99l.13-1.81c1.45-.02,3.08.37,4.51.31.22-.02.4-.55.64-.57,1.52-.18,2.73.13,3.52,1.45l2.86-2.25-.79,2.97c-.13.11-.62-.2-.9-.07-.44.22-.97,1.06-1.28,1.12ZM567.4,252.72l-.86-.66-3.02-.2c-.11-.13.2-.62.07-.9-.68-1.39-1.7-.79-2.64-1.08-1.94-.59-2.82-.55-4.78-.92-.46-.09-3.06-1.34-3.52-1.43-1.26-.24-3.22.07-4.21-.29-.33-.11-.79-1.17-1.12-1.28-.4-.15-3.24-.79-3.57-.84-2.93-.51-6.34-.2-9.32-.62l-2.71-.18-4.47-.9,3.17-2.51.22-3.3c1.58,1.17,3.74.7,5.68.97l.82,1.28-1.23.51,2.31,1.37,1.23-.22,1.03-2.05c.42.95,1.3.51,1.76.73.73.33,2.11,1.89,2.29,1.96.6.2,1.32-.22,1.76.73l3.13-1.61,2.25,2.55,1.85-.48,2.89,2,3.04-.4c.92,1.81,2.2,1.06,3.52,1.43,1.26.37,4.58,3.88,6.5,2.25l2.25,2.58c1.34.73,3.43,1.81,4.67,2.71,1.3.97,1.59,2.16,1.26,3.72.99-.02,2.73.04,2.95,1.1.44,2.07,1.5,2.62,1.61,3.11.46,2.09.55,3.77,2.05,5.57l.92,4.29c-.48.51-1.72-1.21-1.74-1.32-.22-1.08-.15-2.69-.35-3.66-.15-.77-1.25-1.87-1.65-2.51-.09-.15.13-.48.05-.59-.95-1.45-1.76-1.89-3.5-1.76.62-1.7-1.59-1.78-1.7-1.92-.11-.11.2-.59.07-.9-.35-.73-1.5-1.04-1.06-2.18l-1.54.51c-2.16-1.54-4.08-3.41-6.34-4.65Z"/>
      <path class="cls-1" d="M458.89,311.45c-.51,1.22-.6,1.95-.54,2.17.79-.01,1.45-.3,1.96-.84,1.09-1.16,1.38-3.29,1.29-4.93-.92.24-2.04,2.01-2.71,3.6Z"/>
      <path class="cls-1" d="M522.11,298.92c-.82,0-1.08.32-1.61.95-.14.17-.31.37-.51.59-.6.65-1.31,1.25-2,1.83-1.99,1.67-3.87,3.25-3.4,6.06,3.95-.09,5.8-3.99,7.43-7.43h0c.31-.65.62-1.32.94-1.92-.34-.05-.61-.08-.84-.08Z"/>
      <path class="cls-1" d="M482.81,299.39c-2.34,1.5-5.06,6.17-5.07,6.91,0,.47.2.92.42,1.4.22.49.45.98.46,1.53,2.84-.19,2.95-2.09,3.06-4.11.04-.74.08-1.5.27-2.17.2-.71.75-1.2,1.28-1.67.71-.63,1.38-1.22,1.2-2.28-.44-.15-.98-.02-1.62.39Z"/>
      <rect class="cls-1" x="483.88" y="293.78" width="1.41" height="1.41"/>
      <path class="cls-1" d="M477.15,295.49c-.32-.02-.58-.04-.77-.04-.14,0-.23.01-.27.04-.04.03-.05.19-.06.37-.01.2-.03.47-.09.82-.05.29-.1.58-.15.87-.24,1.4-.49,2.84-.95,4.21-.17.51-.5.89-.81,1.25-.43.51-.84.99-.74,1.76,3.9-1.73,5.14-4.51,4.11-9.26l-.27-.02Z"/>
      <path class="cls-1" d="M469.53,305.13c-.07-.08-.19-.12-.33-.12-.13,0-.29.03-.46.1-.74.28-1.53,1.09-1.53,2.03,0,.43.19.91.4,1.42.27.68.55,1.38.5,2.15-.04.57-.44,1.1-.83,1.61-.39.52-.76,1-.65,1.41.07.28.37.54.91.77.26.12.47.13.63.03.51-.29.66-1.54.78-2.63.11-.94.21-1.82.54-2.21l-.15-.89-1.51-.14c-.07-.04-.12-.1-.14-.18-.04-.22.2-.5.7-1.06h0c.67-.76,1.59-1.79,1.14-2.3Z"/>
      <path class="cls-1" d="M512.14,310.73c.35-.15.69-.3.84-.51,1.27-1.71-.12-3.81-1.3-4.73-.3-.24-.5-.32-.59-.34-.1,2.32-1.67,3.81-3.19,5.25-1.54,1.46-3,2.84-2.96,5,.13,0,.26.01.39.01,2.31,0,3.66-1.59,4.97-3.13l.06-.07c.24-.28.49-.57.74-.85.26-.29.65-.46,1.03-.62Z"/>
      <path class="cls-1" d="M457.24,321.33l.79-6.32-2.55,1.71-.03-.28c-.13-1.54.34-3.04.81-4.49.82-2.58,1.53-4.81-1.32-6.62.08,1.38.03,2.88-.03,4.47-.16,4.34-.33,8.83,2.33,11.54Z"/>
      <path class="cls-1" d="M456.76,329.81c-1.24,2.3-1.97,4.72-1.88,4.95.24.26.57.23,1.01-.1,1.7-1.3,3.74-6.21,3.14-7.52-.6.11-1.4,1.06-2.27,2.67Z"/>
      <path class="cls-1" d="M463.26,313.94c-.4.6-1.09.69-1.76.78-.56.08-1.09.15-1.35.53-.24.35-.24.96-.02,1.86,4.11-.99,5.31-4.03,6.67-7.56-.99-.17-1.69-.1-2.15.24-.62.45-.74,1.34-.85,2.21h0s-.08,0-.08,0l.08.02c-.09.7-.18,1.42-.54,1.94Z"/>
    </g>
    <g>
      <path class="cls-1" d="M523.47,501.61l-.12,1.85,7.28-1.19c.02-.16.04-.32.09-.48.06-.22.57-.33.64-.55.18-.73-.07-1.78.15-2.4.07-.18,1.89-2.09,2.29-2.58.49-.57,1.23-.66,1.01-1.74l.49,1.85,1.25-.84c-.57-1.54-.18-1.08.13-1.81.13-.33-.05-.77.06-.9l.86.66c.22-.31.88-.59.95-.84.48-1.37.11-7.66.55-8.1l1.15.68c.06-2.11.4-4.23.42-6.32.02-.99-.4-1.76-1.12-.99-.24,1.23.02,2.77-.26,3.92-.22.9-1.94,2.71-2,2.88-.57,1.61.11,4.98-.44,6.61-.15.48-1.67.84-1.34,2.03-2.84-1.67-2-4.25-1.94-7.07,0-.99-.4-1.76-1.15-.99-.2,1.06.02,2.33-.22,3.33-.05.15-.99.53-.73,1.76.07.24.57.42.57.64,0,.11-1.14.97-.75,2.07l-2.66-.79c-1.76,1.01-.77,3.37-1.23,5.04-.24.82-1.98,2-1.45,3.55l-.95.84-1.52-.11Z"/>
      <path class="cls-1" d="M770.41,582.76c-1.8.22-10.7-1.1-11.12-.73l-.13,1.81c-1.1.07-1.74-.09-2.33-1.06l.64-.57-.84-.95-2.75.42.48,1.85c-1.54.04-2.4-.09-3.24-1.43-.68-.24-.88.55-1.83.48-.92-.07-1.06-.9-2.07-.75l.49,1.85c-.66-.13-1.52.04-2.12-.13-.2-.07-1.52-1.28-1.72-1.32-1.41-.42-3.46.48-4.45-1.21.53-.66,1.94-.02,2.73-.11.22-.04.37-.51.64-.57,1.14-.29,2.03,1.54,2.73-.42l-10.22-.68.51,1.54c-.99,1.03-1.89,1.81-3.41,1.3-.31-.11-.79-1.17-1.12-1.28-.95-.35-4.84-.04-5.11-.35l.09-1.19-3.04.4c-.29-2.42,2.58-.22,3.41-1.58l3.24,1.41c.2-2.91-3.2-1.61-5-2.14-1.89-.55-2.78.13-4.8-.31-.22-.04-.35-.59-.57-.64-1.1-.22-2.62.04-3.61-.24-.57-.18-3.26-2.14-4.03-2.69-2.47-1.72-5.06-3.98-7.46-5.92-4.54-3.65-8.81-7.73-12.16-12.57-.44-.66-.62-2.51-2.27-2.27l.09-1.21c-1.26.04-2.47-1.32-2.25-2.55l-1.21-.09c-.29-3.15-4.4-5.55-5.51-7.91-.88-1.83-3.9-3.17-4.54-4.54-1.17-2.45-5.88-6.34-8.19-8.68-2.09-2.16-12.6-13.85-13.54-14.18-.51-.18-1.3.04-1.81-.13-.44-.15-3.72-5.68-5.57-7-.42-.31-.95-.64-1.45-.99-.75-.55-1.54-.15-2.05-1.06-.51-.02-.46,1.17-.4,1.5.07.24,1.65,2.25,1.94,2.84,1.3.22,1.48,1.78,3.21,1.41-.2.88,1.1,3.48,1.87,3.74.64.24,1.76-.07,2.4.18.57.2,2.31,2.95,3.08,3.52l-.66,1.15.44,2.16,2.2-1.06c.88,1.01,1.1,2.2,2.2,3.15.13.11.49-.04.6.04.95.88,2.6,2.82.15,2.42l.18,1.83c.73.68-.18.82-.64.57-.57-.33-1.59-1.94-2.25-2.58-9.12-8.59-17.55-18.59-27.28-25.96-.24-.18-1.5-.53-1.76-.7-.26-.2-1.58-1.45-1.08-1.89.71,1.08,1.68.73,2.69.48.82-.2.62.29.88.35.57.13,1.32-.04,1.81.13.33.11,1.17,1.5,1.69,1.92,1.65,1.34,2.16.97,3.39,3.24.44.77,1.32.57,1.74,1.32,2.75-1.92-1.61-5.37-3.57-5.66l.09-1.21c-3.81-1.32-7.66-3.83-11.41-5.57l-2.14.46.11-1.81c-1.48.09-2.78-.37-3.83-1.45l-3.63.35-1.12-1.28-1.26.51-.84-.95s-15.26-2.11-15.13.51c-1.03-.24-1.63.84-2.75.42-.51-.18-.81-1.1-2.4-.15,0,0-6.17-.29-8.46.04-1.39.2-4.62,1.7-6.17,2-.42.09-2.75.42-2.75.42-.8.05-1.63.31-2.13.46-1.28.42-2.49,1.1-3.72,1.56-2.29.88-6.18,2.38-8.1,3.7-3.32,2.31-5.66,5.7-8.94,7.27-2.95,1.41-22.35,21.54-30.7,29.86-2.77,2.77-9.29,11.96-10.81,14.45-1.72,2.82-9.36,6.28-10.68,9.91-.2.59-5.06,4.52-5.79,5.66-2.47,3.72-9.71,8.17-11.06,11.94-.68,1.89-15.59,13.57-17.64,15.44l-1.23.53c-3.31,3.85-9.01,6.29-19.12,10.5-.48.2-2.11,1.63-2.55,2.25l1.39,1.61,1.54-.51c.35,1.19-1.17,1.54-1.34,2.03-.49,1.43.4,2.11.44,2.44.09.64-.15,1.43-.13,2.12,1.43.24,3.15,0,4.51.29.46.11,1.87,1.67,3,.2l2.03,1.34c-.11-1.1.79-1.94,1.94-1.67l-.13,1.81c1.8.88,2.84-.88,3.39-.99.9-.18,3.11.04,3.57.84,1.5-1.12,4.4-1.52,5.48-.84l3.08-1.01c.75,1.1,2.29.64,3.57.84l2.29-2.55c-.95-.77-.26-.88.4-1.5.64.11.11,1.06.2,1.54.13.51,1.1,1.17,1.76,1.01l.33-5.11c.88-.99,2.62-1.63,2.62-3.13l1.1,1.56c-2.71,1.96-2.11,2.25-.92,4.76.33.68.15,1.81,1.72,1.63-.24-.99.9-1.3.73-2.07-.06-.31-.88-.57-.48-1.54.9.44,2.82-.53,3.11-1.3.18-.48-.05-1.28.11-1.81.07-.22.59-.33.64-.55.51-2.31-.62-4.93,1.92-6.21.49-.24,1.19.59.99-1.15l1.19.37c.22,1.48-1.04,1.96-2,2.88.99.86.33,2.36.35,3.66l-1.45,3.81c.92.24,1.65-.42,2.18-1.06.44-.51.33-.84.35-.88.31-.4,1.19-.86,1.3-1.12.24-.73-.02-3.11.22-3.3l1.78.11-.73,2.07c-.05.51,1.14.46,1.48.4,1.06-.22,1.12-2.05,1.1-2.95l1.76.73c.13-.66-.02-1.5.15-2.09.05-.22.55-.33.64-.57.42-1.15-.46-1.67-.49-1.85-.18-1.5.42-3.5.33-5.11.75-.77,1.17,0,1.14.99-.02,1.19-.28,2.47-.24,3.61.02.22.55.42.57.64.02,1.04-.84,5.7.53,5.77l2.66-4.05c.35.64,1.06.88,1.76.73.9-.2,4.78-4.62,6.1-5.33l.75-6.91c1.15.88.75,1.61.73,2.77-.02,1.5-.24,3.02-.28,4.52,2.18-.29,1.01-4.23,1.52-4.74l1.45.71c.42-.57,2.09-1.54,2.25-1.96.37-1.06.04-2.29,1.94-2l1.06-2.33c1.28.86.57,1.81.73,2.75.05.24.55.42.57.66.15,1.65-1.08,3.88,1.54,4.01-.11-2.16.66-4.84.46-6.91-.02-.22-.57-.42-.57-.64,1.63-1.94,1.68-4.78,2.29-7.09.15-.62,0-1.43.13-2.09l1.72,1.32.79-2.66-1.08-1.89,1.63-2,.53,1.23.99-1.43c-.86-.55-.35-1.23-.48-1.85-.04-.24-.53-.42-.55-.64-.11-.99.26-2.25.22-3.3l1.45.7.97-.86c-.73-.73-.64-3.85-.28-4.84.13-.37,1.56-1.15,1.91-1.67.66-.95.57-2.64,1.74-3.22.28-.13.77.18.88.07l.88-4.16,1.81.11c.53-1.06-.46-2.03-.46-2.14.02-.2.57-.33.64-.57.13-.37-.04-.84.09-1.21.15-.42,2.07-1.59,2.55-2.22.2-.24.55-1.52.72-1.78.35-.48,1.17-.88,1.61-1.39l.77,2.16,1.17.37c-.33-1.28,1.85-2.69,2.03-3.19.31-.86.37-3.06-.35-3.63l2.31-3.17c1.32,1.08.26,3.26,2.51,3.19.53-1.08-.64-2.16-.42-2.75.09-.24.57-.33.64-.57.18-.57,0-1.43.13-2.09,3.32.88,3.54-2.05,5.4-3.88l2.66.79-.51-1.56c1.43-1.28,3.32-1.5,4.95-1.78l.18,1.83,1.06-2.33c1.01-.26,1.17.57,1.48.68,1.56.59,3.06-2.18,4.95-2.07l1.43,1.3-1.89,1.08c1.06.11,2.14-.33,1.76,1.01l1.06,2.2c-.09-1.54.75-3.48-.31-4.56.09-1.15,4.1-.75,5.17-.57.52.1,2.26.85,3.35,1.25-.77,2.32-3.31,4.01-4.12,5.56-.38.69-.39,1.83-.73,2.62l-1.72-.48c-.37-.61,2.19-3.85-.22-3.8.18,1.14-1.06,1.7-1.14,1.86-1.26,2.91-2.15,7.9-3.43,10.32-.89,1.75-4.49,3.34-4.22,6.34-.76.77-2.12.38-2.79,1.12-.81.89.64,1.3,1.2,1.28l.37-.15c.6-.33,1.47-1.19,2.14-1.05l-.07.25,4.21-1.62.46-1.75-3.25,1.62c-.84-1.18,1.49-1.59,2.15-2.22.89-.85.92-1.99,1.36-2.76.26-.42,2.98-1.51,3.71-2.13.46-.38.73-1.74,2.13-.99.35-2.29,1.96-3.58,2.25-5.93.38-3.21,1.25-4.77,2.7-7.82,1.96.25,4.01-.43,5.11,1.52,1.12-.2,2.77-.2,4.21.29.18.07,1.58,1.74,2.27,1.96l1.52.11.11-1.81,3.57.84-1.06,2.33-1.39-1.89c-.48,1.15.97,1.67,1.06,2.18.26,1.23-.66,1.59-.71,1.76-.35,1.36-.37,2.77-.88,4.18-.13.31-1.17.79-1.28,1.12-.68,1.92-1.01,5.2-1.69,7.14-.09.29-.99.73-1.28,1.12l.46,2.14,1.8.11c-.4-1.1.66-1.76.75-2.05.2-.71-.07-1.78.15-2.42.17-.48,1.7-.77,1.37-2.31-.07-.26-.57-.44-.57-.64.02-.13.97-.53.7-1.48l3.04-.4c-.31-.97.88-2.71,1.72-2.91.57-.13,1.25.4,1.83-.48,1.37-.31.97,1.61.77,2.16-.51,1.41-1.76.11-1.83.2.37,1.87-1.19,2.09-2.03,3.17-.44.59-.95,2.33-1.39,2.93-.24.31-.71.53-.97.84l-1.5-.09c.37,1.12-.71,1.89-.75,2.07-.2.97-.05,2.36-.13,3.41l1.72-.46c.02-.35.05-.73.11-1.04l1.26-.81c-.22.64-.15,1.45.55,1.32.09,0,.18-.02.26-.07,1.48-.59.9-2.78,1.1-2.95l1.81.13c-.53-1.58,1.21-2.14,1.39-2.64.44-1.25.46-2.16,1.17-3.83.33-.86.48-1.5.44-2.4,1.67-.2,1.19.59,1.1,1.89,2.22-.04,5.24,2.38,4.49,4.82-.05.22-.49.31-.64.55-.09.2.05.51-.02.62-.66.9-1.85.75-2.53,1.63l-.86,3.88c.42,0,.79-.04,1.1-.2,1.23-.46,1.67-1.83,1.54-3.24l1.45.68c1.81-1.15.11-3.39,2.95-3.41-.02-1.08.35-1.67-.75-2.47-.13-.11-.49.04-.59-.04-1.21-.97-3.3-4.21-.4-3.04.75.29,2.45,2.75,1.85,3.74,1.21-.31,3.04,1.28,3.48,2.33.57,1.45-1.72.64-1.87.79-.38,1.06.4,2.6,1.32,3.11.81.46.9,0,.79-.62-.11-.73-.49-1.67-.35-1.78l2.42.18c.09.11-.2.59-.06.9.46.95,3.76,4.36,4.78,5.44,6.63,7.05,14.25,14.56,20.92,21.32,1.58,1.61,2.93,3.48,4.49,5.11l-.13-2.42.9.07,7.38,7.14c2.8.7,3.41,2.99,2.95,5.62,2.44-.53,2.58,1.28,3.79,2.07.26.18.79-.07.9.07.11.11-.2.59-.07.9.68,1.41,3.79,3.02,3.97,3.88.13.64.02,2.95.4,3.35l1.19.09-.06,1.19c1.32-.2,1.69,1.3,2.58,1.98l.99-1.15c0,.48-.35.99.22,1.23.71.31,1.92.55,2.36.77.6.26,2.86,2.62,2.69.46-.15-2.16-2-1.17-2.55-2.27-.59-.35.51-1.15.66-1.17,2.4-.48,3.39,2.33,5.59,2.18.29,1.92-1.21,1.01-2.46,1.04l-.2,2.71c.51,1.19,1.58.79,2.05,1.04.97.51,3.54,3.13,4.01,3.28.55.2,1.45,0,2.11.15l.37-1.19.75,2.47c1.74.38,1.7-1.48,2.86-2.22l.77,2.16c-.04.53,1.12.46,1.48.4,1.21-.22,1.21-2.09.51-2.97,2.93-.13,1.89,1.3,2.22,2.86.04.22,1.08,2.09,1.37,2.2.68.24,1.41.09,1.83-.48l1.74,1.32c1.28-1.32,2.09-2.03,4.03-1.54l-.44-2.75,1.65-2,2.11.13c-.37.57-.66,1.3-1.04,1.76-.75.9-2.33,1.1-.75,2.36l2.14-.46,1.34-2.03-.51-1.54c2.49,1.23,3.79-1.32,4.63-1.5,1.06-.24,2.64-.13,2.03,1.34-1.94-.51-3.08,1.72-4.93,1.48l-.15,2.4c2.31,0,3.7-1.92,5.35-3.26l.79,1.85-1.3,1.12,2.75-.42.57.64,1.01-1.74-1.19-.38,2.53-1.65-.28-.31.42-1.78c.77-.13,1.61.02,1.14.97-.31.66-1.12.33.2,1.52l3.39-.97c.22.2-3.39,2.93-1.19,4.14l2.88-2.53-1.03-2.47,1.61-1.41,4.63-1.52-.15,2.42-2.4-.18c.07.97-.55,1.15-.75,2.07-.51,2.31,1.98-.13,2.11-.15.53-.11,1.3.22,1.81.11.33-.07.59-.88,1.54-.51l-.35-3.63,2.36.75-1.32,1.74c2.27.64,1.5-.62,2.82-1.63l2.65,1.39.04-.9,1.23-.22.22,1.21,2.29-2.55-.55-.95,2.36.75-.48-1.54.35-.88.42-1.78c1.78-.4,1.17,1.83,1.94,2.55,1.19-1.12,2.62-1.67,2.36-3.48,1.39.66,2,.2,3.61.24l.06-1.21,1.81.13-.35-3.66,1.04,2.49,3.66-.35.15-2.42c1.43,1.34,2.16-.79,3.15-1.89l-2.4-.46.73-1.76c.92.04,2.53-.53,3.11-1.3,1.45-1.96,3.08-2.73,3.9-3.99.92-1.43-4.76-2.47-4.98-2.44ZM504.18,595.67l-2.51,1.34c1.74-1.98-.51-6.52,2.84-6.45l-.33,5.11ZM572.95,514.47c-.09.24-.86.35-.68,1.17.06.31.88.57.51,1.54l-4.25.31.2-2.99,2.35.75.8-2.95-2.38-.46.18-2.71c1.76-.44.92,1.56,1.98,1.94,1.85.66,3.22-2.55,4.38-2.11l1.3,3.11-1.78-.42-1.48-.42c-1.52.77-.8,2.09-1.12,3.26ZM606.22,522.4l-1.76-.7.46,2.14-.99,1.45c-.46-.95-1.21-.53-1.76-.73-.33-.13-.82-1.17-1.12-1.28-.73-.26-3.11,0-3.3-.22l.11-1.81c-1.52-.26-2.93.86-4.56.31-.31-.13-.79-1.19-1.12-1.3-2.55-.88-9.2-2.2-11.34-1.96-1.7.2-2.51-.7-2.95-.79-1.23-.24-2.66-.07-3.92-.26l.92-4.76,1.98,1.94.64-.55,1.17.66,2.2-1.37-1.02-3.08,1.96-1.98.15,6.65c-1.06-.24-2,.46-1.92,1.7,1.7.44,2.36-.13,3.68-.97l.8,1.87.37-1.19,1.8.11.11-1.81,1.81.13,1.12,1.28-.42-2.75.81-3.26,2.38.77c-.26,1.5.82,2.07,2.27,1.96l.09-1.21c1.26.2,2.69.02,3.9.26.51.09,2,.55,2.97.79.24.07.48.97,1.48.71l-.29,4.21c-2.42-.7-.66,2.14.13,2.42.55.2,1.45,0,2.11.15l1.06-2.36-.02,4.82ZM694.2,562.04c-1.72.11-2.77-.46-4.18-.88,0,0-3.7-3.79-5.06-5.46-1.92-2.38-4.18-5.9-6.1-8.26-1.96-2.42-8-8.17-8.98-10.26-.84-1.78-2.84-2.07-3.42-3.24-.75-1.54-.66-.71-2-1.65-1.23-.86-1.34-2.53-2.49-3.48l1.12-3.24,7.07,7.4c.15.7,1.43.99,1.43.99l.79,1.87c1.57-.24,5.64,4.23,6.28,5.55,1.01,2.16,4.89,5.02,6.74,7.69.09.15-.13.48-.04.62,1.48,2,2.99,4.34,4.4,6.32,1.67,2.33,4.01,2.86,4.45,6.03.46-.04.05.35,0,0Z"/>
      <path class="cls-1" d="M643.02,469.66l.51,2.46c4.39,3.01,8.51,6.36,12.3,9.98.04-.35.1-.69.02-1.01-.11-.57-1.87-1.59-.97-3.39l2.69.18c1.12,1.21.86,2.93,3.15,2.62l-1.54-4.03c-.24-1.61,1.14-2.58.88-4.16-.04-.24-.53-.42-.55-.64-.2-1.72.68-3.63-2.16-4.07l.88,4.89-1.67-1.92-.11,6.03-1.92-2.84,1.41-2.93-.84-5.79c-1.17.37-1.52-1.17-2.03-1.34-.79-.29-1.78.15-2.66-.77-.29,1.67,1.32,3.32-.29,4.49l-.09,1.21c.68,1.04,1.76,2.38.09,3.33-.4-.4-1.32-1.89-1.37-2.2-.24-1.61.6-3.11-.29-4.85-.33-.64-1.48-1.37-1.69-1.94-.64-1.65,2.6.15,1.96-1.98l-5-2.14c-.53.11-.51,1.67-.44,2.09.02.13.97,2.36,1.03,2.47.48.84,2.71,2.71,2.82,3.22.31,1.48-.77,3.77-.05,5.13l.11,3.02-1.67-2.22-2.53-2.88ZM652.82,467.9c1.01-.24,2.09,1.61.75,2.16l.4,3.35c-.48-.53-1.72-.64-1.78-.7-.09-.13.18-.57.07-.9-.2-.59-1.28-.9.13-1.81-1.04-.64-.35-1.89.44-2.09Z"/>
      <path class="cls-1" d="M586.82,532.91c.31-1.58.09-3.48.33-5.11l-1.89,1.39c-1.17,1.59-.53,3.59-.97,5.35-.28,1.17-4.45,7.49-5.44,9.31-1.06,1.92-1.1,2.73-1.21,3.77l2.82-.64c.92-2.55,2-5,2.31-7.71,2.93-1.87,2.73-3.02,3.42-5.81.04-.22.59-.33.64-.55Z"/>
      <path class="cls-1" d="M588.82,539.07c-.34-2.08-.64-1.32.24-3.61.41-1.05-.86-2.1-.38-3.35l-1.3,1.42c.37,1.26-.59,1.92-.76,2.36-.43,1.15.46,1.67.48,1.84.13,1.17-.32,2.67-.26,3.91,1.65.28,2.22-1.19,1.98-2.59Z"/>
      <path class="cls-1" d="M570.53,540.41l-.79-1.75c-.03,1.16-.5,1.27-1.12,1.86-1,.94-4.91,5.41-5.53,6.61-.73,1.4-1.01,3.44-1.93,4.8-1.07-.48-2.09.12-2.21,1.26l1.15.32c-.05.24-.09.47-.17.71l2.57-1.93c.44-1.3.96-2.77,1.43-3.66.31-.63,1.58-1.84,1.94-2.6,1.1-2.36,2.01-2.83,3.16-4.78.16-.26,1.14-.51,1.49-.85Z"/>
      <path class="cls-1" d="M393.65,460.44c.34-.81.52-1.63,1.06-2.35l-2.64,3.45c1.37.32,1.15-.07,1.58-1.1Z"/>
      <path class="cls-1" d="M590.34,543.41c-.97,2.66-2.49,3.9-3.19,5.99l1.56.57c0-.11,0-.22.02-.33l2.93,1.39c.13-1.34-.44-2.18-1.74-1.32l.11-1.5c1.76-1.19,1.06-3.39,1.52-4.73.15-.48,1.67-.84,1.34-2.03-.15-.2-2.46,1.7-2.55,1.96Z"/>
      <path class="cls-1" d="M606.27,549c.07-.18.09-.37.07-.62-.6-.09-.99.07-1.3.33l1.23.29Z"/>
      <path class="cls-1" d="M618.02,544.93l.09-1.21c-.4,0-.82-.09-1.21-.07.02.4-.06.79-.09,1.19l1.21.09Z"/>
      <path class="cls-1" d="M551.17,551.67l-1.12-1.56c.2,1.15-.24,1.34-.73,2.05-.79,1.12-3.75,6.28-4.12,7.58-.44,1.52-.31,3.57-.95,5.09-1.14-.26-2.03.53-1.91,1.67l1.19.09c0,.24,0,.48-.02.73l2.14-2.4c.18-1.37.4-2.91.68-3.88.18-.68,1.19-2.11,1.39-2.93.62-2.53,1.41-3.17,2.16-5.31.11-.29,1.01-.73,1.3-1.12Z"/>
      <path class="cls-1" d="M657.42,430.16c.25-.89-.18-1.25-.78-1.86l-1.5-.1c.08.81,1.75,2.43,2.29,1.96Z"/>
      <path class="cls-1" d="M596.11,515.7c-1.09-1.9-3.05-1.3-5.03-1.54-.46,1.92.68,2.88,2.55,2.58.27-.04.59-.9,1.54-.5l-.08,1.2,3.63-.06-1.37-2.2-1.24.52Z"/>
      <path class="cls-1" d="M705.85,455.71l-2.75-4.11c-.28-2.03-1.47-3.33-3.35-4.15-.42,1.41.17,1.58.74,2.46,1.09,1.69,2.24,2.74,3.33,4.45.45.71,1.08,1.46,2.02,1.34Z"/>
      <path class="cls-1" d="M699.19,446.81c-.57-1.02-.34-1.78-1.02-2.78-.66-.98-1.18-1.12-2.34-1.06-.36,1.14.61,1.45,1.06,2.18.08.13-.13.44-.04.6.54.99,1.3,1.11,2.35,1.06Z"/>
      <path class="cls-1" d="M661.92,421.4c.42.14,1.27,1.78,1.68,1.92.5.17,1.3-.05,1.8.12,1.5.52,2.42,2.88,4.99,2.14l.78,1.86,3.27.82.44,2.44c2.07-.33,2.14.57,3.23,1.42,2.52,1.97,3.64,4.73,6.86,5.89.86.31,1.46,4.34,4.31,3.3.29,2.88,4.65,4.69,4.94,7.57l1.2.08c2.84,6.26,9,11.64,12.09,18.01.39.8.77,1.94,1.66,2.22l.26-3.91c-.57-1.23-2.32-1.64-2.85-2.6-2.45-4.5-6.3-9.03-9.39-13.3-4.59-6.35-8.57-9.43-13.83-14.5-.55-.53-3.59-3.9-3.65-4.17-.17-.72.57-1.03,1-1.44l2.89,2c1.2,2.33,2.32,2.63,3.97,3.88,1.09.83,1.29,2.41,3.19,2.02-.4-2.9-3.94-3.07-5.07-5.47-.63-1.33-.97-1.18-2.57-2.28-.14-.1-.36-.08-.6-.04l-2.85-2.6-1.36,2.32c-1.09,0-2.13.02-2.65-1.08-.14-.29.17-.78.06-.9-3.97-1.67-7.59-4.95-11.29-7.39-1.13-.75-2.52-1.02-3.53-1.44-.34-.14-.45-.96-1.46-.7l-.74,2.06c.94,1.86,2,1.3,3.21,1.72Z"/>
      <path class="cls-1" d="M670.64,421.98c.19-1.03.17-1.8-.74-2.46-.15-.11-.48.05-.6-.04-.75-.62-1.39-1.5-2.29-1.96-3.94-2.04-8.38-4.33-12.27-6.25-.45-.22-1.35.23-1.76-.72l-3.83-1.46,1.95,2.54c5.46,1.71,11.6,5.03,16.96,8.37.48.3,2.47,2.1,2.59,1.98Z"/>
      <path class="cls-1" d="M716.01,453.63c.74.48,2.27,2.85,2.01,3.72l4.59,5.72c-.48-.55-2.99-8.26-3.06-8.33-.07-.08-1.11.13-1.74-1.02-.36-.66-1.64-4.5-1.8-4.69-.96-1.09-1.54-2.42-2.99-4.33-.42-.55-2.95-1.44-3.62-.9.69.89,1.15,2.59,1.91,3.15,2.48,1.81,2.75,5.43,4.7,6.69Z"/>
      <path class="cls-1" d="M695.71,431.72c.19.94-.34,2.53-.24,3.61l1.71,1.62,6.26,5.85c.99.1,2.46.89,2.91,1.7,3.74,6.82,14.64,19.99,15.12,26.96.06.81.23,1.93,1.14.98l-.22-5.75c-2.63-3.78-4.64-8.29-7.06-11.94-1.93-2.91-4.57-6.74-6.62-9.49-.79-1.06-1.75-2.05-2.69-3.06l-7.4-8.78c.3-1.47-1.47-2.29-2.19-3.47-.32-.52-.13-1.89-1.7-1.62l.08-1.2-1.5-.1c-.51-.04-.47,1.17-.4,1.48.14.63,2.68,2.61,2.81,3.2Z"/>
      <path class="cls-1" d="M756.04,518.5l1.66,2.22-.1-3.03-3.29-5.05c-1.11.87-1.28.85-.44,2.08.87,1.28,2.61,2.1,2.17,3.77Z"/>
      <path class="cls-1" d="M739.28,507.13c.07.34,1.05.95,1.12,1.28.22,1.08-.73,2.43.68,3.37l2.18-1.06c.27,1-.62,1.2-.7,1.46-.56,1.92,1.14,3.47,2.09,4.97.59.94,1.54,2.92,2.17,3.77.74,1,1.8,2.2,2.83,2.9.19-1.85-1.44-3.98.66-5.39l.36,3.65,1.36-2.33c.26.79,1.41.64,1.46.7.04.05-.15.55.22,1.22.48.86,1.23.7,2.06.74.17-.88.09-1.55-.14-2.42-.57-2.14-2.69-5.23-4.75-5.75l.12-1.8-1.2-.08c.06-.28-.06-.65.06-.9.89-1.78.27-.84.12-1.8-.26-1.69.12-3.75-.25-5.45l-.84-.96c-.23.31-.88.6-.96.84-.21.59.27,1.89-.44,2.08l-2.09-4.97-1,1.44c1.65,1.08.55,2.59,1.57,3.73l.34,3.95,1.92-1.68-.74,6.59-.7-3.07-1.8-.12c.39-.95-.48-1.3-.5-1.54-.08-.74.26-1.69.16-2.4-.08-.57-1.43-1.89-1.02-2.78l-2.91-1.7c.49-1.09-.06-5.66-1.77-5.25-2.08.5,0,2.78.08,3.33.22,1.48-.04,4.07.24,5.45Z"/>
      <path class="cls-1" d="M722.31,480.65c-.4,1.14.87,2.09.38,3.35l-1.2-.08c-.62,1.82.89,2.23,1.58,3.43.36.62.72,2.28,1,3.08,1.8,1.24,1.83,3.45,2.69,5.01.37.67.93,1.13,1.74,1.02l-.28-4.85,2.21,3.16-.32-4.25-2.45.44c.32-1.31-.09-1.91-1.02-2.78l.7-1.46-3.65.36.48-7.21c-.63-.24-1.69.29-1.86.78Z"/>
      <path class="cls-1" d="M710.2,462.94l1,3.08,3.39,3.55c.55-1.51-2.03-3.51-2.15-4.07-.11-.52.23-1.28.12-1.8-.2-1-2.67-1.9-2.85-2.6-.25-.99.31-2.28-1.66-2.22-.65,1.96,1.41,2.77,2.15,4.07Z"/>
      <path class="cls-1" d="M642.35,403.14l1.9-5.91-1.8-.12-2,2.89,1.38-2.63c-.35-.97-1.52-1.09-1.8-.12-.43,1.46-.14,3.28.6,4.57l1.72,1.32Z"/>
      <path class="cls-1" d="M635.17,397.53c.29,1.57-1.15,4.82,2.45,4.09,1.06-.21,1.34-2.95,1.16-3.85-.23-1.13-2.67-1.96-3.77-2.36-1.87,1.09.04,1.44.16,2.12Z"/>
      <path class="cls-1" d="M633.29,398.61l-1.06-2.18,1.28-1.12c-3.14-.42-3.39,2.15-3.32,4.61,1.5.41,2.13-.38,3.11-1.3Z"/>
      <path class="cls-1" d="M645.36,403.33c1.24.42,2.88.1,2.82-1.62,1.2.06.55,1.14-.1,1.5l.8,1.56,3.65-.36,1.58-1.1-.76,2.37,2.06.74,3.43-1.58-.38,1.18c1.32-.13,2.23.62,1.98,1.94l3.57.84.76-2.36c-1.64-.45-2.58-1.37-4.21-.28l-.44-2.44c-1.18.35-1.7-.6-2.06-.74-2.6-.98-5.59-1.8-8.26-2.96-.85-.37-2.51-1.47-3.49-2.04-1.33-.77-.71,1.79-1.64,2.01l.52,1.24c.12.53-1.28,1.63.16,2.12Z"/>
      <path class="cls-1" d="M659.31,483.73c-.22-1.01.29-2.25-1.67-2.22l-.74,1.63c1.39,1.37,2.73,2.78,4.06,4.21.08-.59.14-1.16.03-1.7-.09-.42-1.58-1.48-1.67-1.92Z"/>
      <path class="cls-1" d="M669.21,412.46l.84.96,2.45-.44c.56,1.38,1.81,1.07,2.32,1.36,5.38,2.98,9.72,6.97,14.39,10.61.31.24.53.68.84.96l1.8.12-3.65-4.17c-6.35-4.39-12.78-9.87-19.69-12.77-.34-.14-.45-.95-1.46-.7l-.16,2.4,2.4.16-.1,1.5Z"/>
      <path class="cls-1" d="M543.99,559.66c.22-.9-.05-2.16.2-3.02.09-.29,2.58-5,2.75-5.24.28-.4,1.17-.81,1.3-1.12.35-.92-.42-2.44-1.37-2.2-.95.22-1.3,2.47-1.72,3.19-1.21,1.12-.2,3.48-2.64,3.15l-.07,1.21c-1.3-.13-2.22-.4-3.06.7l.51,1.23c-2.03,1.78-1.63,4.43-2.23,6.5-.13.42-1.03,1.85-1.41,2.93-.29.77-1.63.15-2.6,2.84-.29.79-2.05.82-2.53,1.65.13,2.58-1.35,4.54-1.08,7.18.02.29.09.64.18,1.01l5.81-4.49c.29-1.32.64-2.64,1.15-3.9.26-.66-.15-1.5,1.03-2.05l1.39,1.89c.18-1.26.02-2.69.26-3.9.2-1.1,1.19-3.57,1.52-4.74.15-.62,0-1.43.13-2.09l1.76.7c-.26-.97.64-1.23.71-1.45Z"/>
      <path class="cls-1" d="M694.09,441.65c.41-1.55-.65-3.11-2.21-3.17-.16.12,1.27,3.1,2.21,3.17Z"/>
      <path class="cls-1" d="M560.51,547.15c-.11-2.31,1.21-3.9,1.03-6.25-.26-3.28.31-4.98,1.15-8.39.24-.95.99-1.52.79-2.66l-1.92,1.39c.64,2.99-2.33,5.66-2.91,7.66-.25.75-.02,1.87-.2,2.71l-1.78-.13c-.49-.53,1.39-4.21-.97-3.68.4,1.08-.7,1.87-.75,2.05-.66,3.11-.55,8.17-1.32,10.79-.53,1.89-3.74,4.16-2.88,7.05-.6.9-2,.79-2.51,1.65-.62,1.04.88,1.15,1.43,1.01l.33-.22c.53-.44,1.21-1.45,1.89-1.45l-.02.26,3.81-2.42.11-1.81-2.86,2.22c-1.06-.99,1.15-1.85,1.67-2.6.71-1.01.51-2.14.79-2.97.18-.46,2.62-2.07,3.22-2.82.37-.46.37-1.85,1.89-1.39Z"/>
      <path class="cls-1" d="M477.53,411.03l1.2.08.2-3.01,2.37.76.12-1.8,1.2.08.16-2.41-2.74.42-4.77,3.61c.06,1.15-.36,2.53-.24,3.61.02.22.5.39.56.64.36,1.53-1.18,1.82-1.36,2.33-.37,1.04-.66,2.03-1.4,2.93-.69.83-2.11,1.22-1.98,2.59,1.63.6,1.92-.62,2.78-1.02.3-.14.78.16.9.06s-.12-.63.06-.9c.26-.4,1.18-.82,1.28-1.12.47-1.35.57-3.38.92-4.77.06-.22,1.12-.93.74-2.06Z"/>
      <path class="cls-1" d="M563.08,336.96c-.13-.2-.35-.07,0,0h0Z"/>
      <path class="cls-1" d="M525.54,360.4l.22-.16c-.04-.06-.12-.03-.22.16Z"/>
      <path class="cls-1" d="M421.92,411.88c.28-1.85-.06-5.17.44-6.61.17-.48,1.68-.84,1.34-2.02l-2.58,2.55c.11,1.45-.21,2.14-1.4,2.93l.52,1.24.34,3.95c1.3-.25,1.19-1.01,1.34-2.02Z"/>
      <path class="cls-1" d="M437.82,395.12c.69-.33,1.5-1.51,2.24-1.96l-2.08-.44-2.85,1.92-.1,1.5c-1.16.06-2.75-.93-2.48,1.04,1.31.3,3.6-.15,4.31-1.23.18-.27-.06-.8.06-.9s.61.2.9.06Z"/>
      <path class="cls-1" d="M524.17,358.56l.99-1.15-2.93-1.41c-.37,1.61,1.1,1.67,1.94,2.55Z"/>
      <path class="cls-1" d="M562.58,302.83c-.44.64-.82,1.78-.77,2.66-1.48.22-5.37,3-5.73,4.16-.2.68.07,1.76-.15,2.4-.04.13-1.91,1.78-2.25,1.96-1.34.77-3.61,1.78-4.95,2.09-.11.02-1.58,1.3-1.61,1.41l1.04,2.47c.44,1.85-2.62,2.29-2.09,4.4,0,0-.66.88-1.3,1.41l-2.51,1.34c-.06,1.56-1.61,2.62-3.17,2.22l.55.92-5.66,3.26.46,2.14-3.3-.22c-1.48,1.15-1.87,2.8-1.83,4.71l-2.27-1.96c.99,1.43.13,2.14-1.1,2.95-.77.51-2.25,1.3-3.13,1.61-.62.84-2.4.22-2.82,1.32-.31.88,1.45,1.87,1.08,2.18l-3.06.4-1.01,1.76-.22-1.23-2.45.44c-.22,2.29-3.74,2.07-5.11,4.18l-.04.62c1.32,1.12-.11,1.98-.22,3.3l-1.34-2.51-1.28,1.12-1.17-.68-1.01,1.76-1.21-.09-.07,1.21c-1.14-.31-1.67.66-2.51,1.34l.46,2.14c-1.21.09-1.94-.88-1.7-1.92l-.29-.02c-.68.46-1.25,1.25-1.94,1.67-1.56.99-3.94,2.38-5.86,2.03l-.09,1.21c-1.39.2-2.62.68-4.25.33l1.1,1.56-1.81,1.28h0s-.02.02-.02.02l-1.31.93s0,.08,0,.11l-5.16,4.06-5.7.78c-.64-.08-1.52-.13-1.84-.07-.15.02-1.25.82-.68,1.17l.82,1.25-1.19-.09c.13,1.76-.31,2.58-1.74,3.52-.13.07-.46-.13-.62-.04-1.23.75-2.66,2.22-4.05,2.14.07,2.77-.26,4.01-3.26,3.41l-.06,1.21c-.29-.07-.66.07-.9-.07-.24-.11-.35-.55-.57-.64-1.59-.59-3.08,1.89-4.4,2.73-1.41.88-3.57,1.19-4.95,2.09-.79.48-1.47,1.4-2.24,1.95h-.02s-5.89,2.33-5.89,2.33h0c-.98.55-.98,1.75-1.96,2.28-.59.32-1.38.85-1.88,1.08-.29.14-.78-.16-.9-.06-.11.1.1.59-.06.9-.12.25-.58.35-.64.56-.42,1.39.43,2.17.38,3.35-1.15-.46-1.5.79-2.18,1.06-1.46.57-.84-1.8-.14-2.42l-2.4-.16-.08,1.2c-1.13-.31-1.66.68-2.5,1.34l-.74,2.06-1.71-1.62.74-2.06c-.64-.81-4.88,2.77-.76,2.36-.73,1.5.9,2.23,1.02,2.78.09.39-.13.95-.1,1.39l-.29-.05c-.64-.49-1.58-1.76-2.09-.29-.4,1.15.35,1.75,1.04,2.48-.68,1.1-3.45,1.81-3.81,2.77-.69,1.86.44,1.31.8,1.56.4.28.65.68.89.97l-1.42,1.53c-.19-.11-.52-.13-.84-.16-1.61-.2-3.43-1.19-4.78-.92-.48.09-1.03,1.54-2.18,1.06,1.34-2.14,5.86-2.47,3.11-5.84-.9-.33-1.83,1.32-2.51,1.65-.31.13-.79-.18-.9-.07-.13.11.11.64-.07.9-.18.29-3.28,2.99-3.52,3.08-2.07.82.2-2.25.48-2.69.09-.15-.07-.46.02-.59.62-.84,1.85-1.04,2.82-1.32.66-.2.26-1.23.42-1.78-1.52-.55-3.52,2.03-4.07,2.14-1.23.26-2.95-.68-4.01,1.25-.73,1.34,1.45.51,1.1,1.58-1.54-.31-2.35,1.61-3.46,2.18-.46.24-2.05.4-2.14.46-.2.18-2,3.44-2.09,4.1-1.63-.37-2.97.97-4.34,1.83l1.78.11.33-.29c1.06.97.82,2.78,2.55,2.6l-.18,2.4-1.12-1.28-1.19-.09c-.04,1.52-1.58,2.62-3.17,2.2l.2-3c-3-.88-3.35.77-5.26,2.07-.13.09-.46-.13-.59-.04-1.34.88-2.8,2.09-4.14,3.04l1.01,3.08c-1.21,1.34-2.62,2.29-3.02-.2l.79-2.67-1.32,1.74-3.35.38-.86-.66-.86,3.57c-2.03.15-4.21,2.62-4.51,4.54l-2.45.44-.09,1.19-1.85.79-.04.59c1.54.95-.57,3.48-.26,3.92l1.69,1.92c-2.22.24-2.6-1.59-3.43-2.95,2.44-2.77-1.15-2.44-1.76-.7-.99,2.73-.79,1.56-3.48,2.49-.35.11-.79-.18-.9-.07-.13.11.11.62-.07.9-.86,1.32-3.02,2.49-2.71,4.34l-2.35-.75-.18,2.71c-3.39,3.79-8.28,7.05-10.42,11.38-.15.31.05.77-.06.9-.82-.9-1.83-.24-2.47.75-.18.26.06.79-.07.9-.11.09-.59-.22-.9-.07-1.72.82-2.49,3.41-3.04,4.93-.13.37-1.54,1.15-1.92,1.67-1.25,1.83-.79,3.88-3.04,4.93-1.89.9-3.77,4.54-4.36,6.36,0,0-2.45,6.5-2.45,9.8l-.05.59c-1.08,1.39-2.22,2.93-2.11,4.69l-.97.84-1.41-1.58,2-2.88c-.99-1.15-2.05-1.81-1.58-3.44,2.53.86,2.6-4.65.57-4.18-1.1.24-2.86,2.75-2.38,4.07l-1.85.77-.35,5.11c-1.1-.09-3.24-.48-3.65.66-.13.37.04.86-.09,1.21-1.45,3.72-3.57,7.13-4.91,10.55-.48,1.23-1.48,3.72-2.14,4.69-.37.53-1.78,1.3-1.92,1.67-.37,1.1-.09,3.41-.31,4.82-.05.2-.62.33-.66.55-.29,2.05-.88,7.88-.62,9.62,0,.1-1.24,10.13.35,17.9,1.91,9.37,6.72,16.83,6.69,17.71,1.28.04,2.29-.09,2.95,1.1.99,1.83,2.29,3.24,3.28,5.07.53.97,1.74.97,2.29,1.96.09,1.54-1.01,5.84.49,6.36,1.76.64,4.75,2.47,4.82,4.54l1.21.09c1.01,2.73,5,5.28,7.69,7.16.88.62,1.78,2.16,3.17,2.03l-.07,1.19c.98.44,1.95.96,2.91,1.5l-.55,1.94,2.07.41,1.3,1.27s-1-1.4-2.36-1.27c-.37,1.15.62,1.45,1.06,2.18.09.15,8.32,4.1,9.67,4.56.24.09,4.23,1.73,5.33,1.95,1.72-1.7,2.69-2.71,5.26-2.07l-.12-.83c.15.33.28.72.33,1.14,0-.74.12-1.75.46-1.91.86-.06.2,1.58.68,2.27.26-.9.77.06.86-1.89.25.02.26.93.34,1.46.23-.41.74-.46,1.15-.65l1.3,2.35c1.56-.16,2.57-2.43,2.9-3.85.21,0,.42-.02.62-.14h.01s.03.65.03.65c.19-.18.4-.3.6-.4l1.98.76,1.27-1.22c.18,0,.42.12.79.47-.54,1.2.33.98-.59.89.9.48,1.23,1.5,1.94-.36-.11,1.7.91,2.02,1.25,1.45l-.75-1.09c.42-.31.83-.22,1.25-.15l.09,2.21c2.22,2.34,2.42-4.94,4.52-.82.16-1.61-1.14-.86-1.07-2.72.82.13,2.28,3.05,2.54,3,1.37.95.35-3.36,1.65-2.78-.32-.73-.92-2.74-.28-3.64.81.08,1.72,2.95,1.38,3.69-.17.11-.32-.11-.38-.36-.18.35-.44.74.07,1.5l-.08-.79c.57.68,1.64.31,1.7,1.62.42-.88-.06-1.31-.6-1.59,1.29.83,1.58-.38,2.82.08-.28-.37-.68-1.22-.51-1.25,1.77.52.26-1.59,1.16-2.22.8.85.67,2.38,1.12,1.83l.88,2.32,2.39,1.24,2.73-1.26.19-.07v-.02c.12-.2.02-.75-.08-1.33l.64-.77c.16.32.33.54.49.68l.04.06.05.02s.08.04.11.05l.08.04.05-.06-.79-2.06c-.02-.25-.02-.49,0-.69.27.15.44.16.55.1h0c.06-.03.1-.09.13-.15l.67-.78-.98-.63c-.01-.08-.02-.16-.03-.23l2.52.12c.25.08.44,0,.51-.41.67.58.87,2.02,1.41,2.39l.35-.58c.51-.12,1.37,1.3,1.72.1-.9-1.33-.78-.96-.75-2.65l.94,1.17c.39.24.65.21.86.08h.03s.02-.02.02-.02c.09-.08.18-.18.25-.31l1.76-2.21-.74-.41c-.48-1.49.78-.58.94-1.38.53,1.2,1.01,1.48,1.56,2.12-.04-.07-.04-.12-.06-.18l.55.84.91-2.26c1.44.06-.42-3.92.81-4.09.35,1.42,1.25,1.98,1.02,3.26.32-.16.65-.18.45-.72l.08-.14c.07,0,.11-.1.15-.24l.48-.77.26-.05c-.01.11-.06.17-.26.05.2.05.36.26.42-.06,0,0-.01-.01-.02-.02l4.33-.82c.15.15.28.18.32-.06l.81-3.59c.2-.24.4-.45.6-.63l2.87.4,1.59-.91-.03.32c.34.22.53.18.64,0h0l1.14-1.98,1.77-2.32,1.01-.18c.48.47.74.61.91.59h0s1.08-.32,1.08-.32c.13-.15.19-.34.23-.54l.02-.04.02-.23c0-.06.01-.12.01-.18v-.03s.28-2.78.28-2.78l2.98.82,6.11-3.42.14.05.94-.66h0l2.67-1.87c.36-.16.69-.36.95-.67l5.18-3.64s2.65-.74.88-3.58c.43.23,1.34.88,1.3,1.33.84-.47.96-1.88,1.16-3.05,0-.03.01-.06.02-.09l2.28-1.22.73-.54.55-.66c.46-.06.67-.3.77-.63l.03-.02v-.02c.19-.84-.42-2.28-.61-3.43l.57-.53h.03c1.8,1.44,3.14,1.23,3.86,1.11l.28.3c1.15-.81.94-2.55.9-4.24l.95-1.58.02-.02c2.3.5,3.03-2.04,5.3-2.06-.39-.12-.97-.85-1.3-1.43l.89-.86c2.03,1.58,2.16.48,2.69.06l.55-2.19c1.59-.73,1.75-3.16,4.52-1.38h0s1.08-.88,1.08-.88c1.19-.53,1.79-.79,2.54-2.2l.15-.45c.07-.05.07-.14.07-.22h0s0-.06,0-.08l.05-1.51c.78-.86,2.6-.63,2.95-1.82h.02s.65-.21.65-.21c.52-.43,3.14-.49.25-3.02,1.19,1.17,1.32.38,1.21-.66h0s-.02-.09-.02-.09c-.06-.49-.15-1.02-.22-1.43l1.21,1.39s0,0,0,0l-.66-2.92c.11,0,.16-.04.19-.1l.74-.37h0l1.08-.47c.19.33.4.71.65,1.18,2.42-3.23,5.02-4.39,4.94-4.7,1.51-.91,1.91-3.63,1.61-3.6.32-.5.92-1.76.81-2.86.18-.48.37-.98.55-1.45.03.02.85-1.92.92-1.98,0,0,0,0,0,0,.42.54.42,1.17.88.42l.35.68c4.25,1.54,6.97-10.89,11.45-9.89,1.09.06.22-1.24-.08-2.49l1.35,1.48-.68-2.36c-.01-2.1,4.65,2.63,4-.86l-.96-.96c.6-.13.97-1.7,1.81-.4-.1-.23-.68-1.23-.09-.8l.63.83.03-1.18.72.05s0,.03,0,.04l.46-.42c.82.96,1.6,2.44,2.55,1.91.23-.67-.46-3.43-1.05-3.87,0,0-.03,0-.04,0,.15-.43.59-.57.7-.81.46-1.15,1.3-2.18,1.36-2.33.22-.62-.04-1.7.15-2.4.35-1.28,3.3-4.43,4.07-6.98.15-.51,0-1.23.13-1.81l.95-.84.86.66c-.13-1.48,1.12-2.31.86-3.85-.02-.24-.53-.42-.55-.66-.09-.62.18-1.41.13-2.09l1.48.7c1.17-.57.79-1.34,1.04-2.05.11-.33.82-.84,1.37-2.33.2-.57,2.84-2.09,3.43-1.87.31.11.46.95,1.48.68-.26-.97.64-1.21.71-1.45.31-1.3.18-7.22.48-7.51.66-.15,1.63.51,1.74,1.01.24,1.03-1.26,2.47-.86,3.88l2.55-1.96c-.18-3.48,1.14-6.23,1.23-9.58l-1.67-2.22.44,2.44-1.78-.11.24-3.9,2.53-1.65c.64-1.83-.9-5.79,2.18-5.59l-.75,2.07,1.12,1.28c-1.76,1.52-.02,3.19.88,4.89l-.09,1.5c-3.52.13-2.09,5.26,1.3,3.11.73-1.41,2.07-2.78,1.81-4.4-.05-.24-.51-.4-.57-.64-.26-1.21.68-1.59.73-1.76.18-.62.02-1.45.15-2.12l1.19.09c.26-1.23-.24-2.42-.99-3.39l2.25,2.55c-.13.77.02,1.7-.15,2.42-.04.22-.62.35-.64.55l-.62,9.31-1.72-1.32c-.02,1.21.77,2,.37,3.35-.22.73-1.65,1.78-1.96,2.29-1.69,2.73-2.51,4.98-2.35,8.3-.35.22-.64.68-.97.84-.29.13-.77-.15-.9-.07-.11.11.13.64-.04.9-.35.55-1.81,1.3-1.94,1.7-.49,1.39.44,3.81-.9,4.76-.07,2.38,2.58,1.43,2.99.2.18-.48-.04-1.28.11-1.78.11-.31,1.12-.9.75-2.07l1.8.11c-.15-2.57.68-3.28,3.2-2.8h0s.02,0,.02,0l.72-2.06-.55-.64c1.1-1.06-.33-3.46.35-5.42.11-.33,1.17-.79,1.28-1.12.33-.97,0-2.77.26-3.9.75-.79,1.15,0,1.15.97-.02,1.08-.05,2.64-.24,3.61-.05.22-.57.33-.64.57-.29,1.01-.71,3.24,1.01,2.77.18-.84-.04-1.94.18-2.71.29-.97,2.42-3.39,2.73-4.65l.46-6.91,1.76.73-.51-1.54,3.52-3.1,2,1.65.44,2.44-2.2,1.37c-.68-1.21-2.05.68-3.35.37-.31.29-.2,6.76-.53,8.13-.04.18-1.08.79-.73,1.76l-3.17,2.2-.27,4.22,2.52-.85c.03-.15.05-.3,0-.51l.46.36,1.2-.4.15-.13-.48-1.85c1.58-1.3,1.63-3.22,2.14-4.69.07-.22,1.34-1.94,1.63-2,.37-.07.84.15,1.21.09.24-.04.44-.57.64-.57.13.02.53.97,1.48.7l-.51-1.54.68-1.17,2.58-2.53c.22,1.01-1.17,2.03-1.39,2.62-.28.81-.43,2.26-.67,3.35,6.27-5.18,14.67-10.7,18.23-12.17,1.09-.45,2.22-.75,3.37-.98l-.3-.92,1.01-1.43,1.41,1.3-.46-2.14c.15-1.12,5.17-2.03,5.77-.53l1.85-.48,2.66.77.22,2.86c.48.02.95.05,1.43.09.26-.9,0-2.05-.45-2.86,1.92-.64,2.66,1.23,3.22,1.43,1.19.42,1.68-.46,1.85-.48.99-.11,2.25.26,3.3.22-.24,1.3.66,2.07,1.98,1.94l1.89-1.08c1.54,1.92,4.6,1.45,7.09,2.27,2.75.9,6.65,2.75,9.38,4.25.44.24,1.3,1.1,1.72,1.32.97.51,2.25.59,2.93,1.39l-.73-2.44,1.5.09.84.97-.73,1.76,5.2,3.66-.66.38c.76.46,1.5.96,2.24,1.44.07-1.05.22-2.26.31-2.9-.6-.15-.79-.57-1.15-.99l.75-2.36c-1.52-2.58-3.92-2.66-6.06-4.32l-1.23.51c-.62-.44-1.78-2.4-2.25-2.55-1.41-.48-2.51.68-3.94.33-.15-1.74.33-2.53,1.74-3.5,1.03-.26,2.18,2.38,2.84,2.6.71.24,1.89,0,2.71.2l.73-1.78.4,3.06,4.12,1.48-.02.31,1.76,1.01c.37-1.15-.68-1.45-1.08-2.18-.06-.15.13-.46.05-.59-.26-.51-1.65-2.66-1.92-2.86-1.21-.88-2.55-.48-3.57-.84-.79-.26-1.12-2.53-3.5-2.05l-1.87,1.1c-.79-.29-1.23-3.57-3.1-3.24-.15.86.02,1.92-.18,2.71-.11.42-.53,1.56-.77,2.38-.09.26-.97.46-.68,1.15-.02.53-1.21.33-1.52.2-.97-.33-.7-1.78-.79-1.85-.11-.13-.62.11-.88-.07-.84-.53-.95-1.76-2.64-1.39l-.44-2.44-.95.55.2,1.83c-.46.44-2.22-1.21-2.31-1.67-.37-1.7,1.76-2.2,2-2.88.31-.9.4-3.39-.64-3.96l-2.88,2.53c.95.79.35,2.14.37,3.35l-1.3-3.11-1.65,2c1.41,1.23-.02,3.22-1.67,2.6-.24-.09-.35-.57-.57-.64-1.69-.44-2.91-.48-4.21-.29-1.41.22-3.57-.44-5.11-.33l.09-1.21c-.95-.37-1.28.46-1.54.51-1.59.26-2.55-1.08-3.57-.84-.26.07-.42.53-.64.57-2.34.37-3.68-1.7-3.08-3.83l2.38.75c-.84-1.17.15-1.17.15-2.4l-1.21-.07c.2-1.06-.02-2.33.22-3.32.07-.22.97-.46.71-1.45l2.71.18-.37,1.19,1.28-1.12c2.47-.29,3.06.66,4.69,2.12l.15-2.4c1.48-.13,2.53.48,2.29,1.96.31.35,3.15-1.39,3.9.26l.97-.84-1.76-.73c1.61-1.94,4.32.55,5.62,1.87,1.03-1.45,1.78-.86,3.08-.99.22-.02.42-.57.64-.57.11,0,.99,1.15,2.07.75l.71-1.76.22,6.03,1.3-1.41.09-1.5,2.45-.44c.22,1.17-.82,1.34-1.34,2-.57.75-.92,2.36-2.53,1.96l-.93,4.76c.64.35,2.34-.84,2.51-1.34.55-1.52,1.21-1.92,1.37-2.31.26-.73-.13-1.83,1.34-2.03.2,2.47-1.12,4.18-1.06,6.56l1.81.13.46-6.91,1.25-.84.2,1.83,2.25-2.27-.26,4.21,3.08-.99-.09,1.19c1.34.62,3.32.75,4.43,1.52.77.51,1.48,1.92,2.25,2.55.57.22,2.07-1.03,2.23-1.37.15-.4-.22-2.16.99-1.43,1.39.82,1.08,3.99,2.14,4.36,1.52-.44.88-.37,1.78.11.4.22,1.08.18,1.45,1.01l-.09,1.5,4.45.9c1.68,4.01,6.76,4.54,7.62,8.35l1.78.13-.07,1.19,2.4.15c.55,3.85,5.2,6.58,7.2,9.84.13.2-.05.95.79,1.56,2.6,1.89,2.2,3.66,5.06,5.77,1.3.95.46,1.98,1.01,3.08l-.42,1.48,1.17.68,1.92-1.39.18,1.83,2.2,3.17,1.1-2.95c.97.13,1.92,2.86,1.61,3.13l-1.21-.09.88,5.2c-1.65,1.17-2.27,1.98-2.09,4.1l.99,3.39-1.12-1.3-1.8-.11.4-6.01,1.19.09.24-3.61c-.68.24-2.18-1.12-2.29-1.67-.18-.7.31-1.45-.77-2.16-2.09,1.63-.7,4.45-.75,6.58-2.88.31-2.51-2.55-2.09-4.67.05-.2,1.23-1.45.77-2.66-1.87.02-1.87-1.5-1.61-3.13l-1.92,1.7c-.06-.86.31-1.94.18-2.71-.15-1.06-2.11-2.75-2.2-3.17-.2-.82-.22-2.2-.4-3.04-.2-.86-2.51-2.36-3.13-2.93l-1.54.51c.37-.97-.37-1.15-.51-1.54-.13-.4.26-1.81-.77-2.16-1.45-.51-3.61.53-3.17-2.33l-1.65-2.22c-.26.97.44,1.21.46,2.16.02,1.3-.84,1.65-.82,2.95.02.95.73,1.21.46,2.16.68.9,1.14.11,1.28-.84.09-.68-.31-1.67.68-1.45-.48,1.81,2.47,2.18,2.8,3.5.15.57.02,2.07-.99,1.45-.66-.4-1.1-1.74-2-1.96l-1.45,3.83,1.03,2.8,1.19.07c-.53,1.72,3.06,2.73,3.35,4.16.42,1.98-.84,2.03-1.39,2.93-.03.04-.05.1-.08.15.33.36.66.72.99,1.09.36-.44.82-.96.89-1.13.33-1.01.09-2.64,1.43-3.52l-.79-1.56-.9-.37,2.51-1.34.95,3.99-1.32,1.74c1.06,1.94,2.58,3.55,2.03,5.86l1.81.13c.11-.68-.02-1.48.13-2.11.15-.59.62-1.61,1.06-2.05,1.23,1.01.7,1.3.44,2.44-.04.13-.31.18-.33.29-.29,1.25-.05,2.88-.26,4.21.55,1.23,2.31,1.65,2.84,2.6.09.2-.11.51-.05.62.46.64,2.16,2.18,2.25,2.55.04.18.06.67-.03,1.05.19.22.4.44.58.66.28.33.53.68.8,1.02.22-.06.42-.18.61-.48.44.92,1.17.51,1.76.73.24.07.33.57.57.64.57.18,1.43,0,2.09.13l-.7,1.76c1.63.29,2.2-1.19,1.98-2.58-.15-.84-1.48-3.15-1.56-3.72-.31-2,.71-3.77.97-5.68,2.33.18,2.73,2.05,3.98,3.59l.05,3.92c2.11.44-.26-2.27.51-2.97l2.97.79.44,2.44c3.35,1.5,4.47,5.2,7.03,7.71,1.32,1.28,2.38,2.86,3.66,4.16l-.77,2.38,1.15.97,1.3-1.12-.71,1.48c.46.9,3.35,5.09,4.16,5.39.4.15,1.03,0,1.5.11-.29,1.74,2.22,2.2,1.54,4.32-1.12.18-1.39-.71-2.03-1.34-1.81-1.81-2.82-3.74-4.49-5.11-.86-.7-4.65-4.87-4.78-5.46-.13-.66.29-1.74.15-2.4-.09-.44-1.63-1.63-1.96-2.25l-.53,3.59-1.8-.11c.4-.95-.49-1.32-.51-1.54-.18-1.63.48-3.74.35-5.42-.02-.2-.99-1.12-.46-2.16-1.63-.4-1.26.44-1.32,1.74-.68-.11-1.48,0-2.09-.15-.24-.04-.37-.62-.57-.64-.11,0-1.08.99-2.14.46.02-1.34.6-2.69-.66-3.66l-3.61,4.29c-.24.68.99,2.09,1.03,2.47.13.88-.35,2.2-.2,3.02.11.53,1.58,1.08,1.08,2.18,1.08.22,1.74.13,2.44-.75l-2.2-3.15.75-2.07.13,2.42c1.32-.15,4.47,1.41,4.98,2.45.62,1.28,1.7,1.85,2.77,3.81.51.92,1.26.86,1.43.99,1.28,1.04,1.76,3.06,3.74,2.66l.06-.9,1.23-.22c.04.88-.29,1.89-.18,2.71.02.24.99,2.22,1.03,2.49.09.62-.18,1.43-.13,2.09l-1.21-.07c-.6.53,1.78,3.24,2.46,3.79,1.68,1.34,1.83,2.09,4.01,3.28,1.85.99,1.76,1.85,4.05,2.69,1.15.4,1.17,3.19-.15,2.4-.55-.33-1.1-1.48-1.7-1.92-1.61-1.23-4.29-2.73-6.1-3.44l.06-1.21-2.31-1.34c-1.03,3.3,2.6,3.96,3.83,5.99.11.2-.05.92.79,1.56,1.83,1.34,1.12,1.58,1.39,1.89.06.07,1.28.18,1.76.73l.37-1.19c1.67,1.39,3.39,2.36,5.59,2.18-.6,1.94,1.21,2.95,2.82,3.22-.35,1.61,1.94,3.08,1.76.71l2.31,1.37.07-.9,1.23-.22-.4,1.19,2.64,1.39c-.13-1.08.73-1.94,1.92-1.7.24,1.01-.88,1.28-.75,2.07.11.57,1.17.75-.13,2.09,1.19.26,2.05-.59,1.92-1.67l1.81.11.15,2.42,1.74-3.5,1.81.13c-.26,1.85,1.21,2.05,2.88,1.98l-1.41,2.93,3.11-1.3.15-2.4.97-.84,3.3.22c-1.28,1.45-.37,1.85.71,3.06l1.65-2c-1.76-3.19.97-2.22,2.44-.44l-.7,1.45,1.54-.51,1.45.71-.7,1.76,1.8.13h0s1.07-.19,1.07-.19l-.43-2.85.24-1.13h.06c.85.09,1.54.22,2.16-.04h.04l.04-.03c.26-.12.51-.31.75-.62h.02v-.02s0,0,0,0l.03-.56.06-.93,3.01.2-1.36,2.33h0s0,0,0,0l3.61.24c-.09-.51.09-.84.32-1.18l.39-.58c.28.06.66-.07.9.04.57.26.82,1.65,2.03,1.34l-.97,1.15c-1.45.29-3.72-.92-4.85.29l-.62-.04c-1.08-1.54-2.73.31-4.49-.29-.55,1.74,1.19,1.61,2.05.73l1.76.73,1.25-.53,1.68,1.94,1.03-1.76c.24-.22,3.57.44,4.49.31.42-.07,2.31-1.56,2.8-1.04l-.09,1.21c1.81.22,2.27-2.25,4.34-1.52l.11-1.81c1.19-.37,1.74.62,2.07.73.77.29,1.01-.48,1.23-.51.57-.09,1.3.22,1.8.11.53-.11,1.08-1.58,2.18-1.06l.09-1.21,2.66.79c.9-.92,2.86-1.08,3.72-1.56.97-.57,1.54-2.03,2.84-1.63l.22-3.61,1.12,1.28c1.15.48,1.72-.33,2.16-.46.62-.18,1.48.35,2.16-.75l.77-2.66.84,1.26c1.17-1.1,2.6-1.67,2.33-3.48l1.96-2.27,1.78.42c-.29-1.1.53-1.39.73-1.76l-2.38-2.87-4.32-.89c-2.07.42-.71,2.66-6.1.79-.77-.26-.99.48-1.23.53-.86.13-3.68-.46-3.92-.26l-1.02,1.74-3.3-.22.09-1.19-3.65.35.11-1.81c-.2-.24-4.12-.09-5.11-.33-.22-.04-2.07-1.3-2.31-1.36-.62-.15-1.45,0-2.11-.13l-.15,2.4-1.8-.11.75-2.07c-.71-.62-1.28-1.72-1.98-2.25-1.83-1.41-5.86-2.67-5.99-5.22l-1.5-.11-.84-.95.71-1.78-1.74-1.01-.29,4.51c.48.48.88,1.17,1.39,1.61,1.67,1.43,4.16,2.33,6.1,3.72.9.64,1.94.04,2.38.75-1.67,2-2-.22-2.69-.48-1.94-.66-3.7-1.45-5.64-1.56-.02-3.04-4.21-2.16-3.85-5.7-1.67.44-1.89-.97-2.62-1.37-1.17-.66-.9,1.25-1.61,1.39.86.57.35,1.26.48,1.85.07.33,1.58,1.43,2,1.65.29.15.82-.07,1.19.07.15.07,1.89,2.05,1.98,2.25.26.7-.31,1.21-.97.84-.46-.24-1.45-1.52-2.29-1.96-.29-.15-.82.07-1.19-.07-.97-.35-2.58-3.46-3.06-4.14-1.92-2.71-6.03-3.85-6.12-7.64-1.56-1.83-1.63-4.05-4.6-3.63-.2-1.1,1.85.02,1.3-1.41-.35-.95-1.43-1.15-2.34-1.08.24-1.98.4-3.99-1.14-5.51l-.57,3.9.42,2.73-1.74-1.01c.15-.77-.02-1.7.15-2.4.71-2.78.07-2.36-.26-4.85-.11-.7.2-1.65.15-2.42l-.84-.95-1.26.51c-1.37-1.06-.62-2.66-.62-4.25-3.59-.22-2.58,1.63-1.45,3.83.92,1.83,1.94,3.39,2.64,5.59.09.26.51.42.55.64l-.09,1.52-2.16.46-1.45-.71c.48-1.94-.24-2.73-1.54-4.03,1.19-2.88.55-2.38-.33-4.25-.15-.33-.33-1.59-.48-1.85-.44-.75-1.43-1.45-1.96-2.25l.73,2.77.11,2.73c-1.15-1.74-2.38-4.07-2.29-6.19-1.72-.44-.97.4-1.28.81-.44.64-1.1.99-1.85.77.13.75-.11,1.65-.99,1.15-1.03-.59-1.06-2.95-2.16-3.77l-.77,2.38,3.57,5.37-.04.9,1.19.07c-.02,1.87,1.85,3.5,1.45,5.53l-1.78-.42-.13,2.11-1.63-2.84,1.83-.18-.46-2.44-1.26.84-1.21.22-1.15-5.53-1.08,2.36-1.19-.09c-.4.97.4,1.19.51,1.54.09.35-.18.82-.09,1.21.05.2,1.98,2.84,2.2,3.17.62.82,3.28,3.41,3.37,3.83.42,1.89-.15,1.85,1.32,2.82.82.51,1.67,2.18,2.53,2.88l.09,3.32c-1.12-1.63-3.24-3.22-4.21-4.82-1.06-1.72-2-2.73-3.66-4.16-.75-.64-3.77-6.67-4.01-7.82-.22-.92-3.17-1.26-2.2-3.46-1.74-.64-.9,1.41-2.51,1.65.26-1.06-.77-2.05-1.03-2.8-.51-1.52-.44-4.69-2.71-4.71-.66-4.1-3.83-4.47-4.82-9.07-.11-.44-2.64-3.26-3.44-2.93l-.33-4.25,2.2-1.08c1.3,1.1.55,1.25-.44,2.09l1.37,2.2,1.83-.48c.51.2,2.64,3.41,3.06,4.14.33.55,1.61,2.36,1.63,2.51.46,2.09.24,3.02,1.85,4.05,1.87,1.21,3.02,4.93,4.1,6.61.37.59,1.87,2.42,2.58,2.29,1.52-.77.37-1.41.4-1.48.09-.29.99-.57.71-1.76-.05-.24-.46-.4-.55-.66-.11-.33.15-.77.06-.9-.51-.55-1.01.81-1.67-2.22-.09-.42-1.58-1.48-1.67-1.92-.15-.75.42-3.06.2-3.3l-1.78-.11.4,3.04c-2.73-1.63-2.2-4.51-1.94-7.38-2.31-.22-2.38-2.4-2.73-4.1-.11-.48-1.17-1.08-1.61-3.13-.13-.62-2.53-1.45-2.82-3.22-.11-.77.24-1.85.18-2.71l-1.85.79-.22,3.3-1.14-.99c-.13-1.23.51-3.13.26-4.21-.07-.33-1.04-.92-1.12-1.28-.18-.84-.2-2.2-.4-3.04-.13-.57-2.77-2.91-3.37-3.85-1.12-1.83-1.48-1.34-1.69-1.61-.11-.13.2-.62.07-.9-.22-.44-1.06-.97-1.12-1.3-.15-.57-.04-2.05.99-1.43,1.19.7.42,2.05,1.32,2.8l-.06.9c.48.11,1.12-.04,1.52.11,2.07.75,11.12,15.37,12.4,18.01.75,1.59-.04,1.3,1.34,2.2.73.46,2.75,3.99,3.02,4.73.15.46-.42,1.32.48,1.85.26,1.58,2.31,2.64,2.11,4.67.64.86,1.15.13,1.26-.84.13-1.08.29-2.53.24-3.59-.02-.22-.55-.42-.57-.66-.06-1.04.24-2.22.22-3.3l-1.21.22-.05.62-1.23.22c.4-.95-.46-1.32-.49-1.54-.15-1.39.79-2.86-.66-3.99l-1.32,1.74c-1.74-.07-1.15-1.61-1.37-2.2-.29-.82-.95-1.83-1.63-2.53l.75-2.36-.84-.97-1.23.53c-1.1-.84-.84-1.78-.71-3.06l-1.21-.09c-.02-1.61-.99-2.55-1.89-3.15-1.12-.71-1.85-2.51-2.49-3.48l.73-2.07-2.14.46c-.33-.62-1.87-1.81-1.96-2.25-.84-4.01-.86-1.94-2.2-3.46-.09-.13.2-.62.07-.9-.35-.73-1.5-1.04-1.06-2.18,1.14,1.01,1.85.26,1.87-1.08l-2.18,1.06c-.53.11-2.31-1.15-2.6-1.7-1.3-2.33-3.08-4.58-4.38-6.91-.71-1.3-2.11-1.34-3.19-1.72-.29-.11-4.01-2.86-4.62-3.33-3.5-2.71-7.55-7.2-11.49-8.61-.42-.15-5.35-4.76-6.92-5.29-2.09-.75-3.22-1.78-4.07-2.09-4.38-1.61-8.17-3.52-12.35-5.04-.24-.09-.33-.57-.55-.64-.59-.18-3.35-.59-2.77.73.44,1.03,1.78,1.92,2.91,1.7-.13,1.23-.4,2.22.7,3.06l2.55-2.25c1.23-.26,1.45.59,1.76.73.35.13.84-.07,1.21.09.79.26,1.74,2.99,3.15,2.62l-.71,1.45c-.22.57.37,1.25.82,1.56.07.07,1.26.68,1.48.4l.64-.55-.51-1.54c1.01-.26,1.19.62,1.48.68.53.18,1.3-.04,1.8.13.68.24,2.09,1.89,2.27,1.96,1.32.46,2.75.48,4.14,1.48.26.2,1.3,1.37,1.41,1.61.51,1.21-1.06.82-1.56.79-.71-.02-1.41-.09-2.11-.13l-1.12-1.28-.15,2.4-1.21-.07-.09,1.5-.97.84-4.43-1.5.77-2.38,1.78.13-.15,2.4,1.8.13c.79-4.73-.97-3.11-3.68-3.88-.48-.13-2.38-1.85-2.88-2-3.61-1.04-7.29-1.52-10.77-1.32-.88.07-2.8-.04-3.61-.24-.24-.04-.48-.95-1.48-.68l.09-1.21c-3.26-.15-6.65-.84-9.2-2.42-3.5-1.78-5.62-2.18-8.94-1.78-3.26.37-4.14-2.73-7.09-2.29-.22.04-.4.51-.64.55l-1.43-.99.81-3.26c1.72,1.06,4.4,1.45,5.75-.24l.79,1.87,1.5.11,1.87-1.1c.75-.15,2.25,1.81,4.14,1.5,3.26-.55,1.76.37,2.95.79.79.26,2.22-.07,3.02.2.48.15.84,1.67,2.03,1.34.68-.62-2.64-4.29.24-3.61-.06.73.22,1.5.46,2.14.18.53.05,1.12.79,1.56l3.17-2.2.81,1.28-2.51,1.63,4.21.29.26-4.21c-.97.26-1.23-.64-1.45-.7-1.94-.48-4.56-.48-6.58-1.04-.79-.22-2.25-.55-2.95-.81-.33-.11-.79-1.15-1.12-1.28-1.19-.42-1.12.75-3.02-.2-.24-.11-.62,0-.9-.04-.2,1.23.51,2.84-1.37,2.31.26-1.5.24-2.4-.97-3.39l2.84-1.92c1.52-.24,2.14.71,2.35.75,2,.44,4.71-.02,6.63.44,1.1.29,1.19,1.19,2.95.82,1.56-.35,1.83,1.19,2.33,1.34,1.37.48,4.01.37,5.97,1.01,1.98.62,4.14.57,5.29,2.16l.62.04c.79-.97,2.11-.37,3.35-.4-.22,1.1-.15,1.76.73,2.47.62-.59,1.48-.7,2.2-1.06-.05-.48.11-1.01.09-1.5-.6-.95-1.63-1.26-2.6-1.7-2.16-.95-4.2-2.09-6.45-2.84-2.64-.86-5.35-1.5-7.71-2.31-.22-.09-1.94-1.34-2-1.65l.68-1.15-1.41-1.61-1.06,2.33-1.5-.09-.84-.97.09-1.5-4.16-.88c-.04,1.26.15,2.58-1.41,2.93l.2-3.02-1.81-.11-.07,1.21-1.21-.09.09-1.21,1.19.09.05-.59-2.09-.15c-.71,1.06-2.22,1.03-2.86,1.94-.4.57.53,1.28-1.85.77l.84-3.57c-2.07.09-2.51,2.38-4.93,1.5l-.74-2.44v-.03s0,0,0,0h0s-.31.27-.31.27l-1.29,1.13-1.79.68-1.16-1.78h0l-2.2.4-2.1-2.39,3.79-1.75,1.77-.22,1.42-.94,1.77.36-.36,1.77,1.95,1.01c1.69-.92,2.76-4.07,4.62-4.59,1.15-.32.87,1.14.59,1.66-.27.48-1.76.6-1.6,1.83,1.55.68,2.35-.28,3.61-1.11l.47.71,1.31-1.89,4.85-.55c-1.79-.6-3.89-2.41-7.55-2.76l-5.92,1.87c-1.61-2.13-2.76-.48-4.37.34-.11.05-.3-.06-.46-.09l-.22-.2-8.11,1.25-7.1.39-8.97,3.4c-.23,1.36.28,3.07-.86,3.87l-3.41-.47c-.23-.09-.49-.14-.79-.12l-1.36,2.33-.72-1.72-.32-.76-2.03,3.19.46,2.14-2.36-.75c.39,1.15-.44,1.74-.98,2.19l-4.17,2.6h0s0,0,0,0l-.37-.7-.44-.85h-.01s-.33-.02-.33-.02l-.26-.02-.2-1.52-.91-.29-.28-.09c-.19,1.96-1.89,2.55-3.59,2.21l-.16-.04-2.5,1.34c-.15-.39-.43-.61-.73-.7l-.04-.04v.02c-.42-.11-.86.05-1.03.6-.28.99-.02,2.51-.24,3.61h0s-.43.32-.43.32l-3.37,2.45-2.48,1.04h0c.9-.45,1.75-1.63.43-2.1-.22-.07-.49-.08-.78-.04h0s0,0,0,0c-1.78.22-4.43,2.33-4,3.96l-1.21-.09s0,0,0,0l-4.26-.02c-.16-.01-.35.07-.58.3l-.24,3.59v.02c-.48-.08-.85-.09-1.15-.06h-.01s-4.02.93-4.02.93h0s0,0,0,0c-2.08-.16-.38,1.41-.4,1.48-.08.28-1.13.95-.74,2.06h0l.56.64-1.26.82-.63.11-.59.11-1.01-1.75-.08-.14h0s-1.8-.11-1.8-.11l-.05.18c.01-.06.03-.11.04-.18-1.19-.24-1.58.31-1.89,1.39-.6,1.98-2.03,3.41-1.61,5.92-.86.42-1.4.76-1.8,1.1l-4.55,3.62h0c.11-1.22.42-2.21-.71-3.07-.42.57-2.09,1.54-2.25,1.96-.18.53,0,1.85-1.04,2.05-.97.2-1.78-.59-2.77.73-.09.11.07.42-.04.59-.13.26-.57.35-.64.57,0,0,0,0,0,.01l-1.33,2.01h0s0,0,0,0l-3.68.97c.09-.64.57-.4.37-1.19-.31-1.23.31-2.12-1.39-1.92.07,1.39-.66,3.02.35,3.96l-2,2.88c.99.68-.44,1.32-.18,2.71l-1.03-2.49c-.18-.22-1.1.57-1.28.82-.68,1.01-.51,2.11-.79,2.97-.31.93-1.94,1.92-1.43,3.52l-.97.84-1.5-.09-.84,3.57-2.38-.77c-.24,1.83-1.34,2.93-3.24,3.41l.95-5.37,1.3-1.12-3.15,1.92c0,1.78-1.85,2.78-1.52,4.73.02.22.51.4.55.64l-.04.59c-.82.79-1.43,2.14-2,2.88-.71.97-1.04.31-1.92,1.7-.84,1.28-2.25,1.59-3.7,1.25l-.18-1.83c-1.72.82-.42,3.48-2.09,4.1-1.45.53-.31-1.5-1.43-1.3l.15,2.42.9.07c.73.81-3.24,3.41-3.92,4.25-.08.11-.16.19-.24.28l-1.35,1.46-.04.05c-.3.32-.62.65-.96,1.07l-.96.84c-.24.18-.47.36-.65.55l-1.95-.69-.11-.04v.04c.21.97-.59,1.11-.7,1.42-.46,1.23-.75,3.37-.92,4.78l-1.26.82-.88-4.89s0,.02,0,.03v-.02s-5.43,4.47-5.43,4.47c0,0,0,0,0,0-2.03.04-1.63,2.07-1.74,3.52l-2.03-.73h-.03s0-.01,0-.01h0s-.95.83-.95.83l-.82,2.97-.95.84-2.07-.73c.46,2.31-1.7,2.69-1.52,4.71l-3.65.37h0s0,0,0,0h0s-2.64,3.45-2.64,3.45h0l-1.82.18-1.42,3.23h0c.12-.8-.27-1.32-.46-2.14-.18-.75.37-1.79-1.06-2.18h0s-.72,1.76-.72,1.76h0c-.63-.87-1.15-.15-1.26.82-.17,1.49-.15,3.02-.3,4.51h0s-1.41.05-1.41.05c-.19-.15-.4-.25-.69-.18-.03,0-.15.09-.3.21h-.02s-.13.12-.13.12c-.59.47-1.58,1.33-2.1,1.83l-3.77,2.12h0c-.19-.31-.51-.37-.93.06,0,0,0,0,0,.01l-2.6,2.84c-.65-.86-1.15-.15-1.26.82-.13,1.09-.11,2.22-.22,3.31l-1.8-.12h0l-.13,1.92-.15,2.28h0l-12.96,8.8-.96.84-4.61,3.53-12.78,3.78h-.02c-.05-.52-.84-.9-1.78-1.19l-4.53-3.05-.82-6.5h0c.02-.31,2.44-4.41,2.18-5.59l1.21.09c-.29-2.07,3.04-4.82,3.41-6.12.14-.48.17-1.04.18-1.61.35-.76,1-1.48,1.5-1.59.47-.1.93-.3,1.39-.53l1.4.08c.06-.29.07-.64.07-.99,1.79-1.31,3.37-3.07,4.58-3.64.29-.14.78-.57.96-.84.71-1.09,2.17-2.26,2.08-4.09,1.53-1.94,4.89-1.9,6.29-3.81.45-.61.8-2.42,1.68-2.61,1.07-.22,2.08.52,3.09-1l2.29,1.96c1.41-.72.47-1.9-.12-2.72l.03-.41c.43-.1.87-.26,1.44-.57.64-.35.77-.77.7-1.47h0s1.19.39,1.19.39l.49,1.54.84-3.28c.45-.22.85-.52,1.24-.84l.09.52,3.48-2.49c.29-1.45,1.31-3.44,2.12-4.69.62-.96,1.34-1.89,2.28-2.57l14.14-8.42c1.47-.32,2.53-1.21,3.44-2.12l1.39.45c1.09-.82,1.54-1.91,1.73-3.11.19-.16.36-.34.45-.48.71-1.09,2.17-2.26,2.08-4.09.95-1.21,2.61-1.65,4.07-2.27.67.36,1.41.21,1.73-1.03.18-.16.35-.32.5-.52.45-.61.8-2.42,1.68-2.61,1.07-.22,2.08.52,3.09-1l2.29,1.96c1.41-.72.47-1.9-.12-2.72l.04-.6c.52-.93,1.38-1.57,1.96-2.28.94-1.15,1.34-1.33,1.96-2.29.31-.47,1.19-.9,1.6-1.4l.44,2.44,3.49-2.49c.29-1.45,1.31-3.44,2.12-4.69.62-.96,1.34-1.89,2.28-2.57l8.15-4.85c.01.13.01.23.03.37l1.81.13c-.17-.54.12-1.31.55-1.93l2.09-1.25c1.95-.69,1.87-1.71,3.45-2.46.31-.15.79.15.9.04.13-.09-.11-.62.07-.9.71-1.08,2.18-2.25,2.09-4.07,1.52-1.94,4.87-1.89,6.28-3.81.46-.62.79-2.42,1.7-2.62,1.06-.22,2.07.53,3.08-.99l2.27,1.96c1.41-.73.48-1.89-.11-2.73l.04-.59c.53-.92,1.37-1.56,1.96-2.29.92-1.15,1.34-1.32,1.96-2.29.31-.46,1.19-.9,1.61-1.41l.44,2.44,3.48-2.47c.29-1.45,1.32-3.46,2.11-4.69.48-.73,1.04-1.41,1.68-2,3.98-2.19,7.79-4.73,11.8-6.61.6-.53,1.43-1.28,2.11-1.9l.84-.5v-.28s.04-.04.05-.05c0,0,.9-.68,1.75-1.31l-1.8,1.64,4.37-3.02c.62-.12.98-.41,1.15-.79l23.17-16.04,11.39-9.09,2.56-4.63c1.46-.97,3.18-1.82,4.27-3.25.63-.83.94-1.88,1.33-2.79,1.2-.35,2.27-.97,2.89-2.09l1.08-3.26c1.91.24,5.94-3.01,6.43-4.67.19-.65.03-1.6.11-2.32.02.01.05.03.07.04-.03-.03-.04-.06-.06-.08.02-.12.02-.24.06-.34.05-.14.15-.27.27-.41.04.05.08.09.12.15.04-.13.06-.24.09-.36,1.24-1.12,4.2-2.49,3.28-4.9,2.58.73,5.76-1.8,5.73-4.38l3.62-5.58c.58-3.62,2.05-3.96,3.34-7.21h0c1.77-4.43.66-9.42,2.29-14.13.09-.26-.46-2.93-.43-5.11l.15-1.46c.02-.08.02-.17.05-.25.02-.08.02-.2.02-.33M314.18,525.53c-.07.2-1.26,1.52-1.32,1.72-.44,1.54.33,3.08-2.07,3.79l.95-5.06c1.83-1.21-.02-4.4.35-5.42.97-2.51,1.06-3.92.44-6.61l1.45-3.83,1.19.4,1.14.97-.37-3.35c1.03-.48.48-1.56.75-2.36.33-.92,3.5-1.89,2.69-4.05l2.58-2.55c.31,1.48-.97,2.31-1.41,3.24-.59,1.23-1.85,3.9-1.56,5.33.09.44,1.43,1.01,1.08,1.87-1.01,1.15-1.32.97-2.42.15-.15.86,0,1.87-.18,2.71-.04.22-.59.33-.64.55-.44,2.22.22,4.36-2.2,5.9l-.09,1.19,1.08,1.89c-1.8.9-1.06,2.18-1.43,3.52ZM319.42,519.23c-.29,1.41-.62,5.84-.46,7.22.02.22.57.44.55.64l-1.89,1.39.2-3.02-1.28.84-.06,1.19c1.34,1.32.77,2.88.92,4.29.02.22.51.4.55.64.26,1.54-.57,2.69-2.03,3.19-.05-1.23.4-2.75.26-3.92-.09-.79-1.48-3.13-1.56-3.72-.44-2.91,1.69-3.17,2.11-4.69.88-3.08.9-6.28,4.14-7.58-.4-2.51,1.23-3.83,1.58-5.92l2.55-1.96c-.29,1.74.35,3.79-1.23,4.76l-.86-.66c-.04,1.63-1.1,2.62-.9,4.47.05.24.9.59.51,1.54l-2.36-.77c.4,1.1-.71,1.89-.75,2.07ZM323.51,521.32c-.59,2.05.9,6.87-2.27,6.78l.82-2.95-1.76-1.03.22-3.3,1.48.7,1.63-2-.4-3.04,1.89-1.39c-.26,1.34.07,3.26-.29,4.49-.07.22-1.26,1.54-1.32,1.74ZM327.52,533.66l-2.53,1.96c.15-1.08,0-2.29.22-3.32.04-.22.57-.33.64-.55.48-1.96-.79-3.61-.24-5.46.07-.22.53-.31.64-.55.37-.82-.59-1.89,1.3-1.43.02,1.08-.29,2.27-.22,3.3.02.24.55.44.55.66.07,1.74-.35,3.63-.35,5.4ZM387.48,591.2c-.18-1.1.33-2.71.24-3.92,1.76.85,1.03,3.09.86,4.85l-.29-.41-.16,2.41c-.31-.07-.56-.06-.82-.06.46-1.66.35-1.52.16-2.87ZM413.2,461.42c-.44.95-1.78.71-1.85.79-.18.15-.82,2.91-2.58,2.25.37,2.88-3.32,2.88-3.94,4.87l-2.89,2.53-.09-3.33,5-2.4c-.26-.99.64-1.23.71-1.45.22-.9-.07-2.25.2-3.02.09-.26.97-.73,1.28-1.12.11-.13-.07-.48.04-.59.44-.51,1.12-.9,1.61-1.41l2.73-.42-.22,3.3ZM412.35,456.23c-.15-1.59,2-1.83,2.03-3.17.77-.29.44-2.05,1.61-1.41.71.4,1.67,1.85,1.32,2.8-.26.68-4.45,2.33-4.95,1.78ZM423.45,480.21c-.11.62-1.74,2.44-.24,3.61l-.05.62-1.85.77-.07,1.12c-.64.55-1.46,1.29-1.49,1.38-.04.11-.06.27-.08.44l-4.55,4.3c-.07-.91,1.31-1.6,1.42-1.94.22-.63-.04-1.71.16-2.4.14-.49,1.86-2.39,2-2.89.31-1.08.02-2.72.26-3.91l-.62.06c.25-.49.53-.98.91-1.43.66-.79,1.8-1.45,2.55-2.25.29-.31.35-1.89,1.91-1.39-.2,1.25-.02,2.69-.26,3.9ZM461.76,455.17l-4.28,5.45-.03-2.57,1.05-1.18.86.66.92-4.77c-1.38-.32-1.44.46-1.9,1.38-.15.3-.29.56-.44.81l-3.01,3.08,1.38-2.63-.26-1.68,5.14-4.86c.02,1.12.05,2.24.17,3.25.03.23.53.41.56.64.08.73-.2,1.63-.16,2.41ZM493.8,432.33s0,0,0,0c-1.13.99-2.55,3.7-4.18,3.23.01.46-.08.83-.21,1.17-.04.05-.08.08-.12.13-.73.88-1.46,1.26-1.87,1.98-.4.31-.79.64-1.1,1.03-.18.24-2.19,1.33-2.63,1.84l-.4-1.74-2.78,1.02-1.46-.7c.26,1.01-.59,1.16-.7,1.46-.18.49.06,1.3-.12,1.8-.11.31-2.19,2.28-2.6,2.85-.83,1.14-1.65,2.88-2.08,4.09-.14.4-2.05,1.84-2.5,1.34.97-2.25,3.26-2.77,2.78-5.55.04-.51-1.17-.47-1.48-.4-.15.03-2.19,1.82-2.24,1.97-.25.72.01,3.1-.22,3.31-1.85-.52-2.71,1.1-4.07,2.15-1.22-1.25.94-2.23,1.08-2.65.22-.63-.04-1.71.16-2.41.14-.49,1.86-2.39,2-2.89.31-1.08.01-2.72.26-3.91l-.34.03,18.68-17.67c-.15.9.56,1.33.58,1.49.13,1.17-.33,2.67-.26,3.9l-1.85.79-.11,1.5c-1.65-.77-3.57,3.08-1.65,2.31.26-.11.42-.53.64-.57.55-.09,1.28.22,1.81.11.73-.13,1.74-2.45,3.41-1.56l-.33-3.96.68-1.45,2.97.79-.24,3.61,1.92-1.39,1.34-2.03c.55,3.15-1.41,3.26-2.75,4.95ZM490.06,425.13l.11-1.81,1.21.09-.07.9-1.25.82ZM491.93,424.06l2.36-3.46.13,2.42-2.49,1.04ZM494.77,417.6c.26-.29,1.52,1.17,1.08,1.89-.24.26-1.52-1.17-1.08-1.89ZM495.5,424.89l.82-2.95,1.78.11c.11,1.98-.29,3.3-2.6,2.84ZM524.61,404.79c-.18.48.05,1.3-.13,1.81-.09.31-2.18,2.27-2.6,2.84-.81,1.15-1.65,2.88-2.07,4.1-.15.4-2.05,1.83-2.51,1.34.97-2.27,3.26-2.77,2.78-5.55.04-.53-1.17-.48-1.48-.42-.15.04-2.2,1.83-2.25,1.98-.24.7.02,3.1-.22,3.3-1.85-.53-2.71,1.1-4.05,2.14-1.23-1.25.92-2.22,1.08-2.64.22-.64-.04-1.7.15-2.4.13-.48,1.85-2.4,2-2.88,0-.03,0-.06.01-.09.31.18.61.32.89.42-.09.11-.2.22-.35.31l.28.32c.24-.17.42-.33.61-.49.55.07.91-.17.85-.98.22-.43.29-.97.28-1.61,3.12,3.82-1.67-3.22,3.15-.01-.65-1.4-1.09-.7-1.15-1.93,1.99,2.83.28-.89,1.57.18,1.31,3.52,2.05-.11,2.95-.98.11.3.46.41.87.46-.17.42-.6.58-.68.8ZM512.42,408.32c.09-.32.09-.91.1-1.43l.42-.37c.17.17.39.36.65.57l-.1,1.49-.9-.07-.17-.19ZM516.34,404.34c.48.61.85,1.08,1.18,1.49l-.52-.03c-.18-.43-.39-.91-.66-1.45ZM527.29,403.83c-.72-2.7.2-1.27.94-.34l-.94.34ZM528.65,403.33c-.24-.94,0-.67.32-.11l-.32.11ZM539.33,397.59v-.6c-1.16.99-1.82,2.05-3.45,1.58.37,2.2-2.18,2.86-3.3,4.32-.03.04-.07.14-.1.22-.24.14-.41.25-.41.25-.63.47-1.34.99-2.07,1.53l-.24-1.07c.76-1.13-.32-3.73-1.02-5.11.15.26.33.56.57.95-.1-1.78.58.79.66.97.68.38-.49-1.2-.16-1.24,1.44,1.95,2.85,3.85,1.85,1.23.8.06,2.61,3.13,1.18-.34,2.49,2.72-.63-5.44,4.06-2.68.9-3.52,2.13-1.81,3.68-1.02-.38.31-.83.68-1.25,1.01ZM592.85,320.42l1.81.13c.13-1.45-.22-2.78,1.14-3.57l.54.64c-.65,1.88-.31,3.2-3.54,3.6l.06-.8ZM589.16,321.39l3.61.24c.92.89,3.86,2.01.22.77,4.28,2.8-1.2-.33-.24,1.23,5.18,1.41-3.92-.25-.27,2.7-.57-.26-.8-.51-1.06-.78.43.45-.08.27-.55.1-.28-.44.41-.48.5-.8.15-.62.02-1.43.13-2.09l-3.04.4.71-1.76ZM533.15,355.24l.09-1.52c1.43.26,2.31-1.36,3.48-2.18l2.73-.42-3.55,3.39-.9-.07c-.04,1.7.11,2.91-1.45,3.83l-.03.4c-.71-.94-1.51-2.01-1.84-2.46.77-.46,1.42-.88,1.47-.98ZM534.98,376.61s1.98-.93,4.1-2.66c1.05-.87,2.12-1.96,2.87-3.23.75-1.24,1.15-2.8.77-3.87-.06-.06-.09-.13-.14-.19l.05-.11.09.31c.05-.09-.01-.21-.08-.33l.76-1.85,1.8.12c.14-1.83,2.52-3.63,3.58-3.99,1.68-.58,3.62-2.67,3.63-4.59l.86.66,4.85-4.81c-.89-1.7-.02-1.79.16-2.4.27-.92.01-2.3.22-3.31l3.57.84-.62-4.27-1.06,2.35-1.12-1.28-2.66-.78-1.62,1.7-.18-1.82c-1.86.94-1.3,2-1.72,3.21-.29.84-2.97,2.47-2.12,4.69l-2.52,1.64c.67,1.14,1.06.78,2.08.44.39-.13.57-.88,1.54-.5-.27-.99.64-1.23.7-1.46.46-1.83-.19-2.82,2.08-4.09l1.86-.78c.28,2.39-1.89,2.56-3.26,3.71-.11,1.77.19,3.17-1.48,4.13l.5,1.54c-.87-.26-2.67,1.17-3.14,1.91-.18.27.06.8-.06.9-.12.1-.61-.2-.9-.06-.62.29-1.36,1.46-1.92,1.68-.5.2-1.38-.06-.56-.64l.04-.6-1.72-1.32-1.64,2c1.51,1.77-.21,3.27-1.8,4.41-.66.47-3.15-1.62-4.67-2.8.35-.51.67-1.05,1.02-1.37.37-.99-.82-2.11-.35-3.63.07-.26.95-.46.68-1.48l1.85-.48-.26,4.21,1.89-1.37c-.05-1.3.64-2.8-.38-3.66l2.34-3.17,1.76.73c.35-.75,1.48-.44,1.54-.51.13-.11-.11-.64.07-.9.92-1.39,3.26-.24,3.72-1.56.2-.55,0-1.45.13-2.11l1.3-1.12c-1.78-.59-2.38,1.06-3.74,1.58-.26-1.17.62-3.28,1.74-3.52.88-.18,1.96.15,3.06-.4,1.12-.57,2.23-2.31,2.34-3.46,1.74.57,4.51-2.25,5.06-3.61.15-.35,0-1.01.11-1.5l1.81.13c-.46-2.33,11.36,1.87,11.52-.26,2.71.4,2.38,2.8,2.09,4.98l-1.45-.71-7.71-2.44-2.84,1.56c-.11,0-.2-.02-.26-.04.05.11.07.33-.06.71-.07.15-.13.51-.13.84-.35.04.37,1.25,0,1.25l-.77,2.38,1.21.07c-.04-1.03.68-1.23.75-2.36,2.36-.33,8.77,2.07,10.26.48l2.09.15c-.15-1.81,1.94-1.56,2.91-2.84,1.52,1.3.26,1.19-.44,2.09-.11.13.06.48-.05.59-.51.62-1.37,1.08-1.92,1.7l.46,2.14c1.7.68,1.1-1.43,2.23-1.67.37-.07.82.18,1.21.09,1.08-.24.9-2.69,2.31-3.17l.05-.59c-1.41-1.17-.02-2.33.2-3.02.55-1.76.46-3.24.92-4.76.18-.59,0-1.45.13-2.11,2.46.46,4.53-1.07,6.48-2.59.51,1.31-4.88,3.14-.45,5.47-3.33-1.14-6.05.63-1.86,4.83-3.01.45-3.38,1.38-.72,2.89-2.73-1-3.36-1.3-2.56,2.11,4.79,1.85-7.74-.37-3.27,5.04-1.85-1.04-8.95,4.93-6.12,5.03-.57,2.8-4.63,2.75-7.14,3.77.57,1.7,3.72,6.21-.16,1.73-1.64,6.2-4.73,4.31-5.36,6.31-1.09,6.05-6.68,2.2-4.08,5.58-3.46-2.72-3.64,10.82-5.16,1.91.3,2.42-.29,6.73-1.62,2.84-4.91,4.4,2.36,9.34-4.28,3.54.26,9.67-7.16.95-3.62,9.76-.81-.26-1.35.07-1.9-.01l.89-3.42-1.08-1.88,1.32-1.72-1.44-1c-1.29.81-3.44,1.56-3.55,3.39l-2.44.44-.08,1.2-1.5-.1-.96.84.72,2.76,1.06-2.35c2.6.96,3.08-1.94,5.53-1.45l-.98,3.51c-.17-.2-.36-.44-.62-.77-.43.08.08.74.48,1.27l-.15.54c-1.43-1.67-1.99,4.13-3.32-1.48-.57,7.84-7.68,2.25-6.66,7.95-4.06-3.54-1.26,3.97-4.71,1.07-.42-1.95-1.08,1.74.65,2.12,1.77,4.77-3.07-3.65-1.05.36-1.97-1.98,1.5,2.68-.21,1.58-.85-1.89.05,1-.58.87-1.82-3.85.22.53-1.28-.03.81-2.42-3.82-3.03-2.34-2.31,1.41,5.42.03,3.32-1.78,1.18l.48-1.63c-1.31-.4-2.71.31-2.57,1.67-.17-.14-.38-.4-.68-.88,2.04,3.37-1.98,1.27-1.32,5.73l-2.52.26-.05.2c-.91-.32-1.57-.23-1.88.22l-.02-2.96c-1.29,1.03-1.88,2.51-1.78,4.11l1.66.11c.09.34.23.71.47,1.13,1.58.78-.3-.29-.41-1.13h.08s0-.64,0-.64c.32.12.97.83,1.23,1.15.05.09.08.16.12.25l-.26,1.13c-1.3.29-1.96-.73-2.95-1.1-.75-.29-.73.09-1.23.53-.22.59.42.92.46,1.83.13,1.74.05,3.77.24,5.46.04.22.55.4.57.64.09.73-.2,1.63-.15,2.4l-4.29,5.46-.05-3.94,1.39-2.62-3.88,3.96,1.37-2.62-.42-2.73c-2.05-.73-2.49,1.72-4.32,1.52.53-1.08-.42-1.81-.46-2.16-.04-.18.37-1.3.2-2.99-.13-1.17.31-2.66.24-3.9l-1.26.82c-.31,1.43.07,3.5-.31,4.8-.44,1.48-5.31,6.39-6.83,7.11-.29.13-.77-.18-.9-.07-.08.52-.05,1.12-.09,1.65l-8.88,3.79h-.01s0,0,0,0l-2.62-1.39c-.46,1.06-2.09.99-2.18,1.08-.11.09.09.57-.07.9-.33.66-1.85,2.38-2,2.88-.26.93,0,2.29-.22,3.3,0,0,0,0,0,0l-3.19,2.8c.16-1.15.05-2.45.22-3.6l-1.9,1.38-3.36,5.21c1.3,1.38.03,3.08-.3,4.51l-1.2-.08,1.12,2.09c-.71-.22-1.26-.79-1.97-1.05-.75-.28-.73.09-1.24.52-.21.59.42.93.48,1.84.04.53.04,1.1.05,1.67l-5.53,3.47-.09-.57c-.65-.86-1.15-.15-1.26.82-.02.22-.03.48-.04.75-.72.42-1.28,1.18-2.15,1.35l-.05-.13-.02.13c-.15.02-.3.05-.46.03.42-.85-.08-1.49-.33-1.89.58-.68,1.12-1.3,1.34-1.56l-.16-2.12-1.07,1.47c0-.32,0-.66-.04-1.05-.13-1.17.32-2.67.26-3.91l-1.26.82c-.3,1.44.06,3.51-.32,4.81-.44,1.48-5.29,6.38-6.81,7.1-.3.14-.78-.16-.9-.06-.12.66.02,1.49-.14,2.09-.02.02-.03.04-.05.07-.12.18-.52.29-.6.5-.12.32-.13.58-.09.81-.77,1.23-1.54,2.21-1.26,4.04l-1.21-.09c.17.95.41,2.08.45,3.22-1.5-.12-2.95,2.87-1.41,2.38l-12.94,12.24c-.19-.63-.6-1.19-.46-1.56.77-2.16.44-3.92.95-5.37.13-.33,1.17-.79,1.3-1.12,1.43-4.01,2.95-4.47,5.33-7.51,1.19-1.52,2.8-3.11,3.92-4.56.18-.24.53-1.52.71-1.76.24-.31.7-.55.97-.86l1.12,1.3c1.21-.7,1.06-1.67,1.1-2.95,2.66.09,2.73-3.63,3.39-5.53.09-.29,2.99-3.68,3.32-4.6.57-1.65.53-4.56,1.63-6.54,4.91-3.13,5.46-7.97,10.06-10.5.37-.2,3.46-6.34,3.79-7.29.26-.7,1.21-.24,1.94-1.7.24-.48,1.17-1.72,1.63-2l1.39,1.92c-.24-1.01.9-1.3.75-2.07-.11-.48-.92-1.06-.44-2.44.04-.13,1.92-1.78,2.25-1.96.24-.15,1.52-.33,1.83-.48.75-.37,1.04-1.5,2.18-1.06l.07-5.44c-.88.66-1.67,1.63-2.55,2.25-1.01.7-.66.55-1.5-.4l4.89-5.42,1.43,1.3c-.06-1.36.68-3.02-.35-3.94l3.19-2.51c.53,1.58-1.21,2.11-1.39,2.62-.2.57-.59,2.47.77,2.16l2.91-3.13-.51-1.23c2.14-3.02,4.62-4.38,7.64-6.14l1.43-3.22c2.91.18.31,1.94-.18,2.71-1.01,1.54-1.01,2.75-1.5,4.12-.15.48-1.85,1.7-2.49,1.34l-.02.31c1.61,1.21.99,2.73.9,4.58,1.42,0,2.12-.72,2.45-1.71,1.88.12,4.96-.15,5.22-.19.55-.11,1.3.22,1.8.11.59-.12.83-.59.93-1.16.02,0,.02,0,.05.03l5.08-1.74,5.8-4.08,3.84-1.12.11-1.09,11.05-7.04,3.01-4.03,2.47.4,1.4-2.81,5.35-3.35ZM439.08,453.78l.86-3.88,2.25-1.96.11,2.73c-.92,1.1-.95,3.28-3.22,3.11ZM471.94,413.37l.97-.84.29.31-.97.86-.29-.33ZM472.51,404.65c-.04-1.52,1.1-1.96,2.53-1.63l-.73,1.76-1.81-.13ZM482.18,395.65c.4.48-1.61,3.41-2.64,3.44-.22-1.76.62-3.52,2.64-3.44ZM491.18,395.31c-.04.14-.08.29-.11.41-.03.14-.04.3-.05.46-.43.93-.85,1.81-1.21,2.55-.06-1.02.52-2.68,1.37-3.42ZM489.18,399.13l-.06,1c-.03.06-.07.13-.09.18l-1.13-.06,1.28-1.12ZM491.38,384.17c-.2-1.43,1.58-1.52,1.41-2.93l.6.04-.2,3-1.81-.11ZM518.11,349.71l2.58,1.98-5.48.84.04-.59-1.74-1.01c1.28-1.26,2.91-1.52,4.6-1.21ZM496.8,361.58l1.5.11-.04.59-2.14.46.68-1.17ZM495.74,363.94l2.75-.44.55.64,3.52-3.08.13-2.09,2.42.15-.51-1.54-1.14-.99,4.07,2.38c.31,2.25-.51,2.33-1.45,3.55-.11.13.07.48-.02.59-.73.86-5.11,4.16-5.13,4.49,1.12,2.14,3.55-.31,3.74-1.87l.86.66.64-.55,2.03,1.34-.24-5.46,1.87-.77-1.08-2.2,3.52,1.45c-.09-.84.24-2.18,1.08-2.36.37-.07.81.18,1.19.09.82-.18,1.92-2.62,4.03-1.54l-1.25.81c2.31,2.86,2.73-.64,4.01-1.23.29-.15.75.15.9.04.86-.55,1.67-2.82,3.46-2.18,1.3.46.37,2.44,1.01,3.08,1.61-.88.13-1.28.44-2.07.06-.24.53-.33.64-.57.24-.66-.15-1.5,1.03-2.05l1.81.13c.31.4-.46,1.39-.73,1.76-.6.86-1.41,1.37-1.67,2.6-.15.7,0,1.3.84.97.11-.04.33-.16.59-.3l-3.89,2.85c.26.37-.57,4.5-3.59,6.85-.95.74-3.62,2.48-3.62,2.48l-1.45,3.73-3.59,7.28-9.75,6.24c-.12-2.05,2.56-4.05,2.86-4.95.31-.86.11-1.96.82-2.97.71-1.03,1.98-1.25,2.91-1.98,0,0,.02-.01.02-.02l1.11-.34-.14-6.95c-1.16-.13-.6,1.86-.78,2.67-.05.22-.6.34-.64.56-.14.65-.11,1.33-.12,1.99l-2.75.73c-.24-.99.92-1.3.75-2.07-.05-.24-.53-.4-.55-.64-.13-.77.22-1.85.18-2.71l-1.81-.11.31,4.56-2.53,1.63.44,2.44-1.37,2.33-1.17-.68,1.17-3.85c-1.19.82-1.17,2.62-2.86,2.22.22,2.75-.66,3.57-3.02,4.65-1.89-1.63.06-3.08,0-4.85l1.21.09c-.07-1.12.09-1.76,1.06-2.36l.22,1.23,1.21.07,1.01-1.74,1.52.11.11-1.81,1.21.07.22-3.59c-1.98.22-2.66-.59-3.79-2.07-1.17-.42-1.61.44-1.83.48-.55.09-1.3-.22-1.81-.13-.55.11-1.69,1.1-2.2,1.37-.68.37-1.12.29-1.83.2l-.42-2.75c1.48-1.19,3.55-1.39,3.26-3.7ZM486.56,379.62l2.09.15.13-1.81c.66-.07,1.52.24,2.09.13.82-.18,3.88-3.52,3.63-4.58l2.4.15c-.26-1.01.62-1.19.71-1.48.35-1.17-.29-2.82,1.98-2.58l.46,2.14c-.77.57-.71,1.5-1.65,2-.46.26-2.05.4-2.14.46-.13.11.11.64-.06.9-.26.4-1.17.84-1.28,1.12-.18.51.04,1.3-.13,1.81-.2.64-1.63,1.65-1.37,2.62-1.32-.48-2.03.22-2.75.44-.42.11-1.58.33-1.85.46-1.37.81-2.49,2.71-4.67,2.11-.66-.75,1.87-3.61,2.4-4.07ZM483.61,392.1l1.21.09c-.26-2.05.88-3.19,2.69-4.05l-.86,3.88-3.19,2.51.15-2.42ZM469.12,387.52c.73-.55,1.1-1.36,2.18-1.06.07.99-.07,1.87-1.06,2.36-.44.2-1.12-.62-.97.84l-2.49,1.34c-.24-1.67,1.19-2.6,2.33-3.48ZM405.59,430.73c1.1-1.23,3.19-2.07,3.26-3.7l1.81.11c.02-2.29,1.61-1.37,2.82-1.63.82-.15,2.03-1.94,1.69-2.91l2.07.75s.01,0,.02-.01h-.01s-1.88,2.68-1.88,2.68c-1.03.5-1.9,1.01-2.33,1.59-.18.24-.53,1.52-.73,1.76-1.17,1.59-2.47,1.5-4.29,1.23l-.11,1.5c-.95.24-.29,2.75-1.63,2-1.21-.66-.75-2.27-.68-3.37ZM399.71,437.29l.77-2.36,1.19.07-.44-2.44,2.4.15c.55,1.56-1.21,2.14-1.37,2.64-.53,1.52.29,3.06-2.6,2.53l-.06,1.21-1.76-.73c.02,2.62-.06,3.48-2.14,5-.66.46-.86,1.1-1.87.77.07-.84-.09-1.61.46-2.38.64-.93,1.94.09,1.61-1.7-.46-.46-3.59,1.83-2.95-.82,2.45.29,4.49-1.87,6.76-1.96ZM393.47,426.61l.07,3.63c-.75.07-1.08-.09-1.48-.7l-1.59,1.1,3-4.03ZM387.42,431.34l1.87-.79-.11,1.52-1.85.77.09-1.5ZM387.95,437.11l1.17.68c1.34-1.17,2.64-1.78,2.36-3.77l5.97-3.55.18,1.83c-1.1-.15-3.04,1.54-3.77,2.47-.55.68-.59,2-1.69,2.62-.15.09-.46-.13-.6-.04-.57.35-1.56,1.61-1.92,1.67-.88.18-2.31-.31-3.32-.22l1.63-1.7ZM385.94,444.53c1.41-1.32,2.88-2.73,5-2.4l-3.19,2.51,2.64,1.08.73-1.76c.75.79.99.75.49,1.85-1.17,2.47-3.39,2.82-5.95,3.24l.77-2.69-.48-1.83ZM387.92,455.83l7.53-4.34c.57,1.61,4.09-.44,4.6-1.21.18-.26-.07-.79.06-.88.11-.11.6.2.9.04,1.1-.53,1.63-3.3,3.5-2.77l.15-2.42,1.81.13c-.24,2.03,1.92,2.73,2.38.46.13-.57-.02-1.3.13-1.81.13-.48,1.61-1.63,1.37-2.62l.79,1.85c1.17-.55.79-1.37,1.03-2.05.11-.24,2.53-2.49,3.28-4.01.18-.31-.05-.79.06-.9,2.07.42,2.69-.53,2.58-2.53l-1.17-.4c-.02,1.76-2.45,2.51-3.28,3.72l-1.41,3.22c.2-1.01-.05-2.38.22-3.3.07-.2,1.26-1.52,1.32-1.72.26-.92-.22-2.95,1.12-3.26.37-.07.82.18,1.19.09.57-.11,2.4-2.38,3.22-2.8l.18,1.81,1.8.13.15-2.4-1.81-.13c.55-.46.66-1.7.73-1.76.35-.29.53.31,1.89-1.39,1.14-1.38,2.55-2.33,4.35-1.83h0s1.58-1.09,1.58-1.09h0s0,0,0,0c.44-.62.99-.45,1.56-.8.66-.42,1.29-1.35,1.92-1.68.53-.28,1.62-.58,1.8.12l-.74,2.06c-1.69-.86-2.66,1.42-3.43,1.58-3.26.71-2.09,1.55-2.86,2.23-.08.07-1.43-.15-1.86.78.1,1.7-.95,3.85.57,5.17,1.65.38.87-2.25,1.12-3.25.05-.21,1.12-.93.74-2.06,1.23.2,2.6-1,2.56-2.25,1.48.73,2.26-.92,2.78-1.02.52-.11,1.28.23,1.8.12,1.29-.26,1.28-2.63.54-3.59l1.86-.78.1-1.5-1.2-.08.08-1.2,3.08-1,.84-3.57.22-.76c.38.87,1.49,1.1,2.49.93.26-.04.57-.88,1.54-.51l.11-1.78,2.97.79,1.02-1.74c.68,1.06,2.07.64,3.28.82.09-1.74,1.76-2.64,3.46-2.18,1.48-2.03,2.69-3.19,5.31-2.69.31,1.28-1.58,1.63-1.39,2.64.15.66,1.32,1.21,2.05,1.04.55-.13,1.08-1.59,2.18-1.06l.13-1.81,3.35-.4.95-.84.18-2.71-1.17-.37c.79-.62,1.34-1.65,2.49-1.34l1.1,1.87c-.57-3.48,4.05-3.52,3.48-7l1.19.09c.37-1.43-.84-2.51-.33-3.96.11-.33,1.28-.95,1.61-1.41,1.12,1.25.88,2.95,3.15,2.64l.42-1.78c-.33-.53-.46-1.65-1.1-1.89-.44-.18-1.45.26-1.48-.4,1.65-1.43,3.19-3.33,5.64-2.95-.09.86.09,1.61-.46,2.38-.84,1.19-2.86,1.78-1.17,3.85l-.05.59c-1.08,1.12-1.76,1.7-3.39,1.3l-1.65,2,1.21.07c.73.59.64,2.09.4,3.06-.05.2-.51.31-.64.55-.15.33.04.82-.07.9-.11.11-.59-.2-.9-.07-2.55,1.21-3.83,4.62-5.57,6.58l.55.95c-1.3.02-3.52-.73-4.27.62-.37.68.09,1.17.84.97l.24,1.21-1.81-.11-.09,1.19c-1.23-.2-2.47,1.15-3.17,2.22,2.07.24,3.26.44,4.89-.9l-.15,2.42-3.74,1.85-.18,2.71-1.8-.11c-.11.48.04,1.12-.11,1.5-.06.2-2.66,3.08-2.91,3.13-.71.15-1.74.09-2.45.44-.97.48-1.52,2.05-2.84,1.63l-1.48,4.14c-1.74.02-4.21,1.43-4.45,3.32l-2.45.44-.07,1.19-3.06.42c-.55,2.4-4.12,3.11-5.79,5.35l.53,1.23-3.79,2.47c-.33-1.19,1.19-1.54,1.34-2.03.37-1.06-.05-3.04.29-4.21.51-1.78,4.65-4.54,4.1-7.27,1.34.13,3.17-1.48,3.22-2.82l4.25-.31.18-2.71,3.26-3.72c-1.14-.37-1.45.64-2.18,1.08-1.61.95-3.28,3.08-4.45,3.33-.53.11-1.28-.24-1.8-.13-.49.11-2.38,2.31-3.22,2.82-1.14.68-3.28,2-3.77,2.16-.81.29-1.78,1.32-2.77,1.04l-1.69,2.91-2.11-.15c.09,2.05-1.92,3.15-1.56,5.33l-1.19-.07c.37,1.12-.71,1.89-.75,2.07-.29,1.36.26,4.71-1.23,5.04-.37.09-.88.07-1.52.2-.79.18-.73-.18-1.17-.68l1.45-3.83,1.21.09c-.09-.53.79-3.7-.71-3.06-1.34.55-1.32,3.61-2.4,4.36.02,1.3-.64,2.77.35,3.65l-1.85.77-.11-3.02c-1.56.79-.42,3.81-2.95,3.43l.9-4.47,3.22-2.82.09-1.5-1.81-.11c.2,1.17-.64,2.4-1.69,2.91-1.61.75-1.03.79-1.67,2.6-.4,1.08-2.75.53-3.13,1.61-.2.53,0,1.81-1.06,2.05-.37.07-.82-.18-1.19-.09-1.3.29-1.98,2.53-1.76,3.81l-.97.84-3.3-.22-.15,2.4c-.92-.42-2.82.53-3.11,1.32-.71,1.94-2.47,3.39-2.69,4.05-.18.48.04,1.3-.13,1.78-.51,1.48-3.15.15-3.98,1.25l-1.21-.09-1.98-1.94c-.53,1.08.64,2.14.42,2.75-.09.24-.57.33-.64.55-.22.75.42,2.27-.75,2.07-.02-1.92,1.19-4.78-1.48-4.93l-.82,2.97-3.94.35-.95.84c.99.86.31,2.33.35,3.63-.24.7-2.16.59-2.55,2.25-.24.99-.04,2.27-.22,3.32l-.44-2.75-.79-1.56c-.88.92-1.48,1.34-2.77,1.01l-.71,1.48.55.64c-1.8,1.1-1.89,4.29-4.49,4.23l2-3.19c-.99-1.12.09-2.64-1.56-3.72.26-.66,1.89-2.07,1.96-2.29.97-2.66,2-3.63,3.41-5.81.18-.26-.07-.79.07-.9.06-.07,1.41.15,1.85-.77l-1.12-1.28,2.2-1.37c3.28,4.89,6.3-.7,9.27-3.02ZM368.13,582.37l3.02.2c-.26,1.52.84,2.09,2.27,1.96.75-1.48-.9-2.25-1.01-2.77-.22-1.06-.13-2.62,1.34-2.03l.42,2.73c1.45,1.12,1.12,2.31.95,3.99-.84.09-1.98-.31-2.71-.18-1.32.29-2.2,3.74-4.93,1.5l-1.87,1.08-.84-1.25c1.72.37,2.6,0,3.72-1.28-1.04-.92-.29-2.58-.35-3.94ZM383.06,451.89l-1.67,2.31-3.94.33c.84-2.05,2.16-1.32,3.41-1.59.31-.07,2.03-1.25,2.2-1.06ZM370.04,456.76l-.4-3.04,1.37-2.62,2.07.73c1.37-1.04,2.44-2.33,2.38-4.05,1.08.53,1.96-.46,2.16-.46,1.01-.09,3.59.02,3.85,1.15.07.33.11,1.52-.42,1.5-.46.04-1.19-.22-1.5-.11-.06.02-.42,1.01-.97,1.15-1.23.29-1.7-1.34-2.73.13l1.17.66c.29.86-1.17,1.28-1.32,1.74-.29.77.05,2.14-.2,2.99-.09.31-1.23,1.67-1.65,2l-.73-2.75.79-2.66c-1.83-.22-2.31,1.61-3.19,2.51l.97,3.68c-1.06.48-.49,1.56-.77,2.36-.13.42-2.11,1.87-2.49,1.34.42-1.72-.29-2.99-.31-4.54l1.92-1.7ZM356.87,482.46c1.28-1.01,2.31-2.71,2.71-4.34l1.12,1.28,1.26-.82-.35-3.96,2.07.75,1.98,1.94c-.37-.68-.48-1.74-1.06-2.18-.62-.48-1.63-.57-1.69-1.63l4.25-.31.07-1.21c1.45-.18,2.4.66,2.88,2l-1.32,1.72-.51-1.23-1.87.77,1.01,3.11c-.71,1.08-1.45.59-2.18.75-.59.13-4.29,3.48-3.61,4.6l-5.57,2.05.82-3.28ZM358.22,581.71c.57.2,2.35,1.85,2.88,2,1.98.57,3.02-.13,4.32-1.52l.84,1.26-1.23.22-.09,1.5-1.87.79.46,2.14c-.86-.13-1.89.02-2.71-.18-.86-.2-3.92-1.12-4.74-1.52-.68-.33-2.11-1.92-2.27-1.96-.55-.2-1.45,0-2.11-.13.55-1.96-.62-2.99-1.5-4.62,1.23-1.63,1.74.26,2.64,1.08l1.23-.53c.9,1.17,2.95,1.08,4.14,1.48ZM343.75,498.2l1.76.73c.49-1.26-.77-2.27-.37-3.35.11-.31,1.03-.73,1.28-1.12.88-1.39,1.98-3.37,2.14-5l4.38-2.11-1.48,3.81-.24,3.92-2.33-1.37c-.18.82.07,2-.18,2.71-.18.51-1.81.95-1.37,2.31l-3.83,3.08.24-3.61ZM337.49,595.98c.39-.48.79-1.03,1.15-1.68.2.26.39.5.56.62-.28.19-.56.47-.84.84l-.86.22ZM339.7,595.48l-.51.07-.49.12c.18-.28.38-.53.49-.62.05-.05.08-.06.13-.1l.45.12c0,.12-.03.25-.07.4ZM339.93,595.45c.07-.1.14-.18.22-.26l.56.15-.78.11ZM340.88,601.49c-.22-.13-.37-.23-.46-.28.16.09.32.17.47.26,0,.01,0,.01-.01.02ZM341.34,601.76c-.11-.06-.19-.11-.28-.17l.03-.02c.09.05.18.1.27.15,0,.01-.01.03-.02.04ZM350.14,602.24h-.01c.87-1.31.84-1.54.81-1.93l1.8.36s.02.02.02.02c-1.14,2.07-1.27-.22-2.62,1.55ZM353.63,603.03c-.02-.08-.05-.14-.07-.27.32-.39.65-.4.97-.71.12.06.23.1.35.16-.23.32-.46.65-.67.88-.18-.02-.38-.04-.57-.06ZM355.29,603.5c-.12-.13-.22-.23-.31-.26-.06-.02-.13-.03-.2-.05.11-.61.27-.67.44-.83.33.13.64.24.91.32-.27.19-.56.57-.84.82ZM355.95,603.45l.19-.77s.05.02.08.03c.16.04.35.08.55.12-.2.79-.45,1.54-.81.62ZM357.39,604.33c.35-.37.44-.87.44-1.38.28,0,.55-.03.77-.12,0,.01,0,.02,0,.03-.31.87-.84,1.54-1.22,1.46ZM360.84,606.04s-.12,0-.18,0c.03-1.07.19-2.05.76-2.53-.03.76-.11,1.92-.32,2.51-.09.01-.17.01-.26.03ZM361.21,606c.09-.11.19-.14.27-.03-.08,0-.18.02-.27.03ZM385.23,598.91l.24-1.12-1.12.78.92.73c-.03.12-.04.24-.05.36-.16.15-.32.29-.49.39-.23.13-.7.38-1.08.57h0c-.19.1-.37.18-.47.22-1.8.73.33-3.24-1.96-2.53.11,1.04-.12,1.94-.7,2.65-.06-.52-.17-1.05-.22-1.21l.02,1.46s-.08.05-.11.08c-.3-.39-.4-.69-.51-1.6-.71-.11.01,1.47,0,1.97-.07.04-.11.09-.18.13-.08-.03-.18-.09-.33-.22.07-.15-.02-.39.12-.67-1.23-.52-2.03,1.39-3.19.74-.62-2.42.82-.74.2-2.76-1.36.66-2.72,3.26-4.24,2.84l.29.25c.04,3.52-1.21-1.62-1.83.03.17-.26.13-1.95.11-1.56-1-.53-1.94.92-3.47,2.08l.18-.91c-.58-.79-1.52-.51-2.14-.93-.21.89-.57.73-.4,2.05-.88-2.62-1.79-1.89-2.75-1.22-.95.7-1.96,1.5-2.56-.71.21.01.57-.73.41-.75l-1.54.67c-.03.51-.03.78-.02.96-.22,0-.44,0-.66-.02-.05-.24-.09-.47-.12-.66-.01.21-.06.43-.1.65-1.72-.12-3.14-.65-3.12-2.68l-.71.34-.08-.16c.02.07.04.11.06.16l-.07.03c-.11-.18-.23-.35-.34-.53l.11.61s0,.02-.02.03l-1.17.56c-.32-.38-.64-.77-.97-1.14l.2-.57c-.09.23-.14.4-.2.57-.04-.05-.08-.09-.12-.14-.1-.52-.19-1.06.02-1.49-.8,1.29-.47-.85-1.35.23-.14-.1-.29-.19-.44-.27,0-.18.05-.48.26-1.02-.41.17-.41.52-.4.93-.4-.21-.82-.35-1.29-.4l.07-1.21-1.54.51c-1.06-1.3-1.63-2.29-3.48-2.05l-.84-.95.09-1.5c-1.21-.2-2.6.24-3.26-.84l-2.18,1.08-1.06-2.49-.18,2.71c.26.56.58.75.92.84-.38.5-.82,1.39-.46,1.33l.91-1.25c.23.02.46.04.68.12.21.07.55.54.9,1.01-.42.45-.6.52-1.42,1.55-.11-.13-.23-.27-.37-.42.09-.25.21-.51.36-.74-.34.4-.22-.45-.84.25-.85-.86-1.84-1.81-1.91-2.18-.2-.9.31-2.51.22-3.59,0-.24-.53-.42-.55-.66-.07-1.03.24-2.22.22-3.3l-1.8-.11.57-4.18c1.37-.29,1.43,2.27,2.25,2.55.84.31,4.6,2.33,4.95,2.75.11.11-.2.59-.06.9.68,1.43,2.47,2.69,4.07,2.38l.79,1.85c1.45-1.54,3.22,1.41,4.85-.26.66.84,1.65,1.36,1.34,2.49,1.34-.46,2.49,1.21,3.22,1.43,1.74.48,3.68-.18,4.93-1.5l2.38.77c1.01-1.21,2.18.64,3.9.26l-.73,1.76c.51.48,5.02-.4,5.68.97l2.29-2.55,1.3-1.43-.79,2.66.51,1.54,1.48.71c.73-1.08,2.07-.2,3.04-.4.35-.09,2.51-2.33,3.81-2.78.33-.11.79.15.9.07l-.42-3.06c.22-.22,2.78,3.41,2.45-.44,1.26.09.48,2.47-.18,2.71l-.02.59c-.14.54.26,1.19.75,1.47,0,.1-.03.16-.02.27l.3-.17c.12.03.24.07.35.04.05-.01.08-.05.12-.07l-.15.26.61,1.08c-.66.13-.8,2.03-1.57,1.4ZM388.34,598.69l.78-1.08c-.35.24-.69.33-1.03.4-.31-1.71-.66-.53-1.26-2.23.04-.07.1-.13.13-.2l1.44-.83.36.33.49,1.37,1.32-.35c-.65,1.08-.92,3.05-2.23,2.6ZM391.21,596.42c-.03-.15-.08-.31-.12-.45l.66.39c-.13.11-.31.14-.54.07ZM394.59,595.76c.19-.18.41-.3.47-.44.2-.54.38-1.2.57-1.87.03,0,.07-.02.1-.02.85,1.67.24,3.95.52,4.89-.57-2.46-1.1-1.93-1.66-2.55ZM401.43,589.95c-.12.45-.24.87-.4,1.23l-.86-.05c.13.49-.03.8-.23,1.01-.08.01-.15.05-.25.04-.54-.22-.29-1.28-.37-1.8-.59,1.02-1.5,1.16-2.29,1.53.27-.32.55-.64.79-.99l1.8-.74-.44-2.45,1.63-2c1.21,1.08.81,2.71.62,4.21ZM472.51,505.2c.33-1.34.05-3.1.31-4.51l1.65,2.22-.2,3.02-1.45,3.81-.37-3.35c-1.12-.84-.02-.79.06-1.19ZM424.26,559.38c.09-.24.53-.33.64-.57.18-.46.68-1.65.71-1.76.37-1.48.18-3.72.37-5.39.11-.97.6-1.7,1.26-.84-.2,1.26,1.21,1.87-.18,2.71l.44,2.44c-1.23,1.01-.62,3.17-.92,4.78l-1.56.79c-.66-.57-1.1-1.28-.75-2.16ZM425.78,572.27s.03-.1.04-.13c.13-.35-.07-.84.09-1.19.09-.24.57-.35.64-.57.31-1.23-.06-3.04.26-4.21.07-.22.57-.33.64-.55.29-.79-.46-.99-.51-1.26-.11-.59.18-1.43.13-2.09l2.45-.44-1.39,2.62c1.65,1.08.55,2.58,1.56,3.72l-.78,3.53c-1.03.22-2.11.37-3.13.56ZM435.31,565.74c-.64.9-.98,2.29-2.73,1.44l.81.85c.45,1.13-.77-.23-1.15-.27.61.68.98.56,1.21,1.2-.8,1.59-2.4,2.26-4.2,2.67l1.55-1.56.31-4.82,1.26-.81-.75,2.36c1.48.42,2.09-.33,3.1-1.3l.05-.59c-.88-1.06-.46-3.33-.29-4.85.13-1.17-.18-1.94,1.08-2.66l.75,2.18-1,6.17ZM440.93,562.66c.12-.01.23-.03.31-.05.18-.04.4-.19.63-.37l.11,1.58c-.54.21-.59-.58-1.04-1.16ZM444.01,559.96s-.02,0-.03,0c.47-.57.89-1.08,1.16-1.31l1.5.09.14.45c-.18.87-1.52.83-2.76.77ZM479.53,508.68c-1.23,1.37-3.39,2.55-4.49,3.92-.37.48-.37,1.87-1.89,1.39l-.09,1.21-2.44.44-1.06,2.33-1.41-1.59c1.56-1.03-.15-2.33.26-3.92l-1.26.84c.15,1.54-.64,4.05-.37,5.4.09.44,1.61,1.5,1.69,1.94.18.86-.31,2.31-.22,3.3l-1.69-1.94-.15,2.42-2.07-.75-2.77,1.04c.07,2.33-1.41,3.19-3.3,4.29-.2,1.37-.02,2.91-.29,4.21-.05.22-.57.35-.64.57-.18.73.02,1.67-.15,2.4-.06.24-.97.48-.7,1.48l-2.45.44c-.2,1.45-.05,3.08-.29,4.49-.31,1.7-1.12,4.67-2.82,5.86.16,1.93-.16,3.41-.83,4.64-.35.12-.67.29-.88.58.02.21.08.35.14.51-.24.29-.51.57-.8.83-.09-.11-.18-.25-.26-.47-.32.5-.54.86-.72,1.25-.53.38-1.09.74-1.72,1.09-.92.48-.84,1.19-1.01,1.43-.82,1.1-2.36.75-3.41,1.28-.71.37-1.48,1.5-2.23,1.98-.32.87.44,1.1,1.15,1.11.29,2.46-2.23,1.12-2,3.29-.58-.44-1.04-.68-1.43-.8.78-.46,1.2-1.13.97-2.47-.31-1.92-.42-3.77-.51-5.77l.42-1.78-1.85.46-1.28,1.12c-.06-1.76,1.08-3.08,2.38-4.05l1.39,1.89c.75-2.38-.99-3.83-.82-6.1-2.14-.62-1.01,2.05-1.41,3.24l-.97.84-1.5-.09-.46,6.91-.97.84-2.71-.18.73-1.76-2.45.44c.15-.86,0-1.89.18-2.71.09-.33,1.34-2.62,1.41-2.93.46-2.22-.79-5.57,2.73-4.95l-1.39,2.93c.82-.64,1.5-.31,2.14-.46,1.58-.35.86-3.72,1.23-5.04.07-.22,1.3-1.87,1.65-2,1.21-.53.82,1.06.79,1.56-.05,1.28-.86,3.11,1.03,2.78.26-.26.13-4.6.37-5.7.26-1.23,1.45-2.88,2.09-4.1.55-1.06.88-2.03.82-3.26l1.1,1.59-.22,3.3-1.21-.09-.02,9.67,1.25-.84c.4-3.08,1.02-6.01,1.81-8.94.51-1.89,1.26-4.6,1.63-6.52.22-1.03.07-2.25.22-3.3l1.81.11.29-4.21,1.19.09-.07,1.19,1.81.13-.86,3.57c-2.25-.31-2.14,2.53-3.26,3.7l-.29,4.51,1.37-2.33,1.19.09.68-1.17c.26,1.7-1.08,2.84-.9,4.47.02.24.57.44.57.64-.02.15-1.61,1.34-.18,2.4l-1.67,2.62-.11-3.04-1.45-.71c-2,1.52-1.78,3.94-1.92,6.23l-1.96,2.27.44,2.45-.66.86,2.36.77c.29-.26,0-3.61.31-4.51.18-.51,1.92-1.06,1.37-2.62,1.01.2.95.99,1.12,1.58.29,1.01,2.86.15,2.49-1.34l1.21.07.31-4.8,1.87-.79-2.36-1.06.13-1.81,1.19.09c.4-.95-.46-1.3-.48-1.54-.15-1.34.35-3.08.29-4.51.75-.77,1.17,0,1.14.99-.02,1.1-.18,2.2-.22,3.3,2.6.59,2.84-1.59,2.66-3.74-.02-.24-.53-.4-.55-.64-.11-.55.22-1.3.11-1.81-.07-.35-1.06-.95-1.12-1.3-.13-.64.22-1.65.15-2.4l1.26-.82.4,3.35,1.1,1.59.35-5.42,1.12,1.28,1.87-.77c-.88-.57-.35-1.25-.48-1.85-.05-.22-1.3-3.02-1.56-3.72-.31-.84-1.06-1.78-1.08-1.89-.31-1.45,1.01-2.38.86-3.85,1.89-.42,1.39,1.96.42,2.73.86,1.63,1.28.15,2.09.44l1.12,1.28,1.03-2.03-1.08-1.89c1.19-.97,1.21-2.18,1.43-3.52.15-.95-.44-2.42,1.03-2.05,1.52,1.19.44,3.06.62,4.56.02.24.51.4.55.66.13.62-.37,1.28.48,1.83l-1.92,1.7c-.42,1.17.4,1.5.49,1.83.24.99-.31,2.29,1.65,2.22l-.95-3.99c1.3-.9,1.12-2.36,1.45-3.52.07-.22.6-.33.64-.55.57-2.71.11-6.21.6-9.03l1.25-.82.88,4.89.59-8.72c0-.13-.9-.92-.44-2.44.06-.26.95-.46.68-1.45l1.14.97-.77,11.71,2.66.79,1.61-1.41c-.37-1.17,1.14-2.2,1.39-2.93.18-.51-.05-1.3.13-1.81.09-.22,1.39-1.98,1.63-2l.71,3.08,1.23-4.76-.2,7.53ZM497.29,514.19s-.35-1.26-1.42-2.57c-.15,1.09.34,3.15-.55,3.04-1.53-1.64.63-1.5-1.28-2.51l1.28.05c-2.5-2.02-.08-.6-1.57-2.02-.37-.65-1.08-1.14-.89-2.13l1.43,1.32c.68-.7,1.58-1.28,2.25-1.98.24-.27.49-.56.75-.86.23.92.59,1.92.29,2.08-.28-.29-.45-.35-.67-.81.67,1.95-1.55,1.37-.65,3.77-.18-.13,2.56,1.02,1.04,2.63ZM526.13,479.77c.04.22.53.4.55.64.18,1.89-.09,3.39-1.81,4.4l.79-7.2c-2.27-.24-1.63,1.41-1.98,2.6-.07.22-.59.33-.64.55-.2.88-.31,2.69-.24,3.61,0,.22.55.42.55.64.05,1.23-.06,4.38-.35,5.42-.18.64-1.89,2.07-1.96,2.29-.53,1.48-1.25,2.03-1.37,2.31-.11.35-.35,1.96.15,2.14l3-4.03.42,2.73-1.85.79.31,4.25c-1-.25-1.46.26-1.81.94l-.3-.53.28.58c-.08.17-.16.34-.24.52-.06-.07-.12-.12-.18-.2l.11-.76c-1.74-2.54-3.26-5.33-5.6-6.28l-1.39,4.16-1.26,1.45-.78-.33-1.22,3.84-1.73,3.34h-4.12l-1.22.67-1.23-.89-1.89.89-.85-3.06c1.05-1.44,1.97-3.04,2.31-4.54l1.21.09.06-1.21,1.21.09c.68-1.83.62-3.68.97-5.68.18-.92.86-1.1.75-2.07l.44,2.44c1.74.59.99-1.15,2.22-1.65,1.41-.59.4,1.54,1.37,2.2l1.23-.53c-.29-1.15-.77-2.42-.35-3.63.15-.48,2.33-2.69,2.69-4.05.2-.79.02-1.85.18-2.71,1.67-.2,1.19.57,1.08,1.87l.95-.53c1.69,1.04-.22,3.94,1.48,4.93,1.45.84.62-2.38,1.7-2.62l.11-1.81,1.25-.81,1.12,1.28c-.09-1.92.2-2.8,1.5-4.12l-3.66.35.29-4.21,1.12.99c.26.62,1.19-.37,1.26-.53.42-1.19-.51-1.74-.48-1.85.02-.2.59-.33.64-.55.33-1.43,0-3.35.33-4.82.02-.18,1.12-.97.73-2.05,1.23-.29,1.59.51,1.1,1.56-.26.62-1.3,2.51-1.39,2.93-.33,1.52-.64,4.05,1.54,4.03l-.4-3.35,1.23-.22c-.31,1.17.73,1.72,1.34,2.51l.64-.57.84.97c-.75.42-.88,1.54-.75,2.38ZM548.61,441.1l2.38-4.07.22,1.21,1.58-1.1.79,1.56-4.98,2.4ZM576.03,423.57l-1.17-.68-.95.86-.11,1.5c-2.75-.55-3.35.42-3.22,3.1l-1.74,3.22-.4-3.06-2.2,1.36c1.45,2,1.58,3.72-.64,5.11l-2.75.42,1.94-1.7.86-3.85-1.12-1.3c1.34-.55.24-2.42-.77-2.16l-1.56.82-.22,3.3c-1.72.15-.88-.31-1.14-.99-.13-.42-.86-.57-.48-1.54l-1.85.48.22,1.21.9.07c.13,1.34-.35,1.89-1.39,2.62,2.91,2.49-.49,3.1-.88,4.18-.13.37.09.88-.07,1.19-.2.37-.95.46-.7,1.48l-1.74-1.04c1.06-.66.64-2.05.82-3.26l2.4.15-.77-1.85c-1.01.73-2.18,1.23-3.39.97.53.77.49,1.61-.42,1.78-.57.11-1.45-.18-2.11-.13l.15-2.4h0c.67.23,1.45.04,2.08-.37l2.75-.48h0c.17.03.38.02.67-.02-.06-.84.29-1.92.18-2.69-.31-1.96.37-4.85-.13-7.27-.03-.15-.27-.37-.52-.61l1.75-.16c-.16,1.32-.13,2.72,1.05,3.04h0s7.51.5,7.51.5h0s0,0,0,0l.56-3.89-.46-2.14,2.33,1.36-.18-1.82,2.67.78-.54-.94h0l2.48-1.04.98,3.38c2.26-.72,1.27-3.24.3-4.51h0s3.13-1.03,3.13-1.03c-.36,1.3-.7,2.68-.87,3.59-.33,1.63.37,3.52-1.21,4.45ZM585.21,417.25c.18,2.31-.09,4.12.15,6.65.09.84-.2,1.83-.18,2.71-3.3.18-2.16-2.69-2.09-4.98l-2.51,1.34.82,1.56-.68,1.17-2.71-.18,2.03-3.19.18-2.71c1.15.24,2.03-.53,1.92-1.7l.88.66.95-.84c-.99-1.3-.88-4.73,1.5-4.43.05,1.25-.35,2.69-.24,3.92ZM604.2,422.12l-1.57.82c-.55-1.32-4.69-.53-5.06-.95l-.18-1.83-1.06,2.36c-1.08.02-2.27-.29-3.3-.22-.24,0-.42.55-.64.55-1.06.04-3.26-.04-4.23-.26-.22-.07-.46-.97-1.45-.7-.05-.88.26-1.89.18-2.71-.02-.22-.51-.4-.55-.64-.29-1.21.66-1.61.71-1.76.24-.99.04-2.27.22-3.3l1.52.09c.51.04.46-1.17.4-1.48,0,0-.01-.01-.01-.02l.66-.54c.35.79.28,1.77.44,2.43.11.55,2.11,2.03,2.25,2.58.15.71-.33,1.45.75,2.16.62-.84,2.45-.24,2.82-1.32.44-1.28-.05-2.27-1.01-3.08.77-.81,2.09-1.28,1.98-2.59h0s7.8.74,7.8.74c-.51.35-.46,1.13-.71,1.83-.13.33-1.17.82-1.3,1.12-.26.77.02,2.12-.2,3.02l.86.97,1.5.09-.79,2.66ZM665.52,485.65l-1.32-2.8,1.23-.53.51,1.54,1.19.37-1.61,1.41ZM724.32,504.94l.79-2.66,1.65,2.22.44,2.73-2.88-2.29ZM716.28,530.66c1.98,1.56,3.7,3.61,5.7,5.22.22.18,1.5.53,1.76.73.35.24,1.59,1.72,1.39,1.89-2.03-.33-2.18-2.69-4.69-2.11l1.61,3.13c-2.53-.55-4.01-2.11-3.32-4.76-.9-.66-2.6-2.82-3.48-2.05l1.92,2.84-.97,1.15c.51-1.26-1.5-2.16-1.63-2.82-.26-1.32.77-3.13-.31-4.56,1.19-.22,1.37.84,2.03,1.34ZM732.27,549.22c-.84-.15-1.94.04-2.71-.18-.64-.18-2.09-1.89-2.29-1.96-1.03-.35-2.29.04-3.57-.84-.71-.48-1.58-1.67-1.34-2.51l-.92.55-2.97-.79c-1.23-1.74-1.7-2.03-3.46-2.64-1.28-.46-1.76-4.67-4.27-3.92.22-1.78-2.14-2.71-2.73-4.4,1.19-.22,1.37.82,2.03,1.34,1.43,1.12,3.37,2.27,4.58,3.92l1.23-.51c1.19,1.37,1.94,2.42,3.42,3.24,3.06,1.67,5.94,4.07,9.31,5.44.35.15,1.01,0,1.5.11l-.13,1.81c1.26.18,2.86-.51,2.33,1.34ZM738.86,549.97c-.9,1.74-2.11-.02-2.71.13-1.12.66-1.08,2.58-2.86,2.22l.46-7.22,1.81.11-.2,3.02,1.5.09c.26.97,2.73.29,2,1.65Z"/>
      <path class="cls-1" d="M484.4,407.56c-.04.13-1.27,2.21-1.36,2.33-1.67,2.19-3.43,1.99-4.57,5.13-.14.38-1.55,1.18-1.92,1.68,1.11.85-.4,2.53,1.66,2.22l2.16-5.29,1.2.08c.66-2.19,2.35-3.68,3.42-6.11.11-.25.57-.34.64-.56.31-1.02.18-2.06-.72-2.77-.77.69-.25,2.36-.52,3.29Z"/>
      <path class="cls-1" d="M455.69,421.66c0-1.12,1.04-1.64.8-2.97l-1.2-.08-.8,2.97,1.2.08Z"/>
      <path class="cls-1" d="M459.52,414.07c1.15-.19,2.24.22,2.22-1.66-1.25-.72-5.24,1.73-4.41,2.73.92-.3,1.03-.87,2.18-1.06Z"/>
      <path class="cls-1" d="M511.71,364.38c1.35.39,2.11-.38,3.35-.38l-.28-4.85c-2.74-.66-.11,2.91-.84,3.57l-2.14.46-.52-1.24-1.02,1.74c1-.27,1.2.62,1.46.7Z"/>
      <path class="cls-1" d="M397.3,455.55c.22-.63,2.31-1.24,1.98-2.59-1.51-.41-2.13.38-3.11,1.3l-.3,4.51c1.91-.38,1.06-2.18,1.42-3.23Z"/>
      <path class="cls-1" d="M452,413.57c-.21-1.46.91-2.96,2.6-2.85-1.39-3.02-4.25-.24-3.77,2.17l-1.28,1.12,2.44-.44Z"/>
      <polygon class="cls-1" points="449.68 421.27 453.29 421.51 454.09 418.54 452.22 419.32 449.68 421.27"/>
      <polygon class="cls-1" points="378.37 449.47 378.37 449.75 379.56 449.84 379.64 448.65 378.37 449.47"/>
      <polygon class="cls-1" points="459.65 416.5 459.54 418.29 461.34 418.42 461.45 416.61 459.65 416.5"/>
      <path class="cls-1" d="M699.74,534.4l-.88.77c.25.3.49.6.74.9.58.29,1.28.25,2.12.28l-1.38-1.9-.6-.04Z"/>
      <path class="cls-1" d="M411.56,601.94c-.17-.28-.33-.48-.49-.66.09.17.22.36.49.66Z"/>
      <path class="cls-1" d="M699.49,528.95c-.66-.54-.85-1.55-2.02-1.34-.57.49.88,2.1,1.34,2.5.11.1.46-.07.6.04.66.52.85,1.56,2.02,1.34.29-1.51-1.02-1.79-1.95-2.54Z"/>
      <path class="cls-1" d="M695.27,530.54c.73,1.01,1.52,1.97,2.29,2.95.17-.24.18-.52-.11-1.05-.33-.61-1.52-1.52-2.18-1.9Z"/>
      <path class="cls-1" d="M693.42,524.93l-.32-4.25-2.14.46-.56-.64-.96.84.43,1.02c.4.65.81,1.29,1.22,1.94l2.34.63Z"/>
      <path class="cls-1" d="M670.28,497.44c.47.49.94.98,1.42,1.46-.11-.42-.15-.86-.02-1.37l-1.4-.09Z"/>
      <path class="cls-1" d="M683.43,511.59l-.27.45c.27.38.54.76.81,1.15l1.8-.54-2.34-1.06Z"/>
      <path class="cls-1" d="M643.75,467.9c.48.18.84,1.7,2.03,1.34.24-1.39-.37-2.75-1.26-3.7-.71.82-1.21.79-1.81-.13-1.14.66-.92,1.28-1.06,2.36.62.18,1.54-.04,2.09.13Z"/>
      <path class="cls-1" d="M663.72,490.05c-.18-.48-.06-1.41-1.1-1.58l-.1.57c.59.65,1.18,1.29,1.77,1.95,0-.1.02-.18,0-.29-.04-.22-.46-.37-.57-.64Z"/>
      <path class="cls-1" d="M655.42,419.17c1.14.44,1.58-1.5,2.25-1.96l-.79-1.56c-.62-.22-1.48.71-2.18,1.06.07.75-.33,2.05.73,2.47Z"/>
      <path class="cls-1" d="M362.31,610.43c0,.28,0,.52.02.66.02-.23,0-.45-.02-.66Z"/>
    </g>
  </g>
</svg>