<?xml version="1.0" encoding="UTF-8"?>
<svg id="Layer_1" data-name="Layer 1" xmlns="http://www.w3.org/2000/svg" viewBox="0 0 622.49 570.89">
  <defs>
    <style>
      .cls-1 {
        fill: #49261c;
      }
    </style>
  </defs>
  <g>
    <g>
      <path class="cls-1" d="M103.05,368.32h9.54l22.46,46.6h-7.93l-6.09-12.77h-27.15l-6.09,12.77h-7.34l22.6-46.6ZM118.31,396.35l-10.86-22.75-10.79,22.75h21.65Z"/>
      <path class="cls-1" d="M162.2,368.32h7.19v40.66h27.67v5.94h-34.86v-46.6Z"/>
      <path class="cls-1" d="M223.62,368.32h22.09c16.81,0,28.55,9.61,28.55,23.34s-11.74,23.26-28.55,23.26h-22.09v-46.6ZM266.99,391.65c0-10.64-8.22-17.39-21.28-17.39h-14.9v34.64h14.9c13.14,0,21.28-6.53,21.28-17.25Z"/>
      <path class="cls-1" d="M296.57,391.58c0-13.8,12.04-24.29,29.06-24.29s29.21,10.49,29.21,24.29-12.11,24.37-29.21,24.37-29.06-10.64-29.06-24.37ZM347.57,391.58c0-10.93-8.88-18.27-21.94-18.27s-21.8,7.41-21.8,18.27,8.88,18.27,21.94,18.27,21.8-7.27,21.8-18.27Z"/>
      <path class="cls-1" d="M374.72,368.32h7.93l18.42,40.36,19.08-40.36h7.34l-22.24,46.6h-8.81l-21.72-46.6Z"/>
      <path class="cls-1" d="M454.64,368.32h7.19v46.6h-7.19v-46.6Z"/>
      <path class="cls-1" d="M510.04,368.32h9.54l22.46,46.6h-7.93l-6.09-12.77h-27.15l-6.09,12.77h-7.34l22.6-46.6ZM525.31,396.35l-10.86-22.75-10.79,22.75h21.65Z"/>
    </g>
    <g>
      <g>
        <path class="cls-1" d="M284.36,158.95s.02,0,.04,0c.84-.12,3.41-2.21,3.73-2.72.26-.41.35-.84.45-1.25.08-.35.16-.68.32-.98.1-.18.31-.47.56-.81.49-.66,1.39-1.89,1.16-2.11-.13-.12-.26-.18-.41-.18-.11,0-.22.03-.35.09-1.34.61-3.18,4.32-3.14,5.2v.04s-.02.03-.02.03l-2.34,2.7Z"/>
        <path class="cls-1" d="M281.76,144.85c-.01.07,0,.09,0,.09.15.14.49.03.92-.31,1.22-.97,2.85-3.51,2.46-4.48-.81.5-3.22,3.84-3.38,4.71Z"/>
        <path class="cls-1" d="M283.3,160.07c.23-.22.34-.54.31-.92l-1.82.92v.35c.62.1,1.18-.03,1.51-.35Z"/>
        <path class="cls-1" d="M289.04,135.75c-.16.13-.33.27-.51.41l-.02.02c-1.38,1.09-2.95,2.31-2.74,4.17,1.64-1.05,2.91-2.84,3.28-4.6Z"/>
        <path class="cls-1" d="M354.98,156.12c.68-5.18.49-10.76-.52-15.71-1.4-6.81-3.65-10.12-7.86-14.57-5.31-5.61-14.77-10.38-21.8-12.62-.42-.13-.91-.14-1.44-.15-.56-.01-1.14-.02-1.72-.18-.51-.14-1.04-.45-1.59-.78-.57-.33-1.16-.68-1.77-.86-8.12-2.44-16.52-.74-23.93.76-10.63,2.16-16.44,5.59-24.49,10.34l-.11.07c-.55.32-1.11.65-1.68.99-10.04,5.91-20.86,21.05-24.67,31.49-.57,1.58-1.08,3.1-1.57,4.57-2.01,6.02-3.74,11.22-8.56,16.32-1.44,1.53-2.63,3.09-3.79,4.61-.86,1.13-1.74,2.29-2.71,3.41-.85.98-1.88,1.92-2.87,2.82-2.89,2.64-6.61,3.96-5.82,8.2.11.57,1.05,2.33,1.38,2.45.89.32,2.43-.95,3.45-1.8h.01c.25-.21.46-.39.63-.52.26-.2.53-.28.78-.36.62-.2,1.03-.33.82-2.06v-.11s.1,0,.1,0c.08,0,.15,0,.23,0,1.67,0,2.95-1.06,4.19-2.09.43-.35.82-.68,1.23-.97,1.07-.75,12.76-8.32,12.84-8.37.09-.06.49-.2,1.44-.53,1.29-.45,3.05-1.06,3.82-1.47,1.71-.92,2.95-2.09,4.15-3.22.94-.88,1.82-1.71,2.82-2.3.69-.41,1.5-.64,2.28-.86.82-.24,1.67-.48,2.38-.93l-.04-1.79h.1s8.11-.11,8.11-.11c.44-.22.89-.48,1.32-.73h.02c.73-.43,1.49-.87,2.25-1.17,1.07-.43,2.06-.75,3.01-1.07,2.17-.72,4.04-1.33,6.03-2.84.65-.49,1.64-.87,2.69-1.27,2.08-.79,4.44-1.68,4.49-3.72v-.09s.1,0,.1,0l1.66.02.22-2.1-.79-.2c0,1.02-.68,1.24-1.28,1.43-.26.08-.52.17-.73.31-.5.36-1.04.77-1.61,1.2l-.03.02c-1.46,1.11-3.11,2.37-4.57,3.09-2.02.99-4.43,1.71-6.75,2.4-1.99.6-4.05,1.21-5.85,1.99l-.35.15,2.88-3.62c.08-.34.08-.7.08-1.05,0-.4,0-.82.12-1.22.02-.05.09-.17.26-.46.33-.53,1.32-2.14,1.08-2.41-.02-.03-.13-.09-.56.12-.77.38-1.21,1.76-1.64,3.11-.31.97-.62,1.97-1.07,2.62-.49.7-1.26,1.23-2,1.75-1.12.77-2.27,1.57-2.5,2.95l-.02.13-.12-.06c-1.67-.88-3.82-.88-6.41,0l-.14.05.02-.15c.05-.56-.07-1.09-.19-1.61-.11-.48-.22-.97-.2-1.5.05-1.27.55-2.35,1.03-3.4.72-1.57,1.41-3.05.36-4.94l-.1-.19.21.05c1.22.27,1.43-.24,1.75-1.02.15-.36.31-.77.61-1.15-.21-.3-.4-.45-.58-.47,0,0-.02,0-.02,0-.25,0-.49.27-.75.56-.28.31-.59.66-.99.76l-.13.03v-.13c.11-1.42.24-3.19-1.29-3.85.19,2.99-.27,5.18-3.01,6.17l.02.58,1.02.33-.02.08-.78,3.73-1.88,3.75-.05.11v-.41c0-1.27.3-2.51.59-3.71.12-.5.25-1.06.36-1.6.17-.91.35-1.82.52-2.75,0-.05.02-.1.03-.14v-.1s.02,0,.02,0c.76-3.99,1.19-6.01,2.29-10.2.08-.32.18-.71.26-1.08.3-1.27.64-2.7,1.11-3.58.4-.74,1.39-3.6,1.94-3.93.44-.27.85-.52,1.12-.95.3-.48.45-1.04.59-1.59.33-1.25.63-2.43,2.59-2.52l.08-1.48,1.75,1.01c.35-.38.78-.67,1.2-.95.88-.59,1.71-1.15,1.54-2.39l-.02-.15,1.52.51c.03-1.53.25-2.48.66-2.82.26-.22,5.36-2.12,5.68-2.13h.01c.51,0,.95.28,1.37.55.37.24.72.46,1.07.46h.03c.08,0,.13-.2.17-.37.05-.2.09-.39.22-.47.23-.15.46-.23.69-.31.5-.17.98-.33,1.41-1.3l.03-.07,1.92.43c.59-1.37,1.56-1.49,2.67-1.49h.3c.32,0,.7,0,1.03-.07.29-.06.51-.31.75-.57.26-.29.52-.58.91-.7,1.63-.51,6.81-1,8.47-1.07.06,0,.12,0,.17,0,.89,0,1.88.26,2.92.53,1.47.38,2.99.78,4.37.49l-3.06-2.04h.3c.75-.03,3.35-.04,5.04.74.44.2.62.37.6.56-.03.24-.42.35-.83.43-.03,0-.09.02-.12.03-.23.39-.28.69-.17.93.28.57,1.52.71,2.61.82.54.06,1.05.11,1.4.22,2.2.66,6.18,2.1,8.17,3.36.38.24.7.56,1,.86.27.27.55.56.88.78.18.12.49.16.77.19.28.03.52.06.62.18.12.14.14.43.16.79.02.38.04.82.19,1.13.27.58.98,1.09,1.35.97.29-.09.28-.54.22-.9l-.03-.16.15.05c1.23.39.99,1.15.77,1.88-.1.32-.2.64-.21.96-.08,2.14-.05,3.43,1.48,5.18l.19.22-.42,1.99c-.47-.11-.47-2.16-1.02-1.83,0,0-.89,3.94-.77,5.75.02.25.03.49.04.69.02.39.16.81.29,1.22.15.45.29.88.26,1.23-.03.29-.34.41-.67.53-.24.09-.48.18-.62.34-.25.27-.36.63-.48.97-.11.33-.21.65-.43.89-.23.26-.67.47-1.13.69-.53.26-1.13.55-1.47.95M267.95,166.87l.38.37-.88.88-.38-.38.88-.88ZM258.1,169.46l.02-.03s.16-.14.42.03c.39.26,1.01,1.04.73,1.57l-.03.05h-1.06s-.1,0-.1,0v-1.63ZM251.7,171.12c-.72,3.05-1.12,4.73-4.46,5.96l-.1.04-.03-.1c-.39-1.46.34-2.34,1.04-3.2.34-.41.65-.8.84-1.23.19-.44.27-1,.35-1.54.16-1.1.33-2.23,1.32-2.63l.17-.07-.5,2.54,1.5-.25-.12.5ZM311.48,122.6l-.14.07v-.82l.14.07c.2.1.3.21.3.34s-.1.23-.3.34ZM325.25,128.08l-.06.06-.07-.04c-2.25-1.52-4.8-2.46-7.27-3.37-1.56-.58-3.17-1.17-4.7-1.91-.2-.1-.38-.12-.54-.15-.2-.03-.38-.06-.49-.22-.12-.16-.12-.45-.03-.95v-.07s.09,0,.09,0c.08,0,.16,0,.24,0,.99,0,1.66.46,2.26.87.31.21.6.41.91.53.74.27,1.52.5,2.28.71,1.24.36,2.52.72,3.71,1.31.04.02,3.62,1.85,3.79,2.88.02.14-.02.27-.12.37ZM303.52,114.71c-.49.11-.54.09-1.05.28-1.22.48-2.19.64-3.5.8-1.98.26-3.94.31-5.88.64-.6.11-1.18-.05-1.5-.61l1.4-.41c-.11-1.73.61-1.83,2.16-1.58,0,0,1.25-.4,1.1-.97.7.04,1.32-.05,1.68.63.12.26-.35.69.64.56l.08-1.03c.83-.01,1.75.21,2.57.18.12-.01.23-.31.36-.33.86-.1,1.56.08,2.01.83l1.63-1.28-.45,1.69c-.08.06-.35-.11-.51-.04-.25.13-.55.6-.73.64ZM326.84,120.73l-.49-.38-1.72-.11c-.06-.07.11-.35.04-.51-.39-.79-.97-.45-1.5-.61-1.1-.34-1.61-.31-2.72-.53-.26-.05-1.74-.76-2.01-.81-.72-.14-1.83.04-2.4-.16-.19-.06-.45-.66-.64-.73-.23-.09-1.84-.45-2.03-.48-1.67-.29-3.61-.11-5.3-.35l-1.54-.1-2.55-.51,1.81-1.43.12-1.88c.9.66,2.13.4,3.24.55l.46.73-.7.29,1.32.78.7-.13.59-1.17c.24.54.74.29,1,.41.41.19,1.2,1.08,1.3,1.12.34.11.75-.13,1,.41l1.78-.92,1.28,1.45,1.05-.28,1.64,1.14,1.73-.23c.53,1.03,1.25.6,2.01.81.72.21,2.61,2.21,3.7,1.28l1.28,1.47c.76.41,1.96,1.03,2.66,1.54.74.55.9,1.23.72,2.12.56-.01,1.56.03,1.68.63.25,1.18.85,1.49.92,1.77.26,1.19.31,2.14,1.17,3.17l.53,2.45c-.28.29-.98-.69-.99-.75-.12-.61-.09-1.53-.2-2.08-.09-.44-.71-1.07-.94-1.43-.05-.09.08-.28.03-.34-.54-.83-1-1.08-1.99-1,.35-.97-.9-1.02-.97-1.09-.06-.06.11-.34.04-.51-.2-.41-.85-.59-.6-1.24l-.88.29c-1.23-.88-2.32-1.94-3.61-2.65Z"/>
        <path class="cls-1" d="M265.06,154.17c-.29.7-.34,1.11-.31,1.24.45,0,.82-.17,1.12-.48.62-.66.79-1.87.73-2.81-.53.14-1.16,1.14-1.54,2.05Z"/>
        <path class="cls-1" d="M301.06,147.04c-.47,0-.62.18-.92.54-.08.1-.18.21-.29.34-.34.37-.75.71-1.14,1.04-1.14.95-2.21,1.85-1.94,3.45,2.25-.05,3.3-2.27,4.23-4.23h0c.17-.37.36-.75.54-1.09-.19-.03-.35-.05-.48-.05Z"/>
        <path class="cls-1" d="M278.68,147.3c-1.33.86-2.88,3.51-2.88,3.93,0,.27.11.52.24.79.13.28.26.56.26.87,1.62-.11,1.68-1.19,1.74-2.34.02-.42.05-.85.15-1.24.11-.4.42-.68.73-.95.4-.36.78-.69.68-1.3-.25-.09-.56-.01-.92.22Z"/>
        <rect class="cls-1" x="279.29" y="144.11" width=".8" height=".8"/>
        <path class="cls-1" d="M275.45,145.08c-.18-.01-.33-.02-.44-.02-.08,0-.13,0-.15.02-.02.02-.03.11-.03.21,0,.11-.02.27-.05.47-.03.17-.06.33-.09.5-.14.8-.28,1.62-.54,2.4-.1.29-.28.51-.46.71-.25.29-.48.56-.42,1,2.22-.99,2.92-2.57,2.34-5.27h-.16Z"/>
        <path class="cls-1" d="M271.12,150.57s-.11-.07-.19-.07c-.08,0-.17.02-.26.06-.42.16-.87.62-.87,1.16,0,.24.11.52.23.81.16.39.31.79.29,1.22-.02.33-.25.63-.47.92-.22.29-.43.57-.37.8.04.16.21.31.52.44.15.07.27.07.36.02.29-.17.37-.87.44-1.5.06-.53.12-1.04.31-1.26l-.09-.51-.86-.08s-.07-.06-.08-.1c-.02-.13.11-.29.4-.6h0c.38-.43.91-1.02.65-1.31Z"/>
        <path class="cls-1" d="M295.38,153.76c.2-.09.39-.17.48-.29.72-.97-.07-2.17-.74-2.69-.17-.14-.28-.18-.34-.19-.06,1.32-.95,2.17-1.82,2.99-.88.83-1.71,1.62-1.68,2.84.08,0,.15,0,.22,0,1.31,0,2.08-.9,2.83-1.78l.04-.04c.14-.16.28-.33.42-.48.15-.16.37-.26.59-.35Z"/>
        <path class="cls-1" d="M264.12,159.8l.45-3.6-1.45.97v-.16c-.09-.88.18-1.73.44-2.56.47-1.47.87-2.74-.75-3.77.05.79.02,1.64-.02,2.54-.09,2.47-.19,5.03,1.33,6.57Z"/>
        <path class="cls-1" d="M263.84,164.62c-.7,1.31-1.12,2.69-1.07,2.82.14.15.33.13.57-.06.97-.74,2.13-3.54,1.79-4.28-.34.07-.8.6-1.29,1.52Z"/>
        <path class="cls-1" d="M267.54,155.59c-.23.34-.62.39-1,.44-.32.04-.62.08-.77.3-.13.2-.14.55-.01,1.06,2.34-.56,3.02-2.3,3.8-4.3-.56-.1-.96-.05-1.23.13-.35.25-.42.77-.48,1.26h0s-.05,0-.05,0h.05c-.05.41-.11.82-.31,1.11Z"/>
      </g>
      <g>
        <path class="cls-1" d="M301.83,262.45l-.07,1.06,4.14-.68c0-.09.02-.18.05-.28.04-.13.33-.19.36-.31.1-.41-.04-1.02.09-1.37.04-.1,1.08-1.19,1.3-1.47.28-.33.7-.38.58-.99l.28,1.05.71-.48c-.33-.88-.1-.61.08-1.03.07-.19-.03-.44.04-.51l.49.38c.12-.18.5-.34.54-.48.28-.78.06-4.36.31-4.61l.65.39c.04-1.2.23-2.41.24-3.6.01-.56-.23-1-.64-.56-.14.7.01,1.58-.15,2.23-.12.51-1.1,1.54-1.14,1.64-.33.92.06,2.83-.25,3.76-.09.28-.95.48-.76,1.15-1.62-.95-1.14-2.42-1.1-4.03,0-.56-.23-1-.65-.56-.11.6.01,1.33-.12,1.89-.03.09-.56.3-.41,1,.04.14.33.24.33.36,0,.06-.65.55-.43,1.18l-1.52-.45c-1,.58-.44,1.92-.7,2.87-.14.46-1.13,1.14-.83,2.02l-.54.48-.86-.06Z"/>
        <path class="cls-1" d="M442.45,308.66c-1.03.13-6.09-.63-6.33-.41l-.08,1.03c-.63.04-.99-.05-1.33-.6l.36-.33-.48-.54-1.57.24.28,1.05c-.88.03-1.37-.05-1.84-.81-.39-.14-.5.31-1.04.28-.53-.04-.6-.51-1.18-.43l.28,1.05c-.38-.08-.87.03-1.2-.08-.11-.04-.86-.73-.98-.75-.8-.24-1.97.28-2.53-.69.3-.38,1.1-.01,1.56-.06.12-.03.21-.29.36-.33.65-.16,1.15.88,1.56-.24l-5.82-.39.29.88c-.56.59-1.08,1.03-1.94.74-.18-.06-.45-.66-.64-.73-.54-.2-2.76-.03-2.91-.2l.05-.68-1.73.23c-.16-1.38,1.47-.13,1.94-.9l1.84.8c.11-1.65-1.82-.92-2.85-1.22-1.08-.31-1.58.08-2.73-.18-.12-.03-.2-.34-.33-.36-.63-.13-1.49.03-2.06-.14-.33-.1-1.86-1.22-2.29-1.53-1.4-.98-2.88-2.27-4.25-3.37-2.58-2.08-5.02-4.4-6.92-7.16-.25-.38-.35-1.43-1.29-1.29l.05-.69c-.72.03-1.41-.75-1.28-1.45l-.69-.05c-.16-1.79-2.51-3.16-3.13-4.5-.5-1.04-2.22-1.81-2.58-2.58-.66-1.39-3.35-3.61-4.66-4.94-1.19-1.23-7.17-7.89-7.71-8.08-.29-.1-.74.03-1.03-.08-.25-.09-2.12-3.23-3.17-3.99-.24-.18-.54-.36-.83-.56-.43-.31-.88-.09-1.17-.6-.29-.01-.26.66-.23.85.04.14.94,1.28,1.1,1.62.74.13.84,1.02,1.83.8-.11.5.63,1.98,1.07,2.13.36.14,1-.04,1.37.1.33.11,1.32,1.68,1.75,2.01l-.38.65.25,1.23,1.25-.6c.5.58.63,1.25,1.25,1.79.08.06.28-.03.34.03.54.5,1.48,1.61.09,1.38l.1,1.04c.41.39-.1.46-.36.33-.33-.19-.9-1.1-1.28-1.47-5.19-4.89-9.99-10.58-15.54-14.78-.14-.1-.85-.3-1-.4-.15-.11-.9-.83-.61-1.08.4.61.95.41,1.53.28.46-.11.35.16.5.2.33.08.75-.03,1.03.08.19.06.66.85.96,1.09.94.76,1.23.55,1.93,1.84.25.44.75.33.99.75,1.57-1.09-.92-3.06-2.03-3.22l.05-.69c-2.17-.75-4.36-2.18-6.5-3.17l-1.22.26.06-1.03c-.84.05-1.58-.21-2.18-.83l-2.07.2-.64-.73-.72.29-.48-.54s-8.69-1.2-8.61.29c-.59-.14-.93.48-1.57.24-.29-.1-.46-.63-1.37-.09,0,0-3.51-.16-4.81.03-.79.11-2.63.97-3.51,1.14-.24.05-1.57.24-1.57.24-.46.03-.93.18-1.21.26-.73.24-1.42.63-2.12.89-1.3.5-3.52,1.35-4.61,2.11-1.89,1.32-3.22,3.25-5.09,4.14-1.68.8-12.73,12.26-17.48,17-1.58,1.58-5.29,6.81-6.16,8.23-.98,1.61-5.33,3.57-6.08,5.64-.11.34-2.88,2.57-3.3,3.22-1.4,2.12-5.53,4.65-6.3,6.8-.39,1.08-8.88,7.72-10.04,8.79l-.7.3c-1.88,2.19-5.13,3.58-10.89,5.98-.27.11-1.2.93-1.45,1.28l.79.92.88-.29c.2.68-.66.88-.76,1.15-.28.81.23,1.2.25,1.39.05.36-.09.82-.07,1.2.81.14,1.79,0,2.57.16.26.06,1.07.95,1.71.11l1.15.76c-.06-.63.45-1.1,1.1-.95l-.07,1.03c1.03.5,1.62-.5,1.93-.56.51-.1,1.77.03,2.03.48.85-.64,2.51-.87,3.12-.48l1.76-.58c.43.63,1.3.36,2.03.48l1.3-1.45c-.54-.44-.15-.5.23-.85.36.06.06.6.11.88.08.29.63.66,1,.58l.19-2.91c.5-.56,1.49-.93,1.49-1.78l.63.89c-1.54,1.12-1.2,1.28-.53,2.71.19.39.09,1.03.98.93-.14-.56.51-.74.41-1.18-.04-.18-.5-.33-.28-.88.51.25,1.61-.3,1.77-.74.1-.28-.03-.73.06-1.03.04-.12.34-.19.36-.31.29-1.32-.35-2.81,1.09-3.54.28-.14.68.34.56-.65l.68.21c.12.84-.59,1.12-1.14,1.64.56.49.19,1.34.2,2.08l-.83,2.17c.53.14.94-.24,1.24-.6.25-.29.19-.48.2-.5.18-.23.68-.49.74-.64.14-.41-.01-1.77.12-1.88l1.02.06-.41,1.18c-.03.29.65.26.84.23.6-.12.64-1.17.63-1.68l1,.41c.07-.38-.01-.85.09-1.19.03-.13.31-.19.36-.33.24-.65-.26-.95-.28-1.05-.1-.85.24-1.99.19-2.91.43-.44.66,0,.65.56-.01.68-.16,1.4-.14,2.06.01.13.31.24.33.36.01.59-.48,3.25.3,3.29l1.52-2.31c.2.36.6.5,1,.41.51-.11,2.72-2.63,3.47-3.04l.43-3.94c.65.5.43.92.41,1.58-.01.85-.14,1.72-.16,2.57,1.24-.16.58-2.41.86-2.7l.83.4c.24-.33,1.19-.88,1.28-1.12.21-.6.02-1.3,1.1-1.14l.6-1.33c.73.49.33,1.03.41,1.57.03.14.31.24.33.38.09.94-.61,2.21.88,2.28-.06-1.23.38-2.76.26-3.94-.01-.13-.33-.24-.33-.36.93-1.1.95-2.72,1.31-4.04.09-.35,0-.81.07-1.19l.98.75.45-1.52-.61-1.08.93-1.14.3.7.56-.81c-.49-.31-.2-.7-.28-1.05-.02-.14-.3-.24-.31-.36-.06-.56.15-1.28.12-1.88l.83.4.55-.49c-.41-.41-.36-2.19-.16-2.76.07-.21.89-.65,1.09-.95.38-.54.33-1.5.99-1.83.16-.08.44.1.5.04l.5-2.37,1.03.06c.3-.6-.26-1.15-.26-1.22.01-.11.33-.19.36-.33.08-.21-.02-.48.05-.69.09-.24,1.18-.9,1.45-1.27.11-.14.31-.87.41-1.02.2-.28.67-.5.92-.79l.44,1.23.67.21c-.19-.73,1.05-1.53,1.15-1.82.18-.49.21-1.74-.2-2.07l1.32-1.81c.75.61.15,1.86,1.43,1.82.3-.61-.36-1.23-.24-1.57.05-.14.33-.19.36-.33.1-.33,0-.82.08-1.19,1.89.5,2.02-1.17,3.07-2.21l1.52.45-.29-.89c.82-.73,1.89-.85,2.82-1.02l.1,1.04.6-1.33c.58-.15.66.33.84.39.89.34,1.74-1.24,2.82-1.18l.82.74-1.08.61c.6.06,1.22-.19,1,.58l.6,1.25c-.05-.88.43-1.98-.18-2.6.05-.65,2.33-.43,2.95-.33.3.06,1.29.48,1.91.71-.44,1.32-1.89,2.28-2.35,3.17-.22.39-.22,1.04-.42,1.49l-.98-.27c-.21-.35,1.25-2.19-.13-2.16.1.65-.6.97-.65,1.06-.72,1.66-1.23,4.5-1.95,5.87-.51,1-2.56,1.9-2.4,3.61-.43.44-1.21.22-1.59.64-.46.51.36.74.68.73l.21-.09c.34-.19.84-.68,1.22-.6l-.04.15,2.4-.92.26-1-1.85.92c-.48-.67.85-.9,1.23-1.26.51-.49.52-1.14.78-1.57.15-.24,1.7-.86,2.11-1.21.26-.22.42-.99,1.21-.56.2-1.3,1.11-2.04,1.28-3.37.22-1.83.71-2.71,1.54-4.45,1.11.15,2.28-.25,2.91.86.64-.11,1.58-.11,2.4.16.1.04.9.99,1.29,1.12l.87.06.06-1.03,2.03.48-.6,1.33-.79-1.08c-.28.65.55.95.6,1.24.15.7-.38.9-.4,1-.2.78-.21,1.58-.5,2.38-.07.18-.66.45-.73.64-.39,1.09-.58,2.96-.96,4.06-.05.16-.56.41-.73.64l.26,1.22,1.03.06c-.23-.63.38-1,.43-1.17.11-.4-.04-1.02.09-1.38.1-.28.97-.44.78-1.32-.04-.15-.33-.25-.33-.36.01-.08.55-.3.4-.84l1.73-.23c-.18-.55.5-1.54.98-1.66.33-.08.71.23,1.04-.28.78-.18.55.92.44,1.23-.29.8-1,.06-1.04.11.21,1.07-.68,1.19-1.15,1.81-.25.34-.54,1.33-.79,1.67-.14.18-.4.3-.55.48l-.85-.05c.21.64-.4,1.08-.43,1.18-.11.55-.03,1.34-.07,1.94l.98-.26c.01-.2.03-.41.06-.59l.72-.46c-.13.36-.09.83.31.75.05,0,.1-.01.15-.04.84-.34.51-1.58.63-1.68l1.03.07c-.3-.9.69-1.22.79-1.5.25-.71.26-1.23.66-2.18.19-.49.28-.85.25-1.37.95-.11.68.34.63,1.08,1.27-.03,2.99,1.35,2.56,2.75-.03.13-.28.18-.36.31-.05.11.03.29-.01.35-.38.51-1.05.43-1.44.93l-.49,2.21c.24,0,.45-.03.63-.11.7-.26.95-1.04.88-1.84l.83.39c1.03-.65.06-1.93,1.68-1.94-.01-.61.2-.95-.43-1.4-.08-.06-.28.03-.34-.03-.69-.55-1.88-2.4-.23-1.73.43.16,1.39,1.57,1.05,2.13.69-.18,1.73.73,1.98,1.33.33.83-.98.36-1.07.45-.21.6.23,1.48.75,1.77.46.26.51,0,.45-.35-.06-.41-.28-.95-.2-1.02l1.38.1c.05.06-.11.34-.04.51.26.54,2.14,2.48,2.72,3.1,3.77,4.01,8.11,8.29,11.91,12.14.9.92,1.67,1.98,2.56,2.91l-.07-1.38.51.04,4.2,4.06c1.59.4,1.94,1.71,1.68,3.2,1.39-.3,1.47.73,2.16,1.18.15.1.45-.04.51.04.06.06-.11.34-.04.51.39.8,2.16,1.72,2.26,2.21.07.36.01,1.68.23,1.91l.68.05-.04.68c.75-.11.96.74,1.47,1.13l.56-.65c0,.28-.2.56.13.7.4.18,1.09.31,1.34.44.34.15,1.63,1.49,1.53.26-.09-1.23-1.14-.66-1.45-1.29-.34-.2.29-.65.38-.66,1.37-.28,1.93,1.33,3.18,1.24.16,1.09-.69.58-1.4.59l-.11,1.54c.29.68.9.45,1.17.59.55.29,2.02,1.78,2.28,1.87.31.11.83,0,1.2.09l.21-.68.43,1.4c.99.21.97-.84,1.63-1.27l.44,1.23c-.02.3.64.26.84.23.69-.13.69-1.19.29-1.69,1.67-.08,1.08.74,1.27,1.63.02.13.61,1.19.78,1.25.39.14.8.05,1.04-.28l.99.75c.73-.75,1.19-1.15,2.29-.88l-.25-1.57.94-1.14,1.2.08c-.21.33-.38.74-.59,1-.43.51-1.33.63-.43,1.34l1.22-.26.76-1.15-.29-.88c1.42.7,2.16-.75,2.63-.85.6-.14,1.5-.08,1.15.77-1.1-.29-1.76.98-2.81.84l-.09,1.37c1.32,0,2.11-1.09,3.05-1.86l.45,1.05-.74.64,1.57-.24.33.36.58-.99-.68-.21,1.44-.94-.16-.18.24-1.02c.44-.08.92.01.65.55-.17.38-.64.19.11.87l1.93-.55c.12.11-1.93,1.67-.68,2.36l1.64-1.44-.59-1.4.91-.8,2.63-.87-.09,1.38-1.37-.1c.04.55-.31.65-.43,1.18-.29,1.32,1.13-.08,1.2-.09.3-.06.74.13,1.03.06.19-.04.34-.5.88-.29l-.2-2.07,1.34.43-.75.99c1.29.36.85-.35,1.6-.93l1.51.79.02-.51.7-.13.12.69,1.3-1.45-.31-.54,1.34.43-.28-.88.2-.5.24-1.02c1.02-.23.66,1.04,1.1,1.45.68-.64,1.49-.95,1.34-1.98.79.38,1.14.11,2.06.14l.04-.69,1.03.08-.2-2.08.59,1.42,2.08-.2.09-1.38c.81.76,1.23-.45,1.79-1.08l-1.37-.26.41-1c.53.03,1.44-.3,1.77-.74.83-1.12,1.75-1.55,2.22-2.27.53-.81-2.71-1.4-2.83-1.39ZM290.84,316.01l-1.43.77c.99-1.13-.29-3.71,1.62-3.67l-.19,2.91ZM330,269.78c-.05.14-.49.2-.39.66.04.18.5.33.29.88l-2.42.18.11-1.71,1.34.43.45-1.68-1.35-.26.1-1.54c1-.25.53.89,1.13,1.1,1.05.38,1.83-1.45,2.49-1.2l.74,1.77-1.02-.24-.84-.24c-.87.44-.45,1.19-.64,1.86ZM348.95,274.29l-1-.4.26,1.22-.57.83c-.26-.54-.69-.3-1-.41-.19-.08-.47-.66-.64-.73-.41-.15-1.77,0-1.88-.12l.06-1.03c-.86-.15-1.67.49-2.59.18-.18-.08-.45-.68-.64-.74-1.45-.5-5.24-1.25-6.46-1.12-.97.11-1.43-.4-1.68-.45-.7-.14-1.52-.04-2.23-.15l.53-2.71,1.13,1.1.36-.31.67.38,1.25-.78-.58-1.76,1.12-1.13.09,3.79c-.6-.14-1.14.26-1.09.97.97.25,1.34-.08,2.09-.55l.45,1.07.21-.68,1.03.06.06-1.03,1.03.08.64.73-.24-1.57.46-1.86,1.35.44c-.15.85.47,1.18,1.29,1.12l.05-.69c.72.11,1.53.01,2.22.15.29.05,1.14.31,1.69.45.14.04.28.55.84.4l-.16,2.39c-1.38-.4-.38,1.22.08,1.38.31.11.83,0,1.2.09l.6-1.34v2.75ZM399.05,296.86c-.98.06-1.58-.26-2.38-.5,0,0-2.11-2.16-2.88-3.11-1.09-1.35-2.38-3.36-3.47-4.7-1.12-1.38-4.55-4.65-5.12-5.84-.48-1.02-1.62-1.18-1.94-1.84-.43-.88-.38-.4-1.14-.94-.7-.49-.76-1.44-1.42-1.98l.64-1.84,4.02,4.21c.09.4.82.56.82.56l.45,1.07c.89-.14,3.21,2.41,3.57,3.16.58,1.23,2.78,2.86,3.84,4.38.05.09-.07.28-.02.35.84,1.14,1.7,2.47,2.51,3.6.95,1.33,2.28,1.63,2.53,3.44.26-.03.03.2,0,0Z"/>
        <path class="cls-1" d="M369.91,244.26l.29,1.4c2.5,1.71,4.85,3.62,7,5.68.02-.2.06-.39.01-.57-.06-.33-1.07-.9-.55-1.93l1.53.1c.64.69.49,1.67,1.79,1.49l-.88-2.29c-.14-.92.65-1.47.5-2.37-.02-.14-.3-.24-.31-.36-.11-.98.39-2.07-1.23-2.32l.5,2.78-.95-1.09-.06,3.44-1.09-1.62.8-1.67-.48-3.3c-.66.21-.86-.66-1.15-.76-.45-.16-1.02.09-1.52-.44-.16.95.75,1.89-.16,2.56l-.05.69c.39.59,1,1.35.05,1.89-.23-.23-.75-1.08-.78-1.25-.14-.92.34-1.77-.16-2.76-.19-.36-.84-.78-.96-1.1-.36-.94,1.48.09,1.12-1.13l-2.85-1.22c-.3.06-.29.95-.25,1.19.01.07.55,1.34.59,1.4.28.48,1.54,1.54,1.61,1.83.18.84-.44,2.14-.03,2.92l.06,1.72-.95-1.27-1.44-1.64ZM375.48,243.26c.58-.14,1.19.92.43,1.23l.23,1.91c-.28-.3-.98-.36-1.02-.4-.05-.08.1-.33.04-.51-.11-.34-.73-.51.08-1.03-.59-.36-.2-1.08.25-1.19Z"/>
        <path class="cls-1" d="M337.9,280.27c.18-.9.05-1.98.19-2.91l-1.08.79c-.67.9-.3,2.04-.55,3.05-.16.66-2.53,4.26-3.1,5.3-.6,1.09-.63,1.55-.69,2.14l1.61-.36c.53-1.45,1.14-2.85,1.32-4.39,1.67-1.07,1.56-1.72,1.94-3.31.02-.13.34-.19.36-.31Z"/>
        <path class="cls-1" d="M339.05,283.78c-.2-1.18-.36-.75.14-2.05.23-.6-.49-1.2-.22-1.91l-.74.81c.21.72-.34,1.09-.43,1.35-.25.66.26.95.27,1.05.07.67-.18,1.52-.15,2.23.94.16,1.26-.68,1.13-1.47Z"/>
        <path class="cls-1" d="M328.63,284.55l-.45-1c-.02.66-.29.72-.64,1.06-.57.54-2.8,3.08-3.15,3.77-.42.8-.57,1.96-1.1,2.73-.61-.28-1.19.07-1.26.72l.65.18c-.03.13-.05.27-.09.4l1.46-1.1c.25-.74.55-1.58.82-2.09.18-.36.9-1.05,1.1-1.48.63-1.34,1.14-1.61,1.8-2.72.09-.15.65-.29.85-.48Z"/>
        <path class="cls-1" d="M227.91,239.01c.19-.46.3-.93.6-1.34l-1.5,1.96c.78.18.66-.04.9-.63Z"/>
        <path class="cls-1" d="M339.91,286.25c-.55,1.52-1.42,2.22-1.82,3.41l.89.33c0-.06,0-.13.01-.19l1.67.79c.07-.76-.25-1.24-.99-.75l.06-.85c1-.68.6-1.93.86-2.7.09-.28.95-.48.76-1.15-.09-.11-1.4.97-1.45,1.12Z"/>
        <path class="cls-1" d="M348.98,289.44c.04-.1.05-.21.04-.35-.34-.05-.56.04-.74.19l.7.16Z"/>
        <path class="cls-1" d="M355.67,287.12l.05-.69c-.23,0-.47-.05-.69-.04.01.23-.04.45-.05.68l.69.05Z"/>
        <path class="cls-1" d="M317.6,290.95l-.64-.89c.11.65-.14.76-.41,1.17-.45.64-2.13,3.57-2.35,4.31-.25.87-.17,2.03-.54,2.9-.65-.15-1.15.3-1.09.95l.68.05c0,.14,0,.28-.01.41l1.22-1.37c.1-.78.23-1.66.39-2.21.1-.39.68-1.2.79-1.67.35-1.44.8-1.81,1.23-3.02.06-.16.58-.41.74-.64Z"/>
        <path class="cls-1" d="M378.1,221.77c.14-.51-.1-.71-.45-1.06l-.86-.06c.05.46,1,1.38,1.3,1.12Z"/>
        <path class="cls-1" d="M343.19,270.47c-.62-1.08-1.74-.74-2.87-.88-.26,1.1.39,1.64,1.45,1.47.15-.03.33-.51.88-.29l-.05.68,2.07-.04-.78-1.25-.71.3Z"/>
        <path class="cls-1" d="M405.68,236.31l-1.56-2.34c-.16-1.16-.84-1.89-1.91-2.36-.24.8.1.9.42,1.4.62.96,1.28,1.56,1.9,2.53.26.4.62.83,1.15.76Z"/>
        <path class="cls-1" d="M401.89,231.25c-.32-.58-.19-1.01-.58-1.59-.38-.56-.67-.64-1.33-.6-.21.65.35.83.6,1.24.05.07-.07.25-.02.34.31.57.74.63,1.34.6Z"/>
        <path class="cls-1" d="M380.67,216.78c.24.08.72,1.01.96,1.09.29.1.74-.03,1.03.07.85.29,1.38,1.64,2.84,1.22l.45,1.06,1.86.47.25,1.39c1.18-.19,1.22.33,1.84.81,1.44,1.12,2.07,2.7,3.91,3.35.49.18.83,2.47,2.45,1.88.16,1.64,2.65,2.67,2.81,4.31l.68.05c1.62,3.56,5.12,6.63,6.89,10.25.22.46.44,1.1.95,1.27l.15-2.23c-.32-.7-1.32-.93-1.62-1.48-1.39-2.56-3.59-5.14-5.35-7.57-2.61-3.62-4.88-5.37-7.88-8.26-.31-.3-2.04-2.22-2.08-2.37-.09-.41.33-.58.57-.82l1.64,1.14c.68,1.33,1.32,1.5,2.26,2.21.62.47.74,1.37,1.81,1.15-.23-1.65-2.24-1.75-2.89-3.11-.36-.75-.55-.67-1.46-1.3-.08-.06-.2-.05-.34-.02l-1.62-1.48-.78,1.32c-.62,0-1.21,0-1.51-.62-.08-.17.09-.45.03-.51-2.26-.95-4.32-2.82-6.43-4.21-.65-.43-1.44-.58-2.01-.82-.19-.08-.26-.54-.83-.4l-.42,1.18c.53,1.06,1.14.74,1.83.98Z"/>
        <path class="cls-1" d="M385.63,217.11c.11-.59.1-1.02-.42-1.4-.08-.06-.28.03-.34-.02-.43-.35-.79-.85-1.3-1.12-2.24-1.16-4.77-2.47-6.99-3.56-.25-.13-.77.13-1-.41l-2.18-.83,1.11,1.45c3.11.97,6.61,2.86,9.66,4.76.28.17,1.41,1.2,1.47,1.13Z"/>
        <path class="cls-1" d="M411.47,235.13c.42.27,1.29,1.62,1.14,2.12l2.62,3.25c-.27-.31-1.7-4.71-1.74-4.75-.04-.05-.63.08-.99-.58-.21-.38-.93-2.56-1.02-2.67-.54-.62-.88-1.38-1.7-2.47-.24-.32-1.68-.82-2.06-.51.39.51.65,1.47,1.08,1.79,1.41,1.03,1.57,3.09,2.67,3.81Z"/>
        <path class="cls-1" d="M399.91,222.65c.11.53-.19,1.44-.14,2.05l.97.92,3.56,3.33c.56.06,1.4.51,1.66.97,2.13,3.88,8.33,11.38,8.61,15.35.03.46.13,1.1.65.56l-.13-3.27c-1.5-2.15-2.64-4.72-4.02-6.8-1.1-1.66-2.6-3.84-3.77-5.41-.45-.6-1-1.17-1.53-1.74l-4.21-5c.17-.84-.84-1.3-1.25-1.97-.18-.3-.07-1.07-.97-.92l.05-.68-.86-.06c-.29-.02-.27.67-.23.84.08.36,1.53,1.48,1.6,1.82Z"/>
        <path class="cls-1" d="M434.26,272.07l.95,1.27-.06-1.72-1.87-2.87c-.63.5-.73.48-.25,1.19.49.73,1.49,1.19,1.23,2.14Z"/>
        <path class="cls-1" d="M424.72,265.59c.04.19.6.54.64.73.13.61-.42,1.38.39,1.92l1.24-.61c.15.57-.36.68-.4.83-.32,1.09.65,1.98,1.19,2.83.34.54.88,1.66,1.23,2.14.42.57,1.03,1.25,1.61,1.65.11-1.05-.82-2.27.37-3.07l.21,2.08.78-1.32c.15.45.8.36.83.4.02.03-.09.31.13.7.27.49.7.4,1.18.42.09-.5.05-.88-.08-1.38-.32-1.22-1.53-2.98-2.71-3.27l.07-1.03-.68-.05c.03-.16-.04-.37.03-.51.5-1.01.15-.48.07-1.03-.15-.96.07-2.13-.14-3.1l-.48-.55c-.13.18-.5.34-.55.48-.12.34.15,1.07-.25,1.19l-1.19-2.83-.57.82c.94.62.32,1.47.89,2.12l.2,2.25,1.09-.96-.42,3.75-.4-1.75-1.03-.07c.22-.54-.27-.74-.29-.88-.05-.42.15-.96.09-1.37-.05-.32-.81-1.07-.58-1.59l-1.66-.97c.28-.62-.03-3.22-1.01-2.99-1.18.28,0,1.58.05,1.89.12.84-.02,2.32.14,3.1Z"/>
        <path class="cls-1" d="M415.06,250.51c-.23.65.5,1.19.22,1.91l-.68-.05c-.35,1.04.51,1.27.9,1.95.2.35.41,1.3.57,1.76,1.03.7,1.04,1.97,1.53,2.85.21.38.53.64.99.58l-.16-2.76,1.26,1.8-.18-2.42-1.39.25c.18-.75-.05-1.09-.58-1.59l.4-.83-2.08.21.27-4.11c-.36-.13-.96.16-1.06.45Z"/>
        <path class="cls-1" d="M408.16,240.43l.57,1.76,1.93,2.02c.32-.86-1.16-2-1.22-2.32-.06-.3.13-.73.07-1.03-.12-.57-1.52-1.08-1.62-1.48-.14-.57.18-1.3-.95-1.27-.37,1.12.8,1.58,1.22,2.32Z"/>
        <path class="cls-1" d="M369.52,206.38l1.08-3.37-1.03-.07-1.14,1.64.79-1.5c-.2-.55-.86-.62-1.03-.07-.24.83-.08,1.86.34,2.6l.98.75Z"/>
        <path class="cls-1" d="M365.44,203.18c.17.9-.66,2.74,1.39,2.33.6-.12.77-1.68.66-2.19-.13-.65-1.52-1.11-2.15-1.35-1.06.62.02.82.09,1.21Z"/>
        <path class="cls-1" d="M364.37,203.8l-.61-1.24.73-.64c-1.79-.24-1.93,1.22-1.89,2.63.85.24,1.21-.21,1.77-.74Z"/>
        <path class="cls-1" d="M371.24,206.49c.7.24,1.64.06,1.61-.93.68.04.31.65-.06.86l.46.89,2.08-.21.9-.63-.43,1.35,1.18.42,1.95-.9-.22.67c.75-.07,1.27.36,1.13,1.11l2.03.48.43-1.35c-.93-.26-1.47-.78-2.4-.16l-.25-1.39c-.67.2-.97-.34-1.18-.42-1.48-.56-3.18-1.03-4.7-1.69-.49-.21-1.43-.84-1.99-1.16-.76-.44-.4,1.02-.94,1.14l.3.71c.07.3-.73.93.09,1.21Z"/>
        <path class="cls-1" d="M379.18,252.27c-.12-.58.16-1.28-.95-1.27l-.42.93c.79.78,1.56,1.58,2.31,2.4.05-.33.08-.66.01-.97-.05-.24-.9-.84-.95-1.09Z"/>
        <path class="cls-1" d="M384.82,211.69l.48.55,1.39-.25c.32.79,1.03.61,1.32.78,3.06,1.7,5.53,3.97,8.2,6.04.18.14.3.39.48.55l1.03.07-2.08-2.37c-3.62-2.5-7.28-5.62-11.21-7.27-.19-.08-.26-.54-.83-.4l-.09,1.37,1.37.09-.06.86Z"/>
        <path class="cls-1" d="M313.52,295.51c.12-.51-.03-1.23.11-1.72.05-.16,1.47-2.85,1.57-2.98.16-.23.66-.46.74-.64.2-.53-.24-1.39-.78-1.25-.54.13-.74,1.4-.98,1.82-.69.64-.11,1.98-1.5,1.79l-.04.69c-.74-.08-1.27-.23-1.74.4l.29.7c-1.15,1.02-.93,2.52-1.27,3.7-.07.24-.59,1.05-.8,1.67-.16.44-.93.09-1.48,1.62-.16.45-1.17.46-1.44.94.07,1.47-.77,2.58-.61,4.09.01.16.05.36.1.58l3.31-2.56c.16-.75.36-1.5.65-2.22.15-.38-.09-.85.59-1.17l.79,1.08c.1-.72.01-1.53.15-2.22.11-.63.68-2.03.87-2.7.09-.35,0-.81.07-1.19l1,.4c-.15-.55.36-.7.4-.83Z"/>
        <path class="cls-1" d="M398.99,228.31c.23-.88-.37-1.77-1.26-1.8-.09.07.72,1.76,1.26,1.8Z"/>
        <path class="cls-1" d="M322.92,288.38c-.06-1.32.69-2.22.59-3.56-.15-1.87.18-2.83.65-4.78.14-.54.56-.87.45-1.52l-1.09.79c.36,1.71-1.33,3.22-1.65,4.36-.14.43-.01,1.07-.11,1.54l-1.02-.08c-.28-.3.79-2.4-.55-2.09.23.61-.4,1.07-.43,1.17-.38,1.77-.31,4.65-.75,6.14-.3,1.08-2.13,2.37-1.64,4.01-.34.51-1.14.45-1.43.94-.35.59.5.65.82.58l.19-.12c.3-.25.69-.83,1.08-.83v.15s2.16-1.38,2.16-1.38l.06-1.03-1.63,1.27c-.6-.56.65-1.05.95-1.48.4-.58.29-1.22.45-1.69.1-.26,1.49-1.18,1.83-1.6.21-.26.21-1.05,1.08-.79Z"/>
        <path class="cls-1" d="M275.67,210.87l.68.05.11-1.71,1.35.43.07-1.03.68.05.09-1.37-1.56.24-2.71,2.06c.03.65-.2,1.44-.14,2.05.01.13.29.22.32.36.2.87-.67,1.03-.78,1.32-.21.59-.37,1.16-.8,1.67-.39.47-1.2.69-1.13,1.47.93.34,1.09-.35,1.59-.58.17-.08.44.09.51.03s-.07-.36.03-.51c.15-.23.67-.47.73-.64.27-.77.32-1.92.52-2.72.03-.12.64-.53.42-1.18Z"/>
        <path class="cls-1" d="M324.39,168.7c-.07-.11-.2-.04,0,0h0Z"/>
        <path class="cls-1" d="M303.01,182.04l.13-.09s-.07-.02-.13.09Z"/>
        <path class="cls-1" d="M244.01,211.36c.16-1.05-.03-2.95.25-3.77.09-.27.96-.48.76-1.15l-1.47,1.45c.06.83-.12,1.22-.8,1.67l.3.71.19,2.25c.74-.14.68-.58.76-1.15Z"/>
        <path class="cls-1" d="M253.06,201.81c.4-.19.85-.86,1.28-1.12l-1.19-.25-1.62,1.1-.06.86c-.66.03-1.56-.53-1.41.59.75.17,2.05-.08,2.45-.7.1-.15-.03-.45.03-.51s.35.11.51.03Z"/>
        <path class="cls-1" d="M302.23,181l.56-.65-1.67-.8c-.21.92.63.95,1.1,1.45Z"/>
        <path class="cls-1" d="M324.1,149.26c-.25.36-.46,1.02-.44,1.52-.84.13-3.06,1.71-3.26,2.37-.11.39.04,1-.09,1.37-.02.08-1.09,1.02-1.28,1.12-.77.44-2.06,1.02-2.82,1.19-.06.01-.9.74-.92.8l.59,1.4c.25,1.05-1.49,1.3-1.19,2.51,0,0-.38.5-.74.8l-1.43.76c-.04.89-.91,1.49-1.8,1.27l.31.53-3.22,1.86.26,1.22-1.88-.12c-.84.65-1.07,1.59-1.04,2.68l-1.29-1.12c.56.81.07,1.22-.63,1.68-.44.29-1.28.74-1.78.92-.35.48-1.37.13-1.6.75-.18.5.83,1.07.61,1.24l-1.74.23-.58,1-.12-.7-1.39.25c-.12,1.3-2.13,1.18-2.91,2.38l-.02.35c.75.64-.06,1.13-.12,1.88l-.77-1.43-.73.64-.66-.39-.58,1-.69-.05-.04.69c-.65-.18-.95.38-1.43.77l.26,1.22c-.69.05-1.1-.5-.97-1.09h-.16c-.39.25-.71.7-1.1.94-.89.56-2.24,1.35-3.34,1.15l-.05.69c-.79.11-1.49.39-2.42.19l.63.89-1.03.73h0s0,0,0,0l-.75.53s0,.04,0,.06l-2.94,2.31-3.25.44c-.36-.04-.86-.08-1.05-.04-.09.01-.71.46-.39.66l.46.71-.68-.05c.07,1-.18,1.47-.99,2.01-.08.04-.26-.08-.35-.03-.7.43-1.52,1.27-2.31,1.22.04,1.58-.15,2.28-1.86,1.94l-.04.69c-.16-.04-.38.04-.51-.04-.14-.06-.2-.31-.33-.36-.9-.34-1.76,1.08-2.51,1.56-.8.5-2.03.68-2.82,1.19-.45.27-.84.8-1.27,1.11h0s-3.35,1.33-3.35,1.33h0c-.56.32-.56,1-1.12,1.3-.33.18-.79.48-1.07.62-.17.08-.45-.09-.51-.03-.06.06.06.33-.03.51-.07.14-.33.2-.36.32-.24.79.24,1.24.22,1.91-.65-.26-.85.45-1.24.61-.83.33-.48-1.03-.08-1.38l-1.37-.09-.05.68c-.64-.17-.94.39-1.43.77l-.42,1.18-.97-.92.42-1.18c-.36-.46-2.78,1.58-.43,1.35-.41.86.51,1.27.58,1.59.05.22-.07.54-.06.79l-.17-.03c-.36-.28-.9-1-1.19-.16-.23.65.2,1,.59,1.41-.39.63-1.96,1.03-2.17,1.58-.4,1.06.25.75.46.89.23.16.37.39.51.55l-.81.87c-.11-.06-.29-.07-.48-.09-.92-.11-1.96-.68-2.72-.53-.28.05-.59.88-1.24.6.77-1.22,3.34-1.4,1.77-3.32-.51-.19-1.04.75-1.43.94-.18.08-.45-.1-.51-.04-.08.06.06.36-.04.51-.1.16-1.87,1.71-2.01,1.76-1.18.46.11-1.28.28-1.53.05-.09-.04-.26.01-.34.35-.48,1.05-.59,1.61-.75.38-.11.15-.7.24-1.02-.86-.31-2.01,1.15-2.32,1.22-.7.15-1.68-.39-2.28.71-.41.76.83.29.63.9-.88-.18-1.34.92-1.97,1.24-.26.14-1.17.23-1.22.26-.11.1-1.14,1.96-1.19,2.33-.93-.21-1.69.55-2.47,1.04l1.02.06.19-.16c.6.55.46,1.58,1.45,1.48l-.1,1.37-.64-.73-.68-.05c-.02.87-.9,1.49-1.8,1.25l.11-1.71c-1.71-.5-1.91.44-3,1.18-.07.05-.26-.08-.34-.03-.77.5-1.59,1.19-2.36,1.73l.58,1.76c-.69.76-1.49,1.3-1.72-.11l.45-1.52-.75.99-1.91.21-.49-.38-.49,2.03c-1.15.09-2.4,1.49-2.57,2.58l-1.39.25-.05.68-1.05.45-.02.34c.88.54-.33,1.98-.15,2.23l.96,1.09c-1.27.14-1.48-.9-1.96-1.68,1.39-1.58-.65-1.39-1-.4-.56,1.56-.45.89-1.98,1.42-.2.06-.45-.1-.51-.04-.08.06.06.35-.04.51-.49.75-1.72,1.42-1.54,2.47l-1.34-.43-.1,1.54c-1.93,2.16-4.71,4.01-5.93,6.48-.09.18.03.44-.04.51-.46-.51-1.04-.14-1.4.43-.1.15.04.45-.04.51-.06.05-.34-.13-.51-.04-.98.46-1.42,1.94-1.73,2.81-.07.21-.88.65-1.09.95-.71,1.04-.45,2.21-1.73,2.81-1.08.51-2.14,2.58-2.48,3.62,0,0-1.39,3.7-1.39,5.58l-.03.34c-.61.79-1.27,1.67-1.2,2.67l-.55.48-.8-.9,1.14-1.64c-.56-.65-1.17-1.03-.9-1.96,1.44.49,1.48-2.65.33-2.38-.63.14-1.63,1.57-1.35,2.32l-1.05.44-.2,2.91c-.63-.05-1.84-.28-2.08.38-.08.21.02.49-.05.69-.83,2.12-2.03,4.06-2.8,6.01-.28.7-.84,2.12-1.22,2.67-.21.3-1.02.74-1.09.95-.21.63-.05,1.94-.18,2.75-.03.11-.35.19-.38.31-.16,1.17-.5,4.49-.35,5.48,0,.06-.7,5.77.2,10.19,1.09,5.34,3.83,9.58,3.81,10.08.73.03,1.3-.05,1.68.63.56,1.04,1.3,1.84,1.87,2.88.3.55.99.55,1.3,1.12.05.88-.58,3.32.28,3.62,1,.36,2.71,1.4,2.75,2.58l.69.05c.58,1.55,2.85,3.01,4.38,4.08.5.35,1.02,1.23,1.81,1.15l-.04.68c.56.25,1.11.55,1.66.85l-.31,1.1,1.18.24.74.72s-.57-.8-1.35-.72c-.21.65.35.83.6,1.24.05.09,4.74,2.33,5.51,2.6.14.05,2.41.98,3.03,1.11.98-.97,1.53-1.54,3-1.18l-.07-.47c.09.19.16.41.19.65,0-.42.07-1,.26-1.09.49-.04.12.9.38,1.29.15-.51.44.03.49-1.08.14.01.15.53.2.83.13-.24.42-.26.65-.37l.74,1.34c.89-.09,1.47-1.38,1.65-2.2.12,0,.24-.01.36-.08h0s.02.37.02.37c.11-.1.23-.17.34-.23l1.13.43.72-.69c.1,0,.24.07.45.27-.31.68.19.56-.33.51.51.27.7.85,1.1-.21-.06.97.52,1.15.71.82l-.43-.62c.24-.18.47-.13.71-.08l.05,1.26c1.27,1.33,1.38-2.81,2.58-.47.09-.91-.65-.49-.61-1.55.47.07,1.3,1.73,1.45,1.71.78.54.2-1.91.94-1.58-.18-.42-.52-1.56-.16-2.07.46.05.98,1.68.78,2.1-.1.06-.18-.06-.21-.21-.1.2-.25.42.04.85l-.05-.45c.33.39.93.18.97.92.24-.5-.04-.75-.34-.91.73.47.9-.22,1.6.04-.16-.21-.39-.69-.29-.71,1.01.3.15-.9.66-1.27.46.49.38,1.35.64,1.04l.5,1.32,1.36.71,1.55-.72.11-.04h0c.07-.13.01-.44-.04-.77l.36-.44c.09.18.19.31.28.39l.02.04h.03s.04.03.06.04l.05.02.03-.03-.45-1.17c0-.14-.01-.28,0-.39.15.08.25.09.31.06h0s.06-.05.07-.09l.38-.45-.56-.36s-.01-.09-.02-.13l1.43.07c.14.04.25,0,.29-.23.38.33.5,1.15.8,1.36l.2-.33c.29-.07.78.74.98.06-.51-.76-.45-.54-.42-1.51l.54.67c.22.13.37.12.49.05h.02s.01-.01.01-.01c.05-.04.1-.11.14-.18l1-1.26-.42-.23c-.27-.85.44-.33.54-.78.3.68.58.84.89,1.2-.02-.04-.03-.07-.03-.1l.31.48.52-1.29c.82.03-.24-2.23.46-2.33.2.81.71,1.13.58,1.86.18-.09.37-.1.26-.41l.05-.08s.06-.06.08-.13l.27-.44.15-.03c0,.06-.04.1-.15.03.11.03.21.15.24-.03,0,0,0,0,0-.01l2.47-.47c.09.08.16.1.18-.03l.46-2.04c.11-.14.23-.26.34-.36l1.63.23.9-.52-.02.18c.19.13.3.11.37,0h0l.65-1.13,1.01-1.32.57-.1c.27.27.42.35.52.33h0s.62-.18.62-.18c.07-.09.11-.19.13-.3v-.02s.02-.13.02-.13c0-.04,0-.07,0-.11v-.02s.16-1.58.16-1.58l1.69.47,3.48-1.95.08.03.54-.38h0l1.52-1.07c.2-.09.39-.21.54-.38l2.95-2.07s1.51-.42.5-2.04c.24.13.76.5.74.76.48-.27.55-1.07.66-1.74,0-.02,0-.04,0-.05l1.3-.7.42-.31.31-.38c.26-.03.38-.17.44-.36h.02s0-.03,0-.03c.11-.48-.24-1.3-.34-1.95l.33-.3h.01c1.02.82,1.79.7,2.2.63l.16.17c.65-.46.53-1.45.51-2.41l.54-.9h.01c1.31.28,1.72-1.17,3.02-1.18-.22-.07-.55-.48-.74-.81l.51-.49c1.16.9,1.23.28,1.53.03l.31-1.25c.9-.42.99-1.8,2.58-.78h0s.61-.5.61-.5c.68-.3,1.02-.45,1.44-1.25l.09-.26s.04-.08.04-.13h0s0-.03,0-.05l.03-.86c.44-.49,1.48-.36,1.68-1.04h.01s.37-.12.37-.12c.29-.24,1.79-.28.14-1.72.68.67.75.22.69-.37h0s0-.05,0-.05c-.03-.28-.09-.58-.13-.82l.69.79s0,0,0,0l-.37-1.66c.06,0,.09-.02.11-.06l.42-.21h0l.61-.27c.11.19.23.4.37.67,1.38-1.84,2.86-2.5,2.81-2.68.86-.52,1.09-2.07.91-2.05.18-.28.53-1,.46-1.63.1-.28.21-.56.32-.83.02.01.49-1.1.52-1.13,0,0,0,0,0,0,.24.31.24.66.5.24l.2.38c2.42.87,3.97-6.2,6.52-5.63.62.03.13-.71-.05-1.42l.77.85-.39-1.35c0-1.19,2.65,1.5,2.28-.49l-.55-.55c.34-.08.55-.97,1.03-.23-.06-.13-.39-.7-.05-.46l.36.47.02-.67.41.03s0,.02,0,.02l.26-.24c.47.55.91,1.39,1.45,1.09.13-.38-.26-1.96-.6-2.2,0,0-.02,0-.03,0,.08-.24.34-.33.4-.46.26-.65.74-1.24.78-1.33.13-.35-.02-.97.09-1.37.2-.73,1.88-2.52,2.32-3.97.09-.29,0-.7.08-1.03l.54-.48.49.38c-.08-.84.64-1.32.49-2.19-.01-.14-.3-.24-.31-.38-.05-.35.1-.8.07-1.19l.84.4c.66-.33.45-.76.59-1.17.06-.19.46-.48.78-1.33.11-.33,1.62-1.19,1.96-1.07.18.06.26.54.84.39-.15-.55.36-.69.4-.83.18-.74.1-4.11.28-4.28.38-.09.93.29.99.58.14.59-.72,1.4-.49,2.21l1.45-1.12c-.1-1.98.65-3.55.7-5.45l-.95-1.27.25,1.39-1.02-.06.14-2.22,1.44-.94c.36-1.04-.51-3.3,1.24-3.19l-.43,1.18.64.73c-1,.87-.01,1.82.5,2.78l-.05.85c-2.01.08-1.19,3,.74,1.77.41-.8,1.18-1.58,1.03-2.51-.03-.14-.29-.23-.33-.36-.15-.69.39-.9.41-1,.1-.35.01-.83.09-1.2l.68.05c.15-.7-.14-1.38-.56-1.93l1.28,1.45c-.08.44.01.97-.09,1.38-.02.13-.35.2-.36.31l-.35,5.3-.98-.75c-.01.69.44,1.14.21,1.91-.13.41-.94,1.02-1.12,1.3-.96,1.56-1.43,2.83-1.34,4.73-.2.13-.36.39-.55.48-.16.08-.44-.09-.51-.04-.06.06.08.36-.02.51-.2.31-1.03.74-1.1.97-.28.79.25,2.17-.51,2.71-.04,1.35,1.47.81,1.7.11.1-.28-.02-.73.06-1.02.06-.18.64-.51.43-1.18l1.03.06c-.09-1.46.39-1.87,1.82-1.59h0s0,0,0,0l.41-1.17-.31-.36c.63-.6-.19-1.97.2-3.08.06-.19.66-.45.73-.64.19-.55,0-1.58.15-2.22.43-.45.65,0,.65.55-.01.61-.03,1.5-.14,2.06-.03.13-.33.19-.36.33-.16.58-.4,1.84.58,1.58.1-.48-.02-1.1.1-1.54.16-.55,1.38-1.93,1.56-2.65l.26-3.94,1,.41-.29-.88,2.01-1.77,1.14.94.25,1.39-1.25.78c-.39-.69-1.17.39-1.91.21-.18.16-.11,3.85-.3,4.63-.02.1-.61.45-.41,1l-1.8,1.25-.15,2.41,1.43-.48c.02-.08.03-.17,0-.29l.26.2.68-.23.08-.07-.28-1.05c.9-.74.93-1.83,1.22-2.67.04-.12.77-1.1.93-1.14.21-.04.48.09.69.05.14-.03.25-.33.36-.33.07.01.3.55.84.4l-.29-.88.39-.66,1.47-1.44c.12.58-.66,1.15-.79,1.49-.16.46-.25,1.29-.38,1.91,3.57-2.95,8.36-6.09,10.38-6.93.62-.26,1.26-.42,1.92-.56l-.17-.52.58-.82.8.74-.26-1.22c.09-.64,2.95-1.15,3.29-.3l1.05-.28,1.52.44.13,1.63c.27.01.54.03.82.05.15-.51,0-1.17-.25-1.63,1.09-.36,1.52.7,1.83.81.68.24.95-.26,1.05-.28.56-.06,1.28.15,1.88.13-.14.74.38,1.18,1.13,1.1l1.08-.61c.88,1.09,2.62.83,4.04,1.29,1.57.51,3.79,1.57,5.34,2.42.25.14.74.63.98.75.55.29,1.28.34,1.67.79l-.41-1.39.85.05.48.55-.41,1,2.96,2.08-.38.22c.43.26.85.54,1.28.82.04-.6.12-1.29.18-1.65-.34-.09-.45-.33-.65-.56l.43-1.34c-.86-1.47-2.23-1.52-3.45-2.46l-.7.29c-.35-.25-1.02-1.37-1.28-1.45-.8-.28-1.43.39-2.24.19-.09-.99.19-1.44.99-1.99.59-.15,1.24,1.35,1.62,1.48.4.14,1.08,0,1.54.11l.41-1.02.23,1.74,2.35.84v.18s.99.58.99.58c.21-.65-.39-.83-.61-1.24-.04-.09.08-.26.03-.34-.15-.29-.94-1.52-1.09-1.63-.69-.5-1.45-.28-2.03-.48-.45-.15-.64-1.44-1.99-1.17l-1.07.63c-.45-.16-.7-2.03-1.77-1.84-.09.49.01,1.09-.1,1.54-.06.24-.3.89-.44,1.35-.05.15-.55.26-.39.65-.01.3-.69.19-.87.11-.55-.19-.4-1.02-.45-1.05-.06-.08-.35.06-.5-.04-.48-.3-.54-1-1.5-.79l-.25-1.39-.54.31.11,1.04c-.26.25-1.27-.69-1.32-.95-.21-.97,1-1.25,1.14-1.64.18-.51.23-1.93-.36-2.26l-1.64,1.44c.54.45.2,1.22.21,1.91l-.74-1.77-.94,1.14c.8.7-.01,1.83-.95,1.48-.14-.05-.2-.33-.33-.36-.96-.25-1.66-.28-2.4-.16-.8.12-2.03-.25-2.91-.19l.05-.69c-.54-.21-.73.26-.88.29-.9.15-1.45-.61-2.03-.48-.15.04-.24.3-.36.33-1.33.21-2.09-.97-1.76-2.18l1.35.43c-.48-.66.09-.66.09-1.37l-.69-.04c.11-.6-.01-1.33.12-1.89.04-.13.55-.26.4-.83l1.54.1-.21.68.73-.64c1.4-.16,1.74.38,2.67,1.2l.09-1.37c.84-.08,1.44.28,1.3,1.12.18.2,1.79-.79,2.22.15l.55-.48-1-.41c.91-1.1,2.46.31,3.2,1.07.59-.83,1.02-.49,1.75-.56.13-.01.24-.33.36-.33.06,0,.56.65,1.18.43l.4-1,.12,3.44.74-.8.05-.85,1.39-.25c.12.66-.46.76-.77,1.14-.33.43-.53,1.34-1.44,1.12l-.53,2.71c.36.2,1.33-.48,1.43-.76.31-.87.69-1.09.78-1.32.15-.41-.08-1.04.76-1.15.11,1.4-.64,2.38-.6,3.74l1.03.08.26-3.94.71-.48.11,1.04,1.28-1.29-.15,2.4,1.76-.56-.05.68c.76.35,1.89.43,2.52.87.44.29.84,1.09,1.28,1.45.33.13,1.18-.59,1.27-.78.09-.23-.13-1.23.56-.81.79.46.61,2.27,1.22,2.48.86-.25.5-.21,1.02.06.23.13.61.1.83.58l-.05.85,2.53.51c.95,2.28,3.85,2.58,4.34,4.75l1.02.08-.04.68,1.37.09c.31,2.19,2.96,3.75,4.1,5.61.07.11-.03.54.45.89,1.48,1.08,1.25,2.08,2.88,3.29.74.54.26,1.13.58,1.76l-.24.84.66.39,1.09-.79.1,1.04,1.25,1.81.63-1.68c.55.08,1.09,1.63.91,1.78l-.69-.05.5,2.96c-.94.66-1.29,1.13-1.19,2.33l.56,1.93-.64-.74-1.03-.06.23-3.42.68.05.14-2.06c-.39.14-1.24-.64-1.3-.95-.1-.4.18-.83-.44-1.23-1.19.93-.4,2.53-.43,3.75-1.64.18-1.43-1.45-1.19-2.66.03-.11.7-.83.44-1.52-1.07.01-1.07-.85-.92-1.78l-1.09.97c-.04-.49.18-1.1.1-1.54-.09-.6-1.2-1.57-1.25-1.81-.11-.46-.12-1.25-.23-1.73-.11-.49-1.43-1.34-1.78-1.67l-.88.29c.21-.55-.21-.65-.29-.88-.08-.23.15-1.03-.44-1.23-.83-.29-2.06.3-1.8-1.33l-.94-1.27c-.15.55.25.69.26,1.23.01.74-.48.94-.46,1.68.01.54.41.69.26,1.23.39.51.65.06.73-.48.05-.39-.18-.95.39-.83-.28,1.03,1.4,1.24,1.59,1.99.09.33.01,1.18-.56.83-.38-.23-.63-.99-1.14-1.12l-.83,2.18.59,1.59.68.04c-.3.98,1.74,1.55,1.91,2.37.24,1.13-.48,1.15-.79,1.67-.01.02-.03.06-.05.09.19.21.38.41.56.62.21-.25.47-.55.51-.64.19-.58.05-1.5.82-2.01l-.45-.89-.51-.21,1.43-.77.54,2.27-.75.99c.6,1.1,1.47,2.02,1.15,3.34l1.03.08c.06-.39-.01-.84.07-1.2.09-.34.35-.92.6-1.17.7.58.4.74.25,1.39-.02.08-.18.1-.19.16-.16.71-.03,1.64-.15,2.39.31.7,1.32.94,1.62,1.48.05.11-.06.29-.03.35.26.36,1.23,1.24,1.28,1.45.02.11.03.38-.02.6.11.13.23.25.33.38.16.19.3.39.46.58.12-.03.24-.11.35-.28.25.53.66.29,1,.41.14.04.19.33.33.36.33.1.81,0,1.19.08l-.4,1c.93.16,1.25-.68,1.13-1.47-.09-.48-.84-1.79-.89-2.12-.18-1.14.4-2.14.55-3.24,1.33.1,1.56,1.17,2.27,2.04l.03,2.23c1.2.25-.15-1.29.29-1.69l1.69.45.25,1.39c1.91.85,2.55,2.96,4,4.39.75.73,1.35,1.63,2.08,2.37l-.44,1.35.65.55.74-.64-.4.84c.26.51,1.91,2.9,2.37,3.07.23.09.59,0,.85.06-.16.99,1.27,1.25.88,2.46-.64.1-.79-.4-1.15-.76-1.03-1.03-1.61-2.13-2.56-2.91-.49-.4-2.65-2.77-2.72-3.11-.08-.38.16-.99.09-1.37-.05-.25-.93-.93-1.12-1.28l-.3,2.04-1.03-.06c.23-.54-.28-.75-.29-.88-.1-.93.28-2.13.2-3.08-.01-.11-.56-.64-.26-1.23-.93-.23-.72.25-.75.99-.39-.06-.84,0-1.19-.09-.14-.03-.21-.35-.33-.36-.06,0-.61.56-1.22.26.01-.77.34-1.53-.38-2.08l-2.06,2.45c-.14.39.56,1.19.59,1.4.07.5-.2,1.25-.11,1.72.06.3.9.61.61,1.24.61.12.99.08,1.39-.43l-1.25-1.79.43-1.18.08,1.38c.75-.09,2.55.8,2.83,1.39.35.73.97,1.05,1.58,2.17.29.53.72.49.82.56.73.59,1,1.74,2.13,1.52l.04-.51.7-.13c.02.5-.16,1.08-.1,1.54.01.14.56,1.27.59,1.42.05.35-.1.81-.07,1.19l-.69-.04c-.34.3,1.02,1.84,1.4,2.16.95.76,1.04,1.19,2.28,1.87,1.05.56,1,1.05,2.31,1.53.65.23.66,1.82-.09,1.37-.31-.19-.63-.84-.97-1.09-.91-.7-2.45-1.56-3.47-1.96l.04-.69-1.32-.76c-.59,1.88,1.48,2.26,2.18,3.41.06.11-.03.53.45.89,1.04.76.64.9.79,1.08.04.04.73.1,1,.41l.21-.68c.95.79,1.93,1.34,3.19,1.24-.34,1.1.69,1.68,1.61,1.83-.2.92,1.1,1.76,1,.4l1.32.78.04-.51.7-.13-.23.68,1.5.79c-.08-.61.41-1.1,1.09-.97.14.58-.5.73-.43,1.18.06.33.66.43-.07,1.19.68.15,1.17-.34,1.09-.95l1.03.06.09,1.38.99-1.99,1.03.08c-.15,1.05.69,1.17,1.64,1.13l-.8,1.67,1.77-.74.09-1.37.55-.48,1.88.13c-.73.83-.21,1.05.4,1.74l.94-1.14c-1-1.82.55-1.27,1.39-.25l-.4.83.88-.29.83.4-.4,1,1.03.08h0s.61-.11.61-.11l-.24-1.62.14-.65h.03c.48.05.88.12,1.23-.02h.02l.02-.02c.15-.07.29-.18.42-.35h0s0-.01,0-.01l.02-.32.03-.53,1.71.11-.78,1.32h0s0,0,0,0l2.06.14c-.05-.29.05-.48.18-.67l.22-.33c.16.04.37-.04.51.03.33.15.46.94,1.15.76l-.55.65c-.83.16-2.12-.53-2.76.16l-.35-.03c-.61-.88-1.56.18-2.56-.16-.31.99.68.92,1.17.41l1,.41.71-.3.95,1.1.59-1c.14-.13,2.03.25,2.56.18.24-.04,1.32-.89,1.59-.59l-.05.69c1.03.12,1.29-1.28,2.47-.87l.06-1.03c.68-.21.99.35,1.18.41.44.16.58-.28.7-.29.33-.05.74.13,1.03.06.3-.06.61-.9,1.24-.6l.05-.69,1.52.45c.51-.53,1.63-.61,2.12-.89.55-.33.88-1.15,1.62-.93l.12-2.06.64.73c.65.28.98-.19,1.23-.26.35-.1.84.2,1.23-.43l.44-1.52.48.72c.66-.63,1.48-.95,1.33-1.98l1.12-1.29,1.02.24c-.16-.63.3-.79.41-1l-1.35-1.64-2.46-.51c-1.18.24-.4,1.52-3.47.45-.44-.15-.56.28-.7.3-.49.08-2.09-.26-2.23-.15l-.58.99-1.88-.13.05-.68-2.08.2.06-1.03c-.11-.14-2.35-.05-2.91-.19-.12-.03-1.18-.74-1.32-.78-.35-.09-.83,0-1.2-.08l-.09,1.37-1.03-.06.43-1.18c-.4-.35-.73-.98-1.13-1.28-1.04-.8-3.34-1.52-3.41-2.97l-.85-.06-.48-.54.4-1.02-.99-.58-.16,2.57c.28.28.5.66.79.92.95.81,2.37,1.33,3.47,2.12.51.36,1.1.03,1.35.43-.95,1.14-1.14-.13-1.53-.28-1.1-.38-2.11-.83-3.21-.89-.01-1.73-2.4-1.23-2.19-3.25-.95.25-1.08-.55-1.49-.78-.66-.38-.51.71-.91.79.49.33.2.72.28,1.05.04.19.9.82,1.14.94.16.09.46-.04.68.04.09.04,1.08,1.17,1.13,1.28.15.4-.18.69-.55.48-.26-.14-.83-.87-1.3-1.12-.16-.09-.46.04-.68-.04-.55-.2-1.47-1.97-1.74-2.36-1.09-1.54-3.44-2.19-3.49-4.35-.89-1.04-.93-2.31-2.62-2.07-.11-.63,1.05.01.74-.8-.2-.54-.82-.65-1.33-.61.14-1.13.23-2.27-.65-3.13l-.33,2.22.24,1.55-.99-.58c.09-.44-.01-.97.09-1.37.4-1.58.04-1.34-.15-2.76-.06-.4.11-.94.09-1.38l-.48-.54-.72.29c-.78-.6-.35-1.52-.35-2.42-2.04-.13-1.47.93-.83,2.18.53,1.04,1.1,1.93,1.5,3.19.05.15.29.24.31.36l-.05.87-1.23.26-.83-.4c.28-1.1-.14-1.55-.88-2.29.68-1.64.31-1.35-.19-2.42-.09-.19-.19-.9-.28-1.05-.25-.43-.81-.83-1.12-1.28l.41,1.58.06,1.56c-.65-.99-1.35-2.32-1.3-3.52-.98-.25-.55.23-.73.46-.25.36-.63.56-1.05.44.07.43-.06.94-.56.65-.59-.34-.6-1.68-1.23-2.14l-.44,1.35,2.03,3.06-.02.51.68.04c-.01,1.07,1.05,1.99.83,3.15l-1.02-.24-.08,1.2-.93-1.62,1.04-.1-.26-1.39-.72.48-.69.13-.65-3.15-.61,1.34-.68-.05c-.23.55.23.68.29.88.05.2-.1.46-.05.69.03.11,1.13,1.62,1.25,1.81.35.46,1.87,1.94,1.92,2.18.24,1.08-.09,1.05.75,1.61.46.29.95,1.24,1.44,1.64l.05,1.89c-.64-.93-1.84-1.83-2.4-2.75-.6-.98-1.14-1.56-2.08-2.37-.43-.36-2.14-3.8-2.28-4.45-.12-.53-1.8-.72-1.25-1.97-.99-.36-.51.8-1.43.94.15-.6-.44-1.17-.59-1.59-.29-.87-.25-2.67-1.54-2.68-.38-2.33-2.18-2.55-2.75-5.17-.06-.25-1.5-1.86-1.96-1.67l-.19-2.42,1.25-.61c.74.63.31.71-.25,1.19l.78,1.25,1.04-.28c.29.11,1.5,1.94,1.74,2.36.19.31.92,1.34.93,1.43.26,1.19.14,1.72,1.05,2.31,1.07.69,1.72,2.81,2.33,3.76.21.34,1.07,1.38,1.47,1.3.86-.44.21-.8.23-.84.05-.16.56-.33.4-1-.03-.14-.26-.23-.31-.38-.06-.19.09-.44.04-.51-.29-.31-.58.46-.95-1.27-.05-.24-.9-.84-.95-1.09-.09-.43.24-1.74.11-1.88l-1.02-.06.23,1.73c-1.56-.93-1.25-2.57-1.1-4.2-1.32-.12-1.35-1.37-1.56-2.33-.06-.28-.66-.61-.91-1.78-.08-.35-1.44-.83-1.61-1.83-.06-.44.14-1.05.1-1.54l-1.05.45-.13,1.88-.65-.56c-.08-.7.29-1.78.15-2.4-.04-.19-.59-.53-.64-.73-.1-.48-.11-1.25-.23-1.73-.07-.33-1.58-1.66-1.92-2.19-.64-1.04-.84-.76-.96-.92-.06-.08.11-.35.04-.51-.13-.25-.6-.55-.64-.74-.09-.33-.02-1.17.56-.81.68.4.24,1.17.75,1.59l-.04.51c.28.06.64-.03.86.06,1.18.43,6.33,8.75,7.06,10.26.43.9-.02.74.77,1.25.41.26,1.57,2.27,1.72,2.7.09.26-.24.75.28,1.05.15.9,1.32,1.5,1.2,2.66.36.49.65.07.72-.48.07-.61.16-1.44.14-2.04-.01-.13-.31-.24-.33-.38-.04-.59.14-1.27.13-1.88l-.69.12-.03.35-.7.13c.23-.54-.26-.75-.28-.88-.09-.79.45-1.63-.38-2.27l-.75.99c-.99-.04-.65-.92-.78-1.25-.16-.46-.54-1.04-.93-1.44l.43-1.34-.48-.55-.7.3c-.63-.48-.48-1.02-.4-1.74l-.69-.05c-.01-.92-.56-1.45-1.08-1.79-.64-.4-1.05-1.43-1.42-1.98l.41-1.18-1.22.26c-.19-.35-1.07-1.03-1.12-1.28-.48-2.28-.49-1.1-1.25-1.97-.05-.07.11-.35.04-.51-.2-.41-.85-.59-.6-1.24.65.58,1.05.15,1.07-.61l-1.24.6c-.3.06-1.32-.65-1.48-.97-.74-1.33-1.76-2.61-2.5-3.94-.4-.74-1.2-.76-1.82-.98-.16-.06-2.28-1.63-2.63-1.89-1.99-1.54-4.3-4.1-6.55-4.9-.24-.09-3.05-2.71-3.94-3.01-1.19-.43-1.83-1.02-2.32-1.19-2.5-.92-4.65-2.01-7.04-2.87-.14-.05-.19-.33-.31-.36-.34-.1-1.91-.34-1.58.41.25.59,1.02,1.09,1.66.97-.08.7-.23,1.27.4,1.74l1.45-1.28c.7-.15.83.34,1,.41.2.08.48-.04.69.05.45.15.99,1.71,1.79,1.49l-.4.83c-.12.33.21.71.46.89.04.04.72.39.84.23l.36-.31-.29-.88c.58-.15.68.35.84.39.3.1.74-.03,1.03.08.39.14,1.19,1.08,1.29,1.12.75.26,1.57.28,2.36.84.15.11.74.78.8.92.29.69-.6.46-.89.45-.4-.01-.8-.05-1.2-.08l-.64-.73-.09,1.37-.69-.04-.05.85-.55.48-2.52-.85.44-1.35,1.02.08-.09,1.37,1.03.08c.45-2.7-.55-1.77-2.09-2.21-.28-.08-1.35-1.05-1.64-1.14-2.06-.59-4.15-.87-6.13-.75-.5.04-1.59-.03-2.06-.14-.14-.02-.28-.54-.84-.39l.05-.69c-1.86-.09-3.79-.48-5.24-1.38-1.99-1.02-3.2-1.24-5.09-1.02-1.86.21-2.36-1.56-4.04-1.3-.12.03-.23.29-.36.31l-.81-.56.46-1.86c.98.6,2.51.83,3.27-.14l.45,1.07.85.06,1.07-.63c.43-.09,1.28,1.03,2.36.85,1.86-.31,1,.21,1.68.45.45.15,1.27-.04,1.72.11.28.09.48.95,1.15.76.39-.35-1.5-2.44.14-2.06-.04.41.13.85.26,1.22.1.3.03.64.45.89l1.81-1.25.46.73-1.43.93,2.4.16.15-2.4c-.55.15-.7-.36-.83-.4-1.1-.28-2.6-.28-3.75-.59-.45-.12-1.28-.31-1.68-.46-.19-.06-.45-.65-.64-.73-.68-.24-.64.43-1.72-.11-.14-.06-.35,0-.51-.03-.11.7.29,1.62-.78,1.32.15-.85.14-1.37-.55-1.93l1.62-1.09c.86-.14,1.22.4,1.34.43,1.14.25,2.68-.01,3.77.25.63.16.68.68,1.68.46.89-.2,1.04.68,1.33.76.78.28,2.28.21,3.4.58,1.13.35,2.36.33,3.01,1.23l.35.03c.45-.55,1.2-.21,1.91-.23-.12.63-.09,1,.41,1.4.35-.34.84-.4,1.25-.6-.03-.28.06-.58.05-.85-.34-.54-.93-.72-1.48-.97-1.23-.54-2.39-1.19-3.67-1.62-1.5-.49-3.05-.85-4.39-1.32-.12-.05-1.1-.76-1.14-.94l.39-.65-.8-.92-.6,1.33-.85-.05-.48-.55.05-.85-2.37-.5c-.02.72.09,1.47-.8,1.67l.11-1.72-1.03-.06-.04.69-.69-.05.05-.69.68.05.03-.34-1.19-.09c-.4.6-1.27.59-1.63,1.1-.23.33.3.73-1.05.44l.48-2.03c-1.18.05-1.43,1.35-2.81.85l-.42-1.39v-.02s0,0,0,0h0s-.17.15-.17.15l-.73.64-1.02.39-.66-1.01h0l-1.25.23-1.2-1.36,2.16-.99,1.01-.12.81-.54,1.01.21-.21,1.01,1.11.57c.96-.52,1.57-2.32,2.63-2.62.66-.18.5.65.33.94-.15.28-1,.34-.91,1.04.88.39,1.34-.16,2.05-.63l.27.4.74-1.07,2.76-.32c-1.02-.34-2.21-1.37-4.3-1.57l-3.37,1.07c-.92-1.22-1.57-.27-2.49.19-.06.03-.17-.04-.26-.05l-.13-.12-4.62.71-4.04.22-5.11,1.94c-.13.77.16,1.75-.49,2.2l-1.94-.27c-.13-.05-.28-.08-.45-.07l-.78,1.32-.41-.98-.18-.43-1.15,1.82.26,1.22-1.34-.43c.22.66-.25.99-.56,1.24l-2.37,1.48h0s0,0,0,0l-.21-.4-.25-.48h0s-.19-.01-.19-.01h-.15s-.11-.88-.11-.88l-.52-.17-.16-.05c-.11,1.12-1.08,1.45-2.05,1.26l-.09-.02-1.43.77c-.08-.22-.24-.35-.42-.4l-.02-.02h0c-.24-.05-.49.04-.58.35-.16.56-.01,1.43-.14,2.05h0s-.25.18-.25.18l-1.92,1.4-1.41.59h0c.51-.25,1-.93.25-1.19-.13-.04-.28-.04-.45-.02h0s0,0,0,0c-1.01.13-2.52,1.33-2.28,2.25l-.69-.05s0,0,0,0h-2.43c-.09-.02-.2.03-.33.16l-.14,2.04h0c-.27-.03-.47-.04-.65-.02h0s-2.29.53-2.29.53h0s0,0,0,0c-1.19-.09-.22.8-.23.84-.05.16-.64.54-.42,1.18h0l.32.36-.72.47-.36.06-.34.06-.57-1-.05-.08h0s-1.02-.06-1.02-.06l-.03.1s.02-.06.03-.1c-.68-.14-.9.18-1.08.79-.34,1.13-1.15,1.94-.92,3.37-.49.24-.8.43-1.02.63l-2.59,2.06h0c.06-.69.24-1.26-.4-1.75-.24.33-1.19.88-1.28,1.12-.1.3,0,1.05-.59,1.17-.55.11-1.02-.34-1.58.41-.05.06.04.24-.02.34-.08.15-.33.2-.36.33,0,0,0,0,0,0l-.76,1.14h0s0,0,0,0l-2.09.55c.05-.36.33-.23.21-.68-.18-.7.18-1.2-.79-1.09.04.79-.38,1.72.2,2.26l-1.14,1.64c.56.39-.25.75-.1,1.54l-.59-1.42c-.1-.13-.63.33-.73.46-.39.58-.29,1.2-.45,1.69-.18.53-1.1,1.09-.81,2.01l-.55.48-.85-.05-.48,2.03-1.35-.44c-.14,1.04-.77,1.67-1.84,1.94l.54-3.06.74-.64-1.79,1.09c0,1.02-1.05,1.58-.87,2.7.01.13.29.23.31.36l-.02.34c-.46.45-.82,1.22-1.14,1.64-.4.55-.59.18-1.09.97-.48.73-1.28.9-2.11.71l-.1-1.04c-.98.46-.24,1.98-1.19,2.33-.83.3-.18-.85-.82-.74l.09,1.38.51.04c.41.46-1.84,1.94-2.23,2.42-.05.06-.09.11-.14.16l-.77.83-.02.03c-.17.18-.35.37-.54.61l-.55.48c-.13.1-.27.2-.37.31l-1.11-.39-.06-.02v.02c.12.55-.34.63-.4.81-.26.7-.43,1.92-.53,2.72l-.72.46-.5-2.78s0,.01,0,.02h0s-3.09,2.53-3.09,2.53c0,0,0,0,0,0-1.15.03-.93,1.18-.99,2.01l-1.16-.42h-.02s0,0,0,0h0s-.54.47-.54.47l-.46,1.69-.54.48-1.18-.41c.26,1.32-.97,1.53-.87,2.68l-2.08.21h0s0,0,0,0h0s-1.5,1.96-1.5,1.96h0l-1.04.1-.81,1.84h0c.07-.46-.15-.75-.26-1.22-.1-.43.21-1.02-.6-1.24h0s-.41,1-.41,1h0c-.36-.49-.65-.09-.72.47-.1.85-.08,1.72-.17,2.57h0s-.8.03-.8.03c-.11-.08-.23-.14-.39-.1-.02,0-.09.05-.17.12h0s-.08.07-.08.07c-.34.27-.9.76-1.19,1.04l-2.14,1.21h0c-.11-.18-.29-.21-.53.04,0,0,0,0,0,0l-1.48,1.62c-.37-.49-.66-.08-.72.47-.07.62-.06,1.26-.12,1.88l-1.03-.07h0l-.07,1.1-.09,1.3h0l-7.38,5.01-.55.48-2.62,2.01-7.28,2.15h0c-.03-.29-.48-.51-1.01-.68l-2.58-1.74-.47-3.7h0c.01-.18,1.39-2.51,1.24-3.19l.69.05c-.16-1.18,1.73-2.75,1.94-3.49.08-.27.1-.59.1-.91.2-.43.57-.84.86-.9.27-.06.53-.17.79-.3l.8.05c.04-.17.04-.37.04-.57,1.02-.75,1.92-1.75,2.61-2.07.17-.08.45-.32.55-.48.4-.62,1.24-1.29,1.19-2.33.87-1.1,2.78-1.08,3.58-2.17.26-.35.45-1.38.96-1.48.61-.13,1.18.3,1.76-.57l1.3,1.12c.8-.41.27-1.08-.07-1.55l.02-.23c.25-.06.5-.15.82-.33.36-.2.44-.44.4-.84h0s.68.22.68.22l.28.88.48-1.87c.26-.13.49-.3.7-.48l.05.29,1.98-1.42c.16-.83.75-1.96,1.21-2.67.35-.55.76-1.07,1.3-1.46l8.05-4.8c.84-.18,1.44-.69,1.96-1.21l.79.25c.62-.47.88-1.09.98-1.77.11-.09.2-.19.26-.27.4-.62,1.24-1.29,1.19-2.33.54-.69,1.49-.94,2.32-1.29.38.21.8.12.98-.59.1-.09.2-.18.28-.29.26-.35.45-1.38.96-1.48.61-.13,1.18.3,1.76-.57l1.3,1.12c.8-.41.27-1.08-.07-1.55l.02-.34c.3-.53.79-.89,1.12-1.3.53-.66.76-.76,1.12-1.3.17-.27.68-.51.91-.8l.25,1.39,1.98-1.42c.16-.83.75-1.96,1.21-2.67.35-.55.76-1.07,1.3-1.46l4.64-2.76c0,.07,0,.13.02.21l1.03.08c-.1-.3.07-.75.31-1.1l1.19-.71c1.11-.39,1.07-.97,1.97-1.4.18-.09.45.09.51.03.08-.05-.06-.35.04-.51.4-.61,1.24-1.28,1.19-2.32.86-1.1,2.77-1.08,3.57-2.17.26-.35.45-1.38.97-1.49.6-.13,1.18.3,1.75-.56l1.29,1.12c.8-.41.28-1.08-.06-1.56l.02-.34c.3-.53.78-.89,1.12-1.3.53-.65.76-.75,1.12-1.3.18-.26.68-.51.91-.8l.25,1.39,1.98-1.4c.16-.83.75-1.97,1.2-2.67.28-.42.59-.8.96-1.14,2.26-1.25,4.43-2.69,6.72-3.76.34-.3.81-.73,1.2-1.08l.48-.29v-.16s.02-.02.03-.03c0,0,.51-.39,1-.75l-1.03.93,2.49-1.72c.36-.07.56-.23.65-.45l13.2-9.14,6.49-5.17,1.46-2.64c.83-.55,1.81-1.03,2.43-1.85.36-.47.54-1.07.76-1.59.68-.2,1.29-.55,1.64-1.19l.62-1.86c1.09.14,3.38-1.71,3.66-2.66.11-.37.02-.91.06-1.32.01,0,.03.01.04.02-.01-.02-.02-.03-.04-.05,0-.07.01-.14.03-.2.03-.08.08-.15.16-.23.02.03.04.05.07.09.02-.07.04-.14.05-.21.71-.64,2.39-1.42,1.87-2.79,1.47.42,3.28-1.02,3.26-2.5l2.06-3.18c.33-2.06,1.17-2.25,1.9-4.11h0c1.01-2.52.37-5.37,1.31-8.04.05-.15-.26-1.67-.24-2.91l.09-.83s.01-.1.03-.14c.01-.05.01-.11,0-.19M182.65,276.07c-.04.11-.72.87-.75.98-.25.88.19,1.76-1.18,2.16l.54-2.88c1.04-.69-.01-2.51.2-3.08.55-1.43.6-2.23.25-3.76l.83-2.18.68.23.65.55-.21-1.91c.59-.28.28-.89.43-1.34.19-.53,1.99-1.08,1.53-2.31l1.47-1.45c.18.84-.55,1.32-.8,1.84-.34.7-1.05,2.22-.89,3.04.05.25.82.58.61,1.07-.58.65-.75.55-1.38.09-.09.49,0,1.07-.1,1.54-.02.13-.34.19-.36.31-.25,1.27.12,2.48-1.25,3.36l-.05.68.61,1.08c-1.03.51-.6,1.24-.81,2.01ZM185.64,272.48c-.16.8-.35,3.32-.26,4.11.01.12.33.25.31.36l-1.08.79.11-1.72-.73.48-.04.68c.76.75.44,1.64.53,2.45.01.13.29.23.31.36.15.88-.33,1.53-1.15,1.82-.03-.7.23-1.57.15-2.23-.05-.45-.84-1.78-.89-2.12-.25-1.66.96-1.81,1.2-2.67.5-1.76.51-3.57,2.36-4.31-.23-1.43.7-2.18.9-3.37l1.45-1.12c-.16.99.2,2.16-.7,2.71l-.49-.38c-.02.93-.63,1.49-.51,2.55.03.14.51.34.29.88l-1.34-.44c.23.63-.4,1.08-.43,1.18ZM187.97,273.68c-.34,1.17.51,3.91-1.29,3.86l.46-1.68-1-.59.13-1.88.84.4.93-1.14-.23-1.73,1.08-.79c-.15.76.04,1.86-.16,2.56-.04.13-.72.88-.75.99ZM190.25,280.7l-1.44,1.12c.09-.61,0-1.3.12-1.89.02-.13.33-.19.36-.31.28-1.12-.45-2.06-.14-3.11.04-.13.3-.18.36-.31.21-.46-.34-1.08.74-.81.01.61-.16,1.29-.12,1.88.01.14.31.25.31.38.04.99-.2,2.07-.2,3.07ZM224.4,313.46c-.1-.63.19-1.54.14-2.23,1,.49.59,1.76.49,2.76l-.16-.24-.09,1.37c-.18-.04-.32-.03-.47-.03.26-.94.2-.87.09-1.63ZM239.04,239.57c-.25.54-1.02.4-1.05.45-.1.09-.46,1.66-1.47,1.28.21,1.64-1.89,1.64-2.24,2.77l-1.64,1.44-.05-1.89,2.85-1.37c-.15-.56.36-.7.4-.83.12-.51-.04-1.28.11-1.72.05-.15.55-.41.73-.64.06-.08-.04-.28.02-.34.25-.29.64-.51.92-.8l1.55-.24-.12,1.88ZM238.56,236.61c-.09-.9,1.14-1.04,1.15-1.81.44-.16.25-1.17.91-.8.4.23.95,1.05.75,1.59-.15.39-2.53,1.33-2.82,1.02ZM244.88,250.26c-.06.35-.99,1.39-.14,2.06l-.03.35-1.05.44-.04.64c-.37.31-.83.73-.85.78-.02.06-.03.15-.05.25l-2.59,2.45c-.04-.52.75-.91.81-1.1.13-.36-.02-.97.09-1.37.08-.28,1.06-1.36,1.14-1.64.18-.61,0-1.55.15-2.23l-.36.04c.14-.28.3-.56.52-.81.38-.45,1.03-.83,1.45-1.28.16-.18.2-1.08,1.09-.79-.11.71-.01,1.53-.15,2.22ZM266.69,236.01l-2.44,3.11-.02-1.46.6-.67.49.38.52-2.72c-.79-.18-.82.26-1.08.79-.09.17-.17.32-.25.46l-1.71,1.75.79-1.5-.15-.96,2.92-2.77c.01.64.03,1.27.1,1.85.02.13.3.23.32.36.05.41-.11.93-.09,1.37ZM284.94,223s0,0,0,0c-.65.57-1.45,2.1-2.38,1.84,0,.26-.04.47-.12.66-.02.03-.05.05-.07.08-.41.5-.83.72-1.06,1.13-.23.18-.45.36-.63.59-.1.14-1.25.76-1.5,1.05l-.23-.99-1.59.58-.83-.4c.15.57-.33.66-.4.83-.1.28.03.74-.07,1.03-.06.18-1.25,1.3-1.48,1.62-.47.65-.94,1.64-1.19,2.33-.08.23-1.17,1.05-1.43.77.55-1.28,1.86-1.58,1.58-3.16.02-.29-.67-.27-.84-.23-.08.02-1.25,1.04-1.28,1.12-.14.41,0,1.77-.12,1.88-1.06-.3-1.54.62-2.32,1.22-.7-.71.53-1.27.62-1.51.13-.36-.02-.97.09-1.37.08-.28,1.06-1.36,1.14-1.64.18-.61,0-1.55.15-2.23l-.19.02,10.64-10.06c-.08.51.32.76.33.85.07.66-.19,1.52-.15,2.22l-1.05.45-.06.85c-.94-.44-2.03,1.76-.94,1.32.15-.06.24-.3.36-.33.31-.05.73.13,1.03.06.41-.08.99-1.39,1.94-.89l-.19-2.26.39-.83,1.69.45-.14,2.06,1.09-.79.76-1.15c.31,1.79-.8,1.86-1.57,2.82ZM282.81,218.9l.06-1.03.69.05-.04.51-.71.46ZM283.87,218.29l1.34-1.97.07,1.38-1.42.59ZM285.49,214.62c.15-.16.87.66.61,1.08-.14.15-.87-.66-.61-1.08ZM285.9,218.77l.46-1.68,1.02.06c.06,1.13-.16,1.88-1.48,1.62ZM302.48,207.32c-.1.28.03.74-.07,1.03-.05.18-1.24,1.29-1.48,1.62-.46.65-.94,1.64-1.18,2.33-.09.23-1.17,1.04-1.43.76.55-1.29,1.86-1.58,1.58-3.16.02-.3-.66-.28-.84-.24-.09.03-1.25,1.04-1.28,1.13-.14.4.01,1.77-.12,1.88-1.05-.3-1.54.63-2.31,1.22-.7-.71.53-1.27.61-1.5.13-.36-.02-.97.09-1.37.07-.28,1.05-1.37,1.14-1.64,0-.02,0-.04,0-.05.18.1.35.18.51.24-.05.06-.12.12-.2.17l.16.18c.14-.09.24-.19.35-.28.31.04.52-.1.48-.56.13-.25.16-.55.16-.92,1.78,2.17-.95-1.83,1.79,0-.37-.8-.62-.4-.65-1.1,1.14,1.61.16-.5.89.1.75,2,1.17-.06,1.68-.56.06.17.26.23.5.26-.09.24-.34.33-.38.45ZM295.54,209.33c.05-.18.05-.52.06-.82l.24-.21c.1.09.22.2.37.32l-.06.85-.51-.04-.1-.11ZM297.77,207.06c.27.35.48.61.67.85l-.3-.02c-.1-.25-.22-.52-.37-.83ZM304.01,206.77c-.41-1.54.11-.72.53-.19l-.53.19ZM304.78,206.49c-.14-.54,0-.38.18-.06l-.18.06ZM310.86,203.22v-.34c-.66.56-1.03,1.17-1.96.9.21,1.25-1.24,1.63-1.88,2.46-.02.02-.04.08-.06.12-.14.08-.23.14-.24.14-.36.27-.76.56-1.18.87l-.14-.61c.43-.64-.18-2.12-.58-2.91.09.15.19.32.32.54-.06-1.01.33.45.38.55.39.22-.28-.68-.09-.7.82,1.11,1.62,2.19,1.05.7.46.03,1.49,1.78.67-.19,1.42,1.55-.36-3.1,2.31-1.53.51-2,1.21-1.03,2.09-.58-.22.18-.47.38-.71.58ZM341.34,159.28l1.03.08c.07-.83-.13-1.58.65-2.03l.3.37c-.37,1.07-.18,1.82-2.02,2.05l.03-.46ZM339.23,159.83l2.05.14c.53.51,2.2,1.14.13.44,2.44,1.59-.68-.19-.13.7,2.95.8-2.23-.14-.15,1.53-.32-.15-.46-.29-.61-.44.24.26-.05.15-.32.06-.16-.25.23-.27.28-.45.09-.35.01-.81.07-1.19l-1.73.23.4-1ZM307.35,179.1l.05-.87c.82.15,1.32-.78,1.98-1.24l1.56-.24-2.02,1.93-.51-.04c-.02.97.06,1.66-.83,2.18l-.02.23c-.41-.54-.86-1.15-1.05-1.4.44-.26.81-.5.84-.56ZM308.38,191.27s1.13-.53,2.34-1.51c.6-.49,1.21-1.12,1.63-1.84.43-.71.65-1.59.44-2.2-.03-.03-.05-.07-.08-.11l.03-.06.05.17c.03-.05,0-.12-.05-.19l.43-1.05,1.03.07c.08-1.04,1.44-2.06,2.04-2.27.96-.33,2.06-1.52,2.06-2.61l.49.38,2.76-2.74c-.5-.97-.01-1.02.09-1.37.15-.52,0-1.31.12-1.88l2.03.48-.36-2.43-.6,1.34-.64-.73-1.52-.44-.92.97-.1-1.04c-1.06.53-.74,1.14-.98,1.83-.17.48-1.69,1.41-1.21,2.67l-1.44.94c.38.65.6.44,1.19.25.22-.07.32-.5.88-.29-.15-.56.37-.7.4-.83.26-1.04-.11-1.6,1.19-2.33l1.06-.45c.16,1.36-1.08,1.46-1.86,2.11-.06,1.01.11,1.81-.84,2.35l.29.88c-.49-.15-1.52.67-1.79,1.08-.1.16.03.45-.03.51-.07.06-.35-.11-.51-.03-.35.17-.77.83-1.09.96-.29.11-.78-.04-.32-.36l.02-.34-.98-.75-.93,1.14c.86,1.01-.12,1.86-1.03,2.51-.38.27-1.79-.92-2.66-1.59.2-.29.38-.6.58-.78.21-.56-.46-1.2-.2-2.07.04-.15.54-.26.39-.84l1.05-.28-.15,2.4,1.08-.78c-.03-.74.36-1.59-.21-2.08l1.33-1.81,1,.41c.2-.43.84-.25.88-.29.07-.06-.06-.36.04-.51.53-.79,1.86-.14,2.12-.89.11-.31,0-.83.08-1.2l.74-.64c-1.02-.34-1.35.6-2.13.9-.15-.66.35-1.87.99-2.01.5-.1,1.12.09,1.74-.23.64-.33,1.27-1.32,1.33-1.97.99.33,2.57-1.28,2.88-2.06.09-.2,0-.58.06-.85l1.03.08c-.26-1.33,6.47,1.07,6.56-.15,1.54.23,1.35,1.59,1.19,2.83l-.83-.4-4.39-1.39-1.62.89c-.06,0-.11-.01-.15-.03.03.06.04.19-.04.4-.04.09-.08.29-.08.48-.2.03.21.71,0,.71l-.44,1.35.69.04c-.02-.59.39-.7.43-1.34,1.34-.19,4.99,1.18,5.84.28l1.19.09c-.09-1.03,1.1-.89,1.66-1.62.86.74.15.68-.25,1.19-.06.08.04.28-.03.34-.29.35-.78.61-1.09.97l.26,1.22c.97.39.63-.81,1.27-.95.21-.04.46.1.69.05.61-.14.51-1.53,1.32-1.81l.03-.34c-.8-.66-.01-1.33.11-1.72.31-1,.26-1.84.53-2.71.1-.34,0-.83.07-1.2,1.4.26,2.58-.61,3.69-1.48.29.74-2.78,1.79-.26,3.11-1.9-.65-3.45.36-1.06,2.75-1.71.26-1.93.78-.41,1.64-1.55-.57-1.91-.74-1.46,1.2,2.73,1.05-4.41-.21-1.86,2.87-1.06-.59-5.1,2.81-3.49,2.87-.32,1.59-2.64,1.57-4.06,2.15.33.97,2.12,3.54-.09.98-.93,3.53-2.69,2.46-3.05,3.59-.62,3.45-3.81,1.25-2.33,3.18-1.97-1.55-2.07,6.16-2.94,1.08.17,1.38-.16,3.83-.92,1.61-2.8,2.51,1.34,5.32-2.44,2.01.15,5.51-4.08.54-2.06,5.56-.46-.15-.77.04-1.08,0l.51-1.94-.62-1.07.75-.98-.82-.57c-.73.46-1.96.89-2.02,1.93l-1.39.25-.05.68-.86-.06-.55.48.41,1.57.6-1.34c1.48.54,1.76-1.11,3.15-.82l-.56,2c-.1-.11-.21-.25-.35-.44-.24.05.05.42.27.73l-.09.31c-.82-.95-1.13,2.35-1.89-.84-.32,4.46-4.37,1.28-3.79,4.53-2.31-2.01-.72,2.26-2.68.61-.24-1.11-.61.99.37,1.21,1.01,2.71-1.75-2.08-.6.21-1.12-1.13.86,1.53-.12.9-.48-1.08.03.57-.33.49-1.04-2.19.12.3-.73-.02.46-1.38-2.18-1.73-1.33-1.31.8,3.09.01,1.89-1.01.67l.27-.93c-.75-.23-1.54.18-1.46.95-.1-.08-.22-.23-.39-.5,1.16,1.92-1.13.72-.75,3.26l-1.44.15-.03.11c-.52-.18-.9-.13-1.07.12v-1.68c-.75.59-1.08,1.43-1.02,2.34l.95.06c.05.19.13.41.27.64.9.45-.17-.16-.23-.64h.04s0-.36,0-.36c.18.07.55.47.7.66.03.05.05.09.07.14l-.15.64c-.74.16-1.12-.41-1.68-.63-.43-.16-.41.05-.7.3-.12.34.24.53.26,1.04.08.99.03,2.14.14,3.11.02.13.31.23.33.36.05.41-.11.93-.09,1.37l-2.44,3.11-.03-2.24.79-1.49-2.21,2.26.78-1.49-.24-1.56c-1.17-.41-1.42.98-2.46.87.3-.61-.24-1.03-.26-1.23-.02-.1.21-.74.11-1.71-.07-.66.18-1.52.14-2.22l-.72.46c-.18.81.04,1.99-.18,2.73-.25.84-3.02,3.64-3.89,4.05-.16.08-.44-.1-.51-.04-.05.29-.03.63-.05.94l-5.06,2.16h0s0,0,0,0l-1.49-.79c-.26.6-1.19.56-1.24.61-.06.05.05.33-.04.51-.19.38-1.05,1.35-1.14,1.64-.15.53,0,1.3-.12,1.88,0,0,0,0,0,0l-1.81,1.59c.09-.65.03-1.4.13-2.05l-1.08.79-1.92,2.97c.74.78.02,1.75-.17,2.57l-.69-.05.64,1.19c-.41-.12-.72-.45-1.12-.6-.42-.16-.42.05-.71.3-.12.34.24.53.27,1.05.02.3.02.63.03.95l-3.15,1.98-.05-.32c-.37-.49-.66-.09-.72.47-.01.13-.02.27-.02.43-.41.24-.73.67-1.23.77l-.03-.07v.08c-.1.01-.18.03-.28.02.24-.48-.05-.85-.19-1.07.33-.39.64-.74.76-.89l-.09-1.21-.61.84c0-.18,0-.38-.02-.6-.07-.67.18-1.52.15-2.23l-.72.47c-.17.82.04,2-.18,2.74-.25.84-3.01,3.63-3.88,4.04-.17.08-.45-.09-.51-.03-.07.38.01.85-.08,1.19,0,.01-.02.03-.03.04-.07.1-.29.16-.34.29-.07.18-.07.33-.05.46-.44.7-.88,1.26-.72,2.3l-.69-.05c.1.54.23,1.19.26,1.83-.86-.07-1.68,1.63-.8,1.35l-7.37,6.97c-.11-.36-.34-.68-.26-.89.44-1.23.25-2.23.54-3.06.08-.19.66-.45.74-.64.82-2.28,1.68-2.55,3.03-4.28.68-.87,1.59-1.77,2.23-2.6.1-.14.3-.87.4-1,.14-.18.4-.31.55-.49l.64.74c.69-.4.6-.95.63-1.68,1.52.05,1.55-2.07,1.93-3.15.05-.16,1.7-2.09,1.89-2.62.33-.94.3-2.6.93-3.72,2.8-1.78,3.11-4.54,5.73-5.98.21-.11,1.97-3.61,2.16-4.15.15-.4.69-.14,1.1-.97.14-.28.66-.98.93-1.14l.79,1.09c-.14-.58.51-.74.43-1.18-.06-.28-.53-.6-.25-1.39.02-.08,1.09-1.02,1.28-1.12.14-.09.87-.19,1.04-.28.43-.21.59-.85,1.24-.6l.04-3.1c-.5.38-.95.93-1.45,1.28-.58.4-.38.31-.85-.23l2.78-3.08.81.74c-.04-.78.39-1.72-.2-2.24l1.82-1.43c.3.9-.69,1.2-.79,1.49-.11.33-.34,1.4.44,1.23l1.65-1.78-.29-.7c1.22-1.72,2.63-2.5,4.35-3.5l.82-1.83c1.65.1.18,1.1-.1,1.54-.58.88-.58,1.57-.85,2.35-.09.28-1.05.97-1.42.76v.18c.9.69.55,1.55.5,2.61.81,0,1.21-.41,1.39-.97,1.07.07,2.83-.09,2.97-.11.31-.06.74.13,1.03.06.34-.07.47-.34.53-.66,0,0,.01,0,.03.02l2.89-.99,3.3-2.32,2.19-.64.06-.62,6.29-4.01,1.71-2.3,1.4.23.8-1.6,3.05-1.9ZM253.78,235.22l.49-2.21,1.28-1.12.06,1.56c-.53.63-.54,1.87-1.83,1.77ZM272.49,212.21l.55-.48.16.18-.55.49-.16-.19ZM272.81,207.24c-.02-.87.63-1.12,1.44-.93l-.41,1-1.03-.08ZM278.32,202.11c.23.28-.92,1.94-1.5,1.96-.13-1,.35-2.01,1.5-1.96ZM283.45,201.92c-.02.08-.04.16-.06.23-.02.08-.02.17-.03.26-.25.53-.48,1.03-.69,1.45-.03-.58.29-1.53.78-1.95ZM282.3,204.09l-.03.57s-.04.08-.05.1l-.64-.03.73-.64ZM283.56,195.58c-.11-.81.9-.87.8-1.67l.34.03-.11,1.71-1.03-.06ZM298.78,175.96l1.47,1.13-3.12.48.02-.34-.99-.58c.73-.72,1.66-.87,2.62-.69ZM286.64,182.72l.85.06-.02.34-1.22.26.39-.66ZM286.04,184.06l1.57-.25.31.36,2.01-1.76.07-1.19,1.38.09-.29-.88-.65-.56,2.32,1.35c.18,1.28-.29,1.33-.83,2.02-.06.08.04.28-.01.34-.41.49-2.91,2.37-2.92,2.56.64,1.22,2.02-.18,2.13-1.07l.49.38.36-.31,1.15.77-.14-3.11,1.07-.44-.61-1.25,2.01.83c-.05-.48.14-1.24.61-1.34.21-.04.46.1.68.05.46-.1,1.09-1.49,2.29-.88l-.71.46c1.32,1.63,1.55-.36,2.28-.7.16-.09.43.09.51.03.49-.31.95-1.6,1.97-1.24.74.26.21,1.39.58,1.76.91-.5.07-.73.25-1.18.04-.14.3-.19.36-.33.14-.38-.09-.85.59-1.17l1.03.08c.18.23-.26.79-.41,1-.34.49-.8.78-.95,1.48-.09.4,0,.74.48.55.06-.03.19-.09.33-.17l-2.21,1.62c.15.21-.32,2.56-2.04,3.9-.54.42-2.06,1.41-2.06,1.41l-.82,2.12-2.04,4.15-5.55,3.55c-.07-1.17,1.46-2.31,1.63-2.82.18-.49.06-1.12.46-1.69.4-.59,1.13-.71,1.66-1.13,0,0,0,0,.01-.01l.63-.19-.08-3.96c-.66-.07-.34,1.06-.44,1.52-.03.13-.34.19-.36.32-.08.37-.06.75-.07,1.13l-1.57.41c-.14-.56.53-.74.43-1.18-.03-.14-.3-.23-.31-.36-.08-.44.12-1.05.1-1.54l-1.03-.06.18,2.6-1.44.93.25,1.39-.78,1.33-.66-.39.66-2.19c-.68.46-.66,1.49-1.63,1.27.12,1.57-.38,2.03-1.72,2.65-1.08-.93.04-1.76,0-2.76l.69.05c-.04-.64.05-1,.6-1.34l.13.7.69.04.58-.99.87.06.06-1.03.69.04.12-2.04c-1.13.13-1.52-.34-2.16-1.18-.66-.24-.91.25-1.04.28-.31.05-.74-.13-1.03-.08-.31.06-.96.63-1.25.78-.39.21-.64.16-1.04.11l-.24-1.57c.84-.68,2.02-.79,1.86-2.11ZM280.81,192.98l1.19.09.08-1.03c.38-.04.86.14,1.19.08.46-.1,2.21-2.01,2.07-2.61l1.37.09c-.15-.58.35-.68.4-.84.2-.66-.16-1.6,1.13-1.47l.26,1.22c-.44.33-.4.85-.94,1.14-.26.15-1.17.23-1.22.26-.07.06.06.36-.04.51-.15.23-.66.48-.73.64-.1.29.02.74-.08,1.03-.11.36-.93.94-.78,1.49-.75-.28-1.15.13-1.57.25-.24.06-.9.19-1.05.26-.78.46-1.42,1.54-2.66,1.2-.38-.43,1.07-2.06,1.37-2.32ZM279.13,200.09l.69.05c-.15-1.17.5-1.82,1.53-2.31l-.49,2.21-1.82,1.43.09-1.38ZM270.88,197.49c.41-.31.63-.78,1.24-.6.04.56-.04,1.07-.6,1.34-.25.11-.64-.35-.55.48l-1.42.76c-.14-.95.68-1.48,1.33-1.98ZM234.71,222.09c.63-.7,1.82-1.18,1.86-2.11l1.03.06c.01-1.3.92-.78,1.61-.93.46-.09,1.15-1.1.96-1.65l1.18.43s0,0,0,0h0s-1.07,1.52-1.07,1.52c-.58.29-1.08.57-1.33.9-.1.14-.3.87-.41,1-.66.9-1.4.85-2.45.7l-.06.85c-.54.14-.16,1.57-.93,1.14-.69-.38-.43-1.29-.39-1.92ZM231.36,225.83l.44-1.34.68.04-.25-1.39,1.37.09c.31.89-.69,1.22-.78,1.5-.3.87.16,1.74-1.48,1.44l-.04.69-1-.41c.01,1.49-.04,1.98-1.22,2.85-.38.26-.49.63-1.07.44.04-.48-.05-.92.26-1.35.36-.53,1.1.05.91-.97-.26-.26-2.04,1.04-1.68-.46,1.39.16,2.56-1.07,3.85-1.12ZM227.81,219.74l.04,2.07c-.43.04-.61-.05-.84-.4l-.9.63,1.71-2.29ZM224.36,222.44l1.07-.45-.06.87-1.05.44.05-.85ZM224.66,225.72l.66.39c.77-.66,1.5-1.02,1.34-2.14l3.4-2.02.1,1.04c-.63-.09-1.73.88-2.14,1.4-.31.39-.34,1.14-.96,1.49-.09.05-.26-.07-.34-.02-.33.2-.89.92-1.09.95-.5.1-1.32-.18-1.89-.13l.93-.97ZM223.52,229.95c.8-.75,1.64-1.56,2.85-1.37l-1.82,1.43,1.5.61.41-1c.43.45.56.43.28,1.05-.66,1.4-1.93,1.6-3.39,1.84l.44-1.53-.28-1.04ZM224.65,236.38l4.29-2.47c.33.92,2.33-.25,2.62-.69.1-.15-.04-.45.04-.5.06-.06.34.11.51.03.63-.3.93-1.88,1.99-1.58l.09-1.38,1.03.08c-.14,1.15,1.09,1.55,1.35.26.07-.33-.01-.74.07-1.03.08-.28.92-.93.78-1.49l.45,1.05c.66-.31.45-.78.59-1.17.06-.14,1.44-1.42,1.87-2.28.1-.18-.03-.45.04-.51,1.18.24,1.53-.3,1.47-1.44l-.66-.23c-.01,1-1.39,1.43-1.87,2.12l-.8,1.83c.11-.58-.03-1.35.12-1.88.04-.11.72-.87.75-.98.15-.53-.12-1.68.64-1.86.21-.04.46.1.68.05.33-.06,1.37-1.35,1.83-1.59l.1,1.03,1.03.08.09-1.37-1.03-.08c.31-.26.38-.97.41-1,.2-.16.3.18,1.08-.79.65-.79,1.45-1.33,2.48-1.04h0s.9-.62.9-.62h0s0,0,0,0c.25-.35.57-.25.89-.46.38-.24.74-.77,1.09-.96.3-.16.92-.33,1.03.07l-.42,1.18c-.96-.49-1.52.81-1.95.9-1.86.4-1.19.88-1.63,1.27-.05.04-.81-.09-1.06.45.06.97-.54,2.19.32,2.94.94.22.49-1.28.64-1.85.03-.12.64-.53.42-1.18.7.12,1.48-.57,1.46-1.28.84.42,1.29-.52,1.59-.58.3-.06.73.13,1.03.07.73-.15.73-1.5.31-2.04l1.06-.45.06-.86-.68-.05.05-.68,1.76-.57.48-2.03.13-.43c.21.5.85.63,1.42.53.15-.03.33-.5.88-.29l.06-1.02,1.69.45.58-.99c.39.6,1.18.36,1.87.46.05-.99,1-1.5,1.97-1.24.84-1.15,1.53-1.82,3.02-1.53.18.73-.9.93-.79,1.5.09.38.75.69,1.17.59.31-.08.61-.9,1.24-.6l.07-1.03,1.91-.23.54-.48.1-1.54-.66-.21c.45-.35.77-.94,1.42-.76l.63,1.07c-.33-1.98,2.31-2.01,1.98-3.99l.68.05c.21-.81-.48-1.43-.19-2.26.06-.19.73-.54.91-.8.64.71.5,1.68,1.79,1.5l.24-1.02c-.19-.3-.26-.94-.63-1.08-.25-.1-.83.15-.84-.23.94-.82,1.82-1.89,3.21-1.68-.05.49.05.92-.26,1.35-.48.68-1.63,1.02-.66,2.19l-.03.34c-.61.64-1,.97-1.93.74l-.94,1.14.69.04c.41.34.36,1.19.23,1.74-.03.11-.29.18-.36.31-.09.19.02.46-.04.51-.06.06-.34-.11-.51-.04-1.45.69-2.18,2.63-3.17,3.75l.31.54c-.74.01-2.01-.41-2.43.35-.21.39.05.66.48.55l.14.69-1.03-.06-.05.68c-.7-.11-1.4.65-1.81,1.27,1.18.14,1.86.25,2.78-.51l-.09,1.38-2.13,1.05-.1,1.54-1.03-.06c-.06.28.02.64-.06.85-.04.11-1.52,1.76-1.65,1.78-.4.09-.99.05-1.39.25-.55.28-.86,1.17-1.62.93l-.84,2.36c-.99.01-2.4.81-2.53,1.89l-1.39.25-.04.68-1.74.24c-.31,1.37-2.35,1.77-3.3,3.05l.3.7-2.16,1.4c-.19-.68.68-.88.77-1.15.21-.6-.03-1.73.16-2.4.29-1.02,2.65-2.58,2.33-4.14.76.08,1.8-.84,1.83-1.6l2.42-.18.1-1.54,1.86-2.12c-.65-.21-.83.36-1.24.61-.92.54-1.87,1.76-2.53,1.89-.3.06-.73-.14-1.03-.08-.28.06-1.35,1.32-1.83,1.6-.65.39-1.87,1.14-2.14,1.23-.46.16-1.02.75-1.58.59l-.96,1.65-1.2-.09c.05,1.17-1.09,1.79-.89,3.03l-.68-.04c.21.64-.4,1.08-.43,1.18-.16.78.15,2.68-.7,2.87-.21.05-.5.04-.86.11-.45.1-.41-.1-.66-.39l.83-2.18.69.05c-.05-.3.45-2.11-.4-1.74-.76.31-.75,2.06-1.37,2.48.01.74-.36,1.58.2,2.08l-1.05.44-.06-1.72c-.89.45-.24,2.17-1.68,1.96l.51-2.55,1.83-1.6.05-.85-1.03-.06c.11.66-.36,1.37-.96,1.66-.92.43-.59.45-.95,1.48-.23.61-1.57.3-1.78.92-.11.3,0,1.03-.6,1.17-.21.04-.46-.1-.68-.05-.74.16-1.13,1.44-1,2.17l-.55.48-1.88-.13-.09,1.37c-.53-.24-1.61.3-1.77.75-.4,1.1-1.4,1.93-1.53,2.31-.1.28.02.74-.08,1.02-.29.84-1.79.09-2.27.71l-.69-.05-1.13-1.1c-.3.61.36,1.22.24,1.57-.05.14-.33.19-.36.31-.13.43.24,1.29-.43,1.18-.01-1.09.68-2.72-.84-2.81l-.46,1.69-2.24.2-.54.48c.56.49.18,1.33.2,2.07-.14.4-1.23.34-1.45,1.28-.14.56-.02,1.29-.12,1.89l-.25-1.57-.45-.89c-.5.53-.84.76-1.58.58l-.4.84.31.36c-1.03.63-1.08,2.45-2.56,2.41l1.14-1.82c-.56-.64.05-1.5-.89-2.12.15-.38,1.08-1.18,1.12-1.3.55-1.52,1.14-2.07,1.94-3.31.1-.15-.04-.45.04-.51.04-.04.8.09,1.05-.44l-.64-.73,1.25-.78c1.87,2.78,3.59-.4,5.28-1.72ZM213.38,308.43l1.72.11c-.15.87.48,1.19,1.29,1.12.43-.84-.51-1.28-.58-1.58-.12-.6-.07-1.49.77-1.15l.24,1.55c.83.64.64,1.32.54,2.27-.48.05-1.13-.18-1.54-.1-.75.16-1.25,2.13-2.81.85l-1.07.61-.48-.71c.98.21,1.48,0,2.12-.73-.59-.53-.16-1.47-.2-2.24ZM221.88,234.14l-.95,1.32-2.24.19c.48-1.17,1.23-.75,1.94-.9.18-.04,1.15-.71,1.25-.6ZM214.47,236.91l-.23-1.73.78-1.49,1.18.41c.78-.59,1.39-1.33,1.35-2.31.61.3,1.12-.26,1.23-.26.58-.05,2.04.01,2.19.65.04.19.06.87-.24.85-.26.03-.68-.13-.85-.06-.04.01-.24.58-.55.65-.7.16-.97-.77-1.56.08l.66.38c.16.49-.66.73-.75.99-.16.44.03,1.22-.11,1.71-.05.18-.7.95-.94,1.14l-.41-1.57.45-1.52c-1.04-.13-1.32.92-1.82,1.43l.55,2.09c-.6.28-.28.89-.44,1.34-.07.24-1.2,1.07-1.42.76.24-.98-.16-1.71-.18-2.58l1.09-.97ZM206.97,251.54c.73-.58,1.32-1.54,1.54-2.47l.64.73.72-.46-.2-2.26,1.18.43,1.13,1.1c-.21-.39-.28-.99-.6-1.24-.35-.28-.93-.33-.96-.93l2.42-.18.04-.69c.83-.1,1.37.38,1.64,1.14l-.75.98-.29-.7-1.07.44.58,1.77c-.4.61-.83.34-1.24.43-.34.08-2.45,1.98-2.06,2.62l-3.17,1.17.46-1.87ZM207.73,308.06c.33.11,1.34,1.05,1.64,1.14,1.13.33,1.72-.08,2.46-.87l.48.72-.7.13-.05.85-1.07.45.26,1.22c-.49-.08-1.08.01-1.54-.1-.49-.11-2.23-.64-2.7-.87-.39-.19-1.2-1.09-1.29-1.12-.31-.11-.83,0-1.2-.08.31-1.12-.35-1.71-.85-2.63.7-.93.99.15,1.5.61l.7-.3c.51.66,1.68.61,2.36.84ZM199.49,260.51l1,.41c.28-.72-.44-1.29-.21-1.91.06-.18.59-.41.73-.64.5-.79,1.13-1.92,1.22-2.85l2.5-1.2-.84,2.17-.14,2.23-1.33-.78c-.1.46.04,1.14-.1,1.54-.1.29-1.03.54-.78,1.32l-2.18,1.76.14-2.06ZM195.93,316.19c.22-.27.45-.59.65-.96.11.15.22.28.32.36-.16.11-.32.27-.48.48l-.49.12ZM197.19,315.9l-.29.04-.28.07c.1-.16.21-.3.28-.35.03-.03.05-.03.07-.06l.26.07c0,.07-.02.14-.04.23ZM197.32,315.88c.04-.05.08-.1.12-.15l.32.08-.44.06ZM197.86,319.32c-.12-.08-.21-.13-.26-.16.09.05.18.1.27.15,0,0,0,0,0,.01ZM198.12,319.48c-.06-.04-.11-.06-.16-.1h.02c.05.02.1.04.15.07,0,0,0,.02,0,.02ZM203.13,319.75h0c.49-.75.48-.87.46-1.1l1.03.21s0,0,.01.01c-.65,1.18-.73-.13-1.49.88ZM205.12,320.2s-.03-.08-.04-.15c.18-.22.37-.23.55-.4.07.03.13.06.2.09-.13.18-.26.37-.38.5-.11-.01-.21-.02-.33-.03ZM206.07,320.47c-.07-.07-.13-.13-.18-.15-.03-.01-.08-.02-.11-.03.06-.35.15-.38.25-.47.19.08.36.14.52.18-.15.11-.32.32-.48.46ZM206.44,320.44l.11-.44s.03.01.04.01c.09.02.2.05.31.07-.11.45-.26.88-.46.35ZM207.26,320.94c.2-.21.25-.49.25-.78.16,0,.32-.02.44-.07,0,0,0,.01,0,.02-.17.5-.48.88-.69.83ZM209.23,321.91s-.07,0-.1,0c.02-.61.11-1.16.43-1.44-.02.43-.06,1.09-.18,1.43-.05,0-.09,0-.15.02ZM209.44,321.89c.05-.06.11-.08.15-.02-.05,0-.1.01-.15.02ZM223.12,317.85l.14-.64-.64.44.53.41c-.02.07-.02.14-.03.21-.09.09-.18.16-.28.22-.13.08-.4.21-.62.32h0c-.11.06-.21.1-.27.13-1.03.41.19-1.84-1.12-1.44.06.59-.07,1.11-.4,1.51-.04-.29-.1-.6-.13-.69v.83s-.03.03-.05.05c-.17-.22-.23-.39-.29-.91-.4-.06,0,.84,0,1.12-.04.02-.06.05-.1.07-.05-.02-.1-.05-.19-.12.04-.08,0-.22.07-.38-.7-.3-1.15.79-1.81.42-.35-1.38.47-.42.11-1.57-.78.37-1.55,1.86-2.41,1.62l.17.14c.02,2.01-.69-.92-1.04.02.1-.15.08-1.11.06-.89-.57-.3-1.11.53-1.98,1.18l.11-.52c-.33-.45-.87-.29-1.22-.53-.12.51-.32.42-.23,1.17-.5-1.49-1.02-1.08-1.57-.69-.54.4-1.11.85-1.46-.41.12,0,.33-.42.24-.43l-.88.38c-.02.29-.02.44-.01.55-.13,0-.25,0-.37-.01-.03-.13-.05-.27-.07-.37,0,.12-.03.24-.06.37-.98-.07-1.79-.37-1.78-1.53l-.4.19-.04-.09s.02.06.04.09l-.04.02c-.06-.1-.13-.2-.19-.3l.06.35s0,.01,0,.02l-.66.32c-.18-.22-.37-.44-.55-.65l.11-.33c-.05.13-.08.23-.11.32-.02-.03-.05-.05-.07-.08-.05-.29-.11-.61.01-.85-.46.73-.27-.48-.77.13-.08-.06-.16-.11-.25-.16,0-.11.03-.27.15-.58-.23.09-.24.3-.23.53-.23-.12-.47-.2-.74-.23l.04-.69-.88.29c-.6-.74-.93-1.3-1.98-1.17l-.48-.54.05-.85c-.69-.11-1.48.14-1.86-.48l-1.24.61-.6-1.42-.1,1.54c.15.32.33.43.52.48-.21.28-.46.79-.26.76l.52-.71c.13.01.26.02.39.07.12.04.31.31.51.57-.24.26-.34.3-.81.88-.06-.07-.13-.15-.21-.24.05-.14.12-.29.21-.42-.2.23-.13-.26-.48.14-.49-.49-1.05-1.03-1.09-1.24-.11-.51.18-1.43.12-2.04,0-.14-.3-.24-.31-.38-.04-.59.14-1.27.12-1.88l-1.03-.06.33-2.38c.78-.16.82,1.29,1.28,1.45.48.18,2.62,1.33,2.82,1.57.06.06-.11.34-.04.51.39.81,1.4,1.53,2.32,1.35l.45,1.05c.83-.88,1.83.8,2.76-.15.38.48.94.78.76,1.42.77-.26,1.42.69,1.83.81.99.28,2.09-.1,2.81-.85l1.35.44c.58-.69,1.24.36,2.22.15l-.41,1c.29.28,2.86-.23,3.24.55l1.3-1.45.74-.81-.45,1.52.29.88.84.4c.41-.61,1.18-.11,1.73-.23.2-.05,1.43-1.33,2.17-1.58.19-.06.45.09.51.04l-.24-1.74c.13-.13,1.58,1.94,1.39-.25.72.05.28,1.4-.1,1.54v.34c-.09.31.14.68.42.84,0,.06-.02.09-.01.15l.17-.1c.07.02.13.04.2.03.03,0,.04-.03.07-.04l-.09.15.35.61c-.38.07-.46,1.16-.89.8ZM224.89,317.73l.44-.62c-.2.14-.39.19-.58.23-.18-.97-.38-.3-.72-1.27.02-.04.06-.07.07-.11l.82-.47.2.19.28.78.75-.2c-.37.62-.53,1.74-1.27,1.48ZM226.52,316.43c-.02-.09-.05-.18-.07-.26l.38.22c-.08.06-.17.08-.3.04ZM228.45,316.06c.11-.1.23-.17.27-.25.11-.31.22-.68.32-1.07.02,0,.04-.01.06-.01.48.95.14,2.25.3,2.78-.33-1.4-.63-1.1-.95-1.45ZM232.34,312.75c-.07.26-.14.5-.23.7l-.49-.03c.08.28-.02.46-.13.58-.05,0-.09.03-.14.02-.31-.13-.17-.73-.21-1.02-.33.58-.85.66-1.3.87.16-.18.31-.37.45-.56l1.03-.42-.25-1.39.93-1.14c.69.61.46,1.54.35,2.4ZM272.81,264.5c.19-.76.03-1.77.18-2.57l.94,1.27-.11,1.72-.83,2.17-.21-1.91c-.64-.48-.01-.45.04-.68ZM245.34,295.34c.05-.14.3-.19.36-.33.1-.26.39-.94.4-1,.21-.84.1-2.12.21-3.07.06-.55.34-.97.72-.48-.11.72.69,1.07-.1,1.54l.25,1.39c-.7.58-.35,1.81-.53,2.72l-.89.45c-.38-.33-.63-.73-.43-1.23ZM246.21,302.69s.02-.06.02-.07c.07-.2-.04-.48.05-.68.05-.14.33-.2.36-.33.18-.7-.04-1.73.15-2.39.04-.13.33-.19.36-.31.16-.45-.26-.56-.29-.72-.06-.34.1-.81.07-1.19l1.39-.25-.79,1.49c.94.61.31,1.47.89,2.12l-.45,2.01c-.59.12-1.2.21-1.78.32ZM251.63,298.97c-.36.51-.56,1.3-1.55.82l.46.49c.26.64-.44-.13-.65-.15.35.39.56.32.69.68-.46.9-1.37,1.28-2.39,1.52l.88-.89.18-2.75.72-.46-.43,1.34c.84.24,1.19-.19,1.77-.74l.03-.34c-.5-.6-.26-1.89-.16-2.76.07-.66-.1-1.1.61-1.52l.43,1.24-.57,3.51ZM254.83,297.22c.07,0,.13-.02.18-.03.1-.02.23-.11.36-.21l.06.9c-.3.12-.33-.33-.59-.66ZM256.58,295.68s-.01,0-.02,0c.27-.33.51-.62.66-.75l.85.05.08.26c-.1.49-.86.47-1.57.44ZM276.81,266.48c-.7.78-1.93,1.45-2.56,2.23-.21.28-.21,1.07-1.08.79l-.05.69-1.39.25-.6,1.33-.8-.9c.89-.59-.09-1.33.15-2.23l-.72.48c.09.88-.36,2.31-.21,3.07.05.25.91.85.96,1.1.1.49-.18,1.32-.12,1.88l-.96-1.1-.09,1.38-1.18-.43-1.58.59c.04,1.33-.8,1.82-1.88,2.44-.11.78-.01,1.66-.16,2.4-.03.13-.33.2-.36.33-.1.41.01.95-.09,1.37-.04.14-.55.28-.4.84l-1.39.25c-.11.83-.03,1.76-.16,2.56-.18.97-.64,2.66-1.61,3.34.09,1.1-.09,1.94-.47,2.64-.2.07-.38.17-.5.33,0,.12.05.2.08.29-.14.17-.29.32-.45.47-.05-.06-.11-.14-.15-.27-.18.29-.31.49-.41.71-.3.22-.62.42-.98.62-.53.28-.48.68-.58.81-.46.63-1.34.43-1.94.73-.4.21-.84.85-1.27,1.13-.18.5.25.62.66.63.16,1.4-1.27.64-1.14,1.87-.33-.25-.59-.39-.81-.45.45-.26.68-.64.55-1.41-.18-1.09-.24-2.14-.29-3.29l.24-1.02-1.05.26-.73.64c-.04-1,.61-1.76,1.35-2.31l.79,1.08c.43-1.35-.56-2.18-.46-3.47-1.22-.35-.58,1.17-.8,1.84l-.55.48-.85-.05-.26,3.94-.55.48-1.54-.1.41-1-1.39.25c.09-.49,0-1.08.1-1.54.05-.19.77-1.49.8-1.67.26-1.27-.45-3.17,1.55-2.82l-.79,1.67c.46-.36.85-.18,1.22-.26.9-.2.49-2.12.7-2.87.04-.13.74-1.07.94-1.14.69-.3.46.6.45.89-.03.73-.49,1.77.59,1.58.15-.15.07-2.62.21-3.25.15-.7.83-1.64,1.19-2.33.31-.6.5-1.15.46-1.86l.63.9-.13,1.88-.69-.05v5.5s.7-.48.7-.48c.23-1.76.58-3.42,1.03-5.09.29-1.08.72-2.62.93-3.71.12-.59.04-1.28.12-1.88l1.03.06.16-2.4.68.05-.04.68,1.03.08-.49,2.03c-1.28-.18-1.22,1.44-1.86,2.11l-.16,2.57.78-1.33.68.05.39-.66c.15.97-.61,1.62-.51,2.55.01.14.33.25.33.36-.01.09-.92.77-.1,1.37l-.95,1.49-.06-1.73-.83-.4c-1.14.87-1.02,2.24-1.09,3.55l-1.12,1.29.25,1.39-.38.49,1.34.44c.16-.15,0-2.06.18-2.57.1-.29,1.09-.6.78-1.49.58.11.54.56.64.9.16.58,1.63.09,1.42-.76l.69.04.18-2.73,1.07-.45-1.34-.6.08-1.03.68.05c.23-.54-.26-.74-.28-.88-.09-.76.2-1.76.16-2.57.43-.44.66,0,.65.56-.01.63-.1,1.25-.12,1.88,1.48.34,1.62-.9,1.52-2.13-.01-.14-.3-.23-.31-.36-.06-.31.12-.74.06-1.03-.04-.2-.6-.54-.64-.74-.08-.36.12-.94.09-1.37l.72-.46.23,1.91.63.9.2-3.08.64.73,1.07-.44c-.5-.33-.2-.71-.28-1.05-.03-.13-.74-1.72-.89-2.12-.18-.48-.6-1.02-.61-1.08-.18-.83.58-1.35.49-2.19,1.08-.24.79,1.12.24,1.56.49.93.73.09,1.19.25l.64.73.59-1.15-.61-1.08c.68-.55.69-1.24.82-2.01.09-.54-.25-1.38.59-1.17.87.68.25,1.74.35,2.6.01.14.29.23.31.38.07.35-.21.73.28,1.04l-1.09.97c-.24.66.23.85.28,1.04.14.56-.18,1.3.94,1.27l-.54-2.27c.74-.51.64-1.34.83-2.01.04-.12.34-.19.36-.31.33-1.54.06-3.54.34-5.14l.71-.46.5,2.78.34-4.97c0-.08-.51-.53-.25-1.39.04-.15.54-.26.39-.83l.65.55-.44,6.67,1.52.45.92-.8c-.21-.66.65-1.25.79-1.67.1-.29-.03-.74.07-1.03.05-.13.79-1.13.93-1.14l.4,1.76.7-2.71-.11,4.29ZM286.92,269.61s-.2-.72-.81-1.46c-.09.62.19,1.79-.31,1.73-.87-.94.36-.85-.73-1.43l.73.03c-1.42-1.15-.05-.34-.9-1.15-.21-.37-.61-.65-.51-1.21l.82.75c.39-.4.9-.73,1.28-1.13.14-.15.28-.32.42-.49.13.52.34,1.09.17,1.18-.16-.17-.25-.2-.38-.46.38,1.11-.88.78-.37,2.15-.1-.07,1.46.58.59,1.5ZM303.35,250.01c.02.13.3.23.31.36.1,1.08-.05,1.93-1.03,2.51l.45-4.1c-1.29-.14-.93.8-1.13,1.48-.04.12-.34.19-.36.31-.11.5-.18,1.53-.14,2.06,0,.13.31.24.31.36.03.7-.04,2.5-.2,3.08-.1.36-1.08,1.18-1.12,1.3-.3.84-.71,1.15-.78,1.32-.06.2-.2,1.12.09,1.22l1.71-2.29.24,1.56-1.05.45.18,2.42c-.57-.14-.83.15-1.03.54l-.17-.3.16.33c-.05.09-.09.19-.14.29-.03-.04-.07-.07-.1-.11l.06-.43c-.99-1.44-1.86-3.03-3.19-3.57l-.79,2.37-.72.82-.44-.19-.7,2.19-.98,1.9h-2.35l-.7.38-.7-.51-1.08.51-.48-1.74c.6-.82,1.12-1.73,1.32-2.59l.69.05.04-.69.69.05c.39-1.04.35-2.09.55-3.24.1-.53.49-.63.43-1.18l.25,1.39c.99.34.56-.65,1.27-.94.8-.34.23.88.78,1.25l.7-.3c-.16-.65-.44-1.38-.2-2.07.09-.28,1.33-1.53,1.53-2.31.11-.45.01-1.05.1-1.54.95-.11.68.33.61,1.07l.54-.3c.96.59-.12,2.24.84,2.81.83.48.35-1.35.97-1.49l.06-1.03.71-.46.64.73c-.05-1.09.11-1.59.85-2.35l-2.08.2.16-2.39.64.56c.15.35.68-.21.72-.3.24-.68-.29-.99-.28-1.05.01-.11.34-.19.36-.31.19-.82,0-1.91.19-2.75.01-.1.64-.55.41-1.17.7-.16.9.29.63.89-.15.35-.74,1.43-.79,1.67-.19.87-.36,2.31.88,2.29l-.23-1.91.7-.13c-.18.66.41.98.77,1.43l.36-.33.48.55c-.43.24-.5.88-.43,1.35ZM316.15,227.99l1.35-2.32.12.69.9-.63.45.89-2.83,1.37ZM331.76,218.01l-.66-.39-.54.49-.06.85c-1.57-.31-1.91.24-1.83,1.77l-.99,1.83-.23-1.74-1.25.78c.83,1.14.9,2.12-.36,2.91l-1.57.24,1.1-.97.49-2.19-.64-.74c.77-.31.14-1.38-.44-1.23l-.89.46-.13,1.88c-.98.09-.5-.18-.65-.56-.07-.24-.49-.33-.28-.88l-1.05.28.12.69.51.04c.07.77-.2,1.08-.79,1.49,1.65,1.42-.28,1.77-.5,2.38-.07.21.05.5-.04.68-.11.21-.54.26-.4.84l-.99-.59c.6-.38.36-1.17.46-1.86l1.37.09-.44-1.05c-.58.41-1.24.7-1.93.55.3.44.28.92-.24,1.02-.33.06-.83-.1-1.2-.08l.09-1.37h0c.38.13.83.02,1.19-.21l1.57-.27h0c.1.01.22.01.38,0-.04-.48.16-1.09.1-1.53-.18-1.12.21-2.76-.07-4.14-.02-.08-.15-.21-.3-.35l.99-.09c-.09.75-.08,1.55.6,1.73h0s4.28.28,4.28.28h0s0,0,0,0l.32-2.21-.26-1.22,1.32.78-.1-1.04,1.52.44-.31-.54h0l1.41-.59.56,1.93c1.29-.41.73-1.84.17-2.57h0s1.78-.59,1.78-.59c-.21.74-.4,1.52-.5,2.04-.19.93.21,2.01-.69,2.53ZM336.99,214.41c.1,1.32-.05,2.35.09,3.79.05.48-.11,1.04-.1,1.54-1.88.1-1.23-1.53-1.19-2.83l-1.43.76.46.89-.39.66-1.54-.1,1.15-1.82.1-1.54c.65.14,1.15-.3,1.09-.97l.5.38.54-.48c-.56-.74-.5-2.7.85-2.52.03.71-.2,1.53-.14,2.23ZM347.8,217.19l-.89.46c-.31-.75-2.67-.3-2.88-.54l-.1-1.04-.6,1.34c-.61.01-1.29-.16-1.88-.13-.14,0-.24.31-.36.31-.6.03-1.86-.03-2.41-.15-.13-.04-.26-.55-.83-.4-.03-.5.15-1.08.1-1.54-.01-.13-.29-.23-.31-.36-.16-.69.38-.92.4-1,.14-.56.02-1.29.12-1.88l.87.05c.29.03.26-.66.23-.84,0,0,0,0,0-.01l.37-.31c.2.45.16,1.01.25,1.38.06.31,1.2,1.15,1.28,1.47.09.4-.19.83.43,1.23.35-.48,1.39-.14,1.61-.75.25-.73-.03-1.29-.58-1.76.44-.46,1.19-.73,1.13-1.48h0s4.44.42,4.44.42c-.29.2-.26.64-.41,1.04-.08.19-.66.46-.74.64-.15.44.01,1.2-.11,1.72l.49.55.85.05-.45,1.52ZM382.72,253.36l-.75-1.59.7-.3.29.88.68.21-.91.8ZM416.2,264.35l.45-1.52.94,1.27.25,1.56-1.64-1.3ZM411.62,278.99c1.13.89,2.11,2.06,3.25,2.97.13.1.85.3,1,.41.2.14.9.98.79,1.08-1.15-.19-1.24-1.53-2.67-1.2l.92,1.78c-1.44-.31-2.28-1.2-1.89-2.71-.51-.38-1.48-1.61-1.98-1.17l1.09,1.62-.55.65c.29-.72-.85-1.23-.93-1.61-.15-.75.44-1.78-.18-2.6.68-.13.78.48,1.15.76ZM420.73,289.56c-.48-.09-1.1.03-1.54-.1-.36-.1-1.19-1.08-1.3-1.12-.59-.2-1.3.03-2.03-.48-.4-.28-.9-.95-.77-1.43l-.53.31-1.69-.45c-.7-.99-.97-1.15-1.97-1.5-.73-.26-1-2.66-2.43-2.23.12-1.02-1.22-1.54-1.56-2.51.68-.13.78.46,1.15.76.82.64,1.92,1.29,2.61,2.23l.7-.29c.68.78,1.1,1.38,1.94,1.84,1.74.95,3.38,2.32,5.3,3.1.2.09.58,0,.85.06l-.07,1.03c.72.1,1.63-.29,1.33.76ZM424.48,289.99c-.51.99-1.2-.01-1.54.08-.64.38-.61,1.47-1.63,1.27l.26-4.11,1.03.06-.11,1.72.85.05c.15.55,1.56.16,1.14.94Z"/>
        <path class="cls-1" d="M279.59,208.9c-.02.08-.72,1.26-.78,1.32-.95,1.25-1.96,1.13-2.6,2.92-.08.22-.88.67-1.09.96.63.49-.23,1.44.95,1.27l1.23-3.01.68.05c.38-1.25,1.34-2.1,1.95-3.48.06-.14.33-.19.36-.32.18-.58.1-1.17-.41-1.57-.44.39-.14,1.34-.3,1.87Z"/>
        <path class="cls-1" d="M263.24,216.93c0-.64.59-.93.46-1.69l-.68-.05-.46,1.69.68.04Z"/>
        <path class="cls-1" d="M265.41,212.6c.65-.11,1.27.12,1.27-.95-.71-.41-2.98.99-2.51,1.55.52-.17.58-.5,1.24-.61Z"/>
        <path class="cls-1" d="M295.13,184.31c.77.22,1.2-.22,1.91-.22l-.16-2.76c-1.56-.38-.06,1.65-.48,2.03l-1.22.26-.3-.71-.58.99c.57-.15.68.36.83.4Z"/>
        <path class="cls-1" d="M229.99,236.22c.12-.36,1.31-.7,1.13-1.47-.86-.24-1.21.22-1.77.74l-.17,2.57c1.09-.22.6-1.24.81-1.84Z"/>
        <path class="cls-1" d="M261.13,212.32c-.12-.83.52-1.68,1.48-1.62-.79-1.72-2.42-.14-2.14,1.23l-.73.64,1.39-.25Z"/>
        <polygon class="cls-1" points="259.81 216.7 261.87 216.84 262.32 215.15 261.26 215.59 259.81 216.7"/>
        <polygon class="cls-1" points="219.21 232.76 219.21 232.92 219.88 232.97 219.93 232.3 219.21 232.76"/>
        <polygon class="cls-1" points="265.49 213.99 265.43 215 266.46 215.08 266.52 214.05 265.49 213.99"/>
        <path class="cls-1" d="M402.2,281.12l-.5.44c.14.17.28.34.42.51.33.17.73.14,1.21.16l-.79-1.08-.34-.02Z"/>
        <path class="cls-1" d="M238.11,319.58c-.1-.16-.19-.27-.28-.38.05.1.13.21.28.38Z"/>
        <path class="cls-1" d="M402.06,278.02c-.38-.31-.48-.88-1.15-.76-.32.28.5,1.19.77,1.43.06.06.26-.04.34.02.38.3.48.89,1.15.76.17-.86-.58-1.02-1.11-1.45Z"/>
        <path class="cls-1" d="M399.66,278.93c.42.58.87,1.12,1.31,1.68.1-.13.1-.3-.06-.6-.19-.35-.87-.87-1.24-1.08Z"/>
        <path class="cls-1" d="M398.61,275.73l-.18-2.42-1.22.26-.32-.36-.55.48.24.58c.23.37.46.74.69,1.1l1.33.36Z"/>
        <path class="cls-1" d="M385.43,260.07c.27.28.54.56.81.83-.06-.24-.09-.49-.01-.78l-.8-.05Z"/>
        <path class="cls-1" d="M392.92,268.13l-.15.26c.15.22.31.44.46.66l1.03-.31-1.33-.6Z"/>
        <path class="cls-1" d="M370.32,243.26c.28.1.48.97,1.15.77.14-.79-.21-1.57-.72-2.11-.4.46-.69.45-1.03-.08-.65.38-.53.73-.6,1.34.35.1.88-.03,1.19.08Z"/>
        <path class="cls-1" d="M381.69,255.87c-.1-.28-.04-.8-.63-.9l-.06.33c.34.37.67.74,1.01,1.11,0-.06.01-.1,0-.17-.02-.13-.26-.21-.33-.36Z"/>
        <path class="cls-1" d="M376.97,215.51c.65.25.9-.85,1.28-1.12l-.45-.89c-.35-.13-.84.4-1.24.6.04.43-.19,1.17.41,1.4Z"/>
        <path class="cls-1" d="M210.06,324.41c0,.16,0,.3.01.38,0-.13,0-.26-.01-.38Z"/>
      </g>
    </g>
  </g>
  <g>
    <path class="cls-1" d="M287.77,452.73c0-4.49,3.96-7.8,9.43-7.8,4.28,0,7.49,2.12,8.36,5.35l-2.79.19c-.77-1.98-3.03-3.12-5.68-3.12-3.86,0-6.42,2.19-6.42,5.38s2.56,5.38,6.42,5.38c2.7,0,4.96-1.19,5.7-3.14l2.79.33c-.98,3.19-4.17,5.24-8.38,5.24-5.47,0-9.43-3.31-9.43-7.8Z"/>
    <path class="cls-1" d="M316.53,452.73c0-4.4,3.86-7.8,9.4-7.8s9.43,3.4,9.43,7.8-3.86,7.8-9.43,7.8-9.4-3.42-9.4-7.8ZM332.48,452.73c0-3.26-2.54-5.38-6.54-5.38s-6.52,2.12-6.52,5.38,2.56,5.38,6.54,5.38,6.52-2.12,6.52-5.38Z"/>
    <path class="cls-1" d="M347.86,445.28h2.96l9.17,10.96v-10.96h2.86v14.9h-2.98l-9.15-10.96v10.96h-2.86v-14.9Z"/>
    <path class="cls-1" d="M374.37,445.28h3.16l5.54,12.31,5.8-12.31h2.93l-7.1,14.9h-3.49l-6.84-14.9Z"/>
    <path class="cls-1" d="M403.32,445.28h12.1v2.37h-9.24v3.84h8.08v2.33h-8.08v3.98h9.24v2.37h-12.1v-14.9Z"/>
    <path class="cls-1" d="M427.62,445.28h2.96l9.17,10.96v-10.96h2.86v14.9h-2.98l-9.15-10.96v10.96h-2.86v-14.9Z"/>
    <path class="cls-1" d="M459.88,447.65h-5.61v-2.37h14.08v2.37h-5.61v12.52h-2.86v-12.52Z"/>
    <path class="cls-1" d="M480.01,445.28h2.86v14.9h-2.86v-14.9Z"/>
    <path class="cls-1" d="M495.37,452.73c0-4.4,3.86-7.8,9.4-7.8s9.43,3.4,9.43,7.8-3.86,7.8-9.43,7.8-9.4-3.42-9.4-7.8ZM511.31,452.73c0-3.26-2.54-5.38-6.54-5.38s-6.52,2.12-6.52,5.38,2.56,5.38,6.54,5.38,6.52-2.12,6.52-5.38Z"/>
    <path class="cls-1" d="M526.7,445.28h2.96l9.17,10.96v-10.96h2.86v14.9h-2.98l-9.15-10.96v10.96h-2.86v-14.9Z"/>
    <path class="cls-1" d="M80.45,445.63h6.94c3.21,0,5.79,1.7,5.79,4.4,0,2.14-1.61,3.65-3.86,4.19l5.12,6.31h-3.56l-4.77-6.1h-2.79v6.1h-2.86v-14.9ZM90.31,450.07c0-1.37-1-2.16-2.98-2.16h-4.03v4.28h4.03c2,0,2.98-.74,2.98-2.12Z"/>
    <path class="cls-1" d="M106.35,445.63h12.1v2.37h-9.24v3.84h8.08v2.33h-8.08v3.98h9.24v2.37h-12.1v-14.9Z"/>
    <path class="cls-1" d="M129.48,455.96l2.63-.19c.12,1.7,1.72,2.68,4.42,2.68,2.3,0,3.56-.79,3.56-2.02,0-1.07-.63-1.72-2.51-2l-3.07-.47c-2.96-.44-4.59-1.95-4.59-4.24,0-2.72,2.42-4.45,6.21-4.45s6.12,1.72,6.38,4.56l-2.63.19c-.12-1.44-1.61-2.33-3.93-2.33-2.05,0-3.24.7-3.24,1.84,0,1.02.79,1.61,2.44,1.86l3.05.49c3.1.49,4.7,2.02,4.7,4.42,0,2.91-2.4,4.56-6.59,4.56s-6.45-1.65-6.84-4.91Z"/>
    <path class="cls-1" d="M153.78,453.08c0-4.4,3.86-7.8,9.4-7.8s9.43,3.4,9.43,7.8-3.86,7.8-9.43,7.8-9.4-3.42-9.4-7.8ZM169.72,453.08c0-3.26-2.54-5.38-6.54-5.38s-6.52,2.12-6.52,5.38,2.56,5.38,6.54,5.38,6.52-2.12,6.52-5.38Z"/>
    <path class="cls-1" d="M183.32,445.63h6.94c3.21,0,5.79,1.7,5.79,4.4,0,2.14-1.61,3.65-3.86,4.19l5.12,6.31h-3.56l-4.77-6.1h-2.79v6.1h-2.86v-14.9ZM193.18,450.07c0-1.37-1-2.16-2.98-2.16h-4.03v4.28h4.03c2,0,2.98-.74,2.98-2.12Z"/>
    <path class="cls-1" d="M212.46,448h-5.61v-2.37h14.08v2.37h-5.61v12.52h-2.86v-12.52Z"/>
    <path class="cls-1" d="M257.88,458.94c-1.72,1.12-3.26,1.58-5.24,1.58-3.72,0-6.12-1.68-6.12-4.31,0-2.05,1.51-3.63,3.75-4.24-.88-.79-1.35-1.79-1.35-2.82,0-2.51,2.28-4.24,5.63-4.24s5.42,1.7,5.42,4.35l-2.77.21c0-1.33-1-2.14-2.65-2.14s-2.75.77-2.75,1.88c0,.63.35,1.21,1.16,1.93l.54.47h8.63v2.19h-6.17l3.26,2.89c1.09.98,1.72,1.42,2.44,1.42.42,0,.91-.12,1.44-.26l.61,2.12c-.88.23-1.56.35-2.28.35-1.44,0-2.47-.4-3.56-1.4ZM252.62,458.1c1.21,0,2.33-.3,3.35-.91l-3.75-3.42c-1.65.16-2.82,1.05-2.82,2.19,0,1.28,1.3,2.14,3.21,2.14Z"/>
  </g>
</svg>