<?xml version="1.0" encoding="UTF-8"?>
<svg id="Layer_1" data-name="Layer 1" xmlns="http://www.w3.org/2000/svg" viewBox="0 0 530.68 387.07">
  <defs>
    <style>
      .cls-1 {
        fill: #49261c;
      }
    </style>
  </defs>
  <g>
    <g>
      <path class="cls-1" d="M79.57,268.06h8.51l20.04,41.58h-7.07l-5.44-11.39h-24.23l-5.43,11.39h-6.55l20.17-41.58ZM93.19,293.08l-9.69-20.3-9.63,20.3h19.32Z"/>
      <path class="cls-1" d="M132.35,268.06h6.42v36.28h24.69v5.3h-31.1v-41.58Z"/>
      <path class="cls-1" d="M187.16,268.06h19.71c15,0,25.47,8.58,25.47,20.82s-10.48,20.76-25.47,20.76h-19.71v-41.58ZM225.86,288.89c0-9.49-7.33-15.52-18.99-15.52h-13.29v30.91h13.29c11.72,0,18.99-5.83,18.99-15.39Z"/>
      <path class="cls-1" d="M252.24,288.82c0-12.31,10.74-21.68,25.93-21.68s26.06,9.36,26.06,21.68-10.8,21.74-26.06,21.74-25.93-9.49-25.93-21.74ZM297.75,288.82c0-9.76-7.92-16.31-19.58-16.31s-19.45,6.61-19.45,16.31,7.92,16.3,19.58,16.3,19.45-6.48,19.45-16.3Z"/>
      <path class="cls-1" d="M321.98,268.06h7.07l16.44,36.01,17.03-36.01h6.55l-19.84,41.58h-7.86l-19.38-41.58Z"/>
      <path class="cls-1" d="M393.29,268.06h6.42v41.58h-6.42v-41.58Z"/>
      <path class="cls-1" d="M442.73,268.06h8.51l20.04,41.58h-7.07l-5.44-11.39h-24.23l-5.43,11.39h-6.55l20.17-41.58ZM456.35,293.08l-9.69-20.3-9.63,20.3h19.32Z"/>
    </g>
    <g>
      <path class="cls-1" d="M240.5,341.7c0-4.01,3.53-6.96,8.41-6.96,3.82,0,6.69,1.89,7.46,4.78l-2.49.17c-.69-1.77-2.7-2.78-5.07-2.78-3.45,0-5.73,1.95-5.73,4.8s2.28,4.8,5.73,4.8c2.41,0,4.42-1.06,5.09-2.8l2.49.29c-.87,2.85-3.72,4.67-7.48,4.67-4.88,0-8.41-2.95-8.41-6.96Z"/>
      <path class="cls-1" d="M266.6,341.7c0-3.93,3.45-6.96,8.39-6.96s8.41,3.03,8.41,6.96-3.45,6.96-8.41,6.96-8.39-3.05-8.39-6.96ZM280.83,341.7c0-2.91-2.26-4.8-5.84-4.8s-5.82,1.89-5.82,4.8,2.28,4.8,5.84,4.8,5.82-1.89,5.82-4.8Z"/>
      <path class="cls-1" d="M294.99,335.05h2.64l8.18,9.78v-9.78h2.56v13.29h-2.66l-8.16-9.78v9.78h-2.56v-13.29Z"/>
      <path class="cls-1" d="M319.07,335.05h2.82l4.94,10.99,5.17-10.99h2.62l-6.33,13.29h-3.12l-6.11-13.29Z"/>
      <path class="cls-1" d="M345.34,335.05h10.8v2.12h-8.25v3.43h7.21v2.08h-7.21v3.55h8.25v2.12h-10.8v-13.29Z"/>
      <path class="cls-1" d="M367.45,335.05h2.64l8.18,9.78v-9.78h2.56v13.29h-2.66l-8.16-9.78v9.78h-2.56v-13.29Z"/>
      <path class="cls-1" d="M396.66,337.17h-5.01v-2.12h12.57v2.12h-5.01v11.18h-2.56v-11.18Z"/>
      <path class="cls-1" d="M415.06,335.05h2.56v13.29h-2.56v-13.29Z"/>
      <path class="cls-1" d="M429.19,341.7c0-3.93,3.45-6.96,8.39-6.96s8.41,3.03,8.41,6.96-3.45,6.96-8.41,6.96-8.39-3.05-8.39-6.96ZM443.42,341.7c0-2.91-2.26-4.8-5.84-4.8s-5.82,1.89-5.82,4.8,2.28,4.8,5.84,4.8,5.82-1.89,5.82-4.8Z"/>
      <path class="cls-1" d="M457.58,335.05h2.64l8.18,9.78v-9.78h2.56v13.29h-2.66l-8.16-9.78v9.78h-2.56v-13.29Z"/>
      <path class="cls-1" d="M59.74,334.93h6.19c2.87,0,5.17,1.52,5.17,3.93,0,1.91-1.43,3.26-3.45,3.74l4.57,5.63h-3.18l-4.26-5.44h-2.49v5.44h-2.56v-13.29ZM68.55,338.89c0-1.23-.89-1.93-2.66-1.93h-3.59v3.82h3.59c1.79,0,2.66-.66,2.66-1.89Z"/>
      <path class="cls-1" d="M83.29,334.93h10.8v2.12h-8.25v3.43h7.21v2.08h-7.21v3.55h8.25v2.12h-10.8v-13.29Z"/>
      <path class="cls-1" d="M104.36,344.15l2.35-.17c.1,1.52,1.54,2.39,3.95,2.39,2.06,0,3.18-.71,3.18-1.81,0-.96-.56-1.54-2.24-1.79l-2.74-.42c-2.64-.39-4.09-1.75-4.09-3.78,0-2.43,2.16-3.97,5.55-3.97s5.46,1.54,5.69,4.07l-2.35.17c-.1-1.29-1.43-2.08-3.51-2.08-1.83,0-2.89.62-2.89,1.64,0,.91.71,1.43,2.18,1.66l2.72.44c2.76.44,4.2,1.81,4.2,3.95,0,2.6-2.14,4.07-5.88,4.07s-5.75-1.47-6.11-4.38Z"/>
      <path class="cls-1" d="M125.58,341.57c0-3.93,3.45-6.96,8.39-6.96s8.41,3.03,8.41,6.96-3.45,6.96-8.41,6.96-8.39-3.05-8.39-6.96ZM139.81,341.57c0-2.91-2.26-4.8-5.84-4.8s-5.82,1.89-5.82,4.8,2.28,4.8,5.84,4.8,5.82-1.89,5.82-4.8Z"/>
      <path class="cls-1" d="M151.47,334.93h6.19c2.87,0,5.17,1.52,5.17,3.93,0,1.91-1.43,3.26-3.45,3.74l4.57,5.63h-3.18l-4.26-5.44h-2.49v5.44h-2.56v-13.29ZM160.28,338.89c0-1.23-.89-1.93-2.66-1.93h-3.59v3.82h3.59c1.79,0,2.66-.66,2.66-1.89Z"/>
      <path class="cls-1" d="M177.9,337.05h-5.01v-2.12h12.57v2.12h-5.01v11.18h-2.56v-11.18Z"/>
      <path class="cls-1" d="M215.22,347.12c-1.54,1-2.91,1.41-4.67,1.41-3.32,0-5.46-1.5-5.46-3.84,0-1.83,1.35-3.24,3.34-3.78-.79-.71-1.21-1.6-1.21-2.51,0-2.24,2.04-3.78,5.03-3.78s4.84,1.52,4.84,3.88l-2.47.19c0-1.18-.89-1.91-2.37-1.91s-2.45.69-2.45,1.68c0,.56.31,1.08,1.04,1.72l.48.42h7.71v1.95h-5.5l2.91,2.58c.98.87,1.54,1.27,2.18,1.27.37,0,.81-.1,1.29-.23l.54,1.89c-.79.21-1.39.31-2.04.31-1.29,0-2.2-.35-3.18-1.25ZM210.53,346.37c1.08,0,2.08-.27,2.99-.81l-3.34-3.05c-1.47.15-2.51.93-2.51,1.95,0,1.14,1.16,1.91,2.87,1.91Z"/>
    </g>
  </g>
  <g>
    <path class="cls-1" d="M381.55,215.09c-.91.11-5.42-.56-5.63-.37l-.07.91c-.56.03-.88-.04-1.18-.53l.32-.29-.42-.48-1.39.21.24.94c-.78.02-1.21-.04-1.64-.72-.35-.12-.45.28-.93.24-.47-.03-.53-.46-1.05-.38l.25.94c-.34-.07-.77.02-1.07-.07-.1-.03-.77-.65-.87-.67-.71-.21-1.75.25-2.25-.61.27-.33.98-.01,1.38-.06.11-.02.19-.26.32-.29.58-.14,1.03.78,1.38-.21l-5.17-.35.26.78c-.5.52-.96.91-1.73.66-.16-.06-.4-.59-.57-.65-.48-.18-2.45-.02-2.58-.18l.04-.6-1.54.2c-.14-1.23,1.3-.11,1.73-.8l1.64.71c.1-1.47-1.62-.81-2.53-1.08-.96-.28-1.41.07-2.43-.16-.11-.02-.18-.3-.29-.32-.56-.11-1.33.02-1.83-.12-.29-.09-1.65-1.08-2.04-1.36-1.25-.87-2.56-2.02-3.78-3-2.3-1.85-4.46-3.91-6.15-6.36-.22-.33-.31-1.27-1.15-1.15l.05-.61c-.64.02-1.25-.67-1.14-1.29l-.61-.04c-.15-1.59-2.23-2.81-2.79-4-.45-.92-1.97-1.6-2.3-2.29-.59-1.24-2.97-3.21-4.14-4.39-1.06-1.09-6.37-7.01-6.85-7.18-.26-.09-.66.02-.91-.07-.22-.08-1.88-2.87-2.82-3.54-.21-.16-.48-.32-.74-.5-.38-.28-.78-.08-1.04-.53-.26-.01-.23.59-.2.76.03.12.84,1.14.98,1.44.66.11.75.9,1.63.71-.1.45.56,1.76.95,1.89.32.12.89-.03,1.22.09.29.1,1.17,1.49,1.56,1.78l-.33.58.22,1.09,1.11-.53c.45.51.56,1.11,1.11,1.59.07.06.25-.02.3.02.48.45,1.32,1.43.08,1.23l.09.93c.37.35-.09.41-.32.29-.29-.17-.8-.98-1.14-1.3-4.61-4.35-8.88-9.4-13.8-13.14-.12-.09-.76-.27-.89-.36-.13-.1-.8-.74-.55-.96.36.55.85.37,1.36.24.41-.1.31.14.45.18.29.07.67-.02.91.07.17.06.59.76.86.97.84.68,1.09.49,1.71,1.64.22.39.67.29.88.67,1.39-.97-.81-2.72-1.81-2.86l.04-.61c-1.93-.67-3.88-1.94-5.77-2.82l-1.08.23.06-.91c-.75.04-1.4-.19-1.94-.74l-1.84.18-.57-.65-.64.26-.42-.48s-7.72-1.07-7.65.26c-.52-.12-.82.42-1.39.21-.26-.09-.41-.56-1.21-.08,0,0-3.12-.14-4.28.02-.7.1-2.34.86-3.12,1.01-.21.04-1.39.21-1.39.21-.41.02-.82.16-1.08.23-.65.21-1.26.56-1.88.79-1.16.45-3.13,1.2-4.1,1.87-1.68,1.17-2.86,2.89-4.52,3.68-1.49.71-11.31,10.9-15.53,15.11-1.4,1.4-4.7,6.05-5.47,7.31-.87,1.43-4.74,3.18-5.4,5.01-.1.3-2.56,2.28-2.93,2.86-1.25,1.88-4.91,4.13-5.59,6.04-.34.96-7.89,6.86-8.92,7.81l-.62.27c-1.67,1.95-4.56,3.18-9.67,5.31-.24.1-1.07.82-1.29,1.14l.7.81.78-.26c.18.6-.59.78-.68,1.02-.25.72.2,1.07.22,1.24.04.32-.08.72-.07,1.07.72.12,1.59,0,2.28.14.23.06.95.85,1.52.1l1.02.68c-.06-.56.4-.98.98-.85l-.07.91c.91.45,1.44-.45,1.72-.5.46-.09,1.57.02,1.81.42.76-.57,2.23-.77,2.77-.42l1.56-.51c.38.56,1.16.32,1.81.42l1.16-1.29c-.48-.39-.13-.45.2-.76.32.06.06.53.1.78.07.26.56.59.89.51l.17-2.58c.44-.5,1.33-.82,1.33-1.58l.56.79c-1.37.99-1.07,1.14-.47,2.41.17.35.08.91.87.82-.12-.5.46-.66.37-1.05-.03-.16-.45-.29-.25-.78.46.22,1.43-.27,1.57-.66.09-.25-.02-.65.06-.91.03-.11.3-.17.32-.28.26-1.17-.31-2.5.97-3.14.25-.12.6.3.5-.58l.6.19c.11.75-.52.99-1.01,1.46.5.43.17,1.19.18,1.85l-.74,1.93c.47.12.84-.21,1.1-.53.22-.26.17-.42.18-.45.16-.2.6-.43.66-.57.12-.37-.01-1.57.11-1.67l.9.06-.37,1.05c-.02.26.58.23.75.2.54-.11.57-1.04.56-1.49l.89.37c.07-.33-.01-.76.08-1.06.02-.11.28-.17.32-.29.21-.58-.23-.85-.25-.94-.09-.76.21-1.77.17-2.58.38-.39.59,0,.58.5-.01.6-.14,1.25-.12,1.83.01.11.28.21.29.32.01.52-.42,2.89.27,2.92l1.35-2.05c.18.32.54.45.89.37.46-.1,2.42-2.34,3.09-2.7l.38-3.5c.58.45.38.81.37,1.4-.01.76-.12,1.53-.14,2.28,1.1-.15.51-2.14.77-2.4l.74.36c.21-.29,1.06-.78,1.14-.99.19-.53.02-1.16.98-1.01l.53-1.18c.65.43.29.91.37,1.39.02.12.28.21.29.33.08.84-.55,1.96.78,2.03-.06-1.09.33-2.45.23-3.5-.01-.11-.29-.21-.29-.32.82-.98.85-2.42,1.16-3.59.08-.31,0-.72.07-1.06l.87.67.4-1.35-.55-.96.82-1.01.27.62.5-.72c-.43-.28-.18-.62-.24-.94-.02-.12-.27-.21-.28-.32-.06-.5.13-1.14.11-1.67l.74.36.49-.43c-.37-.37-.32-1.95-.14-2.45.07-.19.79-.58.97-.85.34-.48.29-1.34.88-1.63.14-.07.39.09.44.03l.45-2.11.91.06c.27-.53-.23-1.02-.23-1.08.01-.1.29-.17.32-.29.07-.19-.02-.42.04-.61.08-.21,1.05-.8,1.29-1.13.1-.12.28-.77.37-.9.18-.24.59-.45.81-.7l.39,1.09.59.19c-.17-.65.94-1.36,1.03-1.62.16-.43.19-1.55-.18-1.84l1.17-1.61c.67.55.13,1.65,1.27,1.62.27-.55-.32-1.09-.21-1.39.04-.12.29-.17.32-.29.09-.29,0-.72.07-1.06,1.68.45,1.79-1.04,2.73-1.96l1.35.4-.26-.79c.72-.65,1.68-.76,2.51-.9l.09.92.54-1.18c.51-.13.59.29.75.35.79.3,1.55-1.1,2.51-1.05l.72.66-.96.55c.53.06,1.08-.17.89.51l.54,1.11c-.05-.78.38-1.76-.16-2.31.04-.58,2.07-.38,2.62-.29.27.05,1.14.43,1.69.63-.39,1.17-1.68,2.03-2.08,2.82-.19.35-.2.93-.37,1.32l-.87-.24c-.19-.31,1.11-1.95-.11-1.92.09.57-.54.86-.58.94-.64,1.47-1.09,4-1.73,5.22-.45.89-2.27,1.69-2.13,3.21-.39.39-1.07.19-1.41.57-.41.45.32.66.61.65l.19-.08c.31-.17.75-.6,1.09-.53l-.04.13,2.13-.82.23-.88-1.64.82c-.42-.6.75-.8,1.09-1.12.45-.43.46-1.01.69-1.4.13-.21,1.51-.77,1.88-1.08.23-.19.37-.88,1.08-.5.18-1.16.99-1.81,1.14-3,.19-1.62.63-2.41,1.36-3.96.99.13,2.03-.22,2.59.77.57-.1,1.4-.1,2.13.14.09.03.8.88,1.15.99l.77.06.06-.91,1.81.42-.53,1.18-.7-.96c-.24.58.49.85.54,1.1.13.62-.33.8-.36.89-.18.69-.19,1.4-.45,2.12-.07.16-.59.4-.65.57-.34.97-.51,2.63-.86,3.61-.04.14-.5.37-.65.57l.23,1.08.91.06c-.2-.56.33-.89.38-1.04.1-.36-.03-.9.08-1.23.09-.25.86-.39.69-1.17-.03-.13-.29-.22-.29-.32.01-.07.49-.27.36-.75l1.54-.2c-.16-.49.45-1.37.87-1.47.29-.07.63.2.92-.24.69-.16.49.81.39,1.09-.26.71-.89.06-.92.1.19.95-.6,1.06-1.03,1.6-.22.3-.48,1.18-.7,1.48-.12.16-.36.27-.49.42l-.76-.04c.19.57-.36.96-.38,1.05-.1.49-.02,1.19-.07,1.73l.87-.23c.01-.18.02-.37.06-.52l.64-.41c-.11.32-.08.74.28.67.04,0,.09-.01.13-.03.75-.3.46-1.4.56-1.49l.91.07c-.27-.8.61-1.08.7-1.34.22-.64.23-1.09.59-1.94.17-.43.25-.76.22-1.21.85-.1.6.3.56.96,1.13-.02,2.65,1.2,2.27,2.44-.02.11-.25.16-.32.28-.04.1.02.26-.01.31-.33.46-.94.38-1.28.82l-.43,1.96c.21,0,.4-.02.56-.1.62-.23.85-.93.78-1.64l.74.35c.91-.58.06-1.72,1.49-1.73-.01-.55.18-.85-.38-1.25-.07-.06-.25.02-.3-.02-.61-.49-1.67-2.13-.2-1.54.38.14,1.24,1.39.94,1.89.61-.16,1.54.65,1.76,1.18.29.74-.87.32-.95.4-.19.53.2,1.32.67,1.57.41.23.46,0,.4-.31-.06-.37-.25-.85-.18-.9l1.23.09c.05.06-.1.3-.03.46.23.48,1.9,2.21,2.42,2.75,3.35,3.56,7.21,7.36,10.58,10.78.8.81,1.48,1.76,2.27,2.58l-.07-1.23.46.03,3.73,3.61c1.41.36,1.73,1.52,1.49,2.84,1.24-.27,1.3.65,1.92,1.05.13.09.4-.03.46.03.06.06-.1.3-.03.46.35.71,1.92,1.53,2.01,1.96.07.32.01,1.49.2,1.69l.6.04-.03.6c.67-.1.86.66,1.3,1l.5-.58c0,.25-.18.5.11.62.36.16.97.28,1.19.39.3.13,1.45,1.33,1.36.23-.08-1.09-1.01-.59-1.29-1.15-.3-.18.26-.58.34-.59,1.21-.25,1.72,1.18,2.83,1.1.15.97-.61.51-1.25.52l-.1,1.37c.26.6.8.4,1.04.52.49.26,1.79,1.58,2.03,1.66.28.1.74,0,1.07.08l.19-.6.38,1.25c.88.19.86-.75,1.45-1.13l.39,1.09c-.02.27.57.23.75.2.61-.11.61-1.06.26-1.5,1.48-.07.96.66,1.13,1.45.02.11.55,1.06.69,1.11.34.12.71.04.92-.24l.88.67c.65-.67,1.06-1.03,2.04-.78l-.22-1.39.84-1.01,1.07.07c-.19.29-.33.66-.52.89-.38.46-1.18.56-.38,1.19l1.08-.23.68-1.03-.26-.78c1.26.62,1.92-.67,2.34-.76.53-.12,1.34-.07,1.02.68-.98-.26-1.56.87-2.5.75l-.08,1.21c1.17,0,1.87-.97,2.71-1.65l.4.94-.66.57,1.39-.21.29.32.51-.88-.6-.19,1.28-.84-.14-.16.21-.9c.39-.07.81.01.58.49-.15.33-.57.17.1.77l1.72-.49c.11.1-1.72,1.48-.6,2.09l1.46-1.28-.52-1.25.81-.71,2.34-.77-.08,1.23-1.22-.09c.03.49-.28.58-.38,1.05-.26,1.17,1-.07,1.07-.08.27-.06.66.11.91.06.17-.03.3-.45.78-.26l-.18-1.84,1.19.38-.67.88c1.15.32.76-.31,1.43-.82l1.34.7.02-.46.62-.11.11.61,1.16-1.29-.28-.48,1.19.38-.25-.78.18-.45.21-.9c.9-.2.59.92.98,1.29.6-.57,1.33-.85,1.19-1.76.7.33,1.01.1,1.83.12l.03-.61.91.07-.18-1.85.52,1.26,1.85-.18.08-1.23c.72.68,1.09-.4,1.59-.96l-1.22-.23.37-.89c.47.02,1.28-.27,1.57-.66.73-.99,1.56-1.38,1.97-2.02.47-.72-2.41-1.25-2.52-1.24ZM246.85,221.62l-1.27.68c.88-1-.26-3.3,1.44-3.26l-.17,2.58ZM281.64,180.54c-.04.12-.43.18-.35.59.03.16.45.29.26.78l-2.15.16.1-1.52,1.19.38.4-1.49-1.2-.23.09-1.37c.89-.22.47.79,1,.98.94.33,1.63-1.29,2.22-1.07l.66,1.57-.9-.21-.75-.21c-.77.39-.4,1.06-.57,1.65ZM298.48,184.55l-.89-.36.24,1.08-.5.74c-.23-.48-.61-.27-.89-.37-.17-.07-.41-.59-.57-.65-.37-.13-1.57,0-1.67-.11l.05-.91c-.77-.13-1.48.43-2.31.16-.16-.07-.4-.6-.57-.66-1.29-.45-4.66-1.11-5.74-.99-.86.1-1.27-.36-1.49-.4-.62-.12-1.35-.03-1.98-.13l.47-2.41,1,.98.32-.28.59.33,1.11-.69-.51-1.56.99-1,.08,3.36c-.54-.12-1.01.23-.97.86.86.22,1.19-.07,1.86-.49l.4.95.19-.6.91.06.06-.91.91.07.57.65-.21-1.39.41-1.65,1.2.39c-.13.76.41,1.05,1.15.99l.04-.61c.64.1,1.36.01,1.97.13.26.04,1.01.28,1.5.4.12.03.24.49.75.36l-.14,2.13c-1.23-.36-.34,1.08.07,1.23.28.1.74,0,1.07.08l.54-1.19v2.44ZM342.99,204.6c-.87.06-1.4-.23-2.12-.45,0,0-1.87-1.92-2.56-2.76-.97-1.2-2.12-2.99-3.09-4.18-.99-1.23-4.05-4.13-4.55-5.19-.42-.9-1.44-1.05-1.73-1.64-.38-.78-.33-.36-1.01-.84-.62-.43-.68-1.28-1.26-1.76l.57-1.64,3.58,3.74c.08.36.72.5.72.5l.4.95c.79-.12,2.85,2.14,3.18,2.81.51,1.09,2.47,2.54,3.41,3.89.05.08-.07.24-.02.31.75,1.01,1.51,2.19,2.23,3.2.85,1.18,2.03,1.45,2.25,3.05.24-.02.02.18,0,0Z"/>
    <path class="cls-1" d="M288.66,189.86c.16-.8.05-1.76.17-2.58l-.96.7c-.59.8-.27,1.82-.49,2.71-.14.59-2.25,3.79-2.75,4.71-.54.97-.56,1.38-.61,1.91l1.43-.32c.47-1.29,1.01-2.53,1.17-3.9,1.48-.95,1.38-1.53,1.73-2.94.02-.11.3-.17.32-.28Z"/>
    <path class="cls-1" d="M289.68,192.98c-.17-1.05-.32-.67.12-1.83.21-.53-.43-1.06-.19-1.69l-.66.72c.19.64-.3.97-.39,1.2-.22.58.24.85.24.93.07.59-.16,1.35-.13,1.98.83.14,1.12-.6,1-1.31Z"/>
    <path class="cls-1" d="M280.42,193.66l-.4-.89c-.02.59-.25.64-.56.94-.51.48-2.48,2.74-2.8,3.35-.37.71-.51,1.74-.98,2.43-.54-.25-1.06.06-1.12.64l.58.16c-.02.12-.05.24-.08.36l1.3-.98c.22-.66.49-1.4.73-1.85.16-.32.8-.93.98-1.31.56-1.19,1.02-1.43,1.6-2.42.08-.13.58-.26.76-.43Z"/>
    <path class="cls-1" d="M190.93,153.2c.17-.41.27-.82.54-1.19l-1.34,1.75c.69.16.58-.03.8-.56Z"/>
    <path class="cls-1" d="M290.45,195.18c-.49,1.35-1.26,1.97-1.61,3.03l.79.29c0-.06,0-.11.01-.17l1.48.7c.07-.68-.22-1.1-.88-.67l.06-.76c.89-.6.53-1.72.77-2.4.08-.25.85-.42.68-1.03-.08-.1-1.25.86-1.29.99Z"/>
    <path class="cls-1" d="M298.5,198.01c.03-.09.04-.19.03-.31-.3-.04-.5.03-.66.17l.62.14Z"/>
    <path class="cls-1" d="M304.45,195.94l.05-.61c-.2,0-.41-.04-.61-.03.01.2-.03.4-.04.6l.61.04Z"/>
    <path class="cls-1" d="M270.63,199.35l-.57-.79c.1.58-.12.68-.37,1.04-.4.57-1.9,3.18-2.09,3.83-.22.77-.15,1.81-.48,2.57-.58-.13-1.03.27-.97.85l.6.04c0,.12,0,.25-.01.37l1.08-1.21c.09-.69.2-1.47.34-1.96.09-.35.6-1.07.7-1.48.31-1.28.71-1.6,1.09-2.68.05-.15.51-.37.66-.57Z"/>
    <path class="cls-1" d="M324.38,137.88c.13-.45-.09-.63-.4-.94l-.76-.05c.04.41.89,1.23,1.16.99Z"/>
    <path class="cls-1" d="M293.36,181.16c-.55-.96-1.55-.66-2.55-.78-.23.97.34,1.46,1.29,1.31.14-.02.3-.45.78-.25l-.04.61,1.84-.03-.69-1.11-.63.26Z"/>
    <path class="cls-1" d="M348.88,150.8l-1.39-2.08c-.14-1.03-.75-1.68-1.69-2.1-.21.71.09.8.38,1.25.55.86,1.14,1.39,1.68,2.25.23.36.55.74,1.02.68Z"/>
    <path class="cls-1" d="M344.33,145.77c.27.5.66.56,1.19.54-.29-.52-.17-.9-.52-1.41-.34-.5-.6-.57-1.19-.54-.18.58.31.74.54,1.11.04.06-.06.22-.02.3Z"/>
    <path class="cls-1" d="M326.66,133.45c.21.07.64.9.85.97.25.09.66-.03.91.06.76.26,1.22,1.46,2.53,1.08l.4.94,1.65.41.22,1.24c1.05-.17,1.08.29,1.63.72,1.28,1,1.84,2.39,3.47,2.98.44.16.74,2.19,2.18,1.67.14,1.46,2.35,2.38,2.5,3.83l.61.04c1.44,3.17,4.55,5.89,6.12,9.11.2.41.39.98.84,1.13l.13-1.98c-.29-.62-1.18-.83-1.44-1.32-1.24-2.28-3.19-4.57-4.75-6.73-2.32-3.21-4.34-4.77-7-7.34-.28-.27-1.81-1.97-1.85-2.11-.08-.37.29-.52.51-.73l1.46,1.01c.6,1.18,1.17,1.33,2.01,1.97.55.42.66,1.22,1.61,1.02-.2-1.47-1.99-1.55-2.57-2.77-.32-.67-.49-.6-1.3-1.15-.07-.05-.18-.04-.3-.02l-1.44-1.32-.69,1.18c-.55,0-1.08,0-1.34-.55-.07-.15.08-.4.03-.46-2.01-.84-3.84-2.51-5.71-3.74-.57-.38-1.28-.51-1.79-.73-.17-.07-.23-.48-.74-.35l-.37,1.04c.47.94,1.01.66,1.62.87Z"/>
    <path class="cls-1" d="M331.07,133.74c.09-.52.09-.91-.38-1.25-.07-.05-.24.03-.3-.02-.38-.31-.7-.76-1.16-.99-1.99-1.03-4.24-2.19-6.21-3.16-.23-.11-.68.12-.89-.36l-1.94-.74.98,1.29c2.76.86,5.87,2.54,8.58,4.23.25.15,1.25,1.06,1.31,1Z"/>
    <path class="cls-1" d="M351.65,146.37c1.25.92,1.39,2.75,2.38,3.38.37.24,1.15,1.44,1.02,1.88l2.32,2.89c-.24-.28-1.51-4.18-1.55-4.22-.04-.04-.56.07-.88-.52-.18-.33-.83-2.28-.91-2.37-.48-.55-.78-1.22-1.51-2.19-.21-.28-1.5-.73-1.83-.45.35.45.58,1.31.96,1.59Z"/>
    <path class="cls-1" d="M343.76,138.67c.1.47-.17,1.28-.12,1.83l.86.82,3.16,2.96c.5.05,1.25.45,1.47.86,1.89,3.45,7.41,10.12,7.65,13.64.03.41.12.98.58.5l-.11-2.91c-1.33-1.91-2.35-4.19-3.57-6.04-.98-1.47-2.31-3.41-3.35-4.8-.4-.54-.89-1.04-1.36-1.55l-3.74-4.44c.15-.74-.74-1.16-1.11-1.75-.16-.26-.07-.95-.86-.82l.04-.61-.76-.05c-.26-.02-.24.59-.2.75.07.32,1.36,1.32,1.42,1.62Z"/>
    <path class="cls-1" d="M374.28,182.57l.84,1.13-.05-1.53-1.66-2.55c-.56.44-.65.43-.22,1.05.44.65,1.32,1.06,1.1,1.91Z"/>
    <path class="cls-1" d="M365.8,176.82c.03.17.53.48.57.65.11.54-.37,1.23.35,1.7l1.1-.54c.13.5-.32.61-.35.74-.28.97.58,1.76,1.06,2.51.3.48.78,1.47,1.1,1.91.37.51.91,1.11,1.43,1.47.1-.94-.73-2.02.33-2.73l.18,1.85.69-1.18c.13.4.71.32.74.35.02.02-.08.28.11.62.24.43.62.36,1.04.37.08-.45.05-.78-.07-1.23-.29-1.08-1.36-2.65-2.4-2.91l.06-.91-.61-.04c.03-.14-.03-.33.03-.46.45-.9.14-.43.06-.91-.13-.86.06-1.9-.12-2.76l-.43-.49c-.12.16-.44.3-.49.43-.1.3.14.95-.22,1.05l-1.06-2.51-.51.73c.83.55.28,1.31.79,1.89l.17,2,.97-.85-.37,3.34-.36-1.55-.91-.06c.2-.48-.24-.66-.25-.78-.04-.38.13-.86.08-1.22-.04-.29-.72-.95-.52-1.41l-1.47-.86c.25-.55-.03-2.86-.89-2.66-1.05.25,0,1.41.04,1.68.11.75-.02,2.06.12,2.76Z"/>
    <path class="cls-1" d="M357.22,163.42c-.2.58.44,1.06.19,1.69l-.61-.04c-.31.92.45,1.13.8,1.73.18.31.37,1.15.51,1.56.91.63.93,1.75,1.36,2.53.19.34.47.57.88.52l-.14-2.45,1.12,1.6-.16-2.15-1.24.22c.16-.67-.04-.97-.52-1.41l.35-.74-1.85.18.24-3.65c-.32-.12-.86.15-.94.4Z"/>
    <path class="cls-1" d="M351.09,154.46l.51,1.56,1.72,1.79c.28-.76-1.03-1.78-1.09-2.06-.05-.26.11-.65.06-.91-.1-.51-1.35-.96-1.44-1.32-.13-.5.16-1.15-.84-1.13-.33.99.71,1.4,1.09,2.06Z"/>
    <path class="cls-1" d="M316.76,124.2l.96-2.99-.91-.06-1.01,1.46.7-1.33c-.18-.49-.77-.55-.91-.06-.22.74-.07,1.66.31,2.31l.87.67Z"/>
    <path class="cls-1" d="M313.13,121.37c.15.8-.58,2.44,1.24,2.07.54-.11.68-1.49.59-1.95-.12-.57-1.35-.99-1.91-1.2-.95.55.02.73.08,1.07Z"/>
    <path class="cls-1" d="M312.18,121.92l-.54-1.1.65-.57c-1.59-.21-1.72,1.09-1.68,2.33.76.21,1.08-.19,1.57-.66Z"/>
    <path class="cls-1" d="M318.28,124.3c.63.21,1.45.05,1.43-.82.61.03.28.58-.05.76l.41.79,1.85-.18.8-.56-.39,1.2,1.04.37,1.73-.8-.19.6c.67-.07,1.13.32,1,.98l1.81.43.38-1.2c-.83-.23-1.3-.69-2.13-.14l-.22-1.24c-.6.18-.86-.31-1.04-.37-1.32-.49-2.83-.91-4.18-1.5-.43-.19-1.27-.75-1.77-1.03-.67-.39-.36.9-.83,1.01l.26.63c.06.27-.65.83.08,1.07Z"/>
    <path class="cls-1" d="M330.35,128.92l.43.49,1.24-.22c.28.7.91.54,1.18.69,2.72,1.51,4.92,3.52,7.28,5.37.16.12.27.35.43.49l.91.06-1.85-2.11c-3.21-2.22-6.47-5-9.96-6.46-.17-.07-.23-.48-.74-.35l-.08,1.22,1.22.08-.05.76Z"/>
    <path class="cls-1" d="M266.99,203.4c.11-.46-.02-1.09.1-1.53.04-.15,1.3-2.53,1.39-2.65.14-.2.59-.41.66-.57.18-.47-.21-1.24-.69-1.11-.48.11-.66,1.25-.87,1.62-.61.57-.1,1.76-1.34,1.59l-.03.61c-.66-.07-1.13-.2-1.55.36l.26.62c-1.03.9-.82,2.24-1.13,3.29-.07.21-.52.94-.71,1.48-.15.39-.82.08-1.32,1.44-.14.4-1.04.41-1.28.84.07,1.3-.68,2.3-.55,3.63.01.14.04.32.09.51l2.94-2.27c.14-.67.32-1.34.58-1.97.13-.33-.08-.76.52-1.04l.7.96c.09-.64.01-1.36.13-1.97.1-.56.6-1.81.77-2.4.08-.31,0-.72.07-1.06l.89.36c-.13-.49.32-.62.36-.74Z"/>
    <path class="cls-1" d="M342.94,143.69c.21-.78-.33-1.57-1.12-1.6-.08.06.64,1.57,1.12,1.6Z"/>
    <path class="cls-1" d="M275.35,197.07c-.06-1.17.61-1.97.52-3.16-.13-1.66.16-2.52.58-4.24.12-.48.5-.77.4-1.35l-.97.7c.32,1.52-1.18,2.86-1.47,3.88-.12.38-.01.95-.1,1.37l-.9-.07c-.25-.27.7-2.13-.49-1.86.2.55-.36.95-.38,1.04-.33,1.57-.28,4.13-.67,5.46-.27.96-1.89,2.1-1.46,3.56-.3.46-1.01.4-1.27.84-.31.52.45.58.72.51l.17-.11c.27-.22.61-.74.96-.74v.13s1.92-1.23,1.92-1.23l.06-.91-1.45,1.13c-.53-.5.58-.94.85-1.32.36-.51.26-1.08.4-1.5.09-.23,1.33-1.05,1.63-1.43.19-.23.19-.94.96-.7Z"/>
    <path class="cls-1" d="M257.66,102.58l.11-.08s-.06-.01-.11.08Z"/>
    <path class="cls-1" d="M205.23,128.63c.14-.94-.03-2.62.22-3.35.08-.24.85-.42.68-1.02l-1.31,1.29c.05.74-.1,1.08-.71,1.48l.26.63.17,2c.66-.13.6-.51.68-1.02Z"/>
    <path class="cls-1" d="M213.28,120.15c.35-.17.76-.76,1.13-.99l-1.05-.22-1.44.97-.05.76c-.59.03-1.39-.47-1.26.53.66.15,1.82-.07,2.18-.62.09-.14-.03-.4.03-.46.06-.05.31.1.46.03Z"/>
    <path class="cls-1" d="M224.25,129.74c.58-.1,1.13.11,1.13-.84-.63-.36-2.65.88-2.23,1.38.47-.15.52-.44,1.1-.54Z"/>
    <path class="cls-1" d="M250.66,104.6c.68.2,1.07-.19,1.69-.19l-.14-2.45c-1.39-.33-.05,1.47-.43,1.8l-1.08.23-.26-.63-.52.88c.5-.13.61.32.74.35Z"/>
    <path class="cls-1" d="M192.77,150.72c.11-.32,1.17-.63,1-1.31-.76-.21-1.08.19-1.57.66l-.15,2.28c.97-.19.53-1.1.72-1.63Z"/>
    <path class="cls-1" d="M220.45,129.48c-.1-.74.46-1.5,1.32-1.44-.7-1.53-2.15-.12-1.91,1.1l-.65.57,1.24-.22Z"/>
    <polygon class="cls-1" points="183.2 147.65 183.2 147.79 183.8 147.84 183.84 147.23 183.2 147.65"/>
    <path class="cls-1" d="M323.37,132.31c.58.22.8-.76,1.14-.99l-.4-.79c-.31-.11-.75.36-1.1.53.03.38-.17,1.04.37,1.25Z"/>
    <path class="cls-1" d="M256.97,101.65l.5-.58-1.48-.71c-.19.81.56.85.98,1.29Z"/>
    <path class="cls-1" d="M218.14,90.99v-.13c.06-.5-.05-.97-.15-1.43-.1-.43-.2-.87-.18-1.33.04-1.13.49-2.09.92-3.02.64-1.39,1.25-2.71.32-4.39l-.09-.17.19.04c1.08.24,1.27-.21,1.55-.91.13-.32.28-.68.54-1.02-.19-.27-.36-.4-.52-.41,0,0-.01,0-.02,0-.22,0-.44.24-.66.5-.25.27-.52.59-.88.68l-.11.03v-.12c.1-1.27.21-2.84-1.15-3.42.16,2.66-1.75,6.3-1.75,6.3l-.02.08-.7,3.32-1.67,3.33-.05.09v-.36c0-1.13.27-2.23.53-3.3.11-.44.23-.94.32-1.42.16-.81.31-1.62.47-2.45,0-.04.02-.09.02-.13v-.09s.02,0,.02,0c.1-.51.19-.98.27-1.43h0s2.97-11.78,2.97-11.78l5.14-5.01.15-1.51h1.66l3.3-3.15,3.74-3.28s2.51-1.69,3.82-2.03c.33.21.64.41.95.41h.02c.07,0,.11-.18.15-.33.04-.18.08-.35.2-.42.21-.14.41-.21.61-.27.45-.15.87-.29,1.25-1.15l.03-.06,1.7.38c.53-1.22,1.39-1.32,2.38-1.32h.26c.29,0,.62,0,.92-.07.26-.05.46-.28.67-.51.23-.26.46-.52.81-.63,1.45-.45,6.05-.89,7.53-.95.05,0,.1,0,.15,0,.79,0,1.67.23,2.6.47,1.31.34,2.66.69,3.88.44l-2.72-1.81h.27c.67-.03,2.98-.04,4.49.66.39.18.56.33.54.5-.03.22-.38.31-.74.38-.03,0-.08.02-.1.02-.2.34-.25.61-.15.82.25.51,1.35.63,2.32.73.48.05.93.1,1.24.19,1.95.59,5.5,1.87,7.27,2.99.34.22.62.5.89.77.24.24.49.5.78.69.16.11.44.14.68.17.25.03.46.05.55.16.11.12.12.38.14.71.02.34.04.73.17,1.01.24.52.88.97,1.2.86.26-.08.25-.48.19-.8l-.02-.14.13.04c1.09.35.88,1.02.68,1.67-.09.28-.18.57-.19.86-.07,1.9-.05,3.05,1.32,4.61l.17.2-.38,1.77c-.42-.09-.41-1.92-.91-1.63,0,0-.79,3.51-.69,5.11.01.23.03.43.04.61.02.35.14.72.26,1.08.13.4.26.78.23,1.09-.03.26-.3.36-.6.47-.21.08-.43.16-.55.3-.22.24-.32.56-.42.87-.1.3-.19.58-.38.79-.21.23-.59.42-1,.62-.38.18-.8.39-1.11.65l-.29.24c-.24.23-.41.44-.46.6-.1.35.03.89-.08,1.21-.02.07-.97.9-1.14.99-.68.39-1.83.9-2.51,1.06-.06.01-.8.66-.81.71l.52,1.25c.22.94-1.33,1.16-1.06,2.23,0,0-.33.45-.66.71l-1.27.68c-.03.79-.81,1.33-1.6,1.13l.28.47-2.86,1.65.23,1.08-1.67-.11c-.75.58-.95,1.42-.93,2.38l-1.15-.99c.5.72.07,1.08-.56,1.49-.39.26-1.14.66-1.58.81-.31.42-1.21.11-1.43.67-.16.45.74.95.55,1.1l-1.55.2-.51.89-.11-.62-1.24.22c-.11,1.16-1.89,1.05-2.58,2.12l-.02.31c.67.57-.06,1-.11,1.67l-.68-1.27-.65.57-.59-.35-.51.89-.61-.04-.03.61c-.58-.16-.85.33-1.27.68l.23,1.08c-.61.04-.98-.45-.86-.97h-.14c-.35.22-.63.62-.98.84-.79.5-1.99,1.2-2.96,1.03l-.04.61c-.7.1-1.33.35-2.15.17l.56.79-.92.65h0s0,0,0,0l-.66.47s0,.04,0,.06l-2.61,2.06-2.88.39c-.32-.04-.77-.07-.93-.03-.08.01-.63.41-.34.59l.41.63-.6-.04c.07.89-.16,1.3-.88,1.78-.07.03-.23-.07-.31-.02-.62.38-1.35,1.13-2.05,1.08.03,1.4-.13,2.03-1.65,1.73l-.03.61c-.14-.03-.33.03-.46-.03-.12-.06-.18-.28-.29-.32-.8-.3-1.56.96-2.23,1.38-.71.45-1.81.6-2.51,1.06-.4.24-.74.71-1.13.99h0s-2.98,1.18-2.98,1.18h0c-.5.28-.5.89-.99,1.16-.3.16-.7.43-.95.55-.15.07-.4-.08-.46-.03-.06.05.05.3-.03.46-.06.13-.29.18-.32.28-.21.71.22,1.1.19,1.69-.58-.23-.76.4-1.11.54-.74.29-.42-.91-.07-1.23l-1.22-.08-.04.61c-.57-.16-.84.34-1.27.68l-.37,1.04-.86-.82.37-1.04c-.32-.41-2.47,1.4-.38,1.2-.37.76.45,1.13.52,1.41.05.2-.07.48-.05.7l-.15-.03c-.32-.25-.8-.89-1.06-.15-.2.58.18.89.53,1.26-.34.56-1.75.92-1.93,1.4-.35.94.22.66.41.79.2.14.33.35.45.49l-.72.77c-.1-.06-.26-.07-.42-.08-.81-.1-1.74-.6-2.42-.47-.24.04-.52.78-1.1.53.68-1.08,2.96-1.25,1.57-2.95-.46-.17-.92.67-1.27.84-.16.07-.4-.09-.46-.03-.07.06.06.32-.03.46-.09.14-1.66,1.52-1.78,1.56-1.05.41.1-1.14.24-1.36.04-.08-.03-.23.01-.3.31-.42.94-.52,1.43-.67.33-.1.13-.62.21-.9-.77-.28-1.78,1.02-2.06,1.08-.62.13-1.49-.35-2.03.63-.37.68.74.26.56.8-.78-.16-1.19.81-1.75,1.1-.23.12-1.04.2-1.08.23-.1.09-1.01,1.74-1.06,2.07-.82-.19-1.51.49-2.2.93l.9.06.17-.15c.54.49.41,1.4,1.29,1.31l-.09,1.21-.57-.65-.6-.04c-.02.77-.8,1.33-1.6,1.11l.1-1.52c-1.52-.45-1.69.39-2.66,1.05-.07.04-.23-.07-.3-.02-.68.45-1.42,1.06-2.09,1.54l.51,1.56c-.61.68-1.33,1.16-1.53-.1l.4-1.35-.67.88-1.69.19-.44-.33-.43,1.81c-1.02.08-2.13,1.33-2.28,2.3l-1.24.22-.04.6-.94.4-.02.3c.78.48-.29,1.76-.13,1.98l.86.97c-1.13.12-1.31-.8-1.74-1.49,1.24-1.4-.58-1.24-.89-.36-.5,1.38-.4.79-1.76,1.26-.18.06-.4-.09-.46-.03-.07.06.06.31-.03.46-.43.67-1.53,1.26-1.37,2.19l-1.19-.38-.09,1.37c-1.72,1.92-4.19,3.56-5.27,5.76-.08.16.02.39-.03.46-.41-.46-.93-.12-1.25.38-.09.13.03.4-.03.46-.06.04-.3-.11-.46-.03-.87.41-1.26,1.73-1.54,2.5-.07.19-.78.58-.97.85-.63.92-.4,1.96-1.54,2.5-.96.46-1.91,2.3-2.21,3.22,0,0-1.24,3.29-1.24,4.96l-.02.3c-.55.7-1.13,1.48-1.07,2.37l-.49.42-.71-.8,1.01-1.46c-.5-.58-1.04-.91-.8-1.74,1.28.43,1.31-2.35.29-2.12-.56.12-1.45,1.39-1.2,2.06l-.94.39-.18,2.58c-.56-.04-1.64-.25-1.85.33-.07.19.02.43-.04.61-.74,1.88-1.81,3.61-2.49,5.34-.24.62-.75,1.88-1.08,2.37-.19.27-.9.66-.97.85-.19.56-.04,1.73-.16,2.44-.02.1-.31.17-.34.28-.14,1.04-.44,3.99-.31,4.87,0,.05-.63,5.13.18,9.06.97,4.74,3.4,8.51,3.39,8.96.65.02,1.16-.04,1.49.56.5.92,1.16,1.64,1.66,2.56.27.49.88.49,1.16.99.04.78-.51,2.95.25,3.22.89.32,2.41,1.25,2.44,2.3l.61.04c.51,1.38,2.53,2.67,3.89,3.62.45.31.9,1.09,1.61,1.03l-.03.6c.49.22.98.49,1.47.76,0,0,4.98,4.37,5.66,4.6.12.04,3.88-.19,4.74-.15l.72.24c0-.38.06-.89.23-.97.43-.03.1.8.34,1.15l.61-.22c.12-.21.38-.23.58-.33l.66,1.19c.79-.08,1.3-1.23,1.47-1.95.05,0,.1,0,.14,0l.19.27,1.31.18.64-.62s.11.02.17.06l-.07.63.24.16c.1.08.18.14.26.18h0s0,0,0,0c.15.06.29-.02.48-.52-.06.86.46,1.02.63.73l.3.49c.74.78,1.04-.54,1.46-.95l.83.53c.08-.81-.58-.44-.54-1.38.42.07,1.15,1.54,1.28,1.52.64.45.25-1.38.71-1.43l.13.02.36.2c.29.34.83.16.56.02.65.42.8-.19,1.43.04l.2-.79s0,0,0,0h0s.13-.97.13-.97l.39.86s.02.04.02.05v.03s.6,1.17.6,1.17l1.21.63,1.38-.64.1-.04h0s.68-.64.68-.64l.03-.03v-.04s.28-1.78.28-1.78l.89-.37.7.83c.04.07.09.13.14.17l.17-.29c.26-.06.69.66.87.05-.46-.68-.4-.48-.38-1.34l.48.59c.2.12.33.11.44.04h.02s.01-.01.01-.01c.05-.04.09-.09.12-.16l.17-.21.72-.9,1.14.5.64-1.21s.05-.08.07-.13l.02-.05.65-.17,3.05-1.34v-.02s.08,0,.09-.07l.41-1.82c.1-.12.2-.23.3-.32l1.45.2.95-.23h0c.07,0,.12-.02.15-.07h0l.58-1,.9-1.17.51-.09c.07.07.12.12.18.16l.18.16.09-.03s0,0,0,0h0s.55-.16.55-.16c.07-.08.1-.17.12-.27v-.02s.02-.11.02-.11c0-.03,0-.06,0-.09v-.02s.14-1.41.14-1.41l1.51.41,3.09-1.73.07.03.48-.33,1.35-.95c.18-.08.35-.18.48-.34l2.62-1.84s1.34-.38.45-1.81c.22.12.68.45.66.67.42-.24.49-.95.58-1.54,0-.02,0-.03,0-.05l1.16-.62.37-.27.28-.33c.23-.03.34-.15.39-.32h.01s0-.02,0-.02c.1-.42-.21-1.15-.31-1.73l.29-.27h.01c.91.73,1.59.62,1.95.56l.14.15c.58-.41.47-1.29.46-2.14l.48-.8h.01c1.17.25,1.53-1.04,2.68-1.05-.2-.06-.49-.43-.66-.72l.45-.44c1.03.8,1.09.25,1.36.03l.28-1.11c.8-.37.88-1.6,2.29-.7h0s.54-.45.54-.45c.6-.27.91-.4,1.28-1.11l.08-.23s.04-.07.04-.11h0s0-.03,0-.04l.03-.76c.39-.43,1.31-.32,1.49-.92h.01s.33-.1.33-.1c.16-.14.75-.2.8-.54h0s0-.1-.01-.15l-.06-.67c.04-.12.03-.3.01-.49h0s0-.05,0-.05c-.03-.25-.08-.52-.11-.73h0s1.29-1.25,1.29-1.25l.33.6,2.28-2.16c.12-.09.18-.15.2-.19l.13-.12c.08-.06.15-.13.21-.2l.49-.46,1.15-4.25h0c.16.22.2.45.31.37l.47.54.86-.5.04-.03c.16-.1.31-.23.46-.38h0s0,0,0,0c.31-.32.61-.74.91-1.19l2.27-2.98s.02-.01.03-.02l1.37-.21.29-.59.03.04-.02-.07.59-1.18c.28.13.57.27.79.29h0c.12.01.22-.02.28-.11l2.65-1.03,4.36-2.43c0-.08.02-.16.04-.25.03-.11.29-.17.32-.28.09-.37-.03-.9.08-1.21l.12-.15c.26-.3.88-.96,1.04-1.15.24-.28.6-.34.51-.85h0s.24.91.24.91l.63-.42c-.29-.78-.09-.55.07-.91.07-.17-.02-.39.03-.46l.44.33.33-.27h0c.07-.06.13-.11.14-.15.02-.06.04-.15.05-.24l1.37-2.72c-.03,1.2,1.3.72,1.51.1.09-.24-.02-.65.06-.9.06-.16.57-.46.38-1.05l.91.06c-.08-1.3.34-1.66,1.62-1.42h0s0,0,0,0l1.87-.63,1.27-.43c.02-.07.02-.15,0-.26l.24.18.6-.2.07-.07-.24-.94c.8-.66.82-1.63,1.08-2.37.03-.11.68-.98.82-1.01.19-.03.42.08.61.04.12-.02.22-.29.32-.29.07.01.27.49.75.36l.35.37c3.17-2.62,7.42-5.41,9.22-6.16.55-.23,1.12-.38,1.71-.5l-.15-.47.51-.72.71.66-.23-1.08c.08-.57,2.62-1.03,2.92-.27l.94-.25,1.35.39.11,1.45c.24.01.48.03.72.04.13-.46,0-1.04-.23-1.45.97-.32,1.35.62,1.63.72.6.21.85-.23.94-.25.5-.06,1.14.13,1.67.11-.12.66.33,1.05,1,.98l.96-.55c.78.97,2.33.74,3.59,1.15,1.39.46,3.36,1.39,4.75,2.15.22.12.66.56.87.67.49.26,1.14.3,1.48.7l-.37-1.24.76.04.42.49-.37.89,2.63,1.85-.33.19c.38.23.76.48,1.13.73l.16-1.47.69.96.26,1.24,1.68,1.21c.11.09.22.18.34.26l4.2,3.58c.02-.17.05-.35.01-.51l.9.21-.37.82,4.77,5.11,2.02,2.13h-.02c.24.24.48.49.72.74l4.38,4.75,1.83,2.48,1.66,2.22c.06.27.8.55.55,1.1l.55.8.22.51c.2.33.41.65.62.98l2.12,3.16c.37.51.77,1,1.16,1.49.09-.12.09-.27-.05-.53l1.16.99-.44.39c.13.15.25.3.38.45.09.05.19.07.29.09l.06.05h.72l.91.06c-.52,1.67,1.31,2.01,1.94,3.03.06.1-.02.47.4.79.92.68.57.8.7.96.03.03.65.09.89.37l.19-.6c.85.7,1.72,1.19,2.83,1.1-.3.98.61,1.49,1.43,1.63-.18.81.98,1.56.89.36l1.17.69.03-.46.62-.11-.2.6,1.34.7c-.07-.55.37-.98.97-.86.12.51-.45.65-.38,1.05.06.29.59.38-.07,1.06.6.13,1.04-.3.97-.85l.91.06.08,1.23.88-1.77.91.07c-.13.94.61,1.04,1.46,1l-.71,1.48,1.57-.66.08-1.21.49-.42,1.67.11c-.65.74-.19.94.36,1.55l.84-1.01c-.89-1.62.49-1.12,1.24-.22l-.36.73.78-.26.74.36-.36.89.91.07h0s.54-.1.54-.1l-.22-1.44.12-.57h.03c.43.05.78.11,1.09-.02h.02l.02-.02c.13-.06.26-.16.38-.31h0s0-.01,0-.01l.02-.29.03-.47,1.52.1-.69,1.18h0s0,0,0,0l1.83.12c-.04-.26.05-.43.16-.6l.2-.3c.14.03.33-.03.45.02.29.13.41.84,1.03.68l-.49.58c-.74.14-1.88-.47-2.45.14l-.31-.02c-.55-.78-1.38.16-2.27-.14-.28.88.6.81,1.04.37l.89.37.63-.27.85.98.52-.89c.12-.11,1.81.22,2.27.16.21-.03,1.17-.79,1.41-.52l-.04.61c.91.11,1.15-1.14,2.2-.77l.06-.91c.6-.19.88.31,1.05.37.39.14.51-.25.62-.26.29-.04.66.11.91.06.27-.06.55-.8,1.1-.53l.04-.61,1.35.4c.46-.47,1.45-.55,1.88-.79.49-.29.78-1.03,1.44-.82l.11-1.83.57.65c.58.25.87-.17,1.09-.23.31-.09.75.18,1.09-.38l.39-1.35.42.64c.59-.56,1.31-.85,1.18-1.76l.99-1.15.9.21c-.14-.56.27-.7.37-.89l-1.2-1.45-2.18-.45c-1.05.21-.36,1.35-3.09.4-.39-.13-.5.25-.62.27-.43.07-1.86-.23-1.98-.13l-.51.88-1.67-.11.04-.6-1.85.18.06-.91c-.1-.12-2.08-.04-2.59-.17-.11-.02-1.05-.66-1.17-.69-.31-.08-.74,0-1.07-.07l-.08,1.21-.91-.06.38-1.05c-.36-.31-.65-.87-1-1.14-.93-.71-2.96-1.35-3.03-2.64l-.76-.06-.42-.48.36-.9-.88-.51-.14,2.28c.24.25.45.59.7.81.85.72,2.11,1.18,3.09,1.88.46.32.98.02,1.2.38-.85,1.01-1.01-.11-1.36-.25-.98-.33-1.87-.74-2.85-.79-.01-1.54-2.13-1.09-1.95-2.89-.85.22-.96-.49-1.33-.69-.59-.33-.46.63-.81.7.43.29.18.64.24.94.03.17.8.72,1.01.84.14.08.41-.03.6.03.08.03.96,1.04,1,1.14.13.36-.16.61-.49.42-.23-.12-.74-.77-1.16-.99-.14-.08-.41.03-.6-.03-.49-.18-1.3-1.75-1.55-2.09-.97-1.37-3.05-1.95-3.1-3.87-.79-.93-.82-2.05-2.33-1.84-.1-.56.94.01.66-.71-.18-.48-.72-.58-1.18-.55.12-1,.2-2.02-.58-2.79l-.29,1.97.21,1.38-.88-.51c.08-.39-.01-.86.08-1.21.36-1.4.03-1.19-.13-2.45-.06-.36.1-.84.08-1.23l-.42-.48-.64.26c-.69-.53-.31-1.35-.31-2.15-1.82-.11-1.3.83-.74,1.94.47.93.98,1.72,1.34,2.83.04.13.26.21.28.32l-.04.77-1.09.23-.74-.36c.24-.98-.12-1.38-.78-2.04.6-1.46.28-1.2-.17-2.15-.08-.17-.17-.8-.24-.94-.22-.38-.72-.74-.99-1.14l.37,1.4.06,1.38c-.58-.88-1.2-2.06-1.16-3.13-.87-.22-.49.2-.65.41-.22.32-.56.5-.94.39.07.38-.06.84-.5.58-.52-.3-.53-1.49-1.09-1.91l-.39,1.2,1.81,2.72-.02.46.6.03c-.01.95.94,1.77.73,2.8l-.9-.21-.07,1.07-.82-1.44.93-.09-.23-1.24-.64.42-.61.11-.58-2.8-.55,1.19-.6-.04c-.2.49.2.6.26.78.04.18-.09.41-.04.61.02.1,1,1.44,1.11,1.6.31.41,1.66,1.73,1.71,1.94.21.96-.08.94.67,1.43.41.26.85,1.1,1.28,1.46l.04,1.68c-.57-.82-1.64-1.63-2.13-2.44-.54-.87-1.01-1.38-1.85-2.11-.38-.32-1.91-3.38-2.03-3.96-.11-.47-1.6-.64-1.11-1.75-.88-.32-.46.71-1.27.84.13-.53-.39-1.04-.52-1.41-.26-.77-.22-2.37-1.37-2.38-.33-2.07-1.94-2.26-2.44-4.59-.06-.22-1.34-1.65-1.74-1.48l-.17-2.15,1.11-.55c.66.56.28.64-.22,1.06l.69,1.11.92-.25c.26.1,1.34,1.73,1.55,2.09.17.28.81,1.19.82,1.27.23,1.06.12,1.53.94,2.05.95.61,1.53,2.5,2.07,3.34.19.3.95,1.23,1.3,1.16.77-.39.19-.71.2-.75.04-.14.5-.29.36-.89-.02-.12-.23-.2-.28-.33-.06-.17.08-.39.03-.46-.26-.28-.51.41-.85-1.13-.04-.21-.8-.75-.85-.97-.08-.38.21-1.55.1-1.67l-.9-.06.2,1.54c-1.38-.82-1.11-2.28-.98-3.73-1.17-.11-1.2-1.21-1.38-2.07-.06-.24-.59-.55-.81-1.58-.07-.31-1.28-.74-1.43-1.63-.06-.39.12-.94.09-1.37l-.94.4-.11,1.67-.58-.5c-.07-.62.26-1.58.13-2.13-.03-.17-.52-.47-.57-.65-.09-.42-.1-1.11-.2-1.54-.07-.29-1.4-1.47-1.71-1.95-.57-.93-.75-.68-.86-.81-.06-.07.1-.31.03-.46-.11-.22-.54-.49-.57-.66-.08-.29-.02-1.04.5-.72.6.36.21,1.04.67,1.42l-.03.46c.24.06.57-.02.77.06,1.05.38,5.63,7.78,6.27,9.11.38.8-.02.66.68,1.11.37.23,1.39,2.02,1.53,2.4.08.23-.21.67.24.94.13.8,1.17,1.34,1.07,2.36.32.43.58.07.64-.42.07-.55.14-1.28.12-1.82-.01-.11-.28-.21-.29-.33-.03-.52.12-1.13.11-1.67l-.61.11-.02.31-.62.11c.2-.48-.23-.67-.25-.78-.08-.7.4-1.45-.33-2.02l-.67.88c-.88-.03-.58-.81-.69-1.11-.14-.41-.48-.92-.82-1.28l.38-1.19-.42-.49-.62.27c-.56-.42-.42-.9-.36-1.55l-.61-.04c-.01-.81-.5-1.29-.96-1.59-.57-.36-.94-1.27-1.26-1.76l.37-1.05-1.08.23c-.17-.31-.95-.91-.99-1.14-.42-2.03-.43-.98-1.11-1.75-.04-.07.1-.31.03-.46-.18-.37-.76-.52-.53-1.1.58.51.94.13.95-.55l-1.1.53c-.27.06-1.17-.58-1.31-.86-.66-1.18-1.56-2.32-2.22-3.5-.36-.66-1.07-.68-1.62-.87-.14-.06-2.03-1.45-2.34-1.68-1.77-1.37-3.82-3.64-5.82-4.36-.21-.08-2.71-2.41-3.5-2.67-1.06-.38-1.63-.9-2.06-1.06-2.22-.81-4.13-1.78-6.25-2.55-.12-.04-.17-.29-.28-.32-.3-.09-1.69-.3-1.4.37.22.52.9.97,1.47.86-.07.62-.2,1.13.36,1.55l1.29-1.14c.62-.13.74.3.89.37.18.07.42-.03.61.04.4.13.88,1.52,1.59,1.33l-.36.74c-.11.29.19.63.41.79.03.03.64.35.75.2l.32-.28-.26-.78c.51-.13.6.31.75.35.27.09.66-.02.91.07.35.12,1.06.96,1.15.99.67.23,1.39.24,2.09.75.13.1.66.69.71.81.26.61-.54.41-.79.4-.36-.01-.71-.04-1.07-.07l-.57-.65-.08,1.21-.61-.03-.04.76-.49.42-2.24-.76.39-1.2.9.07-.08,1.21.91.07c.4-2.39-.49-1.57-1.86-1.96-.25-.07-1.2-.94-1.46-1.01-1.83-.52-3.69-.77-5.45-.67-.45.03-1.42-.02-1.83-.12-.12-.02-.24-.48-.75-.34l.04-.61c-1.65-.08-3.36-.42-4.66-1.23-1.77-.9-2.84-1.1-4.52-.9-1.65.19-2.09-1.38-3.59-1.16-.11.02-.2.26-.32.28l-.72-.5.41-1.65c.87.53,2.23.74,2.91-.12l.4.95.76.06.95-.56c.38-.08,1.14.91,2.1.76,1.65-.28.89.19,1.49.4.4.13,1.13-.03,1.53.1.25.08.42.85,1.03.68.34-.31-1.34-2.17.12-1.83-.03.37.11.76.23,1.08.09.27.02.57.4.79l1.61-1.11.41.65-1.27.82,2.13.14.13-2.13c-.49.13-.62-.32-.74-.36-.98-.25-2.31-.25-3.33-.52-.4-.11-1.14-.28-1.49-.41-.17-.06-.4-.58-.57-.65-.6-.21-.57.38-1.53-.1-.12-.06-.31,0-.46-.02-.1.62.26,1.44-.69,1.17.13-.76.12-1.21-.49-1.72l1.44-.97c.77-.12,1.08.36,1.19.38,1.01.22,2.38-.01,3.35.22.56.14.6.6,1.49.41.79-.18.92.6,1.18.68.69.25,2.03.19,3.02.51,1,.31,2.09.29,2.67,1.09l.31.02c.4-.49,1.07-.19,1.69-.2-.11.56-.08.89.37,1.25.31-.3.75-.36,1.11-.53-.02-.24.06-.51.04-.76-.3-.48-.82-.64-1.32-.86-1.09-.48-2.13-1.06-3.26-1.44-1.34-.43-2.71-.76-3.9-1.17-.11-.04-.98-.68-1.01-.84l.35-.58-.71-.81-.53,1.18-.76-.04-.42-.49.04-.76-2.11-.45c-.02.64.08,1.3-.71,1.48l.1-1.53-.91-.06-.03.61-.61-.04.04-.61.6.04.02-.3-1.06-.08c-.36.54-1.13.52-1.45.98-.2.29.27.65-.94.39l.42-1.81c-1.05.04-1.27,1.2-2.5.76l-.37-1.23v-.02s0,0,0,0h0s-.15.14-.15.14l-.65.57-.9.34-.59-.9h0l-1.11.2-1.06-1.21,1.92-.88.89-.11.72-.48.9.18-.18.9.98.51c.85-.47,1.4-2.06,2.34-2.32.58-.16.44.58.3.84-.14.24-.89.3-.81.92.78.34,1.19-.14,1.82-.56l.24.36.66-.95,2.45-.28c-.91-.3-1.97-1.22-3.82-1.4l-2.99.95c-.82-1.08-1.4-.24-2.21.17-.05.03-.15-.03-.23-.05l-.11-.1-4.11.63-3.59.2-4.54,1.72c-.12.69.14,1.55-.43,1.96l-1.72-.24c-.12-.05-.25-.07-.4-.06l-.69,1.18-.37-.87-.16-.38-1.02,1.62.23,1.08-1.19-.38c.2.58-.22.88-.5,1.11l-2.11,1.32h0s0,0,0,0l-.19-.36-.22-.43h0s-.17-.01-.17-.01h-.13s-.1-.78-.1-.78l-.46-.15-.14-.05c-.1.99-.96,1.29-1.82,1.12l-.08-.02-1.27.68c-.07-.2-.22-.31-.37-.36l-.02-.02h0c-.21-.04-.43.04-.52.31-.14.5-.01,1.27-.12,1.82h0s-.22.16-.22.16l-1.71,1.24-1.26.53h0c.46-.23.89-.83.22-1.06-.11-.04-.25-.04-.4-.02h0s0,0,0,0c-.9.11-2.24,1.18-2.02,2l-.61-.04s0,0,0,0h-2.16c-.08-.02-.18.02-.29.14l-.12,1.82h0c-.24-.03-.42-.03-.58-.02h0s-2.04.47-2.04.47h0s0,0,0,0c-1.05-.08-.19.71-.2.75-.04.14-.57.48-.37,1.04h0l.28.32-.64.42-.32.06-.3.05-.51-.89-.04-.07h0s-.91-.06-.91-.06l-.03.09s.02-.06.02-.09c-.6-.12-.8.16-.96.7-.3,1-1.03,1.73-.81,3-.43.21-.71.38-.91.56l-2.3,1.83h0c.06-.62.21-1.12-.36-1.55-.21.29-1.06.78-1.14.99-.09.27,0,.94-.52,1.04-.49.1-.9-.3-1.4.37-.04.06.03.21-.02.3-.07.13-.29.18-.32.29,0,0,0,0,0,0l-.67,1.02h0s0,0,0,0l-1.86.49c.04-.32.29-.2.19-.6-.16-.62.16-1.07-.7-.97.03.7-.33,1.53.18,2.01l-1.01,1.46c.5.35-.22.67-.09,1.37l-.52-1.26c-.09-.11-.56.29-.65.41-.35.51-.26,1.07-.4,1.5-.16.47-.98.97-.72,1.78l-.49.42-.76-.04-.42,1.8-1.2-.39c-.12.93-.68,1.48-1.64,1.73l.48-2.72.66-.57-1.59.97c0,.9-.94,1.4-.77,2.39.01.11.26.2.28.32l-.02.3c-.41.4-.72,1.08-1.01,1.46-.36.49-.52.16-.97.86-.42.65-1.14.8-1.87.63l-.09-.92c-.87.41-.21,1.76-1.06,2.07-.74.27-.16-.76-.72-.66l.08,1.23.46.03c.37.41-1.64,1.73-1.98,2.15-.04.05-.08.09-.12.14l-.68.74-.02.02c-.15.16-.31.33-.48.54l-.48.42c-.12.09-.24.18-.33.28l-.98-.35-.05-.02v.02c.11.49-.3.56-.35.72-.23.62-.38,1.7-.47,2.42l-.64.41-.45-2.47s0,.01,0,.02h0s-2.75,2.25-2.75,2.25c0,0,0,0,0,0-1.03.02-.82,1.05-.88,1.78l-1.03-.37h-.02s0,0,0,0h0s-.48.42-.48.42l-.41,1.5-.48.42-1.05-.37c.23,1.17-.86,1.36-.77,2.38l-1.84.19h0s0,0,0,0h0s-1.33,1.74-1.33,1.74h0l-.92.09-.72,1.63h0c.06-.41-.13-.67-.23-1.08-.09-.38.18-.91-.54-1.1h0s-.36.89-.36.89h0c-.32-.44-.58-.08-.64.42-.09.75-.08,1.53-.15,2.28h0s-.71.02-.71.02c-.1-.07-.2-.13-.35-.09-.02,0-.08.05-.15.11h0s-.07.06-.07.06c-.3.24-.8.67-1.06.92l-1.91,1.07h0c-.1-.16-.26-.19-.47.03,0,0,0,0,0,0l-1.31,1.44c-.33-.43-.58-.07-.64.42-.06.55-.06,1.12-.11,1.67l-.91-.06h0l-.06.97-.08,1.16h0l-6.56,4.45-.49.43-2.33,1.79-6.47,1.91h0c-.03-.26-.43-.46-.9-.6l-2.29-1.54-.42-3.29h0c.01-.16,1.24-2.23,1.1-2.83l.61.04c-.14-1.05,1.54-2.44,1.73-3.1.07-.24.09-.52.09-.81.18-.38.5-.75.76-.8.24-.05.47-.15.7-.27l.71.04c.03-.15.03-.32.03-.5.91-.66,1.71-1.55,2.32-1.84.15-.07.4-.29.49-.43.36-.55,1.1-1.14,1.05-2.07.77-.98,2.47-.96,3.18-1.93.23-.31.4-1.23.85-1.32.54-.11,1.05.27,1.56-.51l1.16.99c.71-.36.24-.96-.06-1.38v-.21c.23-.05.45-.13.74-.29.32-.18.39-.39.36-.75h0s.6.2.6.2l.25.78.42-1.66c.23-.11.43-.26.63-.43l.05.26,1.76-1.26c.15-.74.66-1.74,1.07-2.37.31-.49.68-.95,1.15-1.3l7.16-4.26c.75-.16,1.28-.61,1.74-1.07l.7.23c.55-.41.78-.97.87-1.57.09-.08.18-.17.23-.24.36-.55,1.1-1.14,1.05-2.07.48-.61,1.32-.83,2.06-1.15.34.18.71.1.87-.52.09-.08.18-.16.25-.26.23-.31.4-1.23.85-1.32.54-.11,1.05.27,1.56-.51l1.16.99c.71-.36.24-.96-.06-1.38l.02-.3c.27-.47.7-.79.99-1.16.47-.58.68-.67.99-1.16.15-.24.6-.46.81-.71l.22,1.24,1.76-1.26c.15-.74.66-1.74,1.07-2.37.31-.49.68-.95,1.16-1.3l4.12-2.46c0,.06,0,.12.02.19l.91.07c-.09-.27.06-.66.28-.98l1.06-.63c.98-.35.95-.86,1.75-1.25.16-.08.4.08.46.02.07-.04-.06-.31.03-.46.36-.55,1.1-1.14,1.06-2.06.77-.98,2.46-.96,3.17-1.93.23-.31.4-1.23.86-1.33.53-.11,1.05.27,1.56-.5l1.15.99c.71-.37.24-.96-.06-1.38l.02-.3c.27-.47.69-.79.99-1.16.47-.58.68-.67.99-1.16.16-.23.6-.46.81-.71l.22,1.24,1.76-1.25c.14-.73.67-1.75,1.07-2.37.25-.37.53-.71.85-1.01,2.01-1.11,3.94-2.39,5.97-3.34.3-.27.72-.65,1.07-.96l.43-.25v-.14s.02-.02.03-.03c0,0,.46-.34.89-.66l-.91.83,2.21-1.53c.32-.06.5-.21.58-.4l11.72-8.12,5.76-4.6,1.3-2.34c.74-.49,1.61-.92,2.16-1.65.32-.42.48-.95.67-1.41.6-.18,1.15-.49,1.46-1.06l.55-1.65c.97.12,3-1.52,3.25-2.36.1-.33.01-.81.06-1.17.01,0,.02.01.04.02-.01-.01-.02-.03-.03-.04,0-.06.01-.12.03-.17.02-.07.07-.14.14-.21.02.03.04.04.06.08.02-.07.03-.12.05-.18.63-.57,2.13-1.26,1.66-2.48,1.31.37,2.91-.91,2.9-2.22l1.83-2.83c.29-1.83,1.04-2,1.69-3.65h0c.89-2.24.86-6.02,1.16-7.15l.23-1.21c.22-3.71-.04-7.53-.75-11-1.24-6.05-3.24-9-6.99-12.95-4.72-4.99-13.14-9.23-19.39-11.23-.37-.12-.81-.13-1.28-.14-.5,0-1.02-.02-1.53-.16-.46-.12-.92-.4-1.42-.69-.51-.3-1.03-.6-1.57-.77-7.22-2.17-14.69-.66-21.28.68-9.46,1.92-14.62,4.97-21.78,9.2l-.1.06c-.49.29-.98.58-1.49.88-8.93,5.25-18.55,18.72-21.94,28.01-.51,1.4-.96,2.75-1.4,4.06-1.79,5.35-3.33,9.98-7.61,14.51-1.28,1.36-2.34,2.75-3.37,4.1-.76,1-1.55,2.04-2.41,3.03-.76.87-1.67,1.71-2.56,2.51-2.57,2.35-5.88,3.52-5.18,7.29.09.51.94,2.07,1.23,2.18.79.29,2.16-.85,3.07-1.6h0c.22-.19.41-.35.56-.46.23-.17.47-.25.69-.32.55-.18.92-.29.73-1.83v-.1s.09,0,.09,0c.07,0,.13,0,.2,0,1.48,0,2.63-.95,3.73-1.86.38-.31.73-.61,1.09-.86.95-.66,11.35-7.4,11.42-7.45.08-.06.43-.18,1.28-.47,1.14-.4,2.71-.94,3.4-1.31,1.52-.81,2.63-1.85,3.69-2.86.83-.78,1.62-1.52,2.51-2.05.61-.36,1.33-.57,2.03-.77.73-.21,1.49-.43,2.12-.82l-.03-1.59M218.11,91.29c.35.23.89.93.65,1.4l-.02.05h-1.02v-1.45s.02-.02.02-.02c.03-.04.14-.13.38.03M212.01,92.76c-.64,2.71-1,4.21-3.97,5.3l-.09.03-.02-.09c-.35-1.3.3-2.08.92-2.85.3-.36.58-.71.75-1.1.17-.39.24-.89.31-1.37.15-.98.3-1.99,1.17-2.34l.15-.06-.45,2.25,1.33-.23-.11.44ZM258.1,42.59c-.43.1-.48.08-.94.24-1.08.42-1.95.57-3.11.71-1.76.23-3.5.28-5.23.57-.53.1-1.05-.04-1.34-.55l1.25-.37c-.1-1.54.55-1.63,1.92-1.4,0,0,1.12-.36.98-.86.62.03,1.17-.04,1.49.56.11.23-.31.61.57.5l.07-.91c.74-.01,1.56.19,2.29.16.11-.01.2-.28.32-.29.77-.09,1.38.07,1.78.74l1.45-1.14-.4,1.51c-.07.06-.31-.1-.46-.03-.22.11-.49.54-.65.57ZM265.18,49.61l-.12.06v-.72l.12.06c.18.09.26.19.26.3s-.09.21-.26.3ZM277.42,54.48l-.05.05-.06-.04c-2-1.35-4.27-2.19-6.46-3-1.39-.51-2.82-1.04-4.18-1.7-.18-.08-.34-.11-.48-.13-.18-.03-.34-.06-.44-.19-.1-.15-.11-.4-.02-.84v-.06s.08,0,.08,0c.07,0,.14,0,.21,0,.88,0,1.48.41,2.01.77.28.19.54.37.81.47.66.24,1.35.44,2.03.63,1.1.32,2.24.64,3.3,1.17.03.02,3.22,1.65,3.37,2.56.02.13-.01.24-.1.33ZM278.84,47.94l-.43-.33-1.53-.1c-.06-.07.1-.31.03-.46-.35-.7-.86-.4-1.34-.55-.98-.3-1.43-.28-2.42-.47-.23-.04-1.55-.68-1.78-.72-.64-.12-1.63.03-2.13-.15-.17-.06-.4-.59-.57-.65-.2-.08-1.64-.4-1.81-.42-1.48-.26-3.21-.1-4.72-.31l-1.37-.09-2.26-.46,1.61-1.27.11-1.67c.8.59,1.9.36,2.88.49l.41.65-.63.26,1.17.69.63-.11.52-1.04c.21.48.66.26.89.37.37.17,1.07.96,1.16.99.3.1.67-.11.89.37l1.58-.81,1.14,1.29.94-.25,1.46,1.01,1.54-.2c.47.91,1.12.54,1.78.72.64.19,2.32,1.96,3.29,1.14l1.14,1.3c.68.37,1.74.91,2.36,1.37.66.49.8,1.09.64,1.88.5-.01,1.38.02,1.49.56.22,1.05.76,1.33.81,1.57.23,1.06.28,1.91,1.04,2.82l.47,2.17c-.24.26-.87-.61-.88-.67-.11-.55-.08-1.36-.18-1.85-.08-.39-.63-.95-.84-1.27-.04-.08.07-.25.02-.3-.48-.74-.89-.96-1.77-.89.31-.86-.8-.9-.86-.97-.06-.06.1-.3.03-.46-.18-.37-.76-.52-.54-1.1l-.78.26c-1.09-.78-2.06-1.73-3.21-2.35ZM153.94,174.43c-.3.62-.94,1.97-.79,2.7.04.22.72.51.55.95-.51.58-.67.49-1.23.08-.08.43,0,.95-.09,1.37-.02.11-.3.17-.32.28-.22,1.13.11,2.21-1.11,2.99l-.04.6.55.96c-.91.46-.53,1.1-.72,1.78-.03.1-.64.77-.67.87-.22.78.17,1.56-1.05,1.92l.48-2.56c.92-.61-.01-2.23.18-2.74.49-1.27.53-1.98.22-3.34l.74-1.94.6.2.58.49-.19-1.69c.52-.24.24-.79.38-1.19.17-.47,1.77-.96,1.36-2.05l1.3-1.29c.16.75-.49,1.17-.71,1.64ZM169.58,168.74l-.12,1.98-1.18-.69c-.09.41.03,1.01-.09,1.37-.09.26-.91.48-.69,1.17l-1.94,1.56.12-1.83.89.37c.25-.64-.39-1.15-.19-1.69.06-.16.52-.37.65-.57.45-.7,1-1.7,1.08-2.53l2.22-1.07-.75,1.93ZM200.82,153.7c-.22.48-.9.36-.94.4-.09.08-.41,1.47-1.3,1.14.19,1.46-1.68,1.46-1.99,2.46l-1.46,1.28-.04-1.68,2.53-1.21c-.13-.5.32-.62.36-.74.11-.46-.03-1.14.1-1.53.04-.13.49-.37.65-.57.06-.07-.03-.25.02-.3.22-.26.57-.46.81-.71l1.38-.21-.11,1.67ZM202.9,150.16c-.13.35-2.25,1.18-2.51.9-.08-.8,1.01-.93,1.02-1.6.39-.14.22-1.04.81-.71.36.2.85.94.67,1.42ZM241.29,114.67l-.91-.06c-.1-.72.8-.77.71-1.48l.3.02-.1,1.52ZM253.9,97.17l1.3,1-2.77.42.02-.3-.88-.51c.65-.64,1.47-.77,2.33-.61ZM243.12,103.18l.76.06-.02.3-1.08.23.34-.59ZM242.58,104.37l1.39-.22.28.32,1.78-1.56.07-1.06,1.23.08-.26-.78-.58-.5,2.06,1.2c.16,1.14-.26,1.18-.74,1.79-.06.07.03.25-.01.3-.37.43-2.59,2.11-2.6,2.27.57,1.08,1.79-.16,1.89-.95l.43.33.32-.28,1.03.68-.12-2.76.95-.39-.55-1.11,1.78.74c-.04-.42.12-1.1.55-1.19.19-.03.41.09.6.04.41-.09.97-1.33,2.04-.78l-.63.41c1.17,1.45,1.38-.32,2.03-.62.15-.08.38.08.46.02.44-.28.85-1.43,1.75-1.1.66.23.19,1.24.51,1.56.81-.45.07-.65.22-1.05.03-.12.27-.17.32-.29.12-.33-.08-.76.52-1.04l.91.07c.16.2-.23.7-.37.89-.3.43-.71.69-.85,1.32-.08.36,0,.66.42.49.05-.02.17-.08.3-.15l-1.97,1.44c.13.19-.29,2.27-1.81,3.46-.48.37-1.83,1.26-1.83,1.26l-.73,1.89-1.82,3.69-4.94,3.16c-.06-1.04,1.3-2.05,1.45-2.51.16-.43.06-.99.41-1.5.36-.52,1-.63,1.47-1,0,0,0,0,.01,0l.56-.17-.07-3.52c-.59-.07-.31.94-.4,1.35-.02.11-.3.17-.32.28-.07.33-.05.67-.06,1.01l-1.39.37c-.12-.5.47-.66.38-1.05-.02-.12-.27-.2-.28-.32-.07-.39.11-.94.09-1.37l-.91-.06.16,2.31-1.28.82.22,1.24-.69,1.18-.59-.35.59-1.95c-.6.41-.59,1.33-1.45,1.13.11,1.39-.34,1.81-1.53,2.35-.96-.82.03-1.56,0-2.45l.61.04c-.03-.57.04-.89.53-1.19l.11.62.61.03.51-.88.77.06.06-.91.61.03.11-1.82c-1,.11-1.35-.3-1.92-1.05-.59-.21-.81.22-.92.25-.28.04-.66-.11-.91-.07-.28.06-.86.56-1.11.69-.34.19-.57.14-.92.1l-.21-1.39c.75-.6,1.79-.7,1.65-1.87ZM237.94,112.3l1.06.08.07-.91c.33-.03.77.12,1.06.07.41-.09,1.96-1.78,1.84-2.32l1.21.08c-.13-.51.31-.6.36-.75.18-.59-.14-1.43,1-1.3l.23,1.08c-.39.29-.36.76-.84,1.01-.23.13-1.04.2-1.08.23-.07.06.06.32-.03.46-.13.2-.59.42-.65.57-.09.26.02.66-.07.91-.1.32-.82.84-.69,1.33-.67-.25-1.02.11-1.39.22-.21.06-.8.17-.94.23-.69.41-1.26,1.37-2.36,1.07-.33-.38.95-1.83,1.21-2.06ZM229.11,116.3c.37-.28.56-.69,1.1-.53.03.5-.03.95-.53,1.19-.22.1-.57-.31-.49.42l-1.26.68c-.12-.85.6-1.32,1.18-1.76ZM196.97,138.16c.56-.62,1.62-1.05,1.65-1.87l.91.06c.01-1.16.81-.69,1.43-.83.41-.08,1.03-.98.86-1.47l1.05.38s0,0,0,0h0s-.95,1.35-.95,1.35c-.52.25-.96.51-1.18.8-.09.12-.27.77-.37.89-.59.8-1.25.76-2.17.62l-.06.76c-.48.12-.14,1.39-.82,1.01-.61-.33-.38-1.15-.34-1.7ZM193.99,141.48l.39-1.19.6.03-.22-1.24,1.22.08c.28.79-.61,1.08-.69,1.34-.27.77.14,1.55-1.32,1.28l-.03.61-.89-.37c.01,1.33-.03,1.76-1.08,2.53-.33.23-.43.56-.95.39.03-.42-.04-.81.23-1.2.32-.47.98.04.81-.86-.23-.23-1.82.92-1.49-.41,1.24.14,2.27-.95,3.42-.99ZM190.84,136.08l.03,1.84c-.38.03-.55-.04-.75-.36l-.8.56,1.52-2.04ZM187.78,138.48l.95-.4-.06.77-.94.39.04-.76ZM188.04,141.4l.59.35c.68-.59,1.34-.9,1.19-1.91l3.02-1.79.09.93c-.56-.08-1.54.78-1.91,1.25-.28.35-.3,1.01-.86,1.33-.08.04-.23-.07-.3-.02-.29.18-.79.81-.97.85-.44.09-1.17-.16-1.68-.11l.82-.86ZM187.03,145.15c.71-.67,1.46-1.38,2.53-1.21l-1.61,1.27,1.34.55.37-.89c.38.4.5.38.25.94-.59,1.25-1.72,1.43-3.01,1.64l.39-1.36-.25-.92ZM185.57,148.87l-.85,1.17-1.99.17c.42-1.04,1.09-.67,1.73-.8.16-.03,1.03-.64,1.11-.54ZM178.99,151.33l-.2-1.54.69-1.33,1.05.37c.69-.52,1.24-1.18,1.2-2.05.55.27.99-.23,1.09-.23.51-.04,1.82.01,1.95.58.03.17.06.77-.21.76-.23.02-.6-.11-.76-.06-.03.01-.21.51-.49.58-.62.14-.86-.68-1.38.07l.59.33c.14.43-.59.65-.67.88-.14.39.02,1.08-.1,1.52-.04.16-.62.85-.84,1.01l-.37-1.39.4-1.35c-.92-.11-1.17.81-1.62,1.27l.49,1.86c-.54.25-.25.79-.39,1.19-.07.21-1.07.95-1.26.68.21-.87-.14-1.52-.16-2.29l.97-.86ZM178.09,160.29l-.95.39.51,1.57c-.36.55-.74.3-1.1.38-.3.07-2.17,1.76-1.83,2.33l-2.82,1.04.41-1.66c.65-.51,1.17-1.37,1.37-2.2l.57.65.64-.41-.18-2.01,1.05.38,1,.98c-.19-.35-.24-.88-.54-1.1-.31-.25-.82-.29-.86-.82l2.15-.16.03-.61c.74-.09,1.21.33,1.46,1.01l-.67.87-.26-.62ZM184.97,155.56l-.48.42c.5.43.16,1.18.18,1.84-.12.36-1.09.3-1.29,1.14-.12.5-.02,1.15-.11,1.68l-.22-1.39-.4-.79c-.45.47-.75.68-1.4.51l-.36.75.28.32c-.91.56-.96,2.17-2.27,2.14l1.01-1.62c-.5-.57.04-1.34-.79-1.88.13-.33.96-1.05.99-1.16.49-1.35,1.01-1.84,1.73-2.94.09-.13-.03-.4.03-.46.03-.03.71.08.94-.39l-.57-.65,1.11-.69c1.66,2.47,3.19-.36,4.69-1.53l3.81-2.19c.29.81,2.07-.22,2.33-.61.09-.13-.03-.4.03-.45.06-.06.3.1.46.02.56-.27.82-1.67,1.77-1.4l.08-1.23.91.07c-.12,1.03.97,1.38,1.2.23.07-.29-.01-.66.07-.91.07-.24.81-.82.69-1.33l.4.94c.59-.28.4-.69.52-1.04.06-.12,1.28-1.26,1.66-2.03.09-.16-.02-.4.03-.46,1.05.21,1.36-.27,1.3-1.28l-.59-.2c-.01.89-1.24,1.27-1.66,1.88l-.71,1.63c.1-.51-.02-1.2.11-1.67.03-.1.64-.77.67-.87.13-.47-.11-1.49.57-1.65.19-.03.41.09.6.04.29-.06,1.21-1.2,1.63-1.41l.09.91.91.07.08-1.21-.91-.07c.28-.23.33-.86.37-.89.18-.14.27.16.96-.7.58-.7,1.29-1.18,2.2-.93h0s.8-.55.8-.55h0s0,0,0,0c.22-.31.5-.23.79-.41.34-.21.65-.69.97-.85.27-.14.82-.3.91.06l-.37,1.04c-.85-.43-1.35.72-1.73.8-1.65.36-1.06.78-1.45,1.13-.04.04-.72-.08-.94.4.05.86-.48,1.95.29,2.62.83.19.44-1.14.57-1.64.03-.11.57-.47.37-1.04.62.1,1.32-.51,1.3-1.14.75.37,1.14-.46,1.41-.52.26-.05.65.11.91.06.65-.13.65-1.33.27-1.81l.94-.4.05-.76-.61-.04.04-.61,1.56-.51.43-1.81.11-.38c.19.44.75.56,1.26.47.13-.02.29-.45.78-.26l.06-.9,1.5.4.51-.88c.35.53,1.05.32,1.66.41.04-.88.89-1.34,1.75-1.1.75-1.02,1.36-1.62,2.69-1.36.16.65-.8.82-.7,1.34.08.33.67.61,1.04.52.28-.07.55-.8,1.1-.53l.07-.91,1.69-.2.48-.42.09-1.37-.59-.19c.4-.31.68-.84,1.26-.68l.56.95c-.29-1.76,2.05-1.78,1.76-3.54l.6.04c.19-.72-.42-1.27-.17-2.01.06-.17.65-.48.81-.71.57.64.45,1.49,1.59,1.34l.21-.9c-.17-.27-.23-.84-.56-.96-.22-.09-.74.13-.75-.2.84-.72,1.62-1.68,2.85-1.49-.04.43.04.81-.23,1.2-.42.6-1.45.9-.59,1.95l-.02.3c-.55.57-.89.86-1.72.66l-.84,1.01.61.03c.37.3.32,1.06.2,1.55-.02.1-.26.16-.32.28-.08.17.02.41-.03.46-.06.06-.3-.1-.46-.03-1.29.61-1.94,2.34-2.82,3.33l.28.48c-.66.01-1.78-.37-2.16.31-.19.35.04.59.42.49l.12.61-.91-.06-.04.6c-.62-.1-1.25.58-1.61,1.13,1.05.12,1.65.22,2.47-.46l-.08,1.23-1.89.94-.03.47-.92-.06h0s-.91-.06-.91-.06l-1.6,1.11-.61-.04-.61-.04-.94.4-1.57.66c-.58-.19-.73.32-1.1.55-.81.48-1.66,1.56-2.25,1.68-.27.06-.65-.12-.91-.07-.25.06-1.2,1.17-1.63,1.43-.58.35-1.66,1.01-1.91,1.09-.41.15-.9.67-1.4.52l-.86,1.47-1.07-.08c.04,1.04-.97,1.59-.79,2.7l-.6-.03c.19.57-.36.96-.38,1.05-.15.69.13,2.38-.62,2.55-.19.04-.45.03-.77.1-.4.09-.37-.09-.59-.35l.74-1.94.61.04c-.04-.27.4-1.87-.36-1.55-.68.28-.67,1.83-1.21,2.21.01.66-.32,1.4.18,1.85l-.94.39-.06-1.53c-.79.4-.21,1.93-1.49,1.74l.46-2.26,1.63-1.43.04-.76-.91-.06c.1.59-.32,1.21-.86,1.47-.81.38-.52.4-.85,1.31-.2.55-1.39.27-1.58.81-.1.27,0,.91-.54,1.04-.19.03-.41-.09-.6-.04-.66.14-1,1.28-.89,1.93l-.49.42-1.67-.11-.08,1.21c-.47-.21-1.43.27-1.57.67-.36.98-1.25,1.72-1.36,2.05-.09.25.02.66-.07.9-.26.75-1.59.08-2.02.64l-.61-.04-1-.98c-.27.55.32,1.08.21,1.39-.04.12-.29.17-.32.28-.11.38.21,1.15-.38,1.05-.01-.97.6-2.42-.75-2.5l-.41,1.5-1.99.18ZM230.83,175.85c.17-.68.02-1.57.16-2.28l.84,1.12-.1,1.53-.74,1.93-.19-1.69c-.57-.42-.01-.4.03-.6ZM206.42,203.25c.04-.12.27-.17.32-.29.09-.23.35-.84.36-.89.19-.75.09-1.88.19-2.73.06-.49.3-.86.64-.42-.1.64.61.95-.09,1.37l.22,1.24c-.62.51-.31,1.6-.47,2.42l-.79.4c-.34-.29-.56-.65-.38-1.09ZM207.19,209.78s.02-.05.02-.06c.07-.18-.03-.42.04-.6.04-.12.29-.18.32-.29.16-.62-.03-1.54.13-2.13.03-.11.29-.17.32-.28.14-.4-.23-.5-.26-.64-.06-.3.09-.72.07-1.06l1.24-.22-.7,1.33c.84.55.28,1.3.79,1.88l-.4,1.78c-.52.11-1.07.19-1.59.29ZM212.01,206.48c-.32.46-.5,1.16-1.38.73l.41.43c.23.57-.39-.12-.58-.14.31.35.49.28.61.61-.41.8-1.22,1.14-2.12,1.35l.78-.79.16-2.44.64-.41-.38,1.19c.75.21,1.06-.17,1.57-.66l.02-.3c-.45-.53-.23-1.68-.14-2.45.07-.59-.09-.98.55-1.35l.38,1.1-.5,3.12ZM234.38,177.61c-.62.69-1.72,1.29-2.27,1.98-.19.24-.19.95-.96.7l-.04.61-1.24.22-.54,1.18-.71-.8c.79-.52-.08-1.18.13-1.98l-.64.42c.08.78-.32,2.05-.19,2.73.04.22.81.76.86.98.09.43-.16,1.17-.11,1.67l-.86-.98-.08,1.23-1.05-.38-1.4.52c.03,1.18-.71,1.62-1.67,2.17-.1.69-.01,1.47-.14,2.13-.02.11-.29.18-.32.29-.09.37.01.85-.08,1.21-.03.12-.49.24-.36.75l-1.24.22c-.1.74-.02,1.56-.14,2.27-.16.86-.57,2.36-1.43,2.96.08.98-.08,1.72-.42,2.34-.18.06-.34.15-.44.29,0,.11.04.18.07.26-.12.15-.26.29-.4.42-.05-.06-.09-.13-.13-.24-.16.25-.27.44-.36.63-.27.19-.55.38-.87.55-.47.25-.42.6-.51.72-.41.56-1.19.38-1.73.65-.36.19-.75.76-1.13,1-.16.44.22.55.58.56.15,1.25-1.13.57-1.01,1.66-.29-.22-.53-.34-.72-.4.4-.23.61-.57.49-1.25-.16-.97-.21-1.91-.26-2.92l.21-.9-.94.23-.65.57c-.03-.89.55-1.56,1.2-2.05l.7.96c.38-1.2-.5-1.94-.41-3.09-1.08-.31-.51,1.04-.71,1.64l-.49.42-.76-.04-.23,3.5-.49.42-1.37-.09.37-.89-1.24.22c.08-.43,0-.96.09-1.37.04-.17.68-1.33.71-1.48.23-1.13-.4-2.82,1.38-2.51l-.7,1.48c.41-.32.76-.16,1.08-.23.8-.18.43-1.88.62-2.55.03-.11.66-.95.84-1.01.61-.27.41.53.4.79-.02.65-.44,1.57.52,1.4.13-.13.07-2.33.19-2.89.13-.62.74-1.46,1.06-2.07.28-.53.45-1.03.41-1.65l.56.8-.11,1.67-.61-.04v4.89s.62-.42.62-.42c.2-1.56.51-3.04.91-4.52.26-.96.64-2.33.82-3.3.11-.52.03-1.14.11-1.67l.91.06.14-2.13.6.04-.03.6.91.07-.43,1.8c-1.14-.16-1.08,1.28-1.65,1.87l-.14,2.28.69-1.18.6.04.34-.59c.13.86-.55,1.44-.46,2.26.01.12.29.22.29.32-.01.08-.81.68-.09,1.21l-.85,1.33-.06-1.54-.73-.36c-1.01.77-.9,1.99-.97,3.15l-.99,1.15.22,1.24-.33.43,1.19.39c.14-.13,0-1.83.16-2.28.09-.26.97-.53.69-1.33.51.1.48.5.57.8.14.51,1.45.08,1.26-.68l.61.03.16-2.43.95-.4-1.19-.53.07-.91.6.04c.2-.48-.23-.66-.24-.78-.08-.68.18-1.56.14-2.28.38-.39.59,0,.58.5-.01.56-.09,1.11-.11,1.67,1.31.3,1.44-.8,1.35-1.89-.01-.12-.27-.2-.28-.32-.06-.28.11-.66.06-.91-.03-.18-.54-.48-.57-.66-.07-.32.11-.84.08-1.21l.64-.41.2,1.69.56.8.18-2.74.57.65.95-.39c-.45-.29-.18-.63-.24-.94-.02-.11-.66-1.53-.79-1.88-.16-.42-.54-.9-.55-.96-.16-.74.51-1.2.43-1.95.96-.21.7.99.21,1.38.43.82.65.08,1.06.22l.57.65.52-1.03-.55-.96c.6-.49.61-1.1.72-1.78.08-.48-.22-1.23.52-1.04.77.6.22,1.55.31,2.31.01.12.26.2.28.33.07.31-.19.65.24.92l-.97.86c-.21.59.2.76.25.92.12.5-.16,1.16.84,1.13l-.48-2.02c.66-.46.57-1.19.74-1.78.03-.11.3-.17.32-.28.29-1.37.06-3.14.3-4.57l.63-.41.45,2.47.3-4.41c0-.07-.46-.47-.22-1.24.03-.13.48-.23.34-.74l.58.49-.39,5.93,1.35.4.81-.71c-.19-.59.58-1.11.7-1.48.09-.26-.02-.66.07-.91.04-.11.7-1,.82-1.01l.36,1.56.62-2.41-.1,3.81ZM269.33,143.41l1.2-2.06.11.61.8-.56.4.79-2.52,1.21ZM283.2,134.54l-.59-.35-.48.43-.06.76c-1.39-.28-1.69.21-1.63,1.57l-.88,1.63-.2-1.55-1.11.69c.74,1.01.8,1.88-.32,2.58l-1.39.21.98-.86.44-1.95-.57-.66c.68-.28.12-1.23-.39-1.09l-.79.41-.11,1.67c-.87.08-.45-.16-.58-.5-.07-.21-.43-.29-.24-.78l-.94.25.11.61.46.03c.07.68-.18.96-.7,1.33,1.47,1.26-.25,1.57-.45,2.12-.07.19.04.45-.03.6-.1.19-.48.23-.36.75l-.88-.52c.53-.33.32-1.04.41-1.65l1.21.08-.39-.94c-.51.37-1.1.62-1.72.49.27.39.25.81-.21.9-.29.06-.74-.09-1.07-.07l.08-1.21h0c.34.12.74.02,1.05-.19l1.39-.24h0c.08.01.19.01.34,0-.03-.42.15-.97.09-1.36-.16-.99.19-2.45-.07-3.68-.02-.07-.14-.19-.27-.31l.88-.08c-.08.67-.07,1.38.53,1.54h0s3.8.25,3.8.25h0s0,0,0,0l.28-1.97-.23-1.08,1.18.69-.09-.92,1.35.39-.27-.48h0l1.26-.53.5,1.71c1.14-.36.64-1.64.15-2.28h0s1.58-.52,1.58-.52c-.18.66-.36,1.35-.44,1.82-.17.83.19,1.78-.61,2.25ZM287.85,131.35c.09,1.17-.04,2.08.08,3.36.04.42-.1.92-.09,1.37-1.67.09-1.09-1.36-1.06-2.52l-1.27.68.41.79-.35.59-1.37-.09,1.02-1.62.09-1.37c.58.12,1.02-.27.97-.86l.45.33.48-.42c-.5-.66-.45-2.4.76-2.24.02.64-.18,1.36-.12,1.98ZM297.46,133.81l-.79.41-2.65-1.4-.53,1.19c-.55.01-1.15-.14-1.67-.11-.12,0-.21.28-.32.28-.54.02-1.65-.02-2.14-.13-.11-.03-.23-.49-.74-.36-.02-.45.13-.96.09-1.37-.01-.11-.26-.2-.28-.32-.14-.61.33-.81.36-.89.12-.5.02-1.15.11-1.67l.77.04c.26.02.23-.59.2-.75,0,0,0,0,0-.01l.33-.27c.17.4.14.9.22,1.23.06.28,1.07,1.03,1.14,1.3.08.36-.17.74.38,1.09.31-.42,1.24-.12,1.43-.67.22-.65-.02-1.15-.51-1.56.39-.41,1.06-.65,1-1.31h0s3.94.37,3.94.37c-.26.18-.23.57-.36.93-.07.17-.59.41-.66.57-.13.39.01,1.07-.1,1.53l.44.49.76.04-.4,1.35ZM358.23,175.71l.4-1.35.84,1.13.22,1.38-1.46-1.16ZM354.17,188.73c1,.79,1.87,1.83,2.89,2.64.11.09.76.27.89.37.18.12.8.87.7.96-1.02-.17-1.1-1.36-2.37-1.07l.81,1.58c-1.28-.28-2.03-1.07-1.68-2.41-.46-.33-1.32-1.43-1.76-1.04l.97,1.44-.49.58c.26-.64-.76-1.09-.82-1.43-.13-.67.39-1.58-.16-2.31.6-.11.69.42,1.02.68ZM362.25,198.12c-.42-.08-.98.02-1.37-.09-.32-.09-1.06-.96-1.16-.99-.52-.18-1.16.02-1.81-.42-.36-.24-.8-.85-.68-1.27l-.47.28-1.5-.4c-.62-.88-.86-1.02-1.75-1.34-.65-.23-.89-2.36-2.16-1.98.11-.9-1.08-1.37-1.38-2.23.6-.11.69.41,1.02.68.72.57,1.71,1.15,2.32,1.98l.62-.26c.6.69.98,1.23,1.73,1.64,1.55.85,3.01,2.06,4.71,2.75.18.08.51,0,.76.06l-.07.91c.64.09,1.45-.26,1.18.68ZM365.59,198.5c-.46.88-1.07-.01-1.37.07-.57.33-.55,1.3-1.45,1.13l.23-3.65.91.06-.1,1.53.76.04c.13.49,1.38.14,1.01.84Z"/>
    <path class="cls-1" d="M225.27,75.85c-.47.12-1.03,1.02-1.37,1.82-.26.62-.3.99-.27,1.1.4,0,.73-.15.99-.43.55-.59.7-1.67.65-2.5Z"/>
    <path class="cls-1" d="M257.77,69.62c-.93-.15-1.11.11-1.45.52-.07.08-.15.18-.25.29-.3.32-.65.62-.99.91-1.01.85-2.06,1.73-1.8,3.28l.03.19h.19c2.14-.05,3.11-2.09,3.96-3.89l-.2-.1.2.09c.15-.32.31-.66.47-.96l.14-.27-.3-.05Z"/>
    <path class="cls-1" d="M233.89,76.55c1.44-.1,1.49-1.06,1.55-2.08.02-.37.04-.76.14-1.1.1-.36.38-.61.65-.84.36-.32.7-.62.61-1.15-.22-.08-.5,0-.82.2-1.18.76-2.56,3.12-2.57,3.5,0,.24.1.46.21.71.11.25.23.5.23.78Z"/>
    <path class="cls-1" d="M233.14,69.6c-.16-.01-.29-.02-.39-.02-.07,0-.12,0-.14.02-.02.02-.02.1-.03.19,0,.1-.02.24-.05.41-.03.15-.05.3-.08.44-.12.71-.25,1.44-.48,2.13-.09.26-.25.45-.41.63-.22.26-.43.5-.38.89,1.98-.88,2.6-2.28,2.08-4.69h-.14Z"/>
    <path class="cls-1" d="M228.71,75.64c.34-.38.81-.9.58-1.16-.04-.04-.09-.06-.17-.06-.07,0-.15.02-.23.05-.37.14-.77.55-.77,1.03,0,.22.1.46.2.72.14.35.28.7.26,1.09-.02.29-.22.56-.42.82-.2.26-.38.51-.33.71.04.14.19.27.46.39.13.06.24.06.32.01.26-.15.33-.78.39-1.33.05-.48.11-.92.27-1.12l-.08-.45-.77-.07s-.06-.05-.07-.09c-.02-.11.1-.25.35-.54h0Z"/>
    <path class="cls-1" d="M251.63,74.28c-.15-.12-.28-.19-.39-.21l-.26-.06v.27c-.06,1.08-.79,1.77-1.56,2.51-.78.74-1.59,1.5-1.57,2.7v.2s.21.01.21.01c.07,0,.12-.01.21,0,1.27,0,2.02-.88,2.68-1.66l-.17-.14.2.11c.12-.14.25-.29.37-.43.1-.11.28-.19.45-.26.2-.09.4-.17.52-.33.74-.99-.04-2.18-.7-2.7Z"/>
    <path class="cls-1" d="M223.06,82.69l.4-3.2-1.29.86v-.14c-.08-.78.16-1.54.39-2.28.41-1.31.77-2.44-.67-3.35.04.7.01,1.46-.02,2.26-.08,2.2-.16,4.47,1.18,5.84Z"/>
    <path class="cls-1" d="M227.9,76.71c-.5-.09-.86-.05-1.09.12-.31.23-.37.68-.43,1.12h0s-.04,0-.04,0h.04c-.05.36-.09.73-.27.99-.2.3-.55.35-.89.39-.29.04-.55.07-.68.27-.12.18-.12.49,0,.94,2.08-.5,2.69-2.04,3.38-3.83Z"/>
    <path class="cls-1" d="M245.67,79.58v.28c0,.75-.46.89-.99,1.06-.25.08-.5.16-.71.31-.45.32-.93.69-1.46,1.09-1.29.98-2.74,2.09-4.03,2.72-1.78.87-3.91,1.51-5.98,2.13-1.6.48-3.24.97-4.73,1.57l2.02-2.53.04-.09c.07-.33.08-.66.08-.98,0-.34,0-.7.1-1.02.02-.04.12-.2.22-.37,1.05-1.71,1.14-2.16.93-2.39-.2-.23-.63-.02-.77.05-.77.38-1.18,1.66-1.57,2.91-.27.84-.54,1.71-.92,2.25-.41.59-1.08,1.05-1.72,1.5-.98.68-2,1.38-2.28,2.59-1.51-.73-3.43-.71-5.72.08l-.13.04.15.42.13-.04s.09-.03.13-.04l1.45.56v.22s7.3-.1,7.3-.1l.1-.02c.39-.2.79-.42,1.21-.67.65-.37,1.31-.75,1.97-1.01.93-.37,1.8-.66,2.66-.94,1.95-.64,3.63-1.2,5.43-2.56.55-.42,1.41-.74,2.34-1.09,1.87-.71,3.99-1.51,4.13-3.38l1.55.02.23-2.26-1.17-.29ZM226.46,88.97l.33.33-.78.78-.33-.33.79-.78Z"/>
  </g>
</svg>