<svg width="18" height="18" viewBox="0 0 18 18" fill="none" xmlns="http://www.w3.org/2000/svg">
<g clip-path="url(#clip0_959_7076)">
<path d="M8.49962 1C6.44767 4.72292 3.72215 7.4479 0 9.5004C3.72251 11.5525 6.44767 14.2774 8.49962 18C10.553 14.2771 13.2778 11.5525 17 9.5004C13.2775 7.4479 10.5523 4.72292 8.49962 1ZM14.9375 9.13714H8.86291V3.06373C10.4914 5.53021 12.4705 7.50877 14.9375 9.13714ZM8.13709 3.06373V9.13714H2.0632C4.52953 7.50877 6.50858 5.52985 8.13709 3.06373ZM2.0632 9.86326H8.13709V15.9363C6.50858 13.4705 4.52953 11.492 2.0632 9.86326ZM8.86291 15.9367V9.86326H14.9375C12.4705 11.492 10.4921 13.4705 8.86291 15.9367Z" fill="white"/>
<path d="M8.49998 4C7.17279 6.40895 5.40903 8.17198 3 9.5002C5.40939 10.8281 7.17314 12.591 8.49998 15C9.82824 12.5907 11.5917 10.8277 14 9.5002C11.5913 8.17198 9.82824 6.40895 8.49998 4Z" fill="white"/>
<path d="M2.00045 9C1.72844 9.26415 1.52819 9.3641 1 9.50013C1.52865 9.63616 1.72844 9.73609 2.00045 10C2.27247 9.73585 2.47181 9.63593 3 9.50013C2.47181 9.36386 2.27247 9.26415 2.00045 9Z" fill="white"/>
<path d="M16.0005 9C15.7275 9.26391 15.5282 9.3641 15 9.50013C15.5287 9.63593 15.728 9.73609 16.0005 10C16.2725 9.73585 16.4718 9.63593 17 9.50013C16.4718 9.36386 16.2725 9.26415 16.0005 9Z" fill="white"/>
</g>
<defs>
<clipPath id="clip0_959_7076">
<rect width="18" height="18" fill="white"/>
</clipPath>
</defs>
</svg>
