<svg xmlns="http://www.w3.org/2000/svg" width="20" height="20" viewBox="0 0 20 20" fill="none">
  <path d="M12.4972 17.4962V10.831C12.4972 10.61 12.4094 10.3981 12.2532 10.2419C12.0969 10.0856 11.885 9.99785 11.6641 9.99785H8.33145C8.11048 9.99785 7.89856 10.0856 7.74232 10.2419C7.58607 10.3981 7.49829 10.61 7.49829 10.831V17.4962" stroke="#FBF6E6" stroke-width="1.16642" stroke-linecap="round" stroke-linejoin="round"/>
  <path d="M2.49951 8.33155C2.49945 8.08916 2.55228 7.84967 2.6543 7.6298C2.75632 7.40992 2.90509 7.21495 3.09022 7.05849L8.9223 2.0604C9.22305 1.80621 9.60412 1.66675 9.9979 1.66675C10.3917 1.66675 10.7727 1.80621 11.0735 2.0604L16.9056 7.05849C17.0907 7.21495 17.2395 7.40992 17.3415 7.6298C17.4435 7.84967 17.4963 8.08916 17.4963 8.33155V15.8299C17.4963 16.2719 17.3207 16.6957 17.0082 17.0082C16.6957 17.3207 16.2719 17.4962 15.83 17.4962H4.16582C3.72389 17.4962 3.30006 17.3207 2.98756 17.0082C2.67507 16.6957 2.49951 16.2719 2.49951 15.8299V8.33155Z" stroke="#FBF6E6" stroke-width="1.16642" stroke-linecap="round" stroke-linejoin="round"/>
</svg>