<svg width="18" height="18" viewBox="0 0 18 18" fill="none" xmlns="http://www.w3.org/2000/svg">
<g clip-path="url(#clip0_959_7113)">
<path d="M2.116 4.124C1.396 4.124 1 3.674 1 3.08C1 2.468 1.396 2 2.116 2C2.854 2 3.214 2.468 3.214 3.08C3.214 3.674 2.854 4.124 2.116 4.124Z" fill="white"/>
<path d="M6.62373 4.124C5.90373 4.124 5.50773 3.674 5.50773 3.08C5.50773 2.468 5.90373 2 6.62373 2C7.36173 2 7.72173 2.468 7.72173 3.08C7.72173 3.674 7.36173 4.124 6.62373 4.124Z" fill="white"/>
<path d="M11.1315 4.124C10.4115 4.124 10.0155 3.674 10.0155 3.08C10.0155 2.468 10.4115 2 11.1315 2C11.8695 2 12.2295 2.468 12.2295 3.08C12.2295 3.674 11.8695 4.124 11.1315 4.124Z" fill="white"/>
<path d="M15.6392 4.124C14.9192 4.124 14.5232 3.674 14.5232 3.08C14.5232 2.468 14.9192 2 15.6392 2C16.3772 2 16.7372 2.468 16.7372 3.08C16.7372 3.674 16.3772 4.124 15.6392 4.124Z" fill="white"/>
<path d="M2.116 10.124C1.396 10.124 1 9.674 1 9.08C1 8.468 1.396 8 2.116 8C2.854 8 3.214 8.468 3.214 9.08C3.214 9.674 2.854 10.124 2.116 10.124Z" fill="white"/>
<path d="M6.62373 10.124C5.90373 10.124 5.50773 9.674 5.50773 9.08C5.50773 8.468 5.90373 8 6.62373 8C7.36173 8 7.72173 8.468 7.72173 9.08C7.72173 9.674 7.36173 10.124 6.62373 10.124Z" fill="white"/>
<path d="M11.1315 10.124C10.4115 10.124 10.0155 9.674 10.0155 9.08C10.0155 8.468 10.4115 8 11.1315 8C11.8695 8 12.2295 8.468 12.2295 9.08C12.2295 9.674 11.8695 10.124 11.1315 10.124Z" fill="white"/>
<path d="M15.6392 10.124C14.9192 10.124 14.5232 9.674 14.5232 9.08C14.5232 8.468 14.9192 8 15.6392 8C16.3772 8 16.7372 8.468 16.7372 9.08C16.7372 9.674 16.3772 10.124 15.6392 10.124Z" fill="white"/>
<path d="M2.116 16.124C1.396 16.124 1 15.674 1 15.08C1 14.468 1.396 14 2.116 14C2.854 14 3.214 14.468 3.214 15.08C3.214 15.674 2.854 16.124 2.116 16.124Z" fill="white"/>
<path d="M6.62373 16.124C5.90373 16.124 5.50773 15.674 5.50773 15.08C5.50773 14.468 5.90373 14 6.62373 14C7.36173 14 7.72173 14.468 7.72173 15.08C7.72173 15.674 7.36173 16.124 6.62373 16.124Z" fill="white"/>
<path d="M11.1315 16.124C10.4115 16.124 10.0155 15.674 10.0155 15.08C10.0155 14.468 10.4115 14 11.1315 14C11.8695 14 12.2295 14.468 12.2295 15.08C12.2295 15.674 11.8695 16.124 11.1315 16.124Z" fill="white"/>
<path d="M15.6392 16.124C14.9192 16.124 14.5232 15.674 14.5232 15.08C14.5232 14.468 14.9192 14 15.6392 14C16.3772 14 16.7372 14.468 16.7372 15.08C16.7372 15.674 16.3772 16.124 15.6392 16.124Z" fill="white"/>
</g>
<defs>
<clipPath id="clip0_959_7113">
<rect width="18" height="18" fill="white"/>
</clipPath>
</defs>
</svg>
