<svg width="18" height="18" viewBox="0 0 18 18" fill="none" xmlns="http://www.w3.org/2000/svg">
<g clip-path="url(#clip0_959_7092)">
<path fill-rule="evenodd" clip-rule="evenodd" d="M8.99897 6.31706C8.55842 7.03918 8.00815 7.69468 7.52394 8.06638L7.44221 8.13244C6.75089 8.69502 5.83005 8.86576 4.97862 8.58979C4.16526 8.32557 3.57413 7.70756 3.3575 6.8942C3.34071 6.83039 3.3256 6.76602 3.31272 6.70053C3.19909 6.11444 3.34518 5.51434 3.72415 5.00942C4.26434 4.29066 4.98086 3.97215 5.6929 4.13673C6.33441 4.28563 6.83094 4.80679 6.95634 5.46509C7.02015 5.79984 6.93506 6.15809 6.72178 6.44749C6.40047 6.88356 5.97615 7.07837 5.55856 6.98377C5.18463 6.89868 4.89522 6.59584 4.82245 6.21183C4.74688 5.81607 5.00885 5.46677 5.38727 5.35537C5.71754 5.25853 5.51825 4.7508 5.2781 4.8023C4.59069 4.95008 4.13505 5.6179 4.26883 6.31706C4.38415 6.92107 4.84148 7.39858 5.43373 7.53292C6.07188 7.67847 6.72291 7.39689 7.17577 6.78169C7.48141 6.36577 7.60343 5.84741 7.50995 5.35928C7.34257 4.48211 6.67924 3.78631 5.81998 3.58759C4.89466 3.37319 3.94303 3.77847 3.27297 4.67076C2.79772 5.30443 2.61467 6.06293 2.75909 6.80744C2.77421 6.88581 2.79212 6.96306 2.81227 7.03919C3.07929 8.04119 3.80534 8.80193 4.80454 9.12604C5.83846 9.46191 6.95745 9.25369 7.79824 8.57019L7.87326 8.50861C8.24159 8.22592 8.63399 7.80945 8.9984 7.32244V6.31706H8.99897Z" fill="white"/>
<path fill-rule="evenodd" clip-rule="evenodd" d="M8.99897 11.6848C8.55842 10.9626 8.00815 10.3071 7.52394 9.93545L7.44221 9.86939C6.75089 9.30737 5.83005 9.13607 4.97862 9.4126C4.16526 9.67682 3.57413 10.2948 3.3575 11.1082C3.34071 11.172 3.3256 11.2364 3.31272 11.3019C3.19909 11.888 3.34518 12.488 3.72415 12.993C4.26434 13.7123 4.98086 14.0302 5.6929 13.8657C6.33441 13.7168 6.83094 13.1956 6.95634 12.5373C7.02015 12.2025 6.93506 11.8443 6.72178 11.5549C6.40047 11.1188 5.97615 10.924 5.55856 11.0186C5.18463 11.1037 4.89522 11.4065 4.82245 11.7906C4.74688 12.1863 5.00885 12.5356 5.38727 12.647C5.71754 12.7439 5.51825 13.2516 5.2781 13.2001C4.59069 13.0523 4.13505 12.3845 4.26883 11.6853C4.38415 11.0813 4.84148 10.6038 5.43373 10.4695C6.07188 10.3239 6.72291 10.6055 7.17577 11.2207C7.48141 11.6366 7.60343 12.155 7.50995 12.6431C7.34257 13.5203 6.67924 14.2161 5.81998 14.4148C4.89466 14.6292 3.94303 14.2239 3.27297 13.3316C2.79772 12.698 2.61467 11.9389 2.75909 11.195C2.77421 11.1166 2.79212 11.0393 2.81227 10.9632C3.07929 9.9612 3.80534 9.20044 4.80454 8.87633C5.83846 8.54046 6.95745 8.74871 7.79824 9.4322L7.87326 9.49378C8.24159 9.77647 8.63399 10.1929 8.9984 10.6799V11.6848H8.99897Z" fill="white"/>
<path fill-rule="evenodd" clip-rule="evenodd" d="M9 6.31706C9.44055 7.03918 9.99082 7.69468 10.475 8.06638L10.5568 8.13244C11.2481 8.69502 12.1689 8.86576 13.0203 8.58979C13.8337 8.32557 14.4248 7.70756 14.642 6.8942C14.6588 6.83039 14.6739 6.76602 14.6868 6.70053C14.8004 6.11444 14.6543 5.51434 14.2754 5.00942C13.7352 4.29066 13.0187 3.97215 12.3066 4.13673C11.6651 4.28563 11.1686 4.80679 11.0426 5.46509C10.9788 5.79984 11.0639 6.15809 11.2772 6.44749C11.5985 6.88356 12.0228 7.07837 12.4404 6.98377C12.8143 6.89868 13.1037 6.59584 13.1765 6.21183C13.2521 5.81607 12.9901 5.46677 12.6117 5.35537C12.2814 5.25853 12.4807 4.7508 12.7209 4.8023C13.4083 4.95008 13.8639 5.6179 13.7301 6.31706C13.6154 6.92107 13.1581 7.39858 12.5653 7.53292C11.9271 7.67847 11.2761 7.39689 10.8232 6.78169C10.5176 6.36577 10.3955 5.84741 10.489 5.35928C10.6564 4.48211 11.3203 3.78631 12.179 3.58759C13.1043 3.37319 14.0559 3.77847 14.726 4.67076C15.2018 5.30443 15.3843 6.06293 15.2399 6.80744C15.2248 6.88581 15.2068 6.96306 15.1867 7.03919C14.9197 8.04119 14.1936 8.80193 13.1944 9.12604C12.1605 9.46191 11.0415 9.25369 10.2007 8.57019L10.1257 8.50861C9.75739 8.22592 9.36498 7.80945 9.00056 7.32244V6.31706H9Z" fill="white"/>
<path fill-rule="evenodd" clip-rule="evenodd" d="M9 11.6848C9.44055 10.9626 9.99082 10.3071 10.475 9.93545L10.5568 9.86939C11.2481 9.30737 12.1689 9.13607 13.0203 9.4126C13.8337 9.67682 14.4248 10.2948 14.642 11.1082C14.6588 11.172 14.6739 11.2364 14.6868 11.3019C14.8004 11.888 14.6543 12.488 14.2754 12.993C13.7352 13.7123 13.0187 14.0302 12.3066 13.8657C11.6651 13.7168 11.1686 13.1956 11.0426 12.5373C10.9788 12.2025 11.0639 11.8443 11.2772 11.5549C11.5985 11.1188 12.0228 10.924 12.4404 11.0186C12.8143 11.1037 13.1037 11.4065 13.1765 11.7906C13.2521 12.1863 12.9901 12.5356 12.6117 12.647C12.2814 12.7439 12.4807 13.2516 12.7209 13.2001C13.4083 13.0523 13.8639 12.3845 13.7301 11.6853C13.6154 11.0813 13.1581 10.6038 12.5653 10.4695C11.9271 10.3239 11.2761 10.6055 10.8232 11.2207C10.5176 11.6366 10.3955 12.155 10.489 12.6431C10.6564 13.5203 11.3203 14.2161 12.179 14.4148C13.1043 14.6292 14.0559 14.2239 14.726 13.3316C15.2018 12.698 15.3843 11.9389 15.2399 11.195C15.2248 11.1166 15.2068 11.0393 15.1867 10.9632C14.9197 9.9612 14.1936 9.20044 13.1944 8.87633C12.1605 8.54046 11.0415 8.74871 10.2007 9.4322L10.1257 9.49378C9.75739 9.77647 9.36498 10.1929 9.00056 10.6799V11.6848H9Z" fill="white"/>
<path fill-rule="evenodd" clip-rule="evenodd" d="M9.00004 0.541012C8.77892 0.541012 8.5052 0.763255 8.42683 1.25194C8.26057 2.29034 8.67984 3.58677 9.00004 4.37942C9.32023 3.58677 9.73951 2.29034 9.57326 1.25194C9.49489 0.763255 9.22115 0.541012 9.00004 0.541012ZM9.00004 5.47267C8.85729 5.47267 8.72911 5.4055 8.67593 5.30362C8.62611 5.20734 7.45448 2.93016 7.73325 1.18588C7.86424 0.368044 8.46377 0.00195312 9.00004 0.00195312C9.5363 0.00195312 10.1353 0.368044 10.2663 1.18588C10.5456 2.93072 9.37397 5.20734 9.32359 5.30362C9.27041 5.4055 9.14222 5.47267 9.00004 5.47267Z" fill="white"/>
<path fill-rule="evenodd" clip-rule="evenodd" d="M9.00004 17.461C8.77892 17.461 8.5052 17.2387 8.42683 16.75C8.26057 15.7116 8.67984 14.4152 9.00004 13.6225C9.32023 14.4152 9.73951 15.7116 9.57326 16.75C9.49489 17.2387 9.22115 17.461 9.00004 17.461ZM9.00004 12.5293C8.85729 12.5293 8.72911 12.5965 8.67593 12.6984C8.62611 12.7946 7.45448 15.0713 7.73325 16.8161C7.86424 17.6339 8.46377 18 9.00004 18C9.5363 18 10.1353 17.6339 10.2663 16.8161C10.5456 15.0713 9.37397 12.7941 9.32359 12.6984C9.27041 12.5965 9.14222 12.5293 9.00004 12.5293Z" fill="white"/>
<path fill-rule="evenodd" clip-rule="evenodd" d="M0.539076 9.002C0.539076 9.22311 0.761862 9.49684 1.24999 9.57521C2.28838 9.74146 3.58484 9.32219 4.37749 9.002C3.58484 8.6818 2.28838 8.26253 1.24999 8.42879C0.761862 8.50716 0.539076 8.78088 0.539076 9.002ZM5.47074 9.002C5.47074 9.14474 5.40356 9.27294 5.30168 9.32612C5.2054 9.37594 2.92877 10.5481 1.18393 10.2688C0.366091 10.1378 0 9.53827 0 9.00256C0 8.46629 0.366091 7.86733 1.18393 7.73634C2.92877 7.45701 5.2054 8.62863 5.30168 8.67901C5.40412 8.73163 5.47074 8.85981 5.47074 9.002Z" fill="white"/>
<path fill-rule="evenodd" clip-rule="evenodd" d="M17.46 9.002C17.46 9.22311 17.2378 9.49684 16.7491 9.57521C15.7107 9.74146 14.4142 9.32219 13.6216 9.002C14.4142 8.6818 15.7107 8.26253 16.7491 8.42879C17.2378 8.50716 17.46 8.78088 17.46 9.002ZM12.5283 9.002C12.5283 9.14474 12.5955 9.27294 12.6974 9.32612C12.7937 9.37594 15.0703 10.5481 16.8151 10.2688C17.6335 10.1378 17.9996 9.53827 17.9996 9.00256C17.9996 8.46629 17.6335 7.86733 16.8151 7.73634C15.0703 7.45701 12.7937 8.62863 12.6974 8.67901C12.5955 8.73163 12.5283 8.85981 12.5283 9.002Z" fill="white"/>
</g>
<defs>
<clipPath id="clip0_959_7092">
<rect width="18" height="18" fill="white"/>
</clipPath>
</defs>
</svg>
