<svg width="18" height="18" viewBox="0 0 18 18" fill="none" xmlns="http://www.w3.org/2000/svg">
<g clip-path="url(#clip0_961_7145)">
<path d="M13.5002 12.5627C13.3802 12.5627 13.2677 12.5252 13.1627 12.4502C12.9152 12.2627 12.8627 11.9102 13.0502 11.6627C14.2277 10.0952 14.2277 7.9052 13.0502 6.3377C12.8627 6.0902 12.9152 5.7377 13.1627 5.5502C13.4102 5.3627 13.7627 5.4152 13.9502 5.6627C15.4202 7.6277 15.4202 10.3727 13.9502 12.3377C13.8377 12.4877 13.6727 12.5627 13.5002 12.5627Z" fill="#ECECEC"/>
<path d="M14.8723 14.4377C14.7523 14.4377 14.6398 14.4002 14.5348 14.3252C14.2873 14.1377 14.2348 13.7852 14.4223 13.5377C16.4248 10.8677 16.4248 7.1327 14.4223 4.4627C14.2348 4.2152 14.2873 3.8627 14.5348 3.6752C14.7823 3.4877 15.1348 3.5402 15.3223 3.7877C17.6248 6.85521 17.6248 11.1452 15.3223 14.2127C15.2173 14.3627 15.0448 14.4377 14.8723 14.4377Z" fill="#ECECEC"/>
<path d="M10.515 2.83528C9.675 2.37028 8.6025 2.49028 7.5075 3.17278L5.3175 4.54528C5.1675 4.63528 4.995 4.68778 4.8225 4.68778H4.125H3.75C1.935 4.68778 0.9375 5.68528 0.9375 7.50028V10.5003C0.9375 12.3153 1.935 13.3128 3.75 13.3128H4.125H4.8225C4.995 13.3128 5.1675 13.3653 5.3175 13.4553L7.5075 14.8278C8.1675 15.2403 8.8125 15.4428 9.4125 15.4428C9.8025 15.4428 10.1775 15.3528 10.515 15.1653C11.3475 14.7003 11.8125 13.7328 11.8125 12.4428V5.55778C11.8125 4.26778 11.3475 3.30028 10.515 2.83528Z" fill="#ECECEC"/>
</g>
<defs>
<clipPath id="clip0_961_7145">
<rect width="18" height="18" fill="white"/>
</clipPath>
</defs>
</svg>
