<svg xmlns="http://www.w3.org/2000/svg" width="20" height="20" viewBox="0 0 20 20" fill="none">
  <path d="M13.3304 17.4962V15.8299C13.3304 14.9461 12.9793 14.0984 12.3543 13.4734C11.7293 12.8484 10.8817 12.4973 9.9978 12.4973H4.99888C4.11501 12.4973 3.26735 12.8484 2.64236 13.4734C2.01737 14.0984 1.66626 14.9461 1.66626 15.8299V17.4962" stroke="#FBF6E6" stroke-opacity="0.6" stroke-width="1.16642" stroke-linecap="round" stroke-linejoin="round"/>
  <path d="M7.49839 9.16475C9.33894 9.16475 10.831 7.67268 10.831 5.83213C10.831 3.99158 9.33894 2.49951 7.49839 2.49951C5.65783 2.49951 4.16577 3.99158 4.16577 5.83213C4.16577 7.67268 5.65783 9.16475 7.49839 9.16475Z" stroke="#FBF6E6" stroke-opacity="0.6" stroke-width="1.16642" stroke-linecap="round" stroke-linejoin="round"/>
  <path d="M18.3293 17.4963V15.83C18.3287 15.0916 18.083 14.3743 17.6306 13.7907C17.1782 13.2071 16.5448 12.7903 15.8298 12.6057" stroke="#FBF6E6" stroke-opacity="0.6" stroke-width="1.16642" stroke-linecap="round" stroke-linejoin="round"/>
  <path d="M13.3306 2.60767C14.0474 2.79121 14.6828 3.20812 15.1365 3.79267C15.5903 4.37722 15.8366 5.09616 15.8366 5.83614C15.8366 6.57612 15.5903 7.29506 15.1365 7.87961C14.6828 8.46416 14.0474 8.88107 13.3306 9.06461" stroke="#FBF6E6" stroke-opacity="0.6" stroke-width="1.16642" stroke-linecap="round" stroke-linejoin="round"/>
</svg>