<svg xmlns="http://www.w3.org/2000/svg" width="20" height="20" viewBox="0 0 20 20" fill="none">
  <path d="M14.1637 11.6641L16.6632 14.4136C16.7774 14.53 16.8549 14.6774 16.8861 14.8375C16.9172 14.9976 16.9008 15.1633 16.8387 15.3141C16.7766 15.4649 16.6716 15.5941 16.5367 15.6858C16.4019 15.7775 16.2431 15.8276 16.08 15.8299H3.91593C3.75286 15.8276 3.59405 15.7775 3.45919 15.6858C3.32432 15.5941 3.21933 15.4649 3.15724 15.3141C3.09514 15.1633 3.07867 14.9976 3.10987 14.8375C3.14106 14.6774 3.21855 14.53 3.33273 14.4136L5.83219 11.6641H5.58224C5.41917 11.6619 5.26036 11.6118 5.1255 11.5201C4.99063 11.4284 4.88564 11.2991 4.82355 11.1483C4.76145 10.9975 4.74498 10.8318 4.77617 10.6717C4.80737 10.5116 4.88486 10.3642 4.99903 10.2478L7.4985 7.49838H7.33187C7.16169 7.51373 6.99092 7.47639 6.84268 7.39141C6.69444 7.30644 6.57591 7.17795 6.50316 7.02335C6.43041 6.86874 6.40695 6.69551 6.43596 6.52713C6.46497 6.35875 6.54505 6.20335 6.66534 6.08201L9.99796 2.49945L13.3306 6.08201C13.4509 6.20335 13.531 6.35875 13.56 6.52713C13.589 6.69551 13.5655 6.86874 13.4928 7.02335C13.42 7.17795 13.3015 7.30644 13.1532 7.39141C13.005 7.47639 12.8342 7.51373 12.6641 7.49838H12.4974L14.9969 10.2478C15.1111 10.3642 15.1886 10.5116 15.2197 10.6717C15.2509 10.8318 15.2345 10.9975 15.1724 11.1483C15.1103 11.2991 15.0053 11.4284 14.8704 11.5201C14.7356 11.6118 14.5767 11.6619 14.4137 11.6641H14.1637Z" stroke="#FBF6E6" stroke-opacity="0.6" stroke-width="1.16642" stroke-linecap="round" stroke-linejoin="round"/>
  <path d="M9.9978 18.3294V15.8299" stroke="#FBF6E6" stroke-opacity="0.6" stroke-width="1.16642" stroke-linecap="round" stroke-linejoin="round"/>
</svg>