<svg xmlns="http://www.w3.org/2000/svg" width="20" height="20" viewBox="0 0 20 20" fill="none">
  <path d="M1.66626 16.6631V9.99785C1.66626 9.55592 1.84182 9.13209 2.15431 8.81959C2.4668 8.5071 2.89064 8.33154 3.33257 8.33154H16.663C17.105 8.33154 17.5288 8.5071 17.8413 8.81959C18.1538 9.13209 18.3293 9.55592 18.3293 9.99785V16.6631" stroke="#FBF6E6" stroke-opacity="0.6" stroke-width="1.16642" stroke-linecap="round" stroke-linejoin="round"/>
  <path d="M3.33252 8.33154V4.99892C3.33252 4.55699 3.50808 4.13315 3.82057 3.82066C4.13306 3.50817 4.5569 3.33261 4.99883 3.33261H14.9967C15.4386 3.33261 15.8624 3.50817 16.1749 3.82066C16.4874 4.13315 16.663 4.55699 16.663 4.99892V8.33154" stroke="#FBF6E6" stroke-opacity="0.6" stroke-width="1.16642" stroke-linecap="round" stroke-linejoin="round"/>
  <path d="M9.9978 3.33261V8.33154" stroke="#FBF6E6" stroke-opacity="0.6" stroke-width="1.16642" stroke-linecap="round" stroke-linejoin="round"/>
  <path d="M1.66626 14.9968H18.3293" stroke="#FBF6E6" stroke-opacity="0.6" stroke-width="1.16642" stroke-linecap="round" stroke-linejoin="round"/>
</svg>