<svg width="16" height="16" viewBox="0 0 16 16" fill="none" xmlns="http://www.w3.org/2000/svg">
<g clip-path="url(#clip0_959_7065)">
<path fill-rule="evenodd" clip-rule="evenodd" d="M7.8568 4.00391C8.94041 4.00391 9.92171 4.45183 10.6319 5.17504C11.3421 5.89824 11.782 6.89752 11.782 8.001C11.782 9.10447 11.3421 10.1037 10.6319 10.827C9.92171 11.5502 8.94041 11.9981 7.8568 11.9981C6.77318 11.9981 5.79189 11.5502 5.08169 10.827C4.3715 10.1037 3.93164 9.10447 3.93164 8.001C3.93164 6.89752 4.3715 5.89824 5.08169 5.17504C5.79112 4.45105 6.77241 4.00391 7.8568 4.00391ZM9.82472 5.99623C9.32147 5.48376 8.62503 5.16648 7.8568 5.16648C7.0878 5.16648 6.39212 5.48376 5.88811 5.99623C5.38486 6.50947 5.07329 7.2179 5.07329 8.00021C5.07329 8.7833 5.38486 9.49174 5.88811 10.005C6.39212 10.5174 7.0878 10.8347 7.8568 10.8347C8.62579 10.8347 9.32147 10.5174 9.82472 10.005C10.3287 9.49174 10.6403 8.7833 10.6403 8.00021C10.6403 7.2179 10.3287 6.50947 9.82472 5.99623Z" fill="white"/>
<path fill-rule="evenodd" clip-rule="evenodd" d="M7.85716 0C8.55743 0 9.19126 0.289277 9.65021 0.756641C10.1092 1.22401 10.3932 1.86946 10.3932 2.58255C10.3932 3.29565 10.1092 3.94109 9.65021 4.40846H9.64792C9.18896 4.87582 8.55513 5.16511 7.85716 5.16511C7.15842 5.16511 6.5246 4.87582 6.06564 4.40846H6.06335C5.6044 3.94109 5.32031 3.29488 5.32031 2.58255C5.32031 1.87023 5.6044 1.22401 6.06335 0.756641L6.06412 0.757424C6.5246 0.289283 7.15842 0 7.85716 0ZM8.84303 1.57862C8.59103 1.32122 8.24203 1.16257 7.85639 1.16257C7.46922 1.16257 7.121 1.32121 6.86976 1.57628V1.57862C6.61776 1.83524 6.46121 2.19062 6.46121 2.58333C6.46121 2.97604 6.61699 3.33065 6.86976 3.58805L6.86824 3.58882C7.12024 3.84466 7.46999 4.00331 7.85563 4.00331C8.24128 4.00331 8.59103 3.84466 8.84303 3.58882L8.84226 3.58805C9.09427 3.33143 9.25082 2.97604 9.25082 2.58333C9.25158 2.19062 9.0958 1.83524 8.84303 1.57862Z" fill="white"/>
<path fill-rule="evenodd" clip-rule="evenodd" d="M2.30141 2.34259C2.79626 1.83868 3.44536 1.58594 4.09446 1.58594C4.74203 1.58594 5.39037 1.83868 5.88522 2.34259L5.88751 2.34492C6.38312 2.84961 6.63054 3.50906 6.63054 4.16928C6.63054 4.83027 6.38312 5.49126 5.88751 5.99518C5.39267 6.49987 4.7428 6.75183 4.09446 6.75183C3.44765 6.75183 2.79931 6.49987 2.30294 5.99518L2.30065 5.99285C1.80504 5.48738 1.55762 4.82716 1.55762 4.16849C1.55838 3.50827 1.80657 2.84728 2.30141 2.34259ZM4.09523 2.74851C3.73784 2.74851 3.38121 2.88771 3.10859 3.16455C2.83596 3.44139 2.70004 3.80534 2.70004 4.16928C2.70004 4.53399 2.8352 4.89792 3.1063 5.17399L3.10859 5.17632C3.37892 5.45239 3.73631 5.59003 4.09523 5.59003C4.45185 5.59003 4.80923 5.4516 5.08186 5.17399C5.35372 4.89714 5.49041 4.53321 5.49041 4.16928C5.49041 3.80456 5.35448 3.44062 5.08338 3.16378C4.81 2.88694 4.45262 2.74851 4.09523 2.74851Z" fill="white"/>
<path fill-rule="evenodd" clip-rule="evenodd" d="M0.000976562 8.00052C0.000976562 7.28742 0.285054 6.64199 0.744007 6.17462L0.74477 6.17539C1.20449 5.70725 1.83908 5.41797 2.53705 5.41797C3.23732 5.41797 3.87115 5.70726 4.3301 6.17462V6.17696C4.78906 6.64432 5.07314 7.28976 5.07314 8.00052C5.07314 8.71207 4.78906 9.35752 4.3301 9.82488V9.82722C3.87115 10.2946 3.23732 10.5839 2.53705 10.5839C1.83908 10.5839 1.20602 10.2946 0.745539 9.82722L0.743244 9.82488C0.285054 9.35674 0.000976562 8.71129 0.000976562 8.00052ZM1.55118 6.99658C1.29918 7.25321 1.14263 7.6086 1.14263 8.00131C1.14263 8.39557 1.29765 8.75018 1.54889 9.00603L1.55118 9.00835C1.80242 9.2642 2.15065 9.42206 2.53782 9.42206C2.92347 9.42206 3.27169 9.26343 3.52446 9.00603L3.52522 9.0068C3.77646 8.75018 3.93224 8.39479 3.93224 8.00131C3.93224 7.6086 3.77646 7.25244 3.52522 6.99581L3.52446 6.99658C3.27245 6.73996 2.92347 6.58055 2.53782 6.58055C2.15065 6.58055 1.80242 6.73919 1.55118 6.99426V6.99658Z" fill="white"/>
<path fill-rule="evenodd" clip-rule="evenodd" d="M2.30391 13.6573L2.30162 13.6549C1.80602 13.1495 1.55859 12.4893 1.55859 11.8306C1.55859 11.1696 1.80602 10.5086 2.30162 10.0047C2.79647 9.50077 3.44557 9.24805 4.09467 9.24805C4.74225 9.24805 5.39058 9.50077 5.88543 10.0047L5.88773 10.007C6.38333 10.5109 6.63075 11.1712 6.63075 11.8314C6.63075 12.4924 6.38333 13.1534 5.88773 13.6573C5.39288 14.162 4.74301 14.4139 4.09467 14.4139C3.44862 14.4139 2.80029 14.162 2.30391 13.6573ZM2.70025 11.8314C2.70025 12.1961 2.83542 12.56 3.10651 12.8361L3.1088 12.8384C3.37913 13.1145 3.73653 13.2521 4.09544 13.2521C4.45206 13.2521 4.80945 13.1137 5.08207 12.8361C5.35393 12.5593 5.49062 12.1953 5.49062 11.8314C5.49062 11.4667 5.35469 11.1027 5.0836 10.8259C4.81174 10.549 4.45435 10.4106 4.0962 10.4106C3.73881 10.4106 3.38219 10.5498 3.10956 10.8267C2.83618 11.1035 2.70025 11.4674 2.70025 11.8314Z" fill="white"/>
<path fill-rule="evenodd" clip-rule="evenodd" d="M7.85716 15.9999C7.15918 15.9999 6.52612 15.7106 6.06564 15.2432L6.06335 15.2409C5.6044 14.7728 5.32031 14.1273 5.32031 13.4165C5.32031 12.7034 5.6044 12.058 6.06335 11.5906H6.06564C6.5246 11.1233 7.15842 10.834 7.85716 10.834C8.5559 10.834 9.18896 11.1233 9.64792 11.5906H9.65021C10.1092 12.058 10.3932 12.7034 10.3932 13.4165C10.3932 14.1273 10.1092 14.7735 9.64944 15.2417L9.65021 15.2425C9.19126 15.7106 8.55666 15.9999 7.85716 15.9999ZM6.87053 14.4236C7.12101 14.6794 7.46999 14.8373 7.85716 14.8373C8.24204 14.8373 8.59103 14.6787 8.8438 14.4213H8.84608C9.09732 14.1654 9.25234 13.8108 9.25234 13.4165C9.25234 13.0238 9.09657 12.6692 8.8438 12.4118L8.84456 12.411C8.59255 12.1552 8.24357 11.9966 7.85716 11.9966C7.47075 11.9966 7.12177 12.1552 6.86976 12.411L6.87129 12.4118C6.61928 12.6685 6.46273 13.0238 6.46273 13.4165C6.46273 13.8108 6.61852 14.1654 6.86899 14.4213L6.87053 14.4236Z" fill="white"/>
<path fill-rule="evenodd" clip-rule="evenodd" d="M13.4117 13.6573C12.9161 14.162 12.267 14.4139 11.6179 14.4139C10.9711 14.4139 10.3227 14.162 9.82637 13.6573L9.82409 13.6549C9.32848 13.1495 9.08105 12.4893 9.08105 11.8306C9.08105 11.1696 9.32848 10.5086 9.82409 10.0047C10.3189 9.50077 10.9688 9.24805 11.6171 9.24805C12.2647 9.24805 12.9131 9.50077 13.4087 10.0047L13.4109 10.007C13.9058 10.5109 14.154 11.1712 14.154 11.8314C14.1547 12.4916 13.9066 13.1534 13.4117 13.6573ZM11.6179 13.2514C11.9753 13.2514 12.3319 13.1129 12.6045 12.8353C12.8764 12.5585 13.0131 12.1945 13.0131 11.8306C13.0131 11.4659 12.8772 11.102 12.6061 10.8251C12.3342 10.5483 11.9768 10.4098 11.6187 10.4098C11.262 10.4098 10.9047 10.549 10.632 10.8259C10.3602 11.1035 10.2235 11.4667 10.2235 11.8306C10.2235 12.1953 10.3586 12.5592 10.6297 12.8353L10.632 12.8376C10.9024 13.1137 11.2598 13.2514 11.6179 13.2514Z" fill="white"/>
<path fill-rule="evenodd" clip-rule="evenodd" d="M15.7118 7.99934C15.7118 8.71089 15.4277 9.35633 14.968 9.82447L14.9688 9.82526C14.5098 10.2926 13.876 10.5819 13.1757 10.5819C12.4755 10.5819 11.8416 10.2926 11.3827 9.82526V9.82292C10.9237 9.35555 10.6396 8.71011 10.6396 7.99857C10.6396 7.28703 10.9237 6.64236 11.3827 6.17499V6.17266C11.8416 5.70529 12.4762 5.41602 13.1757 5.41602C13.876 5.41602 14.5098 5.70529 14.9688 6.17266C15.4277 6.6408 15.7118 7.28702 15.7118 7.99934ZM14.1639 9.00406C14.4151 8.749 14.5702 8.39361 14.5702 7.99934C14.5702 7.60741 14.4136 7.25203 14.1616 6.99463C13.9096 6.73801 13.5606 6.57859 13.175 6.57859C12.7893 6.57859 12.4411 6.73723 12.1883 6.99463L12.1876 6.99385C11.9363 7.25047 11.7805 7.60585 11.7805 7.99934C11.7805 8.39283 11.9363 8.74822 12.1876 9.00485L12.1883 9.00406C12.4403 9.26069 12.7893 9.42011 13.175 9.42011C13.5606 9.42011 13.9088 9.26146 14.1616 9.00406H14.1639Z" fill="white"/>
<path fill-rule="evenodd" clip-rule="evenodd" d="M13.4117 2.34492C13.9066 2.84961 14.1547 3.50906 14.1547 4.16928C14.1547 4.83027 13.9066 5.49126 13.4117 5.99518C12.9161 6.49987 12.267 6.75183 11.6179 6.75183C10.9711 6.75183 10.3227 6.49987 9.82637 5.99518L9.82409 5.99285C9.32848 5.48738 9.08105 4.82716 9.08105 4.16849C9.08105 3.50749 9.32848 2.8465 9.82409 2.34259C10.3189 1.83868 10.9688 1.58594 11.6171 1.58594C12.2647 1.58594 12.9131 1.83868 13.4087 2.34259L13.4117 2.34492ZM13.0131 4.16928C13.0131 3.80456 12.8772 3.44062 12.6061 3.16378C12.3342 2.88772 11.9768 2.74929 11.6187 2.74929C11.262 2.74929 10.9047 2.8885 10.632 3.16534C10.3602 3.44218 10.2235 3.80611 10.2235 4.17005C10.2235 4.53476 10.3586 4.8987 10.6297 5.17477L10.632 5.17709C10.9031 5.45316 11.2597 5.5908 11.6187 5.5908C11.976 5.5908 12.3327 5.45239 12.6053 5.17477C12.8772 4.89637 13.0131 4.53244 13.0131 4.16928Z" fill="white"/>
</g>
<defs>
<clipPath id="clip0_959_7065">
<rect width="15.7121" height="16" fill="white"/>
</clipPath>
</defs>
</svg>
