<svg xmlns="http://www.w3.org/2000/svg" width="20" height="20" viewBox="0 0 20 20" fill="none">
  <path d="M13.3305 1.66632L11.4142 3.58258C10.9562 4.0498 10.6997 4.67796 10.6997 5.3322C10.6997 5.98644 10.9562 6.6146 11.4142 7.08182L12.9139 8.5815C13.3811 9.03947 14.0093 9.29599 14.6635 9.29599C15.3177 9.29599 15.9459 9.03947 16.4131 8.5815L18.3294 6.66525" stroke="#FBF6E6" stroke-opacity="0.6" stroke-width="1.16642" stroke-linecap="round" stroke-linejoin="round"/>
  <path d="M12.4974 12.4973L2.7495 2.74942C2.41698 3.07523 2.1528 3.46411 1.97246 3.8933C1.79211 4.32249 1.69922 4.78335 1.69922 5.24888C1.69922 5.71442 1.79211 6.17528 1.97246 6.60447C2.1528 7.03365 2.41698 7.42254 2.7495 7.74835L8.83153 13.8304C9.41474 14.4136 10.4978 14.4136 11.1644 13.8304L12.4974 12.4973ZM12.4974 12.4973L18.3295 18.3294" stroke="#FBF6E6" stroke-opacity="0.6" stroke-width="1.16642" stroke-linecap="round" stroke-linejoin="round"/>
  <path d="M1.74951 18.1628L7.0817 12.9139" stroke="#FBF6E6" stroke-opacity="0.6" stroke-width="1.16642" stroke-linecap="round" stroke-linejoin="round"/>
  <path d="M15.8299 4.16577L9.9978 9.99785" stroke="#FBF6E6" stroke-opacity="0.6" stroke-width="1.16642" stroke-linecap="round" stroke-linejoin="round"/>
</svg>