<svg xmlns="http://www.w3.org/2000/svg" width="18" height="18" viewBox="0 0 18 18" fill="none">
  <path d="M16.4821 12.6761V14.9237C16.4829 15.1323 16.4402 15.3388 16.3566 15.53C16.273 15.7212 16.1504 15.8928 15.9966 16.0339C15.8429 16.1749 15.6614 16.2823 15.4637 16.3491C15.2661 16.416 15.0566 16.4408 14.8488 16.422C12.5435 16.1715 10.329 15.3838 8.38342 14.1221C6.57327 12.9718 5.03858 11.4371 3.88834 9.62697C2.62221 7.67251 1.83427 5.44729 1.58836 3.13158C1.56963 2.9244 1.59426 2.7156 1.66065 2.51847C1.72705 2.32133 1.83377 2.14018 1.97401 1.98655C2.11425 1.83291 2.28495 1.71016 2.47523 1.62612C2.66551 1.54207 2.87121 1.49856 3.07923 1.49836H5.32677C5.69035 1.49479 6.04283 1.62354 6.3185 1.86062C6.59418 2.0977 6.77424 2.42693 6.82513 2.78695C6.91999 3.50622 7.09592 4.21244 7.34955 4.89215C7.45035 5.1603 7.47217 5.45172 7.41241 5.73189C7.35266 6.01206 7.21385 6.26923 7.01242 6.47292L6.06096 7.42438C7.12746 9.29999 8.68044 10.853 10.556 11.9195L11.5075 10.968C11.7112 10.7666 11.9684 10.6278 12.2485 10.568C12.5287 10.5083 12.8201 10.5301 13.0883 10.6309C13.768 10.8845 14.4742 11.0604 15.1935 11.1553C15.5574 11.2066 15.8898 11.3899 16.1273 11.6704C16.3649 11.9508 16.4912 12.3087 16.4821 12.6761Z" stroke="#C5A14A" stroke-width="1.04885" stroke-linecap="round" stroke-linejoin="round"/>
</svg>