<svg width="18" height="18" viewBox="0 0 18 18" fill="none" xmlns="http://www.w3.org/2000/svg">
<g clip-path="url(#clip0_959_7125)">
<path d="M12.0001 11.3751C11.9201 11.3751 11.8451 11.3501 11.7751 11.3001C11.6101 11.1751 11.5751 10.9401 11.7001 10.7751C12.4851 9.73014 12.4851 8.27014 11.7001 7.22514C11.5751 7.06014 11.6101 6.82514 11.7751 6.70014C11.9401 6.57514 12.1751 6.61014 12.3001 6.77514C13.2801 8.08514 13.2801 9.91514 12.3001 11.2251C12.2251 11.3251 12.1151 11.3751 12.0001 11.3751Z" fill="#ECECEC"/>
<path d="M12.9152 12.6251C12.8352 12.6251 12.7602 12.6001 12.6902 12.5501C12.5252 12.4251 12.4902 12.1901 12.6152 12.0251C13.9502 10.2451 13.9502 7.75514 12.6152 5.97514C12.4902 5.81014 12.5252 5.57514 12.6902 5.45014C12.8552 5.32514 13.0902 5.36014 13.2152 5.52514C14.7502 7.57014 14.7502 10.4301 13.2152 12.4751C13.1452 12.5751 13.0302 12.6251 12.9152 12.6251Z" fill="#ECECEC"/>
<path d="M10.01 4.89084C9.45 4.58084 8.735 4.66084 8.005 5.11584L6.545 6.03084C6.445 6.09084 6.33 6.12584 6.215 6.12584H5.75H5.5C4.29 6.12584 3.625 6.79084 3.625 8.00084V10.0008C3.625 11.2108 4.29 11.8758 5.5 11.8758H5.75H6.215C6.33 11.8758 6.445 11.9108 6.545 11.9708L8.005 12.8858C8.445 13.1608 8.875 13.2958 9.275 13.2958C9.535 13.2958 9.785 13.2358 10.01 13.1108C10.565 12.8008 10.875 12.1558 10.875 11.2958V6.70584C10.875 5.84584 10.565 5.20084 10.01 4.89084Z" fill="#ECECEC"/>
<circle cx="9" cy="9" r="9" fill="#D9D9D9" fill-opacity="0.1"/>
</g>
<defs>
<clipPath id="clip0_959_7125">
<rect width="18" height="18" fill="white"/>
</clipPath>
</defs>
</svg>
