<svg xmlns="http://www.w3.org/2000/svg" width="20" height="20" viewBox="0 0 20 20" fill="none">
  <path d="M8.27896 12.9139C8.20457 12.6256 8.05429 12.3624 7.84373 12.1519C7.63317 11.9413 7.37004 11.791 7.08171 11.7167L1.97031 10.3986C1.88311 10.3739 1.80635 10.3213 1.7517 10.249C1.69705 10.1767 1.66748 10.0885 1.66748 9.99786C1.66748 9.90721 1.69705 9.81903 1.7517 9.74671C1.80635 9.67438 1.88311 9.62186 1.97031 9.59711L7.08171 8.27823C7.36994 8.20391 7.633 8.05375 7.84355 7.84335C8.0541 7.63295 8.20444 7.36999 8.27896 7.08182L9.59701 1.97042C9.62151 1.88287 9.67398 1.80574 9.74641 1.75079C9.81884 1.69585 9.90726 1.66611 9.99817 1.66611C10.0891 1.66611 10.1775 1.69585 10.2499 1.75079C10.3224 1.80574 10.3748 1.88287 10.3993 1.97042L11.7165 7.08182C11.7909 7.37015 11.9412 7.63328 12.1518 7.84384C12.3623 8.05439 12.6255 8.20468 12.9138 8.27906L18.0252 9.59628C18.1131 9.62052 18.1906 9.67293 18.2458 9.74548C18.3011 9.81802 18.331 9.90668 18.331 9.99786C18.331 10.089 18.3011 10.1777 18.2458 10.2502C18.1906 10.3228 18.1131 10.3752 18.0252 10.3994L12.9138 11.7167C12.6255 11.791 12.3623 11.9413 12.1518 12.1519C11.9412 12.3624 11.7909 12.6256 11.7165 12.9139L10.3985 18.0253C10.374 18.1128 10.3215 18.19 10.2491 18.2449C10.1767 18.2999 10.0882 18.3296 9.99734 18.3296C9.90642 18.3296 9.81801 18.2999 9.74557 18.2449C9.67314 18.19 9.62067 18.1128 9.59617 18.0253L8.27896 12.9139Z" stroke="#FBF6E6" stroke-opacity="0.6" stroke-width="1.16642" stroke-linecap="round" stroke-linejoin="round"/>
  <path d="M16.6631 2.49945V5.83207" stroke="#FBF6E6" stroke-opacity="0.6" stroke-width="1.16642" stroke-linecap="round" stroke-linejoin="round"/>
  <path d="M18.3294 4.16577H14.9968" stroke="#FBF6E6" stroke-opacity="0.6" stroke-width="1.16642" stroke-linecap="round" stroke-linejoin="round"/>
  <path d="M3.33252 14.1636V15.8299" stroke="#FBF6E6" stroke-opacity="0.6" stroke-width="1.16642" stroke-linecap="round" stroke-linejoin="round"/>
  <path d="M4.16582 14.9968H2.49951" stroke="#FBF6E6" stroke-opacity="0.6" stroke-width="1.16642" stroke-linecap="round" stroke-linejoin="round"/>
</svg>