<svg xmlns="http://www.w3.org/2000/svg" width="20" height="20" viewBox="0 0 20 20" fill="none">
  <path d="M7.49844 2.49951H3.33267C2.87253 2.49951 2.49951 2.87253 2.49951 3.33267V7.49844C2.49951 7.95858 2.87253 8.33159 3.33267 8.33159H7.49844C7.95858 8.33159 8.33159 7.95858 8.33159 7.49844V3.33267C8.33159 2.87253 7.95858 2.49951 7.49844 2.49951Z" stroke="#FBF6E6" stroke-opacity="0.6" stroke-width="1.16642" stroke-linecap="round" stroke-linejoin="round"/>
  <path d="M16.663 2.49951H12.4972C12.0371 2.49951 11.6641 2.87253 11.6641 3.33267V7.49844C11.6641 7.95858 12.0371 8.33159 12.4972 8.33159H16.663C17.1231 8.33159 17.4961 7.95858 17.4961 7.49844V3.33267C17.4961 2.87253 17.1231 2.49951 16.663 2.49951Z" stroke="#FBF6E6" stroke-opacity="0.6" stroke-width="1.16642" stroke-linecap="round" stroke-linejoin="round"/>
  <path d="M16.663 11.6642H12.4972C12.0371 11.6642 11.6641 12.0372 11.6641 12.4973V16.6631C11.6641 17.1232 12.0371 17.4963 12.4972 17.4963H16.663C17.1231 17.4963 17.4961 17.1232 17.4961 16.6631V12.4973C17.4961 12.0372 17.1231 11.6642 16.663 11.6642Z" stroke="#FBF6E6" stroke-opacity="0.6" stroke-width="1.16642" stroke-linecap="round" stroke-linejoin="round"/>
  <path d="M7.49844 11.6642H3.33267C2.87253 11.6642 2.49951 12.0372 2.49951 12.4973V16.6631C2.49951 17.1232 2.87253 17.4963 3.33267 17.4963H7.49844C7.95858 17.4963 8.33159 17.1232 8.33159 16.6631V12.4973C8.33159 12.0372 7.95858 11.6642 7.49844 11.6642Z" stroke="#FBF6E6" stroke-opacity="0.6" stroke-width="1.16642" stroke-linecap="round" stroke-linejoin="round"/>
</svg>